<svg xmlns="http://www.w3.org/2000/svg" xmlns:xlink="http://www.w3.org/1999/xlink" version="1.1" class="marks" width="563" height="447" viewBox="0 0 563 447"><rect width="563" height="447" fill="white"/><g fill="none" stroke-miterlimit="10" transform="translate(39,10)"><g class="mark-group role-frame root" role="graphics-object" aria-roledescription="group mark container"><g transform="translate(0,0)"><path class="background" aria-hidden="true" d="M0.5,0.5h400v400h-400Z" stroke="#ddd"/><g><g class="mark-group role-axis" role="graphics-symbol" aria-roledescription="axis" aria-label="X-axis for a linear scale with values from 10,000 to 30,000"><g transform="translate(0.5,400.5)"><path class="background" aria-hidden="true" d="M0,0h0v0h0Z" pointer-events="none"/><g><g class="mark-rule role-axis-grid" pointer-events="none"><line transform="translate(0,-400)" x2="0" y2="400" stroke="#ddd" stroke-width="1" opacity="1"/><line transform="translate(40,-400)" x2="0" y2="400" stroke="#ddd" stroke-width="1" opacity="1"/><line transform="translate(80,-400)" x2="0" y2="400" stroke="#ddd" stroke-width="1" opacity="1"/><line transform="translate(120,-400)" x2="0" y2="400" stroke="#ddd" stroke-width="1" opacity="1"/><line transform="translate(160,-400)" x2="0" y2="400" stroke="#ddd" stroke-width="1" opacity="1"/><line transform="translate(200,-400)" x2="0" y2="400" stroke="#ddd" stroke-width="1" opacity="1"/><line transform="translate(240,-400)" x2="0" y2="400" stroke="#ddd" stroke-width="1" opacity="1"/><line transform="translate(280,-400)" x2="0" y2="400" stroke="#ddd" stroke-width="1" opacity="1"/><line transform="translate(320,-400)" x2="0" y2="400" stroke="#ddd" stroke-width="1" opacity="1"/><line transform="translate(360,-400)" x2="0" y2="400" stroke="#ddd" stroke-width="1" opacity="1"/><line transform="translate(400,-400)" x2="0" y2="400" stroke="#ddd" stroke-width="1" opacity="1"/></g></g><path class="foreground" aria-hidden="true" d="" pointer-events="none" display="none"/></g></g><g class="mark-group role-axis" role="graphics-symbol" aria-roledescription="axis" aria-label="Y-axis for a linear scale with values from 0 to 22"><g transform="translate(0.5,0.5)"><path class="background" aria-hidden="true" d="M0,0h0v0h0Z" pointer-events="none"/><g><g class="mark-rule role-axis-grid" pointer-events="none"><line transform="translate(0,400)" x2="400" y2="0" stroke="#ddd" stroke-width="1" opacity="1"/><line transform="translate(0,364)" x2="400" y2="0" stroke="#ddd" stroke-width="1" opacity="1"/><line transform="translate(0,327)" x2="400" y2="0" stroke="#ddd" stroke-width="1" opacity="1"/><line transform="translate(0,291)" x2="400" y2="0" stroke="#ddd" stroke-width="1" opacity="1"/><line transform="translate(0,255)" x2="400" y2="0" stroke="#ddd" stroke-width="1" opacity="1"/><line transform="translate(0,218)" x2="400" y2="0" stroke="#ddd" stroke-width="1" opacity="1"/><line transform="translate(0,182)" x2="400" y2="0" stroke="#ddd" stroke-width="1" opacity="1"/><line transform="translate(0,145)" x2="400" y2="0" stroke="#ddd" stroke-width="1" opacity="1"/><line transform="translate(0,109)" x2="400" y2="0" stroke="#ddd" stroke-width="1" opacity="1"/><line transform="translate(0,73)" x2="400" y2="0" stroke="#ddd" stroke-width="1" opacity="1"/><line transform="translate(0,36)" x2="400" y2="0" stroke="#ddd" stroke-width="1" opacity="1"/><line transform="translate(0,0)" x2="400" y2="0" stroke="#ddd" stroke-width="1" opacity="1"/></g></g><path class="foreground" aria-hidden="true" d="" pointer-events="none" display="none"/></g></g><g class="mark-group role-axis" role="graphics-symbol" aria-roledescription="axis" aria-label="X-axis titled 'Length_y' for a linear scale with values from 10,000 to 30,000"><g transform="translate(0.5,400.5)"><path class="background" aria-hidden="true" d="M0,0h0v0h0Z" pointer-events="none"/><g><g class="mark-rule role-axis-tick" pointer-events="none"><line transform="translate(0,0)" x2="0" y2="5" stroke="#888" stroke-width="1" opacity="1"/><line transform="translate(40,0)" x2="0" y2="5" stroke="#888" stroke-width="1" opacity="1"/><line transform="translate(80,0)" x2="0" y2="5" stroke="#888" stroke-width="1" opacity="1"/><line transform="translate(120,0)" x2="0" y2="5" stroke="#888" stroke-width="1" opacity="1"/><line transform="translate(160,0)" x2="0" y2="5" stroke="#888" stroke-width="1" opacity="1"/><line transform="translate(200,0)" x2="0" y2="5" stroke="#888" stroke-width="1" opacity="1"/><line transform="translate(240,0)" x2="0" y2="5" stroke="#888" stroke-width="1" opacity="1"/><line transform="translate(280,0)" x2="0" y2="5" stroke="#888" stroke-width="1" opacity="1"/><line transform="translate(320,0)" x2="0" y2="5" stroke="#888" stroke-width="1" opacity="1"/><line transform="translate(360,0)" x2="0" y2="5" stroke="#888" stroke-width="1" opacity="1"/><line transform="translate(400,0)" x2="0" y2="5" stroke="#888" stroke-width="1" opacity="1"/></g><g class="mark-text role-axis-label" pointer-events="none"><text text-anchor="start" transform="translate(0,15)" font-family="sans-serif" font-size="10px" fill="#000" opacity="1">10,000</text><text text-anchor="middle" transform="translate(40,15)" font-family="sans-serif" font-size="10px" fill="#000" opacity="0">12,000</text><text text-anchor="middle" transform="translate(80,15)" font-family="sans-serif" font-size="10px" fill="#000" opacity="1">14,000</text><text text-anchor="middle" transform="translate(120,15)" font-family="sans-serif" font-size="10px" fill="#000" opacity="0">16,000</text><text text-anchor="middle" transform="translate(160,15)" font-family="sans-serif" font-size="10px" fill="#000" opacity="1">18,000</text><text text-anchor="middle" transform="translate(200,15)" font-family="sans-serif" font-size="10px" fill="#000" opacity="0">20,000</text><text text-anchor="middle" transform="translate(240,15)" font-family="sans-serif" font-size="10px" fill="#000" opacity="1">22,000</text><text text-anchor="middle" transform="translate(280,15)" font-family="sans-serif" font-size="10px" fill="#000" opacity="0">24,000</text><text text-anchor="middle" transform="translate(320,15)" font-family="sans-serif" font-size="10px" fill="#000" opacity="1">26,000</text><text text-anchor="middle" transform="translate(360,15)" font-family="sans-serif" font-size="10px" fill="#000" opacity="0">28,000</text><text text-anchor="end" transform="translate(400,15)" font-family="sans-serif" font-size="10px" fill="#000" opacity="1">30,000</text></g><g class="mark-rule role-axis-domain" pointer-events="none"><line transform="translate(0,0)" x2="400" y2="0" stroke="#888" stroke-width="1" opacity="1"/></g><g class="mark-text role-axis-title" pointer-events="none"><text text-anchor="middle" transform="translate(200,30)" font-family="sans-serif" font-size="11px" font-weight="bold" fill="#000" opacity="1">Length_y</text></g></g><path class="foreground" aria-hidden="true" d="" pointer-events="none" display="none"/></g></g><g class="mark-group role-axis" role="graphics-symbol" aria-roledescription="axis" aria-label="Y-axis titled 'prediction, Length_x' for a linear scale with values from 0 to 22"><g transform="translate(0.5,0.5)"><path class="background" aria-hidden="true" d="M0,0h0v0h0Z" pointer-events="none"/><g><g class="mark-rule role-axis-tick" pointer-events="none"><line transform="translate(0,400)" x2="-5" y2="0" stroke="#888" stroke-width="1" opacity="1"/><line transform="translate(0,364)" x2="-5" y2="0" stroke="#888" stroke-width="1" opacity="1"/><line transform="translate(0,327)" x2="-5" y2="0" stroke="#888" stroke-width="1" opacity="1"/><line transform="translate(0,291)" x2="-5" y2="0" stroke="#888" stroke-width="1" opacity="1"/><line transform="translate(0,255)" x2="-5" y2="0" stroke="#888" stroke-width="1" opacity="1"/><line transform="translate(0,218)" x2="-5" y2="0" stroke="#888" stroke-width="1" opacity="1"/><line transform="translate(0,182)" x2="-5" y2="0" stroke="#888" stroke-width="1" opacity="1"/><line transform="translate(0,145)" x2="-5" y2="0" stroke="#888" stroke-width="1" opacity="1"/><line transform="translate(0,109)" x2="-5" y2="0" stroke="#888" stroke-width="1" opacity="1"/><line transform="translate(0,73)" x2="-5" y2="0" stroke="#888" stroke-width="1" opacity="1"/><line transform="translate(0,36)" x2="-5" y2="0" stroke="#888" stroke-width="1" opacity="1"/><line transform="translate(0,0)" x2="-5" y2="0" stroke="#888" stroke-width="1" opacity="1"/></g><g class="mark-text role-axis-label" pointer-events="none"><text text-anchor="end" transform="translate(-7,403)" font-family="sans-serif" font-size="10px" fill="#000" opacity="1">0</text><text text-anchor="end" transform="translate(-7,366.6363636363636)" font-family="sans-serif" font-size="10px" fill="#000" opacity="1">2</text><text text-anchor="end" transform="translate(-7,330.27272727272725)" font-family="sans-serif" font-size="10px" fill="#000" opacity="1">4</text><text text-anchor="end" transform="translate(-7,293.90909090909093)" font-family="sans-serif" font-size="10px" fill="#000" opacity="1">6</text><text text-anchor="end" transform="translate(-7,257.5454545454545)" font-family="sans-serif" font-size="10px" fill="#000" opacity="1">8</text><text text-anchor="end" transform="translate(-7,221.18181818181816)" font-family="sans-serif" font-size="10px" fill="#000" opacity="1">10</text><text text-anchor="end" transform="translate(-7,184.81818181818184)" font-family="sans-serif" font-size="10px" fill="#000" opacity="1">12</text><text text-anchor="end" transform="translate(-7,148.45454545454547)" font-family="sans-serif" font-size="10px" fill="#000" opacity="1">14</text><text text-anchor="end" transform="translate(-7,112.09090909090908)" font-family="sans-serif" font-size="10px" fill="#000" opacity="1">16</text><text text-anchor="end" transform="translate(-7,75.7272727272727)" font-family="sans-serif" font-size="10px" fill="#000" opacity="1">18</text><text text-anchor="end" transform="translate(-7,39.363636363636374)" font-family="sans-serif" font-size="10px" fill="#000" opacity="1">20</text><text text-anchor="end" transform="translate(-7,3)" font-family="sans-serif" font-size="10px" fill="#000" opacity="1">22</text></g><g class="mark-rule role-axis-domain" pointer-events="none"><line transform="translate(0,400)" x2="0" y2="-400" stroke="#888" stroke-width="1" opacity="1"/></g><g class="mark-text role-axis-title" pointer-events="none"><text text-anchor="middle" transform="translate(-22.123046875,200) rotate(-90) translate(0,-2)" font-family="sans-serif" font-size="11px" font-weight="bold" fill="#000" opacity="1">prediction, Length_x</text></g></g><path class="foreground" aria-hidden="true" d="" pointer-events="none" display="none"/></g></g><g class="mark-group role-scope layer_0_pathgroup" role="graphics-object" aria-roledescription="group mark container"><g transform="translate(0,0)"><path class="background" aria-hidden="true" d="M0,0h400v400h-400Z"/><g><g class="mark-line role-mark layer_0_marks" role="graphics-symbol" aria-roledescription="line mark container"><path d="M5.800000000000001,173.84348902275946L5.800000000000001,173.84348902275946L5.800000000000001,173.84348902275946L5.800000000000001,173.84348902275946L5.800000000000001,173.84348902275946L16.580000000000002,167.7681341448118L16.580000000000002,167.7681341448118L16.580000000000002,167.7681341448118L16.580000000000002,167.7681341448118L16.580000000000002,167.7681341448118L27.639999999999997,161.91136130161925L27.639999999999997,161.91136130161925L27.639999999999997,161.91136130161925L27.639999999999997,161.91136130161925L27.639999999999997,161.91136130161925L27.639999999999997,161.91136130161925L27.639999999999997,161.91136130161925L38.98,156.30212306703996L38.98,156.30212306703996L38.98,156.30212306703996L38.98,156.30212306703996L38.98,156.30212306703996L38.98,156.30212306703996L38.98,156.30212306703996L38.98,156.30212306703996L38.98,156.30212306703996L50.6,150.9701049914855L50.6,150.9701049914855L50.6,150.9701049914855L50.6,150.9701049914855L50.6,150.9701049914855L50.6,150.9701049914855L50.6,150.9701049914855L50.6,150.9701049914855L50.6,150.9701049914855L50.6,150.9701049914855L50.6,150.9701049914855L50.6,150.9701049914855L50.6,150.9701049914855L62.5,145.9457256019208L62.5,145.9457256019208L62.5,145.9457256019208L62.5,145.9457256019208L62.5,145.9457256019208L62.5,145.9457256019208L62.5,145.9457256019208L62.5,145.9457256019208L62.5,145.9457256019208L62.5,145.9457256019208L62.5,145.9457256019208L74.68,141.2601364018641L74.68,141.2601364018641L74.68,141.2601364018641L74.68,141.2601364018641L74.68,141.2601364018641L74.68,141.2601364018641L74.68,141.2601364018641L74.68,141.2601364018641L87.14,136.945221871387L87.14,136.945221871387L87.14,136.945221871387L87.14,136.945221871387L87.14,136.945221871387L87.14,136.945221871387L87.14,136.945221871387L87.14,136.945221871387L87.14,136.945221871387L87.14,136.945221871387L87.14,136.945221871387L87.14,136.945221871387L87.14,136.945221871387L87.14,136.945221871387L87.14,136.945221871387L99.88,133.03359946711478L99.88,133.03359946711478L99.88,133.03359946711478L99.88,133.03359946711478L99.88,133.03359946711478L112.9,129.55861962222554L112.9,129.55861962222554L112.9,129.55861962222554L112.9,129.55861962222554L112.9,129.55861962222554L112.9,129.55861962222554L112.9,129.55861962222554L112.9,129.55861962222554L112.9,129.55861962222554L112.9,129.55861962222554L112.9,129.55861962222554L112.9,129.55861962222554L112.9,129.55861962222554L126.2,126.55436574645127L126.2,126.55436574645127L126.2,126.55436574645127L126.2,126.55436574645127L126.2,126.55436574645127L126.2,126.55436574645127L126.2,126.55436574645127L126.2,126.55436574645127L126.2,126.55436574645127L139.78,124.05565422607711L139.78,124.05565422607711L153.64,122.09803442394147L153.64,122.09803442394147L167.78,120.71778867943634L167.78,120.71778867943634L167.78,120.71778867943634L167.78,120.71778867943634L196.9,119.838213603652L196.9,119.838213603652L196.9,119.838213603652L227.14,121.7218472449265L227.14,121.7218472449265L242.68,123.7983610588202L290.98,135.05705178773243L307.64,140.6268189658433L324.58,147.1770973059388L341.8,154.75223188949823L341.8,154.75223188949823" stroke="#f58518" stroke-width="2"/></g></g><path class="foreground" aria-hidden="true" d="" display="none"/></g><g transform="translate(0,0)"><path class="background" aria-hidden="true" d="M0,0h400v400h-400Z"/><g><g class="mark-line role-mark layer_0_marks" role="graphics-symbol" aria-roledescription="line mark container"><path d="M5.800000000000001,192.20612558813275L5.800000000000001,192.20612558813275L5.800000000000001,192.20612558813275L5.800000000000001,192.20612558813275L5.800000000000001,192.20612558813275L16.580000000000002,187.50882875643592L16.580000000000002,187.50882875643592L16.580000000000002,187.50882875643592L16.580000000000002,187.50882875643592L16.580000000000002,187.50882875643592L27.639999999999997,182.68397690520456L27.639999999999997,182.68397690520456L27.639999999999997,182.68397690520456L27.639999999999997,182.68397690520456L27.639999999999997,182.68397690520456L27.639999999999997,182.68397690520456L27.639999999999997,182.68397690520456L38.98,177.6879059622016L38.98,177.6879059622016L38.98,177.6879059622016L38.98,177.6879059622016L38.98,177.6879059622016L38.98,177.6879059622016L38.98,177.6879059622016L38.98,177.6879059622016L38.98,177.6879059622016L50.6,172.47756738476508L50.6,172.47756738476508L50.6,172.47756738476508L50.6,172.47756738476508L50.6,172.47756738476508L50.6,172.47756738476508L50.6,172.47756738476508L50.6,172.47756738476508L50.6,172.47756738476508L50.6,172.47756738476508L50.6,172.47756738476508L50.6,172.47756738476508L50.6,172.47756738476508L62.5,167.01191618662264L62.5,167.01191618662264L62.5,167.01191618662264L62.5,167.01191618662264L62.5,167.01191618662264L62.5,167.01191618662264L62.5,167.01191618662264L62.5,167.01191618662264L62.5,167.01191618662264L62.5,167.01191618662264L62.5,167.01191618662264L74.68,161.25348866359565L74.68,161.25348866359565L74.68,161.25348866359565L74.68,161.25348866359565L74.68,161.25348866359565L74.68,161.25348866359565L74.68,161.25348866359565L74.68,161.25348866359565L87.14,155.17018119087055L87.14,155.17018119087055L87.14,155.17018119087055L87.14,155.17018119087055L87.14,155.17018119087055L87.14,155.17018119087055L87.14,155.17018119087055L87.14,155.17018119087055L87.14,155.17018119087055L87.14,155.17018119087055L87.14,155.17018119087055L87.14,155.17018119087055L87.14,155.17018119087055L87.14,155.17018119087055L87.14,155.17018119087055L99.88,148.73724173855737L99.88,148.73724173855737L99.88,148.73724173855737L99.88,148.73724173855737L99.88,148.73724173855737L112.9,141.93948602629806L112.9,141.93948602629806L112.9,141.93948602629806L112.9,141.93948602629806L112.9,141.93948602629806L112.9,141.93948602629806L112.9,141.93948602629806L112.9,141.93948602629806L112.9,141.93948602629806L112.9,141.93948602629806L112.9,141.93948602629806L112.9,141.93948602629806L112.9,141.93948602629806L126.2,134.77375051172214L126.2,134.77375051172214L126.2,134.77375051172214L126.2,134.77375051172214L126.2,134.77375051172214L126.2,134.77375051172214L126.2,134.77375051172214L126.2,134.77375051172214L126.2,134.77375051172214L139.78,127.25159468159531L139.78,127.25159468159531L153.64,119.40226538854009L153.64,119.40226538854009L167.78,111.27593625025054L167.78,111.27593625025054L167.78,111.27593625025054L167.78,111.27593625025054L196.9,94.51907516860953L196.9,94.51907516860953L196.9,94.51907516860953L227.14,77.94264922920111L227.14,77.94264922920111L242.68,70.18060171423701L290.98,52.30402426142238L307.64,49.393786860761814L324.58,48.7960268335716L341.8,51.097433318096684L341.8,51.097433318096684" stroke="#72b7b2" stroke-width="2"/></g></g><path class="foreground" aria-hidden="true" d="" display="none"/></g><g transform="translate(0,0)"><path class="background" aria-hidden="true" d="M0,0h400v400h-400Z"/><g><g class="mark-line role-mark layer_0_marks" role="graphics-symbol" aria-roledescription="line mark container"><path d="M5.800000000000001,186.02839143255113L5.800000000000001,186.02839143255113L5.800000000000001,186.02839143255113L5.800000000000001,186.02839143255113L5.800000000000001,186.02839143255113L16.580000000000002,181.58489305762083L16.580000000000002,181.58489305762083L16.580000000000002,181.58489305762083L16.580000000000002,181.58489305762083L16.580000000000002,181.58489305762083L27.639999999999997,177.02597914048454L27.639999999999997,177.02597914048454L27.639999999999997,177.02597914048454L27.639999999999997,177.02597914048454L27.639999999999997,177.02597914048454L27.639999999999997,177.02597914048454L27.639999999999997,177.02597914048454L38.98,172.35164968114228L38.98,172.35164968114228L38.98,172.35164968114228L38.98,172.35164968114228L38.98,172.35164968114228L38.98,172.35164968114228L38.98,172.35164968114228L38.98,172.35164968114228L38.98,172.35164968114228L50.6,167.56190467959402L50.6,167.56190467959402L50.6,167.56190467959402L50.6,167.56190467959402L50.6,167.56190467959402L50.6,167.56190467959402L50.6,167.56190467959402L50.6,167.56190467959402L50.6,167.56190467959402L50.6,167.56190467959402L50.6,167.56190467959402L50.6,167.56190467959402L50.6,167.56190467959402L62.5,162.6567441358398L62.5,162.6567441358398L62.5,162.6567441358398L62.5,162.6567441358398L62.5,162.6567441358398L62.5,162.6567441358398L62.5,162.6567441358398L62.5,162.6567441358398L62.5,162.6567441358398L62.5,162.6567441358398L62.5,162.6567441358398L74.68,157.6361680498796L74.68,157.6361680498796L74.68,157.6361680498796L74.68,157.6361680498796L74.68,157.6361680498796L74.68,157.6361680498796L74.68,157.6361680498796L74.68,157.6361680498796L87.14,152.5001764217134L87.14,152.5001764217134L87.14,152.5001764217134L87.14,152.5001764217134L87.14,152.5001764217134L87.14,152.5001764217134L87.14,152.5001764217134L87.14,152.5001764217134L87.14,152.5001764217134L87.14,152.5001764217134L87.14,152.5001764217134L87.14,152.5001764217134L87.14,152.5001764217134L87.14,152.5001764217134L87.14,152.5001764217134L99.88,147.24876925134126L99.88,147.24876925134126L99.88,147.24876925134126L99.88,147.24876925134126L99.88,147.24876925134126L112.9,141.88194653876306L112.9,141.88194653876306L112.9,141.88194653876306L112.9,141.88194653876306L112.9,141.88194653876306L112.9,141.88194653876306L112.9,141.88194653876306L112.9,141.88194653876306L112.9,141.88194653876306L112.9,141.88194653876306L112.9,141.88194653876306L112.9,141.88194653876306L112.9,141.88194653876306L126.2,136.39970828397892L126.2,136.39970828397892L126.2,136.39970828397892L126.2,136.39970828397892L126.2,136.39970828397892L126.2,136.39970828397892L126.2,136.39970828397892L126.2,136.39970828397892L126.2,136.39970828397892L139.78,130.8020544869888L139.78,130.8020544869888L153.64,125.08898514779273L153.64,125.08898514779273L167.78,119.26050026639064L167.78,119.26050026639064L167.78,119.26050026639064L167.78,119.26050026639064L196.9,107.25728387696849L196.9,107.25728387696849L196.9,107.25728387696849L227.14,94.79240531872249L227.14,94.79240531872249L242.68,88.38684272629051L290.98,68.47766169575861L307.64,61.6104369345027L324.58,54.62779663104076L341.8,47.52974078537293L341.8,47.52974078537293" stroke="#eeca3b" stroke-width="2"/></g></g><path class="foreground" aria-hidden="true" d="" display="none"/></g><g transform="translate(0,0)"><path class="background" aria-hidden="true" d="M0,0h400v400h-400Z"/><g><g class="mark-line role-mark layer_0_marks" role="graphics-symbol" aria-roledescription="line mark container"><path d="M5.800000000000001,173.84348902275946L5.800000000000001,173.84348902275946L5.800000000000001,173.84348902275946L5.800000000000001,173.84348902275946L5.800000000000001,173.84348902275946L5.800000000000001,173.84348902275946L5.800000000000001,173.84348902275946L5.800000000000001,173.84348902275946L5.800000000000001,173.84348902275946L5.800000000000001,173.84348902275946L16.580000000000002,167.7681341448118L16.580000000000002,167.7681341448118L16.580000000000002,167.7681341448118L16.580000000000002,167.7681341448118L16.580000000000002,167.7681341448118L16.580000000000002,167.7681341448118L16.580000000000002,167.7681341448118L27.639999999999997,161.91136130161925L27.639999999999997,161.91136130161925L27.639999999999997,161.91136130161925L27.639999999999997,161.91136130161925L27.639999999999997,161.91136130161925L27.639999999999997,161.91136130161925L27.639999999999997,161.91136130161925L27.639999999999997,161.91136130161925L27.639999999999997,161.91136130161925L38.98,156.30212306703996L38.98,156.30212306703996L38.98,156.30212306703996L38.98,156.30212306703996L38.98,156.30212306703996L38.98,156.30212306703996L38.98,156.30212306703996L38.98,156.30212306703996L38.98,156.30212306703996L38.98,156.30212306703996L38.98,156.30212306703996L38.98,156.30212306703996L38.98,156.30212306703996L50.6,150.9701049914855L50.6,150.9701049914855L50.6,150.9701049914855L50.6,150.9701049914855L50.6,150.9701049914855L50.6,150.9701049914855L50.6,150.9701049914855L50.6,150.9701049914855L50.6,150.9701049914855L50.6,150.9701049914855L50.6,150.9701049914855L50.6,150.9701049914855L50.6,150.9701049914855L50.6,150.9701049914855L50.6,150.9701049914855L50.6,150.9701049914855L62.5,145.9457256019208L62.5,145.9457256019208L62.5,145.9457256019208L62.5,145.9457256019208L62.5,145.9457256019208L62.5,145.9457256019208L62.5,145.9457256019208L62.5,145.9457256019208L62.5,145.9457256019208L62.5,145.9457256019208L62.5,145.9457256019208L62.5,145.9457256019208L74.68,141.2601364018641L74.68,141.2601364018641L74.68,141.2601364018641L74.68,141.2601364018641L74.68,141.2601364018641L74.68,141.2601364018641L74.68,141.2601364018641L74.68,141.2601364018641L74.68,141.2601364018641L87.14,136.945221871387L87.14,136.945221871387L87.14,136.945221871387L87.14,136.945221871387L87.14,136.945221871387L99.88,133.03359946711478L99.88,133.03359946711478L99.88,133.03359946711478L99.88,133.03359946711478L99.88,133.03359946711478L99.88,133.03359946711478L99.88,133.03359946711478L99.88,133.03359946711478L99.88,133.03359946711478L112.9,129.55861962222554L112.9,129.55861962222554L112.9,129.55861962222554L112.9,129.55861962222554L112.9,129.55861962222554L112.9,129.55861962222554L112.9,129.55861962222554L112.9,129.55861962222554L112.9,129.55861962222554L112.9,129.55861962222554L126.2,126.55436574645127L126.2,126.55436574645127L139.78,124.05565422607711L139.78,124.05565422607711L167.78,120.71778867943634L167.78,120.71778867943634L167.78,120.71778867943634L182.20000000000002,119.95193230850698L182.20000000000002,119.95193230850698L196.9,119.838213603652L196.9,119.838213603652L196.9,119.838213603652L211.87999999999997,120.41511383392334L227.14,121.7218472449265L258.5,126.68533547431653L274.6,130.42418366668102L274.6,130.42418366668102L307.64,140.6268189658433L377.08,173.1581149956915" stroke="#e45756" stroke-width="2"/></g></g><path class="foreground" aria-hidden="true" d="" display="none"/></g><g transform="translate(0,0)"><path class="background" aria-hidden="true" d="M0,0h400v400h-400Z"/><g><g class="mark-line role-mark layer_0_marks" role="graphics-symbol" aria-roledescription="line mark container"><path d="M5.800000000000001,192.20612558813275L5.800000000000001,192.20612558813275L5.800000000000001,192.20612558813275L5.800000000000001,192.20612558813275L5.800000000000001,192.20612558813275L5.800000000000001,192.20612558813275L5.800000000000001,192.20612558813275L5.800000000000001,192.20612558813275L5.800000000000001,192.20612558813275L5.800000000000001,192.20612558813275L16.580000000000002,187.50882875643592L16.580000000000002,187.50882875643592L16.580000000000002,187.50882875643592L16.580000000000002,187.50882875643592L16.580000000000002,187.50882875643592L16.580000000000002,187.50882875643592L16.580000000000002,187.50882875643592L27.639999999999997,182.68397690520456L27.639999999999997,182.68397690520456L27.639999999999997,182.68397690520456L27.639999999999997,182.68397690520456L27.639999999999997,182.68397690520456L27.639999999999997,182.68397690520456L27.639999999999997,182.68397690520456L27.639999999999997,182.68397690520456L27.639999999999997,182.68397690520456L38.98,177.6879059622016L38.98,177.6879059622016L38.98,177.6879059622016L38.98,177.6879059622016L38.98,177.6879059622016L38.98,177.6879059622016L38.98,177.6879059622016L38.98,177.6879059622016L38.98,177.6879059622016L38.98,177.6879059622016L38.98,177.6879059622016L38.98,177.6879059622016L38.98,177.6879059622016L50.6,172.47756738476508L50.6,172.47756738476508L50.6,172.47756738476508L50.6,172.47756738476508L50.6,172.47756738476508L50.6,172.47756738476508L50.6,172.47756738476508L50.6,172.47756738476508L50.6,172.47756738476508L50.6,172.47756738476508L50.6,172.47756738476508L50.6,172.47756738476508L50.6,172.47756738476508L50.6,172.47756738476508L50.6,172.47756738476508L50.6,172.47756738476508L62.5,167.01191618662264L62.5,167.01191618662264L62.5,167.01191618662264L62.5,167.01191618662264L62.5,167.01191618662264L62.5,167.01191618662264L62.5,167.01191618662264L62.5,167.01191618662264L62.5,167.01191618662264L62.5,167.01191618662264L62.5,167.01191618662264L62.5,167.01191618662264L74.68,161.25348866359565L74.68,161.25348866359565L74.68,161.25348866359565L74.68,161.25348866359565L74.68,161.25348866359565L74.68,161.25348866359565L74.68,161.25348866359565L74.68,161.25348866359565L74.68,161.25348866359565L87.14,155.17018119087055L87.14,155.17018119087055L87.14,155.17018119087055L87.14,155.17018119087055L87.14,155.17018119087055L99.88,148.73724173855737L99.88,148.73724173855737L99.88,148.73724173855737L99.88,148.73724173855737L99.88,148.73724173855737L99.88,148.73724173855737L99.88,148.73724173855737L99.88,148.73724173855737L99.88,148.73724173855737L112.9,141.93948602629806L112.9,141.93948602629806L112.9,141.93948602629806L112.9,141.93948602629806L112.9,141.93948602629806L112.9,141.93948602629806L112.9,141.93948602629806L112.9,141.93948602629806L112.9,141.93948602629806L112.9,141.93948602629806L126.2,134.77375051172214L126.2,134.77375051172214L139.78,127.25159468159531L139.78,127.25159468159531L167.78,111.27593625025054L167.78,111.27593625025054L167.78,111.27593625025054L182.20000000000002,102.94723540216677L182.20000000000002,102.94723540216677L196.9,94.51907516860953L196.9,94.51907516860953L196.9,94.51907516860953L211.87999999999997,86.12679749142274L227.14,77.94264922920111L258.5,63.10152922834376L274.6,57.01876133276653L274.6,57.01876133276653L307.64,49.393786860761814L377.08,67.18446009175767" stroke="#54a24b" stroke-width="2"/></g></g><path class="foreground" aria-hidden="true" d="" display="none"/></g><g transform="translate(0,0)"><path class="background" aria-hidden="true" d="M0,0h400v400h-400Z"/><g><g class="mark-line role-mark layer_0_marks" role="graphics-symbol" aria-roledescription="line mark container"><path d="M5.800000000000001,186.02839143255113L5.800000000000001,186.02839143255113L5.800000000000001,186.02839143255113L5.800000000000001,186.02839143255113L5.800000000000001,186.02839143255113L5.800000000000001,186.02839143255113L5.800000000000001,186.02839143255113L5.800000000000001,186.02839143255113L5.800000000000001,186.02839143255113L5.800000000000001,186.02839143255113L16.580000000000002,181.58489305762083L16.580000000000002,181.58489305762083L16.580000000000002,181.58489305762083L16.580000000000002,181.58489305762083L16.580000000000002,181.58489305762083L16.580000000000002,181.58489305762083L16.580000000000002,181.58489305762083L27.639999999999997,177.02597914048454L27.639999999999997,177.02597914048454L27.639999999999997,177.02597914048454L27.639999999999997,177.02597914048454L27.639999999999997,177.02597914048454L27.639999999999997,177.02597914048454L27.639999999999997,177.02597914048454L27.639999999999997,177.02597914048454L27.639999999999997,177.02597914048454L38.98,172.35164968114228L38.98,172.35164968114228L38.98,172.35164968114228L38.98,172.35164968114228L38.98,172.35164968114228L38.98,172.35164968114228L38.98,172.35164968114228L38.98,172.35164968114228L38.98,172.35164968114228L38.98,172.35164968114228L38.98,172.35164968114228L38.98,172.35164968114228L38.98,172.35164968114228L50.6,167.56190467959402L50.6,167.56190467959402L50.6,167.56190467959402L50.6,167.56190467959402L50.6,167.56190467959402L50.6,167.56190467959402L50.6,167.56190467959402L50.6,167.56190467959402L50.6,167.56190467959402L50.6,167.56190467959402L50.6,167.56190467959402L50.6,167.56190467959402L50.6,167.56190467959402L50.6,167.56190467959402L50.6,167.56190467959402L50.6,167.56190467959402L62.5,162.6567441358398L62.5,162.6567441358398L62.5,162.6567441358398L62.5,162.6567441358398L62.5,162.6567441358398L62.5,162.6567441358398L62.5,162.6567441358398L62.5,162.6567441358398L62.5,162.6567441358398L62.5,162.6567441358398L62.5,162.6567441358398L62.5,162.6567441358398L74.68,157.6361680498796L74.68,157.6361680498796L74.68,157.6361680498796L74.68,157.6361680498796L74.68,157.6361680498796L74.68,157.6361680498796L74.68,157.6361680498796L74.68,157.6361680498796L74.68,157.6361680498796L87.14,152.5001764217134L87.14,152.5001764217134L87.14,152.5001764217134L87.14,152.5001764217134L87.14,152.5001764217134L99.88,147.24876925134126L99.88,147.24876925134126L99.88,147.24876925134126L99.88,147.24876925134126L99.88,147.24876925134126L99.88,147.24876925134126L99.88,147.24876925134126L99.88,147.24876925134126L99.88,147.24876925134126L112.9,141.88194653876306L112.9,141.88194653876306L112.9,141.88194653876306L112.9,141.88194653876306L112.9,141.88194653876306L112.9,141.88194653876306L112.9,141.88194653876306L112.9,141.88194653876306L112.9,141.88194653876306L112.9,141.88194653876306L126.2,136.39970828397892L126.2,136.39970828397892L139.78,130.8020544869888L139.78,130.8020544869888L167.78,119.26050026639064L167.78,119.26050026639064L167.78,119.26050026639064L182.20000000000002,113.31659984278258L182.20000000000002,113.31659984278258L196.9,107.25728387696849L196.9,107.25728387696849L196.9,107.25728387696849L211.87999999999997,101.08255236894847L227.14,94.79240531872249L258.5,81.86586459165252L274.6,75.22947091480856L274.6,75.22947091480856L307.64,61.6104369345027L377.08,32.98738246741921" stroke="#4c78a8" stroke-width="2"/></g></g><path class="foreground" aria-hidden="true" d="" display="none"/></g></g><g class="mark-line role-mark layer_1_marks" role="graphics-symbol" aria-roledescription="line mark container"><path d="M5.800000000000001,189.45454545454544L5.800000000000001,189.45454545454544L5.800000000000001,189.45454545454544L5.800000000000001,189.45454545454544L5.800000000000001,189.45454545454544L5.800000000000001,189.45454545454544L5.800000000000001,189.45454545454544L5.800000000000001,189.45454545454544L5.800000000000001,189.45454545454544L5.800000000000001,189.45454545454544L5.800000000000001,189.45454545454544L5.800000000000001,189.45454545454544L5.800000000000001,189.45454545454544L5.800000000000001,189.45454545454544L5.800000000000001,189.45454545454544L5.800000000000001,189.45454545454544L5.800000000000001,189.45454545454544L5.800000000000001,189.45454545454544L5.800000000000001,189.45454545454544L5.800000000000001,189.45454545454544L5.800000000000001,189.45454545454544L5.800000000000001,189.45454545454544L5.800000000000001,189.45454545454544L5.800000000000001,189.45454545454544L5.800000000000001,189.45454545454544L5.800000000000001,189.45454545454544L5.800000000000001,189.45454545454544L5.800000000000001,189.45454545454544L5.800000000000001,189.45454545454544L5.800000000000001,189.45454545454544L5.800000000000001,189.45454545454544L5.800000000000001,189.45454545454544L5.800000000000001,189.45454545454544L5.800000000000001,189.45454545454544L5.800000000000001,189.45454545454544L5.800000000000001,189.45454545454544L5.800000000000001,189.45454545454544L5.800000000000001,189.45454545454544L5.800000000000001,189.45454545454544L5.800000000000001,189.45454545454544L5.800000000000001,189.45454545454544L5.800000000000001,189.45454545454544L5.800000000000001,189.45454545454544L5.800000000000001,189.45454545454544L5.800000000000001,189.45454545454544L16.580000000000002,184L16.580000000000002,184L16.580000000000002,184L16.580000000000002,184L16.580000000000002,184L16.580000000000002,184L16.580000000000002,184L16.580000000000002,184L16.580000000000002,184L16.580000000000002,184L16.580000000000002,184L16.580000000000002,184L16.580000000000002,184L16.580000000000002,184L16.580000000000002,184L16.580000000000002,184L16.580000000000002,184L16.580000000000002,184L16.580000000000002,184L16.580000000000002,184L16.580000000000002,184L16.580000000000002,184L16.580000000000002,184L16.580000000000002,184L16.580000000000002,184L16.580000000000002,184L16.580000000000002,184L16.580000000000002,184L16.580000000000002,184L16.580000000000002,184L16.580000000000002,184L16.580000000000002,184L16.580000000000002,184L16.580000000000002,184L16.580000000000002,184L16.580000000000002,184L27.639999999999997,178.36363636363637L27.639999999999997,178.36363636363637L27.639999999999997,178.36363636363637L27.639999999999997,178.36363636363637L27.639999999999997,178.36363636363637L27.639999999999997,178.36363636363637L27.639999999999997,178.36363636363637L27.639999999999997,178.36363636363637L27.639999999999997,178.36363636363637L27.639999999999997,178.36363636363637L27.639999999999997,178.36363636363637L27.639999999999997,178.36363636363637L27.639999999999997,178.36363636363637L27.639999999999997,178.36363636363637L27.639999999999997,178.36363636363637L27.639999999999997,178.36363636363637L27.639999999999997,178.36363636363637L27.639999999999997,178.36363636363637L27.639999999999997,178.36363636363637L27.639999999999997,178.36363636363637L27.639999999999997,178.36363636363637L27.639999999999997,178.36363636363637L27.639999999999997,178.36363636363637L27.639999999999997,178.36363636363637L27.639999999999997,178.36363636363637L27.639999999999997,178.36363636363637L27.639999999999997,178.36363636363637L27.639999999999997,178.36363636363637L27.639999999999997,178.36363636363637L27.639999999999997,178.36363636363637L27.639999999999997,178.36363636363637L27.639999999999997,178.36363636363637L27.639999999999997,178.36363636363637L27.639999999999997,178.36363636363637L27.639999999999997,178.36363636363637L27.639999999999997,178.36363636363637L27.639999999999997,178.36363636363637L27.639999999999997,178.36363636363637L27.639999999999997,178.36363636363637L27.639999999999997,178.36363636363637L27.639999999999997,178.36363636363637L27.639999999999997,178.36363636363637L27.639999999999997,178.36363636363637L27.639999999999997,178.36363636363637L27.639999999999997,178.36363636363637L27.639999999999997,178.36363636363637L27.639999999999997,178.36363636363637L27.639999999999997,178.36363636363637L38.98,172.9090909090909L38.98,172.9090909090909L38.98,172.9090909090909L38.98,172.9090909090909L38.98,172.9090909090909L38.98,172.9090909090909L38.98,172.9090909090909L38.98,172.9090909090909L38.98,172.9090909090909L38.98,172.9090909090909L38.98,172.9090909090909L38.98,172.9090909090909L38.98,172.9090909090909L38.98,172.9090909090909L38.98,172.9090909090909L38.98,172.9090909090909L38.98,172.9090909090909L38.98,172.9090909090909L38.98,172.9090909090909L38.98,172.9090909090909L38.98,172.9090909090909L38.98,172.9090909090909L38.98,172.9090909090909L38.98,172.9090909090909L38.98,172.9090909090909L38.98,172.9090909090909L38.98,172.9090909090909L38.98,172.9090909090909L38.98,172.9090909090909L38.98,172.9090909090909L38.98,172.9090909090909L38.98,172.9090909090909L38.98,172.9090909090909L38.98,172.9090909090909L38.98,172.9090909090909L38.98,172.9090909090909L38.98,172.9090909090909L38.98,172.9090909090909L38.98,172.9090909090909L38.98,172.9090909090909L38.98,172.9090909090909L38.98,172.9090909090909L38.98,172.9090909090909L38.98,172.9090909090909L38.98,172.9090909090909L38.98,172.9090909090909L38.98,172.9090909090909L38.98,172.9090909090909L38.98,172.9090909090909L38.98,172.9090909090909L38.98,172.9090909090909L38.98,172.9090909090909L38.98,172.9090909090909L38.98,172.9090909090909L38.98,172.9090909090909L38.98,172.9090909090909L38.98,172.9090909090909L38.98,172.9090909090909L38.98,172.9090909090909L38.98,172.9090909090909L38.98,172.9090909090909L38.98,172.9090909090909L38.98,172.9090909090909L38.98,172.9090909090909L38.98,172.9090909090909L38.98,172.9090909090909L50.6,167.27272727272725L50.6,167.27272727272725L50.6,167.27272727272725L50.6,167.27272727272725L50.6,167.27272727272725L50.6,167.27272727272725L50.6,167.27272727272725L50.6,167.27272727272725L50.6,167.27272727272725L50.6,167.27272727272725L50.6,167.27272727272725L50.6,167.27272727272725L50.6,167.27272727272725L50.6,167.27272727272725L50.6,167.27272727272725L50.6,167.27272727272725L50.6,167.27272727272725L50.6,167.27272727272725L50.6,167.27272727272725L50.6,167.27272727272725L50.6,167.27272727272725L50.6,167.27272727272725L50.6,167.27272727272725L50.6,167.27272727272725L50.6,167.27272727272725L50.6,167.27272727272725L50.6,167.27272727272725L50.6,167.27272727272725L50.6,167.27272727272725L50.6,167.27272727272725L50.6,167.27272727272725L50.6,167.27272727272725L50.6,167.27272727272725L50.6,167.27272727272725L50.6,167.27272727272725L50.6,167.27272727272725L50.6,167.27272727272725L50.6,167.27272727272725L50.6,167.27272727272725L50.6,167.27272727272725L50.6,167.27272727272725L50.6,167.27272727272725L50.6,167.27272727272725L50.6,167.27272727272725L50.6,167.27272727272725L50.6,167.27272727272725L50.6,167.27272727272725L50.6,167.27272727272725L50.6,167.27272727272725L50.6,167.27272727272725L50.6,167.27272727272725L50.6,167.27272727272725L50.6,167.27272727272725L50.6,167.27272727272725L50.6,167.27272727272725L50.6,167.27272727272725L50.6,167.27272727272725L50.6,167.27272727272725L50.6,167.27272727272725L50.6,167.27272727272725L50.6,167.27272727272725L50.6,167.27272727272725L50.6,167.27272727272725L50.6,167.27272727272725L50.6,167.27272727272725L50.6,167.27272727272725L50.6,167.27272727272725L50.6,167.27272727272725L50.6,167.27272727272725L50.6,167.27272727272725L50.6,167.27272727272725L50.6,167.27272727272725L50.6,167.27272727272725L50.6,167.27272727272725L50.6,167.27272727272725L50.6,167.27272727272725L50.6,167.27272727272725L50.6,167.27272727272725L50.6,167.27272727272725L50.6,167.27272727272725L50.6,167.27272727272725L50.6,167.27272727272725L50.6,167.27272727272725L50.6,167.27272727272725L50.6,167.27272727272725L50.6,167.27272727272725L50.6,167.27272727272725L62.5,161.8181818181818L62.5,161.8181818181818L62.5,161.8181818181818L62.5,161.8181818181818L62.5,161.8181818181818L62.5,161.8181818181818L62.5,161.8181818181818L62.5,161.8181818181818L62.5,161.8181818181818L62.5,161.8181818181818L62.5,161.8181818181818L62.5,161.8181818181818L62.5,161.8181818181818L62.5,161.8181818181818L62.5,161.8181818181818L62.5,161.8181818181818L62.5,161.8181818181818L62.5,161.8181818181818L62.5,161.8181818181818L62.5,161.8181818181818L62.5,161.8181818181818L62.5,161.8181818181818L62.5,161.8181818181818L62.5,161.8181818181818L62.5,161.8181818181818L62.5,161.8181818181818L62.5,161.8181818181818L62.5,161.8181818181818L62.5,161.8181818181818L62.5,161.8181818181818L62.5,161.8181818181818L62.5,161.8181818181818L62.5,161.8181818181818L62.5,161.8181818181818L62.5,161.8181818181818L62.5,161.8181818181818L62.5,161.8181818181818L62.5,161.8181818181818L62.5,161.8181818181818L62.5,161.8181818181818L62.5,161.8181818181818L62.5,161.8181818181818L62.5,161.8181818181818L62.5,161.8181818181818L62.5,161.8181818181818L62.5,161.8181818181818L62.5,161.8181818181818L62.5,161.8181818181818L62.5,161.8181818181818L62.5,161.8181818181818L62.5,161.8181818181818L62.5,161.8181818181818L62.5,161.8181818181818L62.5,161.8181818181818L62.5,161.8181818181818L62.5,161.8181818181818L62.5,161.8181818181818L62.5,161.8181818181818L62.5,161.8181818181818L62.5,161.8181818181818L62.5,161.8181818181818L62.5,161.8181818181818L62.5,161.8181818181818L62.5,161.8181818181818L62.5,161.8181818181818L62.5,161.8181818181818L62.5,161.8181818181818L62.5,161.8181818181818L62.5,161.8181818181818L74.68,156.1818181818182L74.68,156.1818181818182L74.68,156.1818181818182L74.68,156.1818181818182L74.68,156.1818181818182L74.68,156.1818181818182L74.68,156.1818181818182L74.68,156.1818181818182L74.68,156.1818181818182L74.68,156.1818181818182L74.68,156.1818181818182L74.68,156.1818181818182L74.68,156.1818181818182L74.68,156.1818181818182L74.68,156.1818181818182L74.68,156.1818181818182L74.68,156.1818181818182L74.68,156.1818181818182L74.68,156.1818181818182L74.68,156.1818181818182L74.68,156.1818181818182L74.68,156.1818181818182L74.68,156.1818181818182L74.68,156.1818181818182L74.68,156.1818181818182L74.68,156.1818181818182L74.68,156.1818181818182L74.68,156.1818181818182L74.68,156.1818181818182L74.68,156.1818181818182L74.68,156.1818181818182L74.68,156.1818181818182L74.68,156.1818181818182L74.68,156.1818181818182L74.68,156.1818181818182L74.68,156.1818181818182L74.68,156.1818181818182L74.68,156.1818181818182L74.68,156.1818181818182L74.68,156.1818181818182L74.68,156.1818181818182L74.68,156.1818181818182L74.68,156.1818181818182L74.68,156.1818181818182L74.68,156.1818181818182L74.68,156.1818181818182L74.68,156.1818181818182L74.68,156.1818181818182L74.68,156.1818181818182L74.68,156.1818181818182L74.68,156.1818181818182L87.14,150.72727272727272L87.14,150.72727272727272L87.14,150.72727272727272L87.14,150.72727272727272L87.14,150.72727272727272L87.14,150.72727272727272L87.14,150.72727272727272L87.14,150.72727272727272L87.14,150.72727272727272L87.14,150.72727272727272L87.14,150.72727272727272L87.14,150.72727272727272L87.14,150.72727272727272L87.14,150.72727272727272L87.14,150.72727272727272L87.14,150.72727272727272L87.14,150.72727272727272L87.14,150.72727272727272L87.14,150.72727272727272L87.14,150.72727272727272L87.14,150.72727272727272L87.14,150.72727272727272L87.14,150.72727272727272L87.14,150.72727272727272L87.14,150.72727272727272L87.14,150.72727272727272L87.14,150.72727272727272L87.14,150.72727272727272L87.14,150.72727272727272L87.14,150.72727272727272L87.14,150.72727272727272L87.14,150.72727272727272L87.14,150.72727272727272L87.14,150.72727272727272L87.14,150.72727272727272L87.14,150.72727272727272L87.14,150.72727272727272L87.14,150.72727272727272L87.14,150.72727272727272L87.14,150.72727272727272L87.14,150.72727272727272L87.14,150.72727272727272L87.14,150.72727272727272L87.14,150.72727272727272L87.14,150.72727272727272L87.14,150.72727272727272L87.14,150.72727272727272L87.14,150.72727272727272L87.14,150.72727272727272L87.14,150.72727272727272L87.14,150.72727272727272L87.14,150.72727272727272L87.14,150.72727272727272L87.14,150.72727272727272L87.14,150.72727272727272L87.14,150.72727272727272L87.14,150.72727272727272L87.14,150.72727272727272L87.14,150.72727272727272L87.14,150.72727272727272L99.88,145.09090909090912L99.88,145.09090909090912L99.88,145.09090909090912L99.88,145.09090909090912L99.88,145.09090909090912L99.88,145.09090909090912L99.88,145.09090909090912L99.88,145.09090909090912L99.88,145.09090909090912L99.88,145.09090909090912L99.88,145.09090909090912L99.88,145.09090909090912L99.88,145.09090909090912L99.88,145.09090909090912L99.88,145.09090909090912L99.88,145.09090909090912L99.88,145.09090909090912L99.88,145.09090909090912L99.88,145.09090909090912L99.88,145.09090909090912L99.88,145.09090909090912L99.88,145.09090909090912L99.88,145.09090909090912L99.88,145.09090909090912L99.88,145.09090909090912L99.88,145.09090909090912L99.88,145.09090909090912L99.88,145.09090909090912L99.88,145.09090909090912L99.88,145.09090909090912L99.88,145.09090909090912L99.88,145.09090909090912L99.88,145.09090909090912L99.88,145.09090909090912L99.88,145.09090909090912L99.88,145.09090909090912L99.88,145.09090909090912L99.88,145.09090909090912L99.88,145.09090909090912L99.88,145.09090909090912L99.88,145.09090909090912L99.88,145.09090909090912L112.9,139.63636363636365L112.9,139.63636363636365L112.9,139.63636363636365L112.9,139.63636363636365L112.9,139.63636363636365L112.9,139.63636363636365L112.9,139.63636363636365L112.9,139.63636363636365L112.9,139.63636363636365L112.9,139.63636363636365L112.9,139.63636363636365L112.9,139.63636363636365L112.9,139.63636363636365L112.9,139.63636363636365L112.9,139.63636363636365L112.9,139.63636363636365L112.9,139.63636363636365L112.9,139.63636363636365L112.9,139.63636363636365L112.9,139.63636363636365L112.9,139.63636363636365L112.9,139.63636363636365L112.9,139.63636363636365L112.9,139.63636363636365L112.9,139.63636363636365L112.9,139.63636363636365L112.9,139.63636363636365L112.9,139.63636363636365L112.9,139.63636363636365L112.9,139.63636363636365L112.9,139.63636363636365L112.9,139.63636363636365L112.9,139.63636363636365L112.9,139.63636363636365L112.9,139.63636363636365L112.9,139.63636363636365L112.9,139.63636363636365L112.9,139.63636363636365L112.9,139.63636363636365L112.9,139.63636363636365L112.9,139.63636363636365L112.9,139.63636363636365L112.9,139.63636363636365L112.9,139.63636363636365L112.9,139.63636363636365L112.9,139.63636363636365L112.9,139.63636363636365L112.9,139.63636363636365L112.9,139.63636363636365L112.9,139.63636363636365L112.9,139.63636363636365L112.9,139.63636363636365L112.9,139.63636363636365L112.9,139.63636363636365L112.9,139.63636363636365L112.9,139.63636363636365L112.9,139.63636363636365L112.9,139.63636363636365L112.9,139.63636363636365L112.9,139.63636363636365L112.9,139.63636363636365L112.9,139.63636363636365L112.9,139.63636363636365L112.9,139.63636363636365L112.9,139.63636363636365L112.9,139.63636363636365L112.9,139.63636363636365L112.9,139.63636363636365L112.9,139.63636363636365L126.2,134L126.2,134L126.2,134L126.2,134L126.2,134L126.2,134L126.2,134L126.2,134L126.2,134L126.2,134L126.2,134L126.2,134L126.2,134L126.2,134L126.2,134L126.2,134L126.2,134L126.2,134L126.2,134L126.2,134L126.2,134L126.2,134L126.2,134L126.2,134L126.2,134L126.2,134L126.2,134L126.2,134L126.2,134L126.2,134L126.2,134L126.2,134L126.2,134L139.78,128.54545454545456L139.78,128.54545454545456L139.78,128.54545454545456L139.78,128.54545454545456L139.78,128.54545454545456L139.78,128.54545454545456L139.78,128.54545454545456L139.78,128.54545454545456L139.78,128.54545454545456L139.78,128.54545454545456L139.78,128.54545454545456L139.78,128.54545454545456L153.64,122.9090909090909L153.64,122.9090909090909L153.64,122.9090909090909L153.64,122.9090909090909L153.64,122.9090909090909L153.64,122.9090909090909L167.78,117.45454545454548L167.78,117.45454545454548L167.78,117.45454545454548L167.78,117.45454545454548L167.78,117.45454545454548L167.78,117.45454545454548L167.78,117.45454545454548L167.78,117.45454545454548L167.78,117.45454545454548L167.78,117.45454545454548L167.78,117.45454545454548L167.78,117.45454545454548L167.78,117.45454545454548L167.78,117.45454545454548L167.78,117.45454545454548L167.78,117.45454545454548L167.78,117.45454545454548L167.78,117.45454545454548L167.78,117.45454545454548L167.78,117.45454545454548L167.78,117.45454545454548L182.20000000000002,112.00000000000001L182.20000000000002,112.00000000000001L182.20000000000002,112.00000000000001L182.20000000000002,112.00000000000001L182.20000000000002,112.00000000000001L182.20000000000002,112.00000000000001L196.9,106.36363636363639L196.9,106.36363636363639L196.9,106.36363636363639L196.9,106.36363636363639L196.9,106.36363636363639L196.9,106.36363636363639L196.9,106.36363636363639L196.9,106.36363636363639L196.9,106.36363636363639L196.9,106.36363636363639L196.9,106.36363636363639L196.9,106.36363636363639L196.9,106.36363636363639L196.9,106.36363636363639L196.9,106.36363636363639L196.9,106.36363636363639L196.9,106.36363636363639L196.9,106.36363636363639L211.87999999999997,100.90909090909092L211.87999999999997,100.90909090909092L211.87999999999997,100.90909090909092L227.14,95.27272727272727L227.14,95.27272727272727L227.14,95.27272727272727L227.14,95.27272727272727L227.14,95.27272727272727L227.14,95.27272727272727L227.14,95.27272727272727L227.14,95.27272727272727L227.14,95.27272727272727L242.68,89.81818181818184L242.68,89.81818181818184L242.68,89.81818181818184L258.5,84.18181818181819L258.5,84.18181818181819L258.5,84.18181818181819L274.6,78.72727272727272L274.6,78.72727272727272L274.6,78.72727272727272L274.6,78.72727272727272L274.6,78.72727272727272L274.6,78.72727272727272L290.98,73.0909090909091L290.98,73.0909090909091L290.98,73.0909090909091L307.64,67.63636363636363L307.64,67.63636363636363L307.64,67.63636363636363L307.64,67.63636363636363L307.64,67.63636363636363L307.64,67.63636363636363L324.58,62.000000000000014L324.58,62.000000000000014L324.58,62.000000000000014L341.8,56.54545454545455L341.8,56.54545454545455L341.8,56.54545454545455L341.8,56.54545454545455L341.8,56.54545454545455L341.8,56.54545454545455L377.08,45.45454545454546L377.08,45.45454545454546L377.08,45.45454545454546" stroke="gray" stroke-width="2"/></g><g class="mark-group role-legend" role="graphics-symbol" aria-roledescription="legend" aria-label="Symbol legend titled 'contexte' for stroke color with 6 values: LinearTrainSup10k, Poly2TestSup10k, Poly2TrainSup10k, Poly4TestSup10k, Poly4TrainSup10k, linearTestSup10k"><g transform="translate(418,0)"><path class="background" aria-hidden="true" d="M0,0h101v92h-101Z" pointer-events="none"/><g><g class="mark-group role-legend-entry"><g transform="translate(0,16)"><path class="background" aria-hidden="true" d="M0,0h0v0h0Z" pointer-events="none"/><g><g class="mark-group role-scope" role="graphics-object" aria-roledescription="group mark container"><g transform="translate(0,0)"><path class="background" aria-hidden="true" d="M0,0h100.1259765625v11h-100.1259765625Z" pointer-events="none" opacity="1"/><g><g class="mark-symbol role-legend-symbol" pointer-events="none"><path transform="translate(6,6)" d="M-5,0L5,0" stroke="#4c78a8" stroke-width="1.5" opacity="1"/></g><g class="mark-text role-legend-label" pointer-events="none"><text text-anchor="start" transform="translate(16,9)" font-family="sans-serif" font-size="10px" fill="#000" opacity="1">LinearTrainSup10k</text></g></g><path class="foreground" aria-hidden="true" d="" pointer-events="none" display="none"/></g><g transform="translate(0,13)"><path class="background" aria-hidden="true" d="M0,0h100.1259765625v11h-100.1259765625Z" pointer-events="none" opacity="1"/><g><g class="mark-symbol role-legend-symbol" pointer-events="none"><path transform="translate(6,6)" d="M-5,0L5,0" stroke="#f58518" stroke-width="1.5" opacity="1"/></g><g class="mark-text role-legend-label" pointer-events="none"><text text-anchor="start" transform="translate(16,9)" font-family="sans-serif" font-size="10px" fill="#000" opacity="1">Poly2TestSup10k</text></g></g><path class="foreground" aria-hidden="true" d="" pointer-events="none" display="none"/></g><g transform="translate(0,26)"><path class="background" aria-hidden="true" d="M0,0h100.1259765625v11h-100.1259765625Z" pointer-events="none" opacity="1"/><g><g class="mark-symbol role-legend-symbol" pointer-events="none"><path transform="translate(6,6)" d="M-5,0L5,0" stroke="#e45756" stroke-width="1.5" opacity="1"/></g><g class="mark-text role-legend-label" pointer-events="none"><text text-anchor="start" transform="translate(16,9)" font-family="sans-serif" font-size="10px" fill="#000" opacity="1">Poly2TrainSup10k</text></g></g><path class="foreground" aria-hidden="true" d="" pointer-events="none" display="none"/></g><g transform="translate(0,39)"><path class="background" aria-hidden="true" d="M0,0h100.1259765625v11h-100.1259765625Z" pointer-events="none" opacity="1"/><g><g class="mark-symbol role-legend-symbol" pointer-events="none"><path transform="translate(6,6)" d="M-5,0L5,0" stroke="#72b7b2" stroke-width="1.5" opacity="1"/></g><g class="mark-text role-legend-label" pointer-events="none"><text text-anchor="start" transform="translate(16,9)" font-family="sans-serif" font-size="10px" fill="#000" opacity="1">Poly4TestSup10k</text></g></g><path class="foreground" aria-hidden="true" d="" pointer-events="none" display="none"/></g><g transform="translate(0,52)"><path class="background" aria-hidden="true" d="M0,0h100.1259765625v11h-100.1259765625Z" pointer-events="none" opacity="1"/><g><g class="mark-symbol role-legend-symbol" pointer-events="none"><path transform="translate(6,6)" d="M-5,0L5,0" stroke="#54a24b" stroke-width="1.5" opacity="1"/></g><g class="mark-text role-legend-label" pointer-events="none"><text text-anchor="start" transform="translate(16,9)" font-family="sans-serif" font-size="10px" fill="#000" opacity="1">Poly4TrainSup10k</text></g></g><path class="foreground" aria-hidden="true" d="" pointer-events="none" display="none"/></g><g transform="translate(0,65)"><path class="background" aria-hidden="true" d="M0,0h100.1259765625v11h-100.1259765625Z" pointer-events="none" opacity="1"/><g><g class="mark-symbol role-legend-symbol" pointer-events="none"><path transform="translate(6,6)" d="M-5,0L5,0" stroke="#eeca3b" stroke-width="1.5" opacity="1"/></g><g class="mark-text role-legend-label" pointer-events="none"><text text-anchor="start" transform="translate(16,9)" font-family="sans-serif" font-size="10px" fill="#000" opacity="1">linearTestSup10k</text></g></g><path class="foreground" aria-hidden="true" d="" pointer-events="none" display="none"/></g></g></g><path class="foreground" aria-hidden="true" d="" pointer-events="none" display="none"/></g></g><g class="mark-text role-legend-title" pointer-events="none"><text text-anchor="start" transform="translate(0,9)" font-family="sans-serif" font-size="11px" font-weight="bold" fill="#000" opacity="1">contexte</text></g></g><path class="foreground" aria-hidden="true" d="" pointer-events="none" display="none"/></g></g></g><path class="foreground" aria-hidden="true" d="" display="none"/></g></g></g></svg>