<svg version="1.1" xmlns="http://www.w3.org/2000/svg" xmlns:xlink="http://www.w3.org/1999/xlink" width="1093" height="709"><defs/><g><g transform="translate(-22,-38) scale(1,1)"><path fill="#f8a9cc" stroke="#000000" d="M 920 446 C 920 442.6862912 949.9742921679688 440 986.949462890625 440 C 1023.9246336132812 440 1053.89892578125 442.6862912 1053.89892578125 446 L 1053.89892578125 482 C 1053.89892578125 485.3137088 1023.9246336132812 488 986.949462890625 488 C 949.9742921679688 488 920 485.3137088 920 482 L 920 446 Z" stroke-miterlimit="10"/></g><g transform="translate(-22,-38) scale(1,1)"><path fill="none" stroke="#000000" d="M 920 446 C 920 449.3137088 949.9742921679688 452 986.949462890625 452 C 1023.9246336132812 452 1053.89892578125 449.3137088 1053.89892578125 446" stroke-miterlimit="10"/></g><g transform="translate(-22,-38) scale(1,1)"><g><path fill="none" stroke="none"/><text fill="#000000" stroke="none" font-family="Arial" font-size="13px" font-style="normal" font-weight="normal" text-decoration="none" x="929.5" y="473.5">Schema_Comptage</text></g></g><g transform="translate(-22,-38) scale(1,1)"><path fill="#dee7fe" stroke="none" d="M 399 88 L 473.8271484375 88 L 458.8271484375 146 L 384 146 L 399 88"/></g><g transform="translate(-22,-38) scale(1,1)"><path fill="none" stroke="#000000" d="M 399 88 L 473.8271484375 88 L 458.8271484375 146 L 384 146 L 399 88 L 399 88" stroke-miterlimit="10"/></g><g transform="translate(-22,-38) scale(1,1)"><g><path fill="none" stroke="none"/><text fill="#000000" stroke="none" font-family="Arial" font-size="13px" font-style="normal" font-weight="normal" text-decoration="none" x="400.371337890625" y="110.5">Nouvelles</text><text fill="#000000" stroke="none" font-family="Arial" font-size="13px" font-style="normal" font-weight="normal" text-decoration="none" x="403.9736328125" y="123.5">données</text><text fill="#000000" stroke="none" font-family="Arial" font-size="13px" font-style="normal" font-weight="normal" text-decoration="none" x="393.5" y="136.5">gestionnaire</text></g></g><g transform="translate(-22,-38) scale(1,1)"><path fill="#f8a9cc" stroke="#000000" d="M 792 108 C 792 105.7908608 817.0720512 104 848 104 C 878.9279488 104 904 105.7908608 904 108 L 904 132 C 904 134.2091392 878.9279488 136 848 136 C 817.0720512 136 792 134.2091392 792 132 L 792 108 Z" stroke-miterlimit="10"/></g><g transform="translate(-22,-38) scale(1,1)"><path fill="none" stroke="#000000" d="M 792 108 C 792 110.2091392 817.0720512 112 848 112 C 878.9279488 112 904 110.2091392 904 108" stroke-miterlimit="10"/></g><g transform="translate(-22,-38) scale(1,1)"><g><path fill="none" stroke="none"/><text fill="#000000" stroke="none" font-family="Arial" font-size="13px" font-style="normal" font-weight="normal" text-decoration="none" x="811.869140625" y="128.5">OTV_linauto</text></g></g><g transform="translate(-22,-38) scale(1,1)"><path fill="#cce18d" stroke="none" d="M 520 227.5 L 635.43896484375 176 L 750.8779296875 227.5 L 635.43896484375 279 L 520 227.5"/></g><g transform="translate(-22,-38) scale(1,1)"><path fill="none" stroke="#000000" d="M 520 227.5 L 635.43896484375 176 L 750.8779296875 227.5 L 635.43896484375 279 L 520 227.5 L 520 227.5" stroke-miterlimit="10"/></g><g transform="translate(-22,-38) scale(1,1)"><g><path fill="none" stroke="none"/><text fill="#000000" stroke="none" font-family="Arial" font-size="13px" font-style="normal" font-weight="normal" text-decoration="none" x="609.42626953125" y="214.5">plusieurs</text><text fill="#000000" stroke="none" font-family="Arial" font-size="13px" font-style="normal" font-weight="normal" text-decoration="none" x="592.80810546875" y="227.5">comptages sur</text><text fill="#000000" stroke="none" font-family="Arial" font-size="13px" font-style="normal" font-weight="normal" text-decoration="none" x="610.508544921875" y="240.5">tronçons</text><text fill="#000000" stroke="none" font-family="Arial" font-size="13px" font-style="normal" font-weight="normal" text-decoration="none" x="596.048583984375" y="253.5">homogenes ?</text></g></g><g transform="translate(-22,-38) scale(1,1)"><path fill="none" stroke="#000000" d="M 474 136 L 624 136 M 624 136 A 8 8 0 0 1 632 144 L 632 176" stroke-miterlimit="10"/></g><g transform="translate(-22,-38) scale(1,1)"><path fill="#000000" stroke="none" d="M 627.790482243984 165.83732514237585 L 632 176 L 636.209517756016 165.83732514237585"/></g><g transform="translate(-22,-38) scale(1,1)"><path fill="none" stroke="#000000" d="M 627.790482243984 165.83732514237585 L 632 176 L 636.209517756016 165.83732514237585 L 627.790482243984 165.83732514237585" stroke-miterlimit="10"/></g><g transform="translate(-22,-38) scale(1,1)"><path fill="none" stroke="#000000" d="M 792 120 L 643 120 M 643 120 A 8 8 0 0 0 635 128 L 635 176" stroke-miterlimit="10"/></g><g transform="translate(-22,-38) scale(1,1)"><path fill="#000000" stroke="none" d="M 630.790482243984 165.83732514237585 L 635 176 L 639.209517756016 165.83732514237585"/></g><g transform="translate(-22,-38) scale(1,1)"><path fill="none" stroke="#000000" d="M 630.790482243984 165.83732514237585 L 635 176 L 639.209517756016 165.83732514237585 L 630.790482243984 165.83732514237585" stroke-miterlimit="10"/></g><g transform="translate(-22,-38) scale(1,1)"><path fill="#ffffff" stroke="none" d="M 496 48 L 554 48 L 564 58 L 564 110 L 496 110 L 496 48"/></g><g transform="translate(-22,-38) scale(1,1)"><path fill="none" stroke="#000000" d="M 496 48 L 554 48 L 564 58 L 564 110 L 496 110 L 496 48 L 496 48" stroke-miterlimit="10"/></g><g transform="translate(-22,-38) scale(1,1)"><path fill="none" stroke="#000000" d="M 554 48 L 554 58 L 564 58 L 554 48" stroke-miterlimit="10"/></g><g transform="translate(-22,-38) scale(1,1)"><g><path fill="none" stroke="none"/><text fill="#000000" stroke="none" font-family="Arial" font-size="13px" font-style="normal" font-weight="normal" text-decoration="none" x="501" y="66">Pour une</text><text fill="#000000" stroke="none" font-family="Arial" font-size="13px" font-style="normal" font-weight="normal" text-decoration="none" x="501" y="79">année</text><text fill="#000000" stroke="none" font-family="Arial" font-size="13px" font-style="normal" font-weight="normal" text-decoration="none" x="501" y="92">donnée</text></g></g><g transform="translate(-22,-38) scale(1,1)"><path fill="none" stroke="#000000" d="M 495 92 L 475 100" stroke-miterlimit="10" stroke-dasharray="3"/></g><g transform="translate(-22,-38) scale(1,1)"><path fill="#cce18d" stroke="none" d="M 368 323.5 L 460.58447265625 272 L 553.1689453125 323.5 L 460.58447265625 375 L 368 323.5"/></g><g transform="translate(-22,-38) scale(1,1)"><path fill="none" stroke="#000000" d="M 368 323.5 L 460.58447265625 272 L 553.1689453125 323.5 L 460.58447265625 375 L 368 323.5 L 368 323.5" stroke-miterlimit="10"/></g><g transform="translate(-22,-38) scale(1,1)"><g><path fill="none" stroke="none"/><text fill="#000000" stroke="none" font-family="Arial" font-size="13px" font-style="normal" font-weight="normal" text-decoration="none" x="438.18359375" y="310.5">tous les</text><text fill="#000000" stroke="none" font-family="Arial" font-size="13px" font-style="normal" font-weight="normal" text-decoration="none" x="428.7890625" y="323.5">comptages</text><text fill="#000000" stroke="none" font-family="Arial" font-size="13px" font-style="normal" font-weight="normal" text-decoration="none" x="415.41455078125" y="336.5">hors période de</text><text fill="#000000" stroke="none" font-family="Arial" font-size="13px" font-style="normal" font-weight="normal" text-decoration="none" x="427.70361328125" y="349.5">vacances ?</text></g></g><g transform="translate(-22,-38) scale(1,1)"><path fill="#cce18d" stroke="none" d="M 376 467.5 L 456.58447265625 416 L 537.1689453125 467.5 L 456.58447265625 519 L 376 467.5"/></g><g transform="translate(-22,-38) scale(1,1)"><path fill="none" stroke="#000000" d="M 376 467.5 L 456.58447265625 416 L 537.1689453125 467.5 L 456.58447265625 519 L 376 467.5 L 376 467.5" stroke-miterlimit="10"/></g><g transform="translate(-22,-38) scale(1,1)"><g><path fill="none" stroke="none"/><text fill="#000000" stroke="none" font-family="Arial" font-size="13px" font-style="normal" font-weight="normal" text-decoration="none" x="432.739501953125" y="454.5">Tous les</text><text fill="#000000" stroke="none" font-family="Arial" font-size="13px" font-style="normal" font-weight="normal" text-decoration="none" x="424.7890625" y="467.5">comptages</text><text fill="#000000" stroke="none" font-family="Arial" font-size="13px" font-style="normal" font-weight="normal" text-decoration="none" x="416.8291015625" y="480.5">en période de</text><text fill="#000000" stroke="none" font-family="Arial" font-size="13px" font-style="normal" font-weight="normal" text-decoration="none" x="423.70361328125" y="493.5">vacances ?</text></g></g><g transform="translate(-22,-38) scale(1,1)"><rect fill="#fff07c" stroke="none" x="568" y="368" width="105.70263671875" height="45"/></g><g transform="translate(-22,-38) scale(1,1)"><path fill="none" stroke="#000000" d="M 568 368 L 673.70263671875 368 L 673.70263671875 413 L 568 413 L 568 368 Z Z" stroke-miterlimit="10"/></g><g transform="translate(-22,-38) scale(1,1)"><g><path fill="none" stroke="none"/><text fill="#000000" stroke="none" font-family="Arial" font-size="13px" font-style="normal" font-weight="normal" text-decoration="none" x="577.5" y="390.5">Hiérarchisation</text><text fill="#000000" stroke="none" font-family="Arial" font-size="13px" font-style="normal" font-weight="normal" text-decoration="none" x="581.47998046875" y="403.5">par trafic max</text></g></g><g transform="translate(-22,-38) scale(1,1)"><path fill="#f8a9cc" stroke="#000000" d="M 920 301 C 920 298.238576 953.854964225 296 995.6171875 296 C 1037.379410775 296 1071.234375 298.238576 1071.234375 301 L 1071.234375 336 C 1071.234375 338.761424 1037.379410775 341 995.6171875 341 C 953.854964225 341 920 338.761424 920 336 L 920 301 Z" stroke-miterlimit="10"/></g><g transform="translate(-22,-38) scale(1,1)"><path fill="none" stroke="#000000" d="M 920 301 C 920 303.761424 953.854964225 306 995.6171875 306 C 1037.379410775 306 1071.234375 303.761424 1071.234375 301" stroke-miterlimit="10"/></g><g transform="translate(-22,-38) scale(1,1)"><g><path fill="none" stroke="none"/><text fill="#000000" stroke="none" font-family="Arial" font-size="13px" font-style="normal" font-weight="normal" text-decoration="none" x="971.772216796875" y="321">Schema</text><text fill="#000000" stroke="none" font-family="Arial" font-size="13px" font-style="normal" font-weight="normal" text-decoration="none" x="946.476806640625" y="334">comptage_assoc</text></g></g><g transform="translate(-22,-38) scale(1,1)"><path fill="#dee7fe" stroke="none" d="M 519 648 L 593.8271484375 648 L 578.8271484375 706 L 504 706 L 519 648"/></g><g transform="translate(-22,-38) scale(1,1)"><path fill="none" stroke="#000000" d="M 519 648 L 593.8271484375 648 L 578.8271484375 706 L 504 706 L 519 648 L 519 648" stroke-miterlimit="10"/></g><g transform="translate(-22,-38) scale(1,1)"><g><path fill="none" stroke="none"/><text fill="#000000" stroke="none" font-family="Arial" font-size="13px" font-style="normal" font-weight="normal" text-decoration="none" x="517.1181640625" y="670.5">comptages</text><text fill="#000000" stroke="none" font-family="Arial" font-size="13px" font-style="normal" font-weight="normal" text-decoration="none" x="536.26904296875" y="683.5">hors</text><text fill="#000000" stroke="none" font-family="Arial" font-size="13px" font-style="normal" font-weight="normal" text-decoration="none" x="521.45361328125" y="696.5">vacances</text></g></g><g transform="translate(-22,-38) scale(1,1)"><path fill="#dee7fe" stroke="none" d="M 351 648 L 425.8271484375 648 L 410.8271484375 706 L 336 706 L 351 648"/></g><g transform="translate(-22,-38) scale(1,1)"><path fill="none" stroke="#000000" d="M 351 648 L 425.8271484375 648 L 410.8271484375 706 L 336 706 L 351 648 L 351 648" stroke-miterlimit="10"/></g><g transform="translate(-22,-38) scale(1,1)"><g><path fill="none" stroke="none"/><text fill="#000000" stroke="none" font-family="Arial" font-size="13px" font-style="normal" font-weight="normal" text-decoration="none" x="349.1181640625" y="670.5">comptages</text><text fill="#000000" stroke="none" font-family="Arial" font-size="13px" font-style="normal" font-weight="normal" text-decoration="none" x="373.68359375" y="683.5">en</text><text fill="#000000" stroke="none" font-family="Arial" font-size="13px" font-style="normal" font-weight="normal" text-decoration="none" x="353.45361328125" y="696.5">vacances</text></g></g><g transform="translate(-22,-38) scale(1,1)"><path fill="none" stroke="#000000" d="M 520 232 L 345 232" stroke-miterlimit="10"/></g><g transform="translate(-22,-38) scale(1,1)"><path fill="#000000" stroke="none" d="M 355.16267485762415 227.790482243984 L 345 232 L 355.16267485762415 236.209517756016"/></g><g transform="translate(-22,-38) scale(1,1)"><path fill="none" stroke="#000000" d="M 355.16267485762415 227.790482243984 L 345 232 L 355.16267485762415 236.209517756016 L 355.16267485762415 227.790482243984" stroke-miterlimit="10"/></g><g transform="translate(-22,-38) scale(1,1)"><g><path fill="none" stroke="none"/><text fill="#000000" stroke="none" font-family="Arial" font-size="13px" font-style="normal" font-weight="normal" text-decoration="none" x="416.5" y="253.5">oui</text></g></g><g transform="translate(-22,-38) scale(1,1)"><path fill="#cce18d" stroke="none" d="M 712 555.5 L 824 504 L 936 555.5 L 824 607 L 712 555.5"/></g><g transform="translate(-22,-38) scale(1,1)"><path fill="none" stroke="#000000" d="M 712 555.5 L 824 504 L 936 555.5 L 824 607 L 712 555.5 L 712 555.5" stroke-miterlimit="10"/></g><g transform="translate(-22,-38) scale(1,1)"><g><path fill="none" stroke="none"/><text fill="#000000" stroke="none" font-family="Arial" font-size="13px" font-style="normal" font-weight="normal" text-decoration="none" x="772.333251953125" y="542.5">points sur tronçon</text><text fill="#000000" stroke="none" font-family="Arial" font-size="13px" font-style="normal" font-weight="normal" text-decoration="none" x="777.74462890625" y="555.5">homogène avec</text><text fill="#000000" stroke="none" font-family="Arial" font-size="13px" font-style="normal" font-weight="normal" text-decoration="none" x="773.41552734375" y="568.5">points historiques</text><text fill="#000000" stroke="none" font-family="Arial" font-size="13px" font-style="normal" font-weight="normal" text-decoration="none" x="820.385009765625" y="581.5">?</text></g></g><g transform="translate(-22,-38) scale(1,1)"><rect fill="#fff07c" stroke="none" x="904" y="624" width="87" height="58"/></g><g transform="translate(-22,-38) scale(1,1)"><path fill="none" stroke="#000000" d="M 904 624 L 991 624 L 991 682 L 904 682 L 904 624 Z Z" stroke-miterlimit="10"/></g><g transform="translate(-22,-38) scale(1,1)"><g><path fill="none" stroke="none"/><text fill="#000000" stroke="none" font-family="Arial" font-size="13px" font-style="normal" font-weight="normal" text-decoration="none" x="922.931396484375" y="646.5">Création</text><text fill="#000000" stroke="none" font-family="Arial" font-size="13px" font-style="normal" font-weight="normal" text-decoration="none" x="922.56005859375" y="659.5">nouveau</text><text fill="#000000" stroke="none" font-family="Arial" font-size="13px" font-style="normal" font-weight="normal" text-decoration="none" x="931.59912109375" y="672.5">point </text></g></g><g transform="translate(-22,-38) scale(1,1)"><rect fill="#fff07c" stroke="none" x="696" y="632" width="119" height="45"/></g><g transform="translate(-22,-38) scale(1,1)"><path fill="none" stroke="#000000" d="M 696 632 L 815 632 L 815 677 L 696 677 L 696 632 Z Z" stroke-miterlimit="10"/></g><g transform="translate(-22,-38) scale(1,1)"><g><path fill="none" stroke="none"/><text fill="#000000" stroke="none" font-family="Arial" font-size="13px" font-style="normal" font-weight="normal" text-decoration="none" x="707.81005859375" y="654.5">Mise à jour point</text><text fill="#000000" stroke="none" font-family="Arial" font-size="13px" font-style="normal" font-weight="normal" text-decoration="none" x="733.09912109375" y="667.5">existant</text></g></g><g transform="translate(-22,-38) scale(1,1)"><path fill="none" stroke="#000000" d="M 553 312 L 560 312 M 560 312 A 8 8 0 0 1 568 320 L 568 368" stroke-miterlimit="10"/></g><g transform="translate(-22,-38) scale(1,1)"><path fill="#000000" stroke="none" d="M 563.790482243984 357.83732514237585 L 568 368 L 572.209517756016 357.83732514237585"/></g><g transform="translate(-22,-38) scale(1,1)"><path fill="none" stroke="#000000" d="M 563.790482243984 357.83732514237585 L 568 368 L 572.209517756016 357.83732514237585 L 563.790482243984 357.83732514237585" stroke-miterlimit="10"/></g><g transform="translate(-22,-38) scale(1,1)"><g><path fill="none" stroke="none"/><text fill="#000000" stroke="none" font-family="Arial" font-size="13px" font-style="normal" font-weight="normal" text-decoration="none" x="573.5" y="317.5">oui</text></g></g><g transform="translate(-22,-38) scale(1,1)"><path fill="none" stroke="#000000" d="M 456 375 L 456 416" stroke-miterlimit="10"/></g><g transform="translate(-22,-38) scale(1,1)"><path fill="#000000" stroke="none" d="M 451.790482243984 405.83732514237585 L 456 416 L 460.209517756016 405.83732514237585"/></g><g transform="translate(-22,-38) scale(1,1)"><path fill="none" stroke="#000000" d="M 451.790482243984 405.83732514237585 L 456 416 L 460.209517756016 405.83732514237585 L 451.790482243984 405.83732514237585" stroke-miterlimit="10"/></g><g transform="translate(-22,-38) scale(1,1)"><g><path fill="none" stroke="none"/><text fill="#000000" stroke="none" font-family="Arial" font-size="13px" font-style="normal" font-weight="normal" text-decoration="none" x="459.5" y="400.5">non</text></g></g><g transform="translate(-22,-38) scale(1,1)"><path fill="none" stroke="#000000" d="M 537 464 L 584 464 M 584 464 A 8 8 0 0 0 592 456 L 592 413" stroke-miterlimit="10"/></g><g transform="translate(-22,-38) scale(1,1)"><path fill="#000000" stroke="none" d="M 596.209517756016 423.16267485762415 L 592 413 L 587.790482243984 423.16267485762415"/></g><g transform="translate(-22,-38) scale(1,1)"><path fill="none" stroke="#000000" d="M 596.209517756016 423.16267485762415 L 592 413 L 587.790482243984 423.16267485762415 L 596.209517756016 423.16267485762415" stroke-miterlimit="10"/></g><g transform="translate(-22,-38) scale(1,1)"><g><path fill="none" stroke="none"/><text fill="#000000" stroke="none" font-family="Arial" font-size="13px" font-style="normal" font-weight="normal" text-decoration="none" x="550.5" y="460.5">oui</text></g></g><g transform="translate(-22,-38) scale(1,1)"><path fill="none" stroke="#000000" d="M 456 519 L 456 552" stroke-miterlimit="10"/></g><g transform="translate(-22,-38) scale(1,1)"><path fill="#000000" stroke="none" d="M 451.790482243984 541.8373251423759 L 456 552 L 460.209517756016 541.8373251423759"/></g><g transform="translate(-22,-38) scale(1,1)"><path fill="none" stroke="#000000" d="M 451.790482243984 541.8373251423759 L 456 552 L 460.209517756016 541.8373251423759 L 451.790482243984 541.8373251423759" stroke-miterlimit="10"/></g><g transform="translate(-22,-38) scale(1,1)"><g><path fill="none" stroke="none"/><text fill="#000000" stroke="none" font-family="Arial" font-size="13px" font-style="normal" font-weight="normal" text-decoration="none" x="458.5" y="540.5">Non</text></g></g><g transform="translate(-22,-38) scale(1,1)"><rect fill="#fff07c" stroke="none" x="424" y="552" width="87" height="79"/></g><g transform="translate(-22,-38) scale(1,1)"><path fill="none" stroke="#000000" d="M 424 552 L 511 552 L 511 631 L 424 631 L 424 552 Z Z" stroke-miterlimit="10"/></g><g transform="translate(-22,-38) scale(1,1)"><g><path fill="none" stroke="none"/><text fill="#000000" stroke="none" font-family="Arial" font-size="13px" font-style="normal" font-weight="normal" text-decoration="none" x="437.1455078125" y="574.5">séparation</text><text fill="#000000" stroke="none" font-family="Arial" font-size="13px" font-style="normal" font-weight="normal" text-decoration="none" x="451.9609375" y="587.5">selon</text><text fill="#000000" stroke="none" font-family="Arial" font-size="13px" font-style="normal" font-weight="normal" text-decoration="none" x="445.81640625" y="600.5">période</text><text fill="#000000" stroke="none" font-family="Arial" font-size="13px" font-style="normal" font-weight="normal" text-decoration="none" x="445.102294921875" y="613.5">scolaire</text></g></g><g transform="translate(-22,-38) scale(1,1)"><path fill="none" stroke="#000000" d="M 592 648 L 592 413" stroke-miterlimit="10"/></g><g transform="translate(-22,-38) scale(1,1)"><path fill="#000000" stroke="none" d="M 596.209517756016 423.16267485762415 L 592 413 L 587.790482243984 423.16267485762415"/></g><g transform="translate(-22,-38) scale(1,1)"><path fill="none" stroke="#000000" d="M 596.209517756016 423.16267485762415 L 592 413 L 587.790482243984 423.16267485762415 L 596.209517756016 423.16267485762415" stroke-miterlimit="10"/></g><g transform="translate(-22,-38) scale(1,1)"><path fill="none" stroke="#000000" d="M 424 592 L 388 592 M 388 592 A 8 8 0 0 0 380 600 L 380 648" stroke-miterlimit="10"/></g><g transform="translate(-22,-38) scale(1,1)"><path fill="#000000" stroke="none" d="M 375.790482243984 637.8373251423759 L 380 648 L 384.209517756016 637.8373251423759"/></g><g transform="translate(-22,-38) scale(1,1)"><path fill="none" stroke="#000000" d="M 375.790482243984 637.8373251423759 L 380 648 L 384.209517756016 637.8373251423759 L 375.790482243984 637.8373251423759" stroke-miterlimit="10"/></g><g transform="translate(-22,-38) scale(1,1)"><path fill="none" stroke="#000000" d="M 511 592 L 520 592 M 520 592 A 8 8 0 0 1 528 600 L 528 648" stroke-miterlimit="10"/></g><g transform="translate(-22,-38) scale(1,1)"><path fill="#000000" stroke="none" d="M 523.790482243984 637.8373251423759 L 528 648 L 532.209517756016 637.8373251423759"/></g><g transform="translate(-22,-38) scale(1,1)"><path fill="none" stroke="#000000" d="M 523.790482243984 637.8373251423759 L 528 648 L 532.209517756016 637.8373251423759 L 523.790482243984 637.8373251423759" stroke-miterlimit="10"/></g><g transform="translate(-22,-38) scale(1,1)"><path fill="#cce18d" stroke="none" d="M 752 398.5 L 808.5908203125 360 L 865.181640625 398.5 L 808.5908203125 437 L 752 398.5"/></g><g transform="translate(-22,-38) scale(1,1)"><path fill="none" stroke="#000000" d="M 752 398.5 L 808.5908203125 360 L 865.181640625 398.5 L 808.5908203125 437 L 752 398.5 L 752 398.5" stroke-miterlimit="10"/></g><g transform="translate(-22,-38) scale(1,1)"><g><path fill="none" stroke="none"/><text fill="#000000" stroke="none" font-family="Arial" font-size="13px" font-style="normal" font-weight="normal" text-decoration="none" x="780.04541015625" y="392">comptage</text><text fill="#000000" stroke="none" font-family="Arial" font-size="13px" font-style="normal" font-weight="normal" text-decoration="none" x="785.469482421875" y="405">de trafic</text><text fill="#000000" stroke="none" font-family="Arial" font-size="13px" font-style="normal" font-weight="normal" text-decoration="none" x="790.890380859375" y="418">max ?</text></g></g><g transform="translate(-22,-38) scale(1,1)"><path fill="none" stroke="#000000" d="M 674 401 L 752 401" stroke-miterlimit="10"/></g><g transform="translate(-22,-38) scale(1,1)"><path fill="#000000" stroke="none" d="M 741.8373251423759 405.209517756016 L 752 401 L 741.8373251423758 396.790482243984"/></g><g transform="translate(-22,-38) scale(1,1)"><path fill="none" stroke="#000000" d="M 741.8373251423759 405.209517756016 L 752 401 L 741.8373251423758 396.790482243984 L 741.8373251423759 405.209517756016" stroke-miterlimit="10"/></g><g transform="translate(-22,-38) scale(1,1)"><path fill="none" stroke="#000000" d="M 812 437 L 812 504" stroke-miterlimit="10"/></g><g transform="translate(-22,-38) scale(1,1)"><path fill="#000000" stroke="none" d="M 807.790482243984 493.83732514237585 L 812 504 L 816.209517756016 493.83732514237585"/></g><g transform="translate(-22,-38) scale(1,1)"><path fill="none" stroke="#000000" d="M 807.790482243984 493.83732514237585 L 812 504 L 816.209517756016 493.83732514237585 L 807.790482243984 493.83732514237585" stroke-miterlimit="10"/></g><g transform="translate(-22,-38) scale(1,1)"><g><path fill="none" stroke="none"/><text fill="#000000" stroke="none" font-family="Arial" font-size="13px" font-style="normal" font-weight="normal" text-decoration="none" x="815.5" y="475.5">Oui</text></g></g><g transform="translate(-22,-38) scale(1,1)"><path fill="none" stroke="#000000" d="M 788 607 L 788 632" stroke-miterlimit="10"/></g><g transform="translate(-22,-38) scale(1,1)"><path fill="#000000" stroke="none" d="M 783.790482243984 621.8373251423759 L 788 632 L 792.209517756016 621.8373251423759"/></g><g transform="translate(-22,-38) scale(1,1)"><path fill="none" stroke="#000000" d="M 783.790482243984 621.8373251423759 L 788 632 L 792.209517756016 621.8373251423759 L 783.790482243984 621.8373251423759" stroke-miterlimit="10"/></g><g transform="translate(-22,-38) scale(1,1)"><g><path fill="none" stroke="none"/><text fill="#000000" stroke="none" font-family="Arial" font-size="13px" font-style="normal" font-weight="normal" text-decoration="none" x="791.5" y="624.5">Oui</text></g></g><g transform="translate(-22,-38) scale(1,1)"><path fill="none" stroke="#000000" d="M 755 677 L 755 696 L 1016 696 L 1016 488" stroke-miterlimit="10"/></g><g transform="translate(-22,-38) scale(1,1)"><path fill="#000000" stroke="none" d="M 1020.209517756016 498.16267485762415 L 1016 488 L 1011.790482243984 498.16267485762415"/></g><g transform="translate(-22,-38) scale(1,1)"><path fill="none" stroke="#000000" d="M 1020.209517756016 498.16267485762415 L 1016 488 L 1011.790482243984 498.16267485762415 L 1020.209517756016 498.16267485762415" stroke-miterlimit="10"/></g><g transform="translate(-22,-38) scale(1,1)"><path fill="none" stroke="#000000" d="M 991 624 L 1006 624 M 1006 624 A 8 8 0 0 0 1014 616 L 1014 488" stroke-miterlimit="10"/></g><g transform="translate(-22,-38) scale(1,1)"><path fill="#000000" stroke="none" d="M 1018.209517756016 498.16267485762415 L 1014 488 L 1009.790482243984 498.16267485762415"/></g><g transform="translate(-22,-38) scale(1,1)"><path fill="none" stroke="#000000" d="M 1018.209517756016 498.16267485762415 L 1014 488 L 1009.790482243984 498.16267485762415 L 1018.209517756016 498.16267485762415" stroke-miterlimit="10"/></g><g transform="translate(-22,-38) scale(1,1)"><path fill="none" stroke="#000000" d="M 832 607 L 832 608 M 832 608 A 8 8 0 0 0 840 616 L 896 616 M 896 616 A 8 8 0 0 1 904 624 L 904 624" stroke-miterlimit="10"/></g><g transform="translate(-22,-38) scale(1,1)"><path fill="#000000" stroke="none" d="M 899.790482243984 613.8373251423759 L 904 624 L 908.209517756016 613.8373251423759"/></g><g transform="translate(-22,-38) scale(1,1)"><path fill="none" stroke="#000000" d="M 899.790482243984 613.8373251423759 L 904 624 L 908.209517756016 613.8373251423759 L 899.790482243984 613.8373251423759" stroke-miterlimit="10"/></g><g transform="translate(-22,-38) scale(1,1)"><g><path fill="none" stroke="none"/><text fill="#000000" stroke="none" font-family="Arial" font-size="13px" font-style="normal" font-weight="normal" text-decoration="none" x="864.075927734375" y="612.5">Non</text></g></g><g transform="translate(-22,-38) scale(1,1)"><path fill="none" stroke="#000000" d="M 808 360 L 808 320 M 808 320 A 8 8 0 0 1 816 312 L 920 312" stroke-miterlimit="10"/></g><g transform="translate(-22,-38) scale(1,1)"><path fill="#000000" stroke="none" d="M 909.8373251423759 316.209517756016 L 920 312 L 909.8373251423758 307.790482243984"/></g><g transform="translate(-22,-38) scale(1,1)"><path fill="none" stroke="#000000" d="M 909.8373251423759 316.209517756016 L 920 312 L 909.8373251423758 307.790482243984 L 909.8373251423759 316.209517756016" stroke-miterlimit="10"/></g><g transform="translate(-22,-38) scale(1,1)"><g><path fill="none" stroke="none"/><text fill="#000000" stroke="none" font-family="Arial" font-size="13px" font-style="normal" font-weight="normal" text-decoration="none" x="796.5" y="303.5">Non</text></g></g><g transform="translate(-22,-38) scale(1,1)"><path fill="none" stroke="#000000" d="M 376 706 L 376 728 M 376 728 A 8 8 0 0 0 384 736 L 1096 736 M 1096 736 A 8 8 0 0 0 1104 728 L 1104 320 M 1104 320 A 8 8 0 0 0 1096 312 L 1071 312" stroke-miterlimit="10"/></g><g transform="translate(-22,-38) scale(1,1)"><path fill="#000000" stroke="none" d="M 1081.162674857624 307.790482243984 L 1071 312 L 1081.162674857624 316.209517756016"/></g><g transform="translate(-22,-38) scale(1,1)"><path fill="none" stroke="#000000" d="M 1081.162674857624 307.790482243984 L 1071 312 L 1081.162674857624 316.209517756016 L 1081.162674857624 307.790482243984" stroke-miterlimit="10"/></g><g transform="translate(-22,-38) scale(1,1)"><path fill="#cce18d" stroke="none" d="M 232 230.5 L 288.58447265625 192 L 345.1689453125 230.5 L 288.58447265625 269 L 232 230.5"/></g><g transform="translate(-22,-38) scale(1,1)"><path fill="none" stroke="#000000" d="M 232 230.5 L 288.58447265625 192 L 345.1689453125 230.5 L 288.58447265625 269 L 232 230.5 L 232 230.5" stroke-miterlimit="10"/></g><g transform="translate(-22,-38) scale(1,1)"><g><path fill="none" stroke="none"/><text fill="#000000" stroke="none" font-family="Arial" font-size="13px" font-style="normal" font-weight="normal" text-decoration="none" x="262.57177734375" y="224">plusieurs</text><text fill="#000000" stroke="none" font-family="Arial" font-size="13px" font-style="normal" font-weight="normal" text-decoration="none" x="267.2626953125" y="237">type de</text><text fill="#000000" stroke="none" font-family="Arial" font-size="13px" font-style="normal" font-weight="normal" text-decoration="none" x="267.2626953125" y="250">poste ?</text></g></g><g transform="translate(-22,-38) scale(1,1)"><rect fill="#fff07c" stroke="none" x="72" y="216" width="103.54443359375" height="58"/></g><g transform="translate(-22,-38) scale(1,1)"><path fill="none" stroke="#000000" d="M 72 216 L 175.54443359375 216 L 175.54443359375 274 L 72 274 L 72 216 Z Z" stroke-miterlimit="10"/></g><g transform="translate(-22,-38) scale(1,1)"><g><path fill="none" stroke="none"/><text fill="#000000" stroke="none" font-family="Arial" font-size="13px" font-style="normal" font-weight="normal" text-decoration="none" x="81.5" y="238.5">hiérarchisation</text><text fill="#000000" stroke="none" font-family="Arial" font-size="13px" font-style="normal" font-weight="normal" text-decoration="none" x="91.25" y="251.5">par type de</text><text fill="#000000" stroke="none" font-family="Arial" font-size="13px" font-style="normal" font-weight="normal" text-decoration="none" x="107.871337890625" y="264.5">poste</text></g></g><g transform="translate(-22,-38) scale(1,1)"><path fill="#ffffff" stroke="none" d="M 32 64 L 141 64 L 151 74 L 151 171 L 32 171 L 32 64"/></g><g transform="translate(-22,-38) scale(1,1)"><path fill="none" stroke="#000000" d="M 32 64 L 141 64 L 151 74 L 151 171 L 32 171 L 32 64 L 32 64" stroke-miterlimit="10"/></g><g transform="translate(-22,-38) scale(1,1)"><path fill="none" stroke="#000000" d="M 141 64 L 141 74 L 151 74 L 141 64" stroke-miterlimit="10"/></g><g transform="translate(-22,-38) scale(1,1)"><g><path fill="none" stroke="none"/><text fill="#000000" stroke="none" font-family="Arial" font-size="13px" font-style="normal" font-weight="normal" text-decoration="none" x="37" y="82">hiérarchisation du</text><text fill="#000000" stroke="none" font-family="Arial" font-size="13px" font-style="normal" font-weight="normal" text-decoration="none" x="37" y="95">+ prioritaire au</text><text fill="#000000" stroke="none" font-family="Arial" font-size="13px" font-style="normal" font-weight="normal" text-decoration="none" x="37" y="108">moins prioritaire : </text></g></g><g transform="translate(-22,-38) scale(1,1)"><g><path fill="none" stroke="none"/><text fill="#000000" stroke="none" font-family="Arial" font-size="13px" font-style="normal" font-weight="normal" text-decoration="none" x="37" y="123">1. Permanent</text></g></g><g transform="translate(-22,-38) scale(1,1)"><g><path fill="none" stroke="none"/><text fill="#000000" stroke="none" font-family="Arial" font-size="13px" font-style="normal" font-weight="normal" text-decoration="none" x="37" y="138">2. Tournant</text></g></g><g transform="translate(-22,-38) scale(1,1)"><g><path fill="none" stroke="none"/><text fill="#000000" stroke="none" font-family="Arial" font-size="13px" font-style="normal" font-weight="normal" text-decoration="none" x="37" y="153">3.Ponctuel</text></g></g><g transform="translate(-22,-38) scale(1,1)"><path fill="none" stroke="#000000" d="M 105 173 L 116 215" stroke-miterlimit="10" stroke-dasharray="3"/></g><g transform="translate(-22,-38) scale(1,1)"><path fill="none" stroke="#000000" d="M 288 269 L 288 312 M 288 312 A 8 8 0 0 0 296 320 L 368 320" stroke-miterlimit="10"/></g><g transform="translate(-22,-38) scale(1,1)"><path fill="#000000" stroke="none" d="M 357.83732514237585 324.209517756016 L 368 320 L 357.83732514237585 315.790482243984"/></g><g transform="translate(-22,-38) scale(1,1)"><path fill="none" stroke="#000000" d="M 357.83732514237585 324.209517756016 L 368 320 L 357.83732514237585 315.790482243984 L 357.83732514237585 324.209517756016" stroke-miterlimit="10"/></g><g transform="translate(-22,-38) scale(1,1)"><g><path fill="none" stroke="none"/><text fill="#000000" stroke="none" font-family="Arial" font-size="13px" font-style="normal" font-weight="normal" text-decoration="none" x="295.5" y="292.5">Non</text></g></g><g transform="translate(-22,-38) scale(1,1)"><path fill="#dee7fe" stroke="none" d="M 196 304 L 257.18359375 304 L 245.18359375 349 L 184 349 L 196 304"/></g><g transform="translate(-22,-38) scale(1,1)"><path fill="none" stroke="#000000" d="M 196 304 L 257.18359375 304 L 245.18359375 349 L 184 349 L 196 304 L 196 304" stroke-miterlimit="10"/></g><g transform="translate(-22,-38) scale(1,1)"><g><path fill="none" stroke="none"/><text fill="#000000" stroke="none" font-family="Arial" font-size="13px" font-style="normal" font-weight="normal" text-decoration="none" x="206.5" y="326.5">Type</text><text fill="#000000" stroke="none" font-family="Arial" font-size="13px" font-style="normal" font-weight="normal" text-decoration="none" x="193.5" y="339.5">prioritaire</text></g></g><g transform="translate(-22,-38) scale(1,1)"><path fill="#dee7fe" stroke="none" d="M 45 312 L 111.68359375 312 L 98.68359375 370 L 32 370 L 45 312"/></g><g transform="translate(-22,-38) scale(1,1)"><path fill="none" stroke="#000000" d="M 45 312 L 111.68359375 312 L 98.68359375 370 L 32 370 L 45 312 L 45 312" stroke-miterlimit="10"/></g><g transform="translate(-22,-38) scale(1,1)"><g><path fill="none" stroke="none"/><text fill="#000000" stroke="none" font-family="Arial" font-size="13px" font-style="normal" font-weight="normal" text-decoration="none" x="57.75" y="328">Type</text><text fill="#000000" stroke="none" font-family="Arial" font-size="13px" font-style="normal" font-weight="normal" text-decoration="none" x="60.996826171875" y="341">non</text><text fill="#000000" stroke="none" font-family="Arial" font-size="13px" font-style="normal" font-weight="normal" text-decoration="none" x="41.5" y="354">prioritaires</text></g></g><g transform="translate(-22,-38) scale(1,1)"><path fill="none" stroke="#000000" d="M 232 246 L 176 246" stroke-miterlimit="10"/></g><g transform="translate(-22,-38) scale(1,1)"><path fill="#000000" stroke="none" d="M 186.16267485762415 241.790482243984 L 176 246 L 186.16267485762415 250.209517756016"/></g><g transform="translate(-22,-38) scale(1,1)"><path fill="none" stroke="#000000" d="M 186.16267485762415 241.790482243984 L 176 246 L 186.16267485762415 250.209517756016 L 186.16267485762415 241.790482243984" stroke-miterlimit="10"/></g><g transform="translate(-22,-38) scale(1,1)"><g><path fill="none" stroke="none"/><text fill="#000000" stroke="none" font-family="Arial" font-size="13px" font-style="normal" font-weight="normal" text-decoration="none" x="192.5" y="267.5">Oui</text></g></g><g transform="translate(-22,-38) scale(1,1)"><path fill="none" stroke="#000000" d="M 136 274 L 136 333 M 136 333 A 8 8 0 0 1 128 341 L 112 341" stroke-miterlimit="10"/></g><g transform="translate(-22,-38) scale(1,1)"><path fill="#000000" stroke="none" d="M 122.16267485762415 336.790482243984 L 112 341 L 122.16267485762415 345.209517756016"/></g><g transform="translate(-22,-38) scale(1,1)"><path fill="none" stroke="#000000" d="M 122.16267485762415 336.790482243984 L 112 341 L 122.16267485762415 345.209517756016 L 122.16267485762415 336.790482243984" stroke-miterlimit="10"/></g><g transform="translate(-22,-38) scale(1,1)"><path fill="none" stroke="#000000" d="M 257 320 L 368 320" stroke-miterlimit="10"/></g><g transform="translate(-22,-38) scale(1,1)"><path fill="#000000" stroke="none" d="M 357.83732514237585 324.209517756016 L 368 320 L 357.83732514237585 315.790482243984"/></g><g transform="translate(-22,-38) scale(1,1)"><path fill="none" stroke="#000000" d="M 357.83732514237585 324.209517756016 L 368 320 L 357.83732514237585 315.790482243984 L 357.83732514237585 324.209517756016" stroke-miterlimit="10"/></g><g transform="translate(-22,-38) scale(1,1)"><path fill="none" stroke="#000000" d="M 63 370 L 63 728 M 63 728 A 8 8 0 0 0 71 736 L 1096 736 M 1096 736 A 8 8 0 0 0 1104 728 L 1104 320 M 1104 320 A 8 8 0 0 0 1096 312 L 1071 312" stroke-miterlimit="10"/></g><g transform="translate(-22,-38) scale(1,1)"><path fill="#000000" stroke="none" d="M 1081.162674857624 307.790482243984 L 1071 312 L 1081.162674857624 316.209517756016"/></g><g transform="translate(-22,-38) scale(1,1)"><path fill="none" stroke="#000000" d="M 1081.162674857624 307.790482243984 L 1071 312 L 1081.162674857624 316.209517756016 L 1081.162674857624 307.790482243984" stroke-miterlimit="10"/></g><g transform="translate(-22,-38) scale(1,1)"><path fill="none" stroke="#000000" d="M 136 274 L 136 296 M 136 296 A 8 8 0 0 0 144 304 L 184 304" stroke-miterlimit="10"/></g><g transform="translate(-22,-38) scale(1,1)"><path fill="#000000" stroke="none" d="M 173.83732514237585 308.209517756016 L 184 304 L 173.83732514237585 299.790482243984"/></g><g transform="translate(-22,-38) scale(1,1)"><path fill="none" stroke="#000000" d="M 173.83732514237585 308.209517756016 L 184 304 L 173.83732514237585 299.790482243984 L 173.83732514237585 308.209517756016" stroke-miterlimit="10"/></g></g></svg>