<svg version="1.1" xmlns="http://www.w3.org/2000/svg" xmlns:xlink="http://www.w3.org/1999/xlink" width="829" height="677"><defs/><g><g transform="translate(-134,-78) scale(1,1)"><path fill="#f8a9cc" stroke="#000000" d="M 792 446 C 792 442.6862912 821.9742921679688 440 858.949462890625 440 C 895.9246336132812 440 925.89892578125 442.6862912 925.89892578125 446 L 925.89892578125 482 C 925.89892578125 485.3137088 895.9246336132812 488 858.949462890625 488 C 821.9742921679688 488 792 485.3137088 792 482 L 792 446 Z" stroke-miterlimit="10"/></g><g transform="translate(-134,-78) scale(1,1)"><path fill="none" stroke="#000000" d="M 792 446 C 792 449.3137088 821.9742921679688 452 858.949462890625 452 C 895.9246336132812 452 925.89892578125 449.3137088 925.89892578125 446" stroke-miterlimit="10"/></g><g transform="translate(-134,-78) scale(1,1)"><g><path fill="none" stroke="none"/><text fill="#000000" stroke="none" font-family="Arial" font-size="13px" font-style="normal" font-weight="normal" text-decoration="none" x="801.5" y="473.5">Schema_Comptage</text></g></g><g transform="translate(-134,-78) scale(1,1)"><path fill="#dee7fe" stroke="none" d="M 399 88 L 473.8271484375 88 L 458.8271484375 146 L 384 146 L 399 88"/></g><g transform="translate(-134,-78) scale(1,1)"><path fill="none" stroke="#000000" d="M 399 88 L 473.8271484375 88 L 458.8271484375 146 L 384 146 L 399 88 L 399 88" stroke-miterlimit="10"/></g><g transform="translate(-134,-78) scale(1,1)"><g><path fill="none" stroke="none"/><text fill="#000000" stroke="none" font-family="Arial" font-size="13px" font-style="normal" font-weight="normal" text-decoration="none" x="400.371337890625" y="110.5">Nouvelles</text><text fill="#000000" stroke="none" font-family="Arial" font-size="13px" font-style="normal" font-weight="normal" text-decoration="none" x="403.9736328125" y="123.5">données</text><text fill="#000000" stroke="none" font-family="Arial" font-size="13px" font-style="normal" font-weight="normal" text-decoration="none" x="393.5" y="136.5">gestionnaire</text></g></g><g transform="translate(-134,-78) scale(1,1)"><path fill="#f8a9cc" stroke="#000000" d="M 600 132 C 600 129.7908608 625.0720512 128 656 128 C 686.9279488 128 712 129.7908608 712 132 L 712 156 C 712 158.2091392 686.9279488 160 656 160 C 625.0720512 160 600 158.2091392 600 156 L 600 132 Z" stroke-miterlimit="10"/></g><g transform="translate(-134,-78) scale(1,1)"><path fill="none" stroke="#000000" d="M 600 132 C 600 134.2091392 625.0720512 136 656 136 C 686.9279488 136 712 134.2091392 712 132" stroke-miterlimit="10"/></g><g transform="translate(-134,-78) scale(1,1)"><g><path fill="none" stroke="none"/><text fill="#000000" stroke="none" font-family="Arial" font-size="13px" font-style="normal" font-weight="normal" text-decoration="none" x="619.869140625" y="152.5">OTV_linauto</text></g></g><g transform="translate(-134,-78) scale(1,1)"><path fill="#cce18d" stroke="none" d="M 432 227.5 L 547.43896484375 176 L 662.8779296875 227.5 L 547.43896484375 279 L 432 227.5"/></g><g transform="translate(-134,-78) scale(1,1)"><path fill="none" stroke="#000000" d="M 432 227.5 L 547.43896484375 176 L 662.8779296875 227.5 L 547.43896484375 279 L 432 227.5 L 432 227.5" stroke-miterlimit="10"/></g><g transform="translate(-134,-78) scale(1,1)"><g><path fill="none" stroke="none"/><text fill="#000000" stroke="none" font-family="Arial" font-size="13px" font-style="normal" font-weight="normal" text-decoration="none" x="521.42626953125" y="214.5">plusieurs</text><text fill="#000000" stroke="none" font-family="Arial" font-size="13px" font-style="normal" font-weight="normal" text-decoration="none" x="504.80810546875" y="227.5">comptages sur</text><text fill="#000000" stroke="none" font-family="Arial" font-size="13px" font-style="normal" font-weight="normal" text-decoration="none" x="522.508544921875" y="240.5">tronçons</text><text fill="#000000" stroke="none" font-family="Arial" font-size="13px" font-style="normal" font-weight="normal" text-decoration="none" x="508.048583984375" y="253.5">homogenes ?</text></g></g><g transform="translate(-134,-78) scale(1,1)"><path fill="none" stroke="#000000" d="M 474 128 L 536 128 M 536 128 A 8 8 0 0 1 544 136 L 544 176" stroke-miterlimit="10"/></g><g transform="translate(-134,-78) scale(1,1)"><path fill="#000000" stroke="none" d="M 539.790482243984 165.83732514237585 L 544 176 L 548.209517756016 165.83732514237585"/></g><g transform="translate(-134,-78) scale(1,1)"><path fill="none" stroke="#000000" d="M 539.790482243984 165.83732514237585 L 544 176 L 548.209517756016 165.83732514237585 L 539.790482243984 165.83732514237585" stroke-miterlimit="10"/></g><g transform="translate(-134,-78) scale(1,1)"><path fill="none" stroke="#000000" d="M 600 144 L 552 144 M 552 144 A 8 8 0 0 0 544 152 L 544 176" stroke-miterlimit="10"/></g><g transform="translate(-134,-78) scale(1,1)"><path fill="#000000" stroke="none" d="M 539.790482243984 165.83732514237585 L 544 176 L 548.209517756016 165.83732514237585"/></g><g transform="translate(-134,-78) scale(1,1)"><path fill="none" stroke="#000000" d="M 539.790482243984 165.83732514237585 L 544 176 L 548.209517756016 165.83732514237585 L 539.790482243984 165.83732514237585" stroke-miterlimit="10"/></g><g transform="translate(-134,-78) scale(1,1)"><path fill="#ffffff" stroke="none" d="M 288 104 L 346 104 L 356 114 L 356 166 L 288 166 L 288 104"/></g><g transform="translate(-134,-78) scale(1,1)"><path fill="none" stroke="#000000" d="M 288 104 L 346 104 L 356 114 L 356 166 L 288 166 L 288 104 L 288 104" stroke-miterlimit="10"/></g><g transform="translate(-134,-78) scale(1,1)"><path fill="none" stroke="#000000" d="M 346 104 L 346 114 L 356 114 L 346 104" stroke-miterlimit="10"/></g><g transform="translate(-134,-78) scale(1,1)"><g><path fill="none" stroke="none"/><text fill="#000000" stroke="none" font-family="Arial" font-size="13px" font-style="normal" font-weight="normal" text-decoration="none" x="293" y="122">Pour une</text><text fill="#000000" stroke="none" font-family="Arial" font-size="13px" font-style="normal" font-weight="normal" text-decoration="none" x="293" y="135">année</text><text fill="#000000" stroke="none" font-family="Arial" font-size="13px" font-style="normal" font-weight="normal" text-decoration="none" x="293" y="148">donnée</text></g></g><g transform="translate(-134,-78) scale(1,1)"><path fill="none" stroke="#000000" d="M 358 129 L 383 125" stroke-miterlimit="10" stroke-dasharray="3"/></g><g transform="translate(-134,-78) scale(1,1)"><path fill="#cce18d" stroke="none" d="M 368 323.5 L 460.58447265625 272 L 553.1689453125 323.5 L 460.58447265625 375 L 368 323.5"/></g><g transform="translate(-134,-78) scale(1,1)"><path fill="none" stroke="#000000" d="M 368 323.5 L 460.58447265625 272 L 553.1689453125 323.5 L 460.58447265625 375 L 368 323.5 L 368 323.5" stroke-miterlimit="10"/></g><g transform="translate(-134,-78) scale(1,1)"><g><path fill="none" stroke="none"/><text fill="#000000" stroke="none" font-family="Arial" font-size="13px" font-style="normal" font-weight="normal" text-decoration="none" x="438.18359375" y="310.5">tous les</text><text fill="#000000" stroke="none" font-family="Arial" font-size="13px" font-style="normal" font-weight="normal" text-decoration="none" x="428.7890625" y="323.5">comptages</text><text fill="#000000" stroke="none" font-family="Arial" font-size="13px" font-style="normal" font-weight="normal" text-decoration="none" x="415.41455078125" y="336.5">hors période de</text><text fill="#000000" stroke="none" font-family="Arial" font-size="13px" font-style="normal" font-weight="normal" text-decoration="none" x="427.70361328125" y="349.5">vacances ?</text></g></g><g transform="translate(-134,-78) scale(1,1)"><path fill="#cce18d" stroke="none" d="M 376 467.5 L 456.58447265625 416 L 537.1689453125 467.5 L 456.58447265625 519 L 376 467.5"/></g><g transform="translate(-134,-78) scale(1,1)"><path fill="none" stroke="#000000" d="M 376 467.5 L 456.58447265625 416 L 537.1689453125 467.5 L 456.58447265625 519 L 376 467.5 L 376 467.5" stroke-miterlimit="10"/></g><g transform="translate(-134,-78) scale(1,1)"><g><path fill="none" stroke="none"/><text fill="#000000" stroke="none" font-family="Arial" font-size="13px" font-style="normal" font-weight="normal" text-decoration="none" x="432.739501953125" y="454.5">Tous les</text><text fill="#000000" stroke="none" font-family="Arial" font-size="13px" font-style="normal" font-weight="normal" text-decoration="none" x="424.7890625" y="467.5">comptages</text><text fill="#000000" stroke="none" font-family="Arial" font-size="13px" font-style="normal" font-weight="normal" text-decoration="none" x="416.8291015625" y="480.5">en période de</text><text fill="#000000" stroke="none" font-family="Arial" font-size="13px" font-style="normal" font-weight="normal" text-decoration="none" x="423.70361328125" y="493.5">vacances ?</text></g></g><g transform="translate(-134,-78) scale(1,1)"><rect fill="#fff07c" stroke="none" x="568" y="368" width="105.70263671875" height="45"/></g><g transform="translate(-134,-78) scale(1,1)"><path fill="none" stroke="#000000" d="M 568 368 L 673.70263671875 368 L 673.70263671875 413 L 568 413 L 568 368 Z Z" stroke-miterlimit="10"/></g><g transform="translate(-134,-78) scale(1,1)"><g><path fill="none" stroke="none"/><text fill="#000000" stroke="none" font-family="Arial" font-size="13px" font-style="normal" font-weight="normal" text-decoration="none" x="577.5" y="390.5">Hiérarchisation</text><text fill="#000000" stroke="none" font-family="Arial" font-size="13px" font-style="normal" font-weight="normal" text-decoration="none" x="581.47998046875" y="403.5">par trafic max</text></g></g><g transform="translate(-134,-78) scale(1,1)"><path fill="#f8a9cc" stroke="#000000" d="M 776 357 C 776 354.238576 802.2541898445312 352 834.640380859375 352 C 867.0265718742188 352 893.28076171875 354.238576 893.28076171875 357 L 893.28076171875 392 C 893.28076171875 394.761424 867.0265718742188 397 834.640380859375 397 C 802.2541898445312 397 776 394.761424 776 392 L 776 357 Z" stroke-miterlimit="10"/></g><g transform="translate(-134,-78) scale(1,1)"><path fill="none" stroke="#000000" d="M 776 357 C 776 359.761424 802.2541898445312 362 834.640380859375 362 C 867.0265718742188 362 893.28076171875 359.761424 893.28076171875 357" stroke-miterlimit="10"/></g><g transform="translate(-134,-78) scale(1,1)"><g><path fill="none" stroke="none"/><text fill="#000000" stroke="none" font-family="Arial" font-size="13px" font-style="normal" font-weight="normal" text-decoration="none" x="810.79541015625" y="377">Schema</text><text fill="#000000" stroke="none" font-family="Arial" font-size="13px" font-style="normal" font-weight="normal" text-decoration="none" x="785.5" y="390">comptage_assoc</text></g></g><g transform="translate(-134,-78) scale(1,1)"><path fill="#dee7fe" stroke="none" d="M 519 648 L 593.8271484375 648 L 578.8271484375 706 L 504 706 L 519 648"/></g><g transform="translate(-134,-78) scale(1,1)"><path fill="none" stroke="#000000" d="M 519 648 L 593.8271484375 648 L 578.8271484375 706 L 504 706 L 519 648 L 519 648" stroke-miterlimit="10"/></g><g transform="translate(-134,-78) scale(1,1)"><g><path fill="none" stroke="none"/><text fill="#000000" stroke="none" font-family="Arial" font-size="13px" font-style="normal" font-weight="normal" text-decoration="none" x="517.1181640625" y="670.5">comptages</text><text fill="#000000" stroke="none" font-family="Arial" font-size="13px" font-style="normal" font-weight="normal" text-decoration="none" x="536.26904296875" y="683.5">hors</text><text fill="#000000" stroke="none" font-family="Arial" font-size="13px" font-style="normal" font-weight="normal" text-decoration="none" x="521.45361328125" y="696.5">vacances</text></g></g><g transform="translate(-134,-78) scale(1,1)"><path fill="#dee7fe" stroke="none" d="M 351 648 L 425.8271484375 648 L 410.8271484375 706 L 336 706 L 351 648"/></g><g transform="translate(-134,-78) scale(1,1)"><path fill="none" stroke="#000000" d="M 351 648 L 425.8271484375 648 L 410.8271484375 706 L 336 706 L 351 648 L 351 648" stroke-miterlimit="10"/></g><g transform="translate(-134,-78) scale(1,1)"><g><path fill="none" stroke="none"/><text fill="#000000" stroke="none" font-family="Arial" font-size="13px" font-style="normal" font-weight="normal" text-decoration="none" x="349.1181640625" y="670.5">comptages</text><text fill="#000000" stroke="none" font-family="Arial" font-size="13px" font-style="normal" font-weight="normal" text-decoration="none" x="373.68359375" y="683.5">en</text><text fill="#000000" stroke="none" font-family="Arial" font-size="13px" font-style="normal" font-weight="normal" text-decoration="none" x="353.45361328125" y="696.5">vacances</text></g></g><g transform="translate(-134,-78) scale(1,1)"><path fill="none" stroke="#000000" d="M 432 232 L 345 232" stroke-miterlimit="10"/></g><g transform="translate(-134,-78) scale(1,1)"><path fill="#000000" stroke="none" d="M 355.16267485762415 227.790482243984 L 345 232 L 355.16267485762415 236.209517756016"/></g><g transform="translate(-134,-78) scale(1,1)"><path fill="none" stroke="#000000" d="M 355.16267485762415 227.790482243984 L 345 232 L 355.16267485762415 236.209517756016 L 355.16267485762415 227.790482243984" stroke-miterlimit="10"/></g><g transform="translate(-134,-78) scale(1,1)"><g><path fill="none" stroke="none"/><text fill="#000000" stroke="none" font-family="Arial" font-size="13px" font-style="normal" font-weight="normal" text-decoration="none" x="372.5" y="253.5">oui</text></g></g><g transform="translate(-134,-78) scale(1,1)"><path fill="#cce18d" stroke="none" d="M 624 504.5 L 712 440 L 800 504.5 L 712 569 L 624 504.5"/></g><g transform="translate(-134,-78) scale(1,1)"><path fill="none" stroke="#000000" d="M 624 504.5 L 712 440 L 800 504.5 L 712 569 L 624 504.5 L 624 504.5" stroke-miterlimit="10"/></g><g transform="translate(-134,-78) scale(1,1)"><g><path fill="none" stroke="none"/><text fill="#000000" stroke="none" font-family="Arial" font-size="13px" font-style="normal" font-weight="normal" text-decoration="none" x="683.819580078125" y="485">points sur</text><text fill="#000000" stroke="none" font-family="Arial" font-size="13px" font-style="normal" font-weight="normal" text-decoration="none" x="690.319580078125" y="498">tronçon</text><text fill="#000000" stroke="none" font-family="Arial" font-size="13px" font-style="normal" font-weight="normal" text-decoration="none" x="681.280517578125" y="511">homogène</text><text fill="#000000" stroke="none" font-family="Arial" font-size="13px" font-style="normal" font-weight="normal" text-decoration="none" x="679.119140625" y="524">avec points</text><text fill="#000000" stroke="none" font-family="Arial" font-size="13px" font-style="normal" font-weight="normal" text-decoration="none" x="675.1455078125" y="537">historiques ?</text></g></g><g transform="translate(-134,-78) scale(1,1)"><rect fill="#fff07c" stroke="none" x="752" y="624" width="87" height="58"/></g><g transform="translate(-134,-78) scale(1,1)"><path fill="none" stroke="#000000" d="M 752 624 L 839 624 L 839 682 L 752 682 L 752 624 Z Z" stroke-miterlimit="10"/></g><g transform="translate(-134,-78) scale(1,1)"><g><path fill="none" stroke="none"/><text fill="#000000" stroke="none" font-family="Arial" font-size="13px" font-style="normal" font-weight="normal" text-decoration="none" x="770.931396484375" y="646.5">Création</text><text fill="#000000" stroke="none" font-family="Arial" font-size="13px" font-style="normal" font-weight="normal" text-decoration="none" x="770.56005859375" y="659.5">nouveau</text><text fill="#000000" stroke="none" font-family="Arial" font-size="13px" font-style="normal" font-weight="normal" text-decoration="none" x="779.59912109375" y="672.5">point </text></g></g><g transform="translate(-134,-78) scale(1,1)"><rect fill="#fff07c" stroke="none" x="624" y="632" width="119" height="45"/></g><g transform="translate(-134,-78) scale(1,1)"><path fill="none" stroke="#000000" d="M 624 632 L 743 632 L 743 677 L 624 677 L 624 632 Z Z" stroke-miterlimit="10"/></g><g transform="translate(-134,-78) scale(1,1)"><g><path fill="none" stroke="none"/><text fill="#000000" stroke="none" font-family="Arial" font-size="13px" font-style="normal" font-weight="normal" text-decoration="none" x="635.81005859375" y="654.5">Mise à jour point</text><text fill="#000000" stroke="none" font-family="Arial" font-size="13px" font-style="normal" font-weight="normal" text-decoration="none" x="661.09912109375" y="667.5">existant</text></g></g><g transform="translate(-134,-78) scale(1,1)"><path fill="none" stroke="#000000" d="M 553 312 L 560 312 M 560 312 A 8 8 0 0 1 568 320 L 568 368" stroke-miterlimit="10"/></g><g transform="translate(-134,-78) scale(1,1)"><path fill="#000000" stroke="none" d="M 563.790482243984 357.83732514237585 L 568 368 L 572.209517756016 357.83732514237585"/></g><g transform="translate(-134,-78) scale(1,1)"><path fill="none" stroke="#000000" d="M 563.790482243984 357.83732514237585 L 568 368 L 572.209517756016 357.83732514237585 L 563.790482243984 357.83732514237585" stroke-miterlimit="10"/></g><g transform="translate(-134,-78) scale(1,1)"><g><path fill="none" stroke="none"/><text fill="#000000" stroke="none" font-family="Arial" font-size="13px" font-style="normal" font-weight="normal" text-decoration="none" x="573.5" y="317.5">oui</text></g></g><g transform="translate(-134,-78) scale(1,1)"><path fill="none" stroke="#000000" d="M 456 375 L 456 416" stroke-miterlimit="10"/></g><g transform="translate(-134,-78) scale(1,1)"><path fill="#000000" stroke="none" d="M 451.790482243984 405.83732514237585 L 456 416 L 460.209517756016 405.83732514237585"/></g><g transform="translate(-134,-78) scale(1,1)"><path fill="none" stroke="#000000" d="M 451.790482243984 405.83732514237585 L 456 416 L 460.209517756016 405.83732514237585 L 451.790482243984 405.83732514237585" stroke-miterlimit="10"/></g><g transform="translate(-134,-78) scale(1,1)"><g><path fill="none" stroke="none"/><text fill="#000000" stroke="none" font-family="Arial" font-size="13px" font-style="normal" font-weight="normal" text-decoration="none" x="459.5" y="400.5">non</text></g></g><g transform="translate(-134,-78) scale(1,1)"><path fill="none" stroke="#000000" d="M 537 464 L 584 464 M 584 464 A 8 8 0 0 0 592 456 L 592 413" stroke-miterlimit="10"/></g><g transform="translate(-134,-78) scale(1,1)"><path fill="#000000" stroke="none" d="M 596.209517756016 423.16267485762415 L 592 413 L 587.790482243984 423.16267485762415"/></g><g transform="translate(-134,-78) scale(1,1)"><path fill="none" stroke="#000000" d="M 596.209517756016 423.16267485762415 L 592 413 L 587.790482243984 423.16267485762415 L 596.209517756016 423.16267485762415" stroke-miterlimit="10"/></g><g transform="translate(-134,-78) scale(1,1)"><g><path fill="none" stroke="none"/><text fill="#000000" stroke="none" font-family="Arial" font-size="13px" font-style="normal" font-weight="normal" text-decoration="none" x="550.5" y="460.5">oui</text></g></g><g transform="translate(-134,-78) scale(1,1)"><path fill="none" stroke="#000000" d="M 456 519 L 456 552" stroke-miterlimit="10"/></g><g transform="translate(-134,-78) scale(1,1)"><path fill="#000000" stroke="none" d="M 451.790482243984 541.8373251423759 L 456 552 L 460.209517756016 541.8373251423759"/></g><g transform="translate(-134,-78) scale(1,1)"><path fill="none" stroke="#000000" d="M 451.790482243984 541.8373251423759 L 456 552 L 460.209517756016 541.8373251423759 L 451.790482243984 541.8373251423759" stroke-miterlimit="10"/></g><g transform="translate(-134,-78) scale(1,1)"><g><path fill="none" stroke="none"/><text fill="#000000" stroke="none" font-family="Arial" font-size="13px" font-style="normal" font-weight="normal" text-decoration="none" x="458.5" y="540.5">Non</text></g></g><g transform="translate(-134,-78) scale(1,1)"><rect fill="#fff07c" stroke="none" x="424" y="552" width="87" height="79"/></g><g transform="translate(-134,-78) scale(1,1)"><path fill="none" stroke="#000000" d="M 424 552 L 511 552 L 511 631 L 424 631 L 424 552 Z Z" stroke-miterlimit="10"/></g><g transform="translate(-134,-78) scale(1,1)"><g><path fill="none" stroke="none"/><text fill="#000000" stroke="none" font-family="Arial" font-size="13px" font-style="normal" font-weight="normal" text-decoration="none" x="437.1455078125" y="574.5">séparation</text><text fill="#000000" stroke="none" font-family="Arial" font-size="13px" font-style="normal" font-weight="normal" text-decoration="none" x="451.9609375" y="587.5">selon</text><text fill="#000000" stroke="none" font-family="Arial" font-size="13px" font-style="normal" font-weight="normal" text-decoration="none" x="445.81640625" y="600.5">période</text><text fill="#000000" stroke="none" font-family="Arial" font-size="13px" font-style="normal" font-weight="normal" text-decoration="none" x="445.102294921875" y="613.5">scolaire</text></g></g><g transform="translate(-134,-78) scale(1,1)"><path fill="none" stroke="#000000" d="M 592 648 L 592 413" stroke-miterlimit="10"/></g><g transform="translate(-134,-78) scale(1,1)"><path fill="#000000" stroke="none" d="M 596.209517756016 423.16267485762415 L 592 413 L 587.790482243984 423.16267485762415"/></g><g transform="translate(-134,-78) scale(1,1)"><path fill="none" stroke="#000000" d="M 596.209517756016 423.16267485762415 L 592 413 L 587.790482243984 423.16267485762415 L 596.209517756016 423.16267485762415" stroke-miterlimit="10"/></g><g transform="translate(-134,-78) scale(1,1)"><path fill="none" stroke="#000000" d="M 424 592 L 388 592 M 388 592 A 8 8 0 0 0 380 600 L 380 648" stroke-miterlimit="10"/></g><g transform="translate(-134,-78) scale(1,1)"><path fill="#000000" stroke="none" d="M 375.790482243984 637.8373251423759 L 380 648 L 384.209517756016 637.8373251423759"/></g><g transform="translate(-134,-78) scale(1,1)"><path fill="none" stroke="#000000" d="M 375.790482243984 637.8373251423759 L 380 648 L 384.209517756016 637.8373251423759 L 375.790482243984 637.8373251423759" stroke-miterlimit="10"/></g><g transform="translate(-134,-78) scale(1,1)"><path fill="none" stroke="#000000" d="M 511 592 L 520 592 M 520 592 A 8 8 0 0 1 528 600 L 528 648" stroke-miterlimit="10"/></g><g transform="translate(-134,-78) scale(1,1)"><path fill="#000000" stroke="none" d="M 523.790482243984 637.8373251423759 L 528 648 L 532.209517756016 637.8373251423759"/></g><g transform="translate(-134,-78) scale(1,1)"><path fill="none" stroke="#000000" d="M 523.790482243984 637.8373251423759 L 528 648 L 532.209517756016 637.8373251423759 L 523.790482243984 637.8373251423759" stroke-miterlimit="10"/></g><g transform="translate(-134,-78) scale(1,1)"><path fill="#cce18d" stroke="none" d="M 664 302.5 L 720.5908203125 264 L 777.181640625 302.5 L 720.5908203125 341 L 664 302.5"/></g><g transform="translate(-134,-78) scale(1,1)"><path fill="none" stroke="#000000" d="M 664 302.5 L 720.5908203125 264 L 777.181640625 302.5 L 720.5908203125 341 L 664 302.5 L 664 302.5" stroke-miterlimit="10"/></g><g transform="translate(-134,-78) scale(1,1)"><g><path fill="none" stroke="none"/><text fill="#000000" stroke="none" font-family="Arial" font-size="13px" font-style="normal" font-weight="normal" text-decoration="none" x="692.04541015625" y="296">comptage</text><text fill="#000000" stroke="none" font-family="Arial" font-size="13px" font-style="normal" font-weight="normal" text-decoration="none" x="697.469482421875" y="309">de trafic</text><text fill="#000000" stroke="none" font-family="Arial" font-size="13px" font-style="normal" font-weight="normal" text-decoration="none" x="702.890380859375" y="322">max ?</text></g></g><g transform="translate(-134,-78) scale(1,1)"><path fill="none" stroke="#000000" d="M 624 368 L 624 304 L 664 304" stroke-miterlimit="10"/></g><g transform="translate(-134,-78) scale(1,1)"><path fill="#000000" stroke="none" d="M 653.8373251423759 308.209517756016 L 664 304 L 653.8373251423758 299.790482243984"/></g><g transform="translate(-134,-78) scale(1,1)"><path fill="none" stroke="#000000" d="M 653.8373251423759 308.209517756016 L 664 304 L 653.8373251423758 299.790482243984 L 653.8373251423759 308.209517756016" stroke-miterlimit="10"/></g><g transform="translate(-134,-78) scale(1,1)"><path fill="none" stroke="#000000" d="M 720 341 L 720 440" stroke-miterlimit="10"/></g><g transform="translate(-134,-78) scale(1,1)"><path fill="#000000" stroke="none" d="M 715.790482243984 429.83732514237585 L 720 440 L 724.209517756016 429.83732514237585"/></g><g transform="translate(-134,-78) scale(1,1)"><path fill="none" stroke="#000000" d="M 715.790482243984 429.83732514237585 L 720 440 L 724.209517756016 429.83732514237585 L 715.790482243984 429.83732514237585" stroke-miterlimit="10"/></g><g transform="translate(-134,-78) scale(1,1)"><g><path fill="none" stroke="none"/><text fill="#000000" stroke="none" font-family="Arial" font-size="13px" font-style="normal" font-weight="normal" text-decoration="none" x="723.5" y="395.5">Oui</text></g></g><g transform="translate(-134,-78) scale(1,1)"><path fill="none" stroke="#000000" d="M 664 569 L 664 632" stroke-miterlimit="10"/></g><g transform="translate(-134,-78) scale(1,1)"><path fill="#000000" stroke="none" d="M 659.790482243984 621.8373251423759 L 664 632 L 668.209517756016 621.8373251423759"/></g><g transform="translate(-134,-78) scale(1,1)"><path fill="none" stroke="#000000" d="M 659.790482243984 621.8373251423759 L 664 632 L 668.209517756016 621.8373251423759 L 659.790482243984 621.8373251423759" stroke-miterlimit="10"/></g><g transform="translate(-134,-78) scale(1,1)"><g><path fill="none" stroke="none"/><text fill="#000000" stroke="none" font-family="Arial" font-size="13px" font-style="normal" font-weight="normal" text-decoration="none" x="667.5" y="605.5">Oui</text></g></g><g transform="translate(-134,-78) scale(1,1)"><path fill="none" stroke="#000000" d="M 715 677 L 715 704 L 858 704 L 858 488" stroke-miterlimit="10"/></g><g transform="translate(-134,-78) scale(1,1)"><path fill="#000000" stroke="none" d="M 862.209517756016 498.16267485762415 L 858 488 L 853.790482243984 498.16267485762415"/></g><g transform="translate(-134,-78) scale(1,1)"><path fill="none" stroke="#000000" d="M 862.209517756016 498.16267485762415 L 858 488 L 853.790482243984 498.16267485762415 L 862.209517756016 498.16267485762415" stroke-miterlimit="10"/></g><g transform="translate(-134,-78) scale(1,1)"><path fill="none" stroke="#000000" d="M 839 648 L 850 648 M 850 648 A 8 8 0 0 0 858 640 L 858 488" stroke-miterlimit="10"/></g><g transform="translate(-134,-78) scale(1,1)"><path fill="#000000" stroke="none" d="M 862.209517756016 498.16267485762415 L 858 488 L 853.790482243984 498.16267485762415"/></g><g transform="translate(-134,-78) scale(1,1)"><path fill="none" stroke="#000000" d="M 862.209517756016 498.16267485762415 L 858 488 L 853.790482243984 498.16267485762415 L 862.209517756016 498.16267485762415" stroke-miterlimit="10"/></g><g transform="translate(-134,-78) scale(1,1)"><path fill="none" stroke="#000000" d="M 792 569 L 792 624" stroke-miterlimit="10"/></g><g transform="translate(-134,-78) scale(1,1)"><path fill="#000000" stroke="none" d="M 787.790482243984 613.8373251423759 L 792 624 L 796.209517756016 613.8373251423759"/></g><g transform="translate(-134,-78) scale(1,1)"><path fill="none" stroke="#000000" d="M 787.790482243984 613.8373251423759 L 792 624 L 796.209517756016 613.8373251423759 L 787.790482243984 613.8373251423759" stroke-miterlimit="10"/></g><g transform="translate(-134,-78) scale(1,1)"><g><path fill="none" stroke="none"/><text fill="#000000" stroke="none" font-family="Arial" font-size="13px" font-style="normal" font-weight="normal" text-decoration="none" x="789.075927734375" y="610.5">Non</text></g></g><g transform="translate(-134,-78) scale(1,1)"><path fill="none" stroke="#000000" d="M 777 304 L 824 304 M 824 304 A 8 8 0 0 1 832 312 L 832 352" stroke-miterlimit="10"/></g><g transform="translate(-134,-78) scale(1,1)"><path fill="#000000" stroke="none" d="M 827.790482243984 341.83732514237585 L 832 352 L 836.209517756016 341.83732514237585"/></g><g transform="translate(-134,-78) scale(1,1)"><path fill="none" stroke="#000000" d="M 827.790482243984 341.83732514237585 L 832 352 L 836.209517756016 341.83732514237585 L 827.790482243984 341.83732514237585" stroke-miterlimit="10"/></g><g transform="translate(-134,-78) scale(1,1)"><g><path fill="none" stroke="none"/><text fill="#000000" stroke="none" font-family="Arial" font-size="13px" font-style="normal" font-weight="normal" text-decoration="none" x="834.5" y="309.5">Non</text></g></g><g transform="translate(-134,-78) scale(1,1)"><path fill="none" stroke="#000000" d="M 412 706 L 412 736 M 412 736 A 8 8 0 0 0 420 744 L 944 744 M 944 744 A 8 8 0 0 0 952 736 L 952 384 M 952 384 A 8 8 0 0 0 944 376 L 893 376" stroke-miterlimit="10"/></g><g transform="translate(-134,-78) scale(1,1)"><path fill="#000000" stroke="none" d="M 903.1626748576241 371.790482243984 L 893 376 L 903.1626748576241 380.209517756016"/></g><g transform="translate(-134,-78) scale(1,1)"><path fill="none" stroke="#000000" d="M 903.1626748576241 371.790482243984 L 893 376 L 903.1626748576241 380.209517756016 L 903.1626748576241 371.790482243984" stroke-miterlimit="10"/></g><g transform="translate(-134,-78) scale(1,1)"><path fill="#cce18d" stroke="none" d="M 232 230.5 L 288.58447265625 192 L 345.1689453125 230.5 L 288.58447265625 269 L 232 230.5"/></g><g transform="translate(-134,-78) scale(1,1)"><path fill="none" stroke="#000000" d="M 232 230.5 L 288.58447265625 192 L 345.1689453125 230.5 L 288.58447265625 269 L 232 230.5 L 232 230.5" stroke-miterlimit="10"/></g><g transform="translate(-134,-78) scale(1,1)"><g><path fill="none" stroke="none"/><text fill="#000000" stroke="none" font-family="Arial" font-size="13px" font-style="normal" font-weight="normal" text-decoration="none" x="262.57177734375" y="224">plusieurs</text><text fill="#000000" stroke="none" font-family="Arial" font-size="13px" font-style="normal" font-weight="normal" text-decoration="none" x="267.2626953125" y="237">type de</text><text fill="#000000" stroke="none" font-family="Arial" font-size="13px" font-style="normal" font-weight="normal" text-decoration="none" x="267.2626953125" y="250">poste ?</text></g></g><g transform="translate(-134,-78) scale(1,1)"><rect fill="#fff07c" stroke="none" x="152" y="320" width="103.54443359375" height="58"/></g><g transform="translate(-134,-78) scale(1,1)"><path fill="none" stroke="#000000" d="M 152 320 L 255.54443359375 320 L 255.54443359375 378 L 152 378 L 152 320 Z Z" stroke-miterlimit="10"/></g><g transform="translate(-134,-78) scale(1,1)"><g><path fill="none" stroke="none"/><text fill="#000000" stroke="none" font-family="Arial" font-size="13px" font-style="normal" font-weight="normal" text-decoration="none" x="161.5" y="342.5">hiérarchisation</text><text fill="#000000" stroke="none" font-family="Arial" font-size="13px" font-style="normal" font-weight="normal" text-decoration="none" x="171.25" y="355.5">par type de</text><text fill="#000000" stroke="none" font-family="Arial" font-size="13px" font-style="normal" font-weight="normal" text-decoration="none" x="187.871337890625" y="368.5">poste</text></g></g><g transform="translate(-134,-78) scale(1,1)"><path fill="#ffffff" stroke="none" d="M 144 560 L 253 560 L 263 570 L 263 667 L 144 667 L 144 560"/></g><g transform="translate(-134,-78) scale(1,1)"><path fill="none" stroke="#000000" d="M 144 560 L 253 560 L 263 570 L 263 667 L 144 667 L 144 560 L 144 560" stroke-miterlimit="10"/></g><g transform="translate(-134,-78) scale(1,1)"><path fill="none" stroke="#000000" d="M 253 560 L 253 570 L 263 570 L 253 560" stroke-miterlimit="10"/></g><g transform="translate(-134,-78) scale(1,1)"><g><path fill="none" stroke="none"/><text fill="#000000" stroke="none" font-family="Arial" font-size="13px" font-style="normal" font-weight="normal" text-decoration="none" x="149" y="578">hiérarchisation du</text><text fill="#000000" stroke="none" font-family="Arial" font-size="13px" font-style="normal" font-weight="normal" text-decoration="none" x="149" y="591">+ prioritaire au</text><text fill="#000000" stroke="none" font-family="Arial" font-size="13px" font-style="normal" font-weight="normal" text-decoration="none" x="149" y="604">moins prioritaire : </text></g></g><g transform="translate(-134,-78) scale(1,1)"><g><path fill="none" stroke="none"/><text fill="#000000" stroke="none" font-family="Arial" font-size="13px" font-style="normal" font-weight="normal" text-decoration="none" x="149" y="619">1. Permanent</text></g></g><g transform="translate(-134,-78) scale(1,1)"><g><path fill="none" stroke="none"/><text fill="#000000" stroke="none" font-family="Arial" font-size="13px" font-style="normal" font-weight="normal" text-decoration="none" x="149" y="634">2. Tournant</text></g></g><g transform="translate(-134,-78) scale(1,1)"><g><path fill="none" stroke="none"/><text fill="#000000" stroke="none" font-family="Arial" font-size="13px" font-style="normal" font-weight="normal" text-decoration="none" x="149" y="649">3.Ponctuel</text></g></g><g transform="translate(-134,-78) scale(1,1)"><path fill="none" stroke="#000000" d="M 168 560 L 168 378" stroke-miterlimit="10" stroke-dasharray="3"/></g><g transform="translate(-134,-78) scale(1,1)"><path fill="none" stroke="#000000" d="M 288 269 L 288 312 M 288 312 A 8 8 0 0 0 296 320 L 368 320" stroke-miterlimit="10"/></g><g transform="translate(-134,-78) scale(1,1)"><path fill="#000000" stroke="none" d="M 357.83732514237585 324.209517756016 L 368 320 L 357.83732514237585 315.790482243984"/></g><g transform="translate(-134,-78) scale(1,1)"><path fill="none" stroke="#000000" d="M 357.83732514237585 324.209517756016 L 368 320 L 357.83732514237585 315.790482243984 L 357.83732514237585 324.209517756016" stroke-miterlimit="10"/></g><g transform="translate(-134,-78) scale(1,1)"><g><path fill="none" stroke="none"/><text fill="#000000" stroke="none" font-family="Arial" font-size="13px" font-style="normal" font-weight="normal" text-decoration="none" x="295.5" y="292.5">Non</text></g></g><g transform="translate(-134,-78) scale(1,1)"><path fill="#dee7fe" stroke="none" d="M 300 376 L 361.18359375 376 L 349.18359375 421 L 288 421 L 300 376"/></g><g transform="translate(-134,-78) scale(1,1)"><path fill="none" stroke="#000000" d="M 300 376 L 361.18359375 376 L 349.18359375 421 L 288 421 L 300 376 L 300 376" stroke-miterlimit="10"/></g><g transform="translate(-134,-78) scale(1,1)"><g><path fill="none" stroke="none"/><text fill="#000000" stroke="none" font-family="Arial" font-size="13px" font-style="normal" font-weight="normal" text-decoration="none" x="310.5" y="398.5">Type</text><text fill="#000000" stroke="none" font-family="Arial" font-size="13px" font-style="normal" font-weight="normal" text-decoration="none" x="297.5" y="411.5">prioritaire</text></g></g><g transform="translate(-134,-78) scale(1,1)"><path fill="#dee7fe" stroke="none" d="M 285 488 L 351.68359375 488 L 338.68359375 546 L 272 546 L 285 488"/></g><g transform="translate(-134,-78) scale(1,1)"><path fill="none" stroke="#000000" d="M 285 488 L 351.68359375 488 L 338.68359375 546 L 272 546 L 285 488 L 285 488" stroke-miterlimit="10"/></g><g transform="translate(-134,-78) scale(1,1)"><g><path fill="none" stroke="none"/><text fill="#000000" stroke="none" font-family="Arial" font-size="13px" font-style="normal" font-weight="normal" text-decoration="none" x="297.75" y="504">Type</text><text fill="#000000" stroke="none" font-family="Arial" font-size="13px" font-style="normal" font-weight="normal" text-decoration="none" x="300.996826171875" y="517">non</text><text fill="#000000" stroke="none" font-family="Arial" font-size="13px" font-style="normal" font-weight="normal" text-decoration="none" x="281.5" y="530">prioritaires</text></g></g><g transform="translate(-134,-78) scale(1,1)"><path fill="none" stroke="#000000" d="M 232 232 L 208 232 M 208 232 A 8 8 0 0 0 200 240 L 200 320" stroke-miterlimit="10"/></g><g transform="translate(-134,-78) scale(1,1)"><path fill="#000000" stroke="none" d="M 195.790482243984 309.83732514237585 L 200 320 L 204.209517756016 309.83732514237585"/></g><g transform="translate(-134,-78) scale(1,1)"><path fill="none" stroke="#000000" d="M 195.790482243984 309.83732514237585 L 200 320 L 204.209517756016 309.83732514237585 L 195.790482243984 309.83732514237585" stroke-miterlimit="10"/></g><g transform="translate(-134,-78) scale(1,1)"><g><path fill="none" stroke="none"/><text fill="#000000" stroke="none" font-family="Arial" font-size="13px" font-style="normal" font-weight="normal" text-decoration="none" x="203.5" y="237.5">Oui</text></g></g><g transform="translate(-134,-78) scale(1,1)"><path fill="none" stroke="#000000" d="M 203 378 L 203 509 M 203 509 A 8 8 0 0 0 211 517 L 272 517" stroke-miterlimit="10"/></g><g transform="translate(-134,-78) scale(1,1)"><path fill="#000000" stroke="none" d="M 261.83732514237585 521.209517756016 L 272 517 L 261.83732514237585 512.790482243984"/></g><g transform="translate(-134,-78) scale(1,1)"><path fill="none" stroke="#000000" d="M 261.83732514237585 521.209517756016 L 272 517 L 261.83732514237585 512.790482243984 L 261.83732514237585 521.209517756016" stroke-miterlimit="10"/></g><g transform="translate(-134,-78) scale(1,1)"><path fill="none" stroke="#000000" d="M 300 376 L 300 328 M 300 328 A 8 8 0 0 1 308 320 L 368 320" stroke-miterlimit="10"/></g><g transform="translate(-134,-78) scale(1,1)"><path fill="#000000" stroke="none" d="M 357.83732514237585 324.209517756016 L 368 320 L 357.83732514237585 315.790482243984"/></g><g transform="translate(-134,-78) scale(1,1)"><path fill="none" stroke="#000000" d="M 357.83732514237585 324.209517756016 L 368 320 L 357.83732514237585 315.790482243984 L 357.83732514237585 324.209517756016" stroke-miterlimit="10"/></g><g transform="translate(-134,-78) scale(1,1)"><path fill="none" stroke="#000000" d="M 304 546 L 304 736 M 304 736 A 8 8 0 0 0 312 744 L 944 744 M 944 744 A 8 8 0 0 0 952 736 L 952 382 M 952 382 A 8 8 0 0 0 944 374 L 893 374" stroke-miterlimit="10"/></g><g transform="translate(-134,-78) scale(1,1)"><path fill="#000000" stroke="none" d="M 903.1626748576241 369.790482243984 L 893 374 L 903.1626748576241 378.209517756016"/></g><g transform="translate(-134,-78) scale(1,1)"><path fill="none" stroke="#000000" d="M 903.1626748576241 369.790482243984 L 893 374 L 903.1626748576241 378.209517756016 L 903.1626748576241 369.790482243984" stroke-miterlimit="10"/></g><g transform="translate(-134,-78) scale(1,1)"><path fill="none" stroke="#000000" d="M 203 378 L 203 390 M 203 390 A 8 8 0 0 0 211 398 L 288 398" stroke-miterlimit="10"/></g><g transform="translate(-134,-78) scale(1,1)"><path fill="#000000" stroke="none" d="M 277.83732514237585 402.209517756016 L 288 398 L 277.83732514237585 393.790482243984"/></g><g transform="translate(-134,-78) scale(1,1)"><path fill="none" stroke="#000000" d="M 277.83732514237585 402.209517756016 L 288 398 L 277.83732514237585 393.790482243984 L 277.83732514237585 402.209517756016" stroke-miterlimit="10"/></g></g></svg>