<svg version="1.1" xmlns="http://www.w3.org/2000/svg" xmlns:xlink="http://www.w3.org/1999/xlink" width="1493.544921875" height="1283"><defs/><g><g transform="translate(-86,-182) scale(1,1)"><path fill="#dee7fe" stroke="none" d="M 123 384 L 260.43701171875 384 L 233.43701171875 424 L 96 424 L 123 384"/></g><g transform="translate(-86,-182) scale(1,1)"><path fill="none" stroke="#000000" d="M 123 384 L 260.43701171875 384 L 233.43701171875 424 L 96 424 L 123 384 L 123 384" stroke-miterlimit="10"/></g><g transform="translate(-86,-182) scale(1,1)"><g><path fill="none" stroke="none"/><text fill="#000000" stroke="none" font-family="Arial" font-size="13px" font-style="normal" font-weight="normal" text-decoration="none" x="117.5" y="406.5">donnee_gestionnaire</text></g></g><g transform="translate(-86,-182) scale(1,1)"><path fill="#cce18d" stroke="none" d="M 320 408.5 L 413.45166015625 344 L 506.9033203125 408.5 L 413.45166015625 473 L 320 408.5"/></g><g transform="translate(-86,-182) scale(1,1)"><path fill="none" stroke="#000000" d="M 320 408.5 L 413.45166015625 344 L 506.9033203125 408.5 L 413.45166015625 473 L 320 408.5 L 320 408.5" stroke-miterlimit="10"/></g><g transform="translate(-86,-182) scale(1,1)"><g><path fill="none" stroke="none"/><text fill="#000000" stroke="none" font-family="Arial" font-size="13px" font-style="normal" font-weight="normal" text-decoration="none" x="401.527587890625" y="395.5">voie</text><text fill="#000000" stroke="none" font-family="Arial" font-size="13px" font-style="normal" font-weight="normal" text-decoration="none" x="366.475830078125" y="408.5">départementale,</text><text fill="#000000" stroke="none" font-family="Arial" font-size="13px" font-style="normal" font-weight="normal" text-decoration="none" x="384.1826171875" y="421.5">Nationale,</text><text fill="#000000" stroke="none" font-family="Arial" font-size="13px" font-style="normal" font-weight="normal" text-decoration="none" x="379.843994140625" y="434.5">Autoroute ?</text></g></g><g transform="translate(-86,-182) scale(1,1)"><path fill="#cce18d" stroke="none" d="M 312 664.5 L 403.9853515625 600 L 495.970703125 664.5 L 403.9853515625 729 L 312 664.5"/></g><g transform="translate(-86,-182) scale(1,1)"><path fill="none" stroke="#000000" d="M 312 664.5 L 403.9853515625 600 L 495.970703125 664.5 L 403.9853515625 729 L 312 664.5 L 312 664.5" stroke-miterlimit="10"/></g><g transform="translate(-86,-182) scale(1,1)"><g><path fill="none" stroke="none"/><text fill="#000000" stroke="none" font-family="Arial" font-size="13px" font-style="normal" font-weight="normal" text-decoration="none" x="392.061279296875" y="651.5">voie</text><text fill="#000000" stroke="none" font-family="Arial" font-size="13px" font-style="normal" font-weight="normal" text-decoration="none" x="361.351318359375" y="664.5">communale ou</text><text fill="#000000" stroke="none" font-family="Arial" font-size="13px" font-style="normal" font-weight="normal" text-decoration="none" x="357.74267578125" y="677.5">intercommunale</text><text fill="#000000" stroke="none" font-family="Arial" font-size="13px" font-style="normal" font-weight="normal" text-decoration="none" x="400.370361328125" y="690.5">?</text></g></g><g transform="translate(-86,-182) scale(1,1)"><path fill="none" stroke="#000000" d="M 408 473 L 408 600" stroke-miterlimit="10"/></g><g transform="translate(-86,-182) scale(1,1)"><path fill="#000000" stroke="none" d="M 403.790482243984 589.8373251423759 L 408 600 L 412.209517756016 589.8373251423759"/></g><g transform="translate(-86,-182) scale(1,1)"><path fill="none" stroke="#000000" d="M 403.790482243984 589.8373251423759 L 408 600 L 412.209517756016 589.8373251423759 L 403.790482243984 589.8373251423759" stroke-miterlimit="10"/></g><g transform="translate(-86,-182) scale(1,1)"><g><path fill="none" stroke="none"/><text fill="#000000" stroke="none" font-family="Arial" font-size="13px" font-style="normal" font-weight="normal" text-decoration="none" x="411.5" y="541.5">non</text></g></g><g transform="translate(-86,-182) scale(1,1)"><path fill="#cce18d" stroke="none" d="M 1040 414.5 L 1096.58447265625 376 L 1153.1689453125 414.5 L 1096.58447265625 453 L 1040 414.5"/></g><g transform="translate(-86,-182) scale(1,1)"><path fill="none" stroke="#000000" d="M 1040 414.5 L 1096.58447265625 376 L 1153.1689453125 414.5 L 1096.58447265625 453 L 1040 414.5 L 1040 414.5" stroke-miterlimit="10"/></g><g transform="translate(-86,-182) scale(1,1)"><g><path fill="none" stroke="none"/><text fill="#000000" stroke="none" font-family="Arial" font-size="13px" font-style="normal" font-weight="normal" text-decoration="none" x="1073.824951171875" y="408">champs</text><text fill="#000000" stroke="none" font-family="Arial" font-size="13px" font-style="normal" font-weight="normal" text-decoration="none" x="1087.554931640625" y="421">PR</text><text fill="#000000" stroke="none" font-family="Arial" font-size="13px" font-style="normal" font-weight="normal" text-decoration="none" x="1069.483154296875" y="434">présent ?</text></g></g><g transform="translate(-86,-182) scale(1,1)"><path fill="#cce18d" stroke="none" d="M 1272 422.5 L 1328.58447265625 384 L 1385.1689453125 422.5 L 1328.58447265625 461 L 1272 422.5"/></g><g transform="translate(-86,-182) scale(1,1)"><path fill="none" stroke="#000000" d="M 1272 422.5 L 1328.58447265625 384 L 1385.1689453125 422.5 L 1328.58447265625 461 L 1272 422.5 L 1272 422.5" stroke-miterlimit="10"/></g><g transform="translate(-86,-182) scale(1,1)"><g><path fill="none" stroke="none"/><text fill="#000000" stroke="none" font-family="Arial" font-size="13px" font-style="normal" font-weight="normal" text-decoration="none" x="1305.824951171875" y="416">champs</text><text fill="#000000" stroke="none" font-family="Arial" font-size="13px" font-style="normal" font-weight="normal" text-decoration="none" x="1303.29541015625" y="429">abscisse</text><text fill="#000000" stroke="none" font-family="Arial" font-size="13px" font-style="normal" font-weight="normal" text-decoration="none" x="1301.483154296875" y="442">présent ?</text></g></g><g transform="translate(-86,-182) scale(1,1)"><path fill="#cce18d" stroke="none" d="M 728 414.5 L 789.63720703125 376 L 851.2744140625 414.5 L 789.63720703125 453 L 728 414.5"/></g><g transform="translate(-86,-182) scale(1,1)"><path fill="none" stroke="#000000" d="M 728 414.5 L 789.63720703125 376 L 851.2744140625 414.5 L 789.63720703125 453 L 728 414.5 L 728 414.5" stroke-miterlimit="10"/></g><g transform="translate(-86,-182) scale(1,1)"><g><path fill="none" stroke="none"/><text fill="#000000" stroke="none" font-family="Arial" font-size="13px" font-style="normal" font-weight="normal" text-decoration="none" x="766.877685546875" y="408">champs</text><text fill="#000000" stroke="none" font-family="Arial" font-size="13px" font-style="normal" font-weight="normal" text-decoration="none" x="758.568603515625" y="421">NomRoute</text><text fill="#000000" stroke="none" font-family="Arial" font-size="13px" font-style="normal" font-weight="normal" text-decoration="none" x="760.72998046875" y="434">présent ? </text></g></g><g transform="translate(-86,-182) scale(1,1)"><rect fill="#fff07c" stroke="none" x="744" y="488" width="81.13720703125" height="45"/></g><g transform="translate(-86,-182) scale(1,1)"><path fill="none" stroke="#000000" d="M 744 488 L 825.13720703125 488 L 825.13720703125 533 L 744 533 L 744 488 Z Z" stroke-miterlimit="10"/></g><g transform="translate(-86,-182) scale(1,1)"><g><path fill="none" stroke="none"/><text fill="#000000" stroke="none" font-family="Arial" font-size="13px" font-style="normal" font-weight="normal" text-decoration="none" x="760.3681640625" y="510.5">formater</text><text fill="#000000" stroke="none" font-family="Arial" font-size="13px" font-style="normal" font-weight="normal" text-decoration="none" x="753.5" y="523.5">NomRoute</text></g></g><g transform="translate(-86,-182) scale(1,1)"><path fill="#ffffff" stroke="none" d="M 856 480 L 1021 480 L 1031 490 L 1031 560 L 856 560 L 856 480"/></g><g transform="translate(-86,-182) scale(1,1)"><path fill="none" stroke="#000000" d="M 856 480 L 1021 480 L 1031 490 L 1031 560 L 856 560 L 856 480 L 856 480" stroke-miterlimit="10"/></g><g transform="translate(-86,-182) scale(1,1)"><path fill="none" stroke="#000000" d="M 1021 480 L 1021 490 L 1031 490 L 1021 480" stroke-miterlimit="10"/></g><g transform="translate(-86,-182) scale(1,1)"><g><path fill="none" stroke="none"/><text fill="#000000" stroke="none" font-family="Arial" font-size="10px" font-style="normal" font-weight="normal" text-decoration="none" x="861" y="495">le format est de type (A|N|D) suivi de</text><text fill="#000000" stroke="none" font-family="Arial" font-size="10px" font-style="normal" font-weight="normal" text-decoration="none" x="861" y="505">caractère alphanumériue sans 0 non</text><text fill="#000000" stroke="none" font-family="Arial" font-size="10px" font-style="normal" font-weight="normal" text-decoration="none" x="861" y="515">significatif, puis d'éventuelles lettres</text><text fill="#000000" stroke="none" font-family="Arial" font-size="10px" font-style="normal" font-weight="normal" text-decoration="none" x="861" y="525">complémentaires, puis déventuels</text><text fill="#000000" stroke="none" font-family="Arial" font-size="10px" font-style="normal" font-weight="normal" text-decoration="none" x="861" y="535">chiffres complémentaires sans zéro</text><text fill="#000000" stroke="none" font-family="Arial" font-size="10px" font-style="normal" font-weight="normal" text-decoration="none" x="861" y="545">non significatifs</text></g></g><g transform="translate(-86,-182) scale(1,1)"><path fill="none" stroke="#000000" d="M 826 513 L 855 514" stroke-miterlimit="10" stroke-dasharray="3"/></g><g transform="translate(-86,-182) scale(1,1)"><path fill="none" stroke="#000000" d="M 507 400 L 560 400" stroke-miterlimit="10"/></g><g transform="translate(-86,-182) scale(1,1)"><path fill="#000000" stroke="none" d="M 549.8373251423759 404.209517756016 L 560 400 L 549.8373251423758 395.790482243984"/></g><g transform="translate(-86,-182) scale(1,1)"><path fill="none" stroke="#000000" d="M 549.8373251423759 404.209517756016 L 560 400 L 549.8373251423758 395.790482243984 L 549.8373251423759 404.209517756016" stroke-miterlimit="10"/></g><g transform="translate(-86,-182) scale(1,1)"><g><path fill="none" stroke="none"/><text fill="#000000" stroke="none" font-family="Arial" font-size="13px" font-style="normal" font-weight="normal" text-decoration="none" x="524.5" y="391.5">oui</text></g></g><g transform="translate(-86,-182) scale(1,1)"><rect fill="#fff07c" stroke="none" x="1064" y="496" width="73.18994140625" height="45"/></g><g transform="translate(-86,-182) scale(1,1)"><path fill="none" stroke="#000000" d="M 1064 496 L 1137.18994140625 496 L 1137.18994140625 541 L 1064 541 L 1064 496 Z Z" stroke-miterlimit="10"/></g><g transform="translate(-86,-182) scale(1,1)"><g><path fill="none" stroke="none"/><text fill="#000000" stroke="none" font-family="Arial" font-size="13px" font-style="normal" font-weight="normal" text-decoration="none" x="1076.39453125" y="518.5">formater</text><text fill="#000000" stroke="none" font-family="Arial" font-size="13px" font-style="normal" font-weight="normal" text-decoration="none" x="1091.5654296875" y="531.5">PR</text></g></g><g transform="translate(-86,-182) scale(1,1)"><path fill="#ffffff" stroke="none" d="M 1184 496 L 1237.51904296875 496 L 1247.51904296875 506 L 1247.51904296875 545 L 1184 545 L 1184 496"/></g><g transform="translate(-86,-182) scale(1,1)"><path fill="none" stroke="#000000" d="M 1184 496 L 1237.51904296875 496 L 1247.51904296875 506 L 1247.51904296875 545 L 1184 545 L 1184 496 L 1184 496" stroke-miterlimit="10"/></g><g transform="translate(-86,-182) scale(1,1)"><path fill="none" stroke="#000000" d="M 1237.51904296875 496 L 1237.51904296875 506 L 1247.51904296875 506 L 1237.51904296875 496" stroke-miterlimit="10"/></g><g transform="translate(-86,-182) scale(1,1)"><g><path fill="none" stroke="none"/><text fill="#000000" stroke="none" font-family="Arial" font-size="13px" font-style="normal" font-weight="normal" text-decoration="none" x="1189" y="514">champs</text><text fill="#000000" stroke="none" font-family="Arial" font-size="13px" font-style="normal" font-weight="normal" text-decoration="none" x="1189" y="527">integer</text><text fill="#000000" stroke="none" font-family="Arial" font-size="13px" font-style="normal" font-weight="normal" text-decoration="none" x="1189" y="540">positif</text></g></g><g transform="translate(-86,-182) scale(1,1)"><path fill="none" stroke="#000000" d="M 1138 519 L 1183 520" stroke-miterlimit="10" stroke-dasharray="3"/></g><g transform="translate(-86,-182) scale(1,1)"><rect fill="#fff07c" stroke="none" x="1296" y="504" width="87" height="45"/></g><g transform="translate(-86,-182) scale(1,1)"><path fill="none" stroke="#000000" d="M 1296 504 L 1383 504 L 1383 549 L 1296 549 L 1296 504 Z Z" stroke-miterlimit="10"/></g><g transform="translate(-86,-182) scale(1,1)"><g><path fill="none" stroke="none"/><text fill="#000000" stroke="none" font-family="Arial" font-size="13px" font-style="normal" font-weight="normal" text-decoration="none" x="1315.299560546875" y="526.5">formater</text><text fill="#000000" stroke="none" font-family="Arial" font-size="13px" font-style="normal" font-weight="normal" text-decoration="none" x="1314.2109375" y="539.5">abscisse</text></g></g><g transform="translate(-86,-182) scale(1,1)"><path fill="#ffffff" stroke="none" d="M 1453 504 L 1506.51904296875 504 L 1516.51904296875 514 L 1516.51904296875 553 L 1453 553 L 1453 504"/></g><g transform="translate(-86,-182) scale(1,1)"><path fill="none" stroke="#000000" d="M 1453 504 L 1506.51904296875 504 L 1516.51904296875 514 L 1516.51904296875 553 L 1453 553 L 1453 504 L 1453 504" stroke-miterlimit="10"/></g><g transform="translate(-86,-182) scale(1,1)"><path fill="none" stroke="#000000" d="M 1506.51904296875 504 L 1506.51904296875 514 L 1516.51904296875 514 L 1506.51904296875 504" stroke-miterlimit="10"/></g><g transform="translate(-86,-182) scale(1,1)"><g><path fill="none" stroke="none"/><text fill="#000000" stroke="none" font-family="Arial" font-size="13px" font-style="normal" font-weight="normal" text-decoration="none" x="1458" y="522">champs</text><text fill="#000000" stroke="none" font-family="Arial" font-size="13px" font-style="normal" font-weight="normal" text-decoration="none" x="1458" y="535">integer</text><text fill="#000000" stroke="none" font-family="Arial" font-size="13px" font-style="normal" font-weight="normal" text-decoration="none" x="1458" y="548">positif</text></g></g><g transform="translate(-86,-182) scale(1,1)"><path fill="none" stroke="#000000" d="M 1384 527 L 1452 528" stroke-miterlimit="10" stroke-dasharray="3"/></g><g transform="translate(-86,-182) scale(1,1)"><path fill="#dee7fe" stroke="none" d="M 757 573 L 823 573 L 810 605 L 744 605 L 757 573"/></g><g transform="translate(-86,-182) scale(1,1)"><path fill="none" stroke="#000000" d="M 757 573 L 823 573 L 810 605 L 744 605 L 757 573 L 757 573" stroke-miterlimit="10"/></g><g transform="translate(-86,-182) scale(1,1)"><g><path fill="none" stroke="none"/><text fill="#000000" stroke="none" font-family="Arial" font-size="13px" font-style="normal" font-weight="normal" text-decoration="none" x="753.510498046875" y="595.5">nomRoute</text></g></g><g transform="translate(-86,-182) scale(1,1)"><path fill="#dee7fe" stroke="none" d="M 1081 573 L 1125.68994140625 573 L 1116.68994140625 605 L 1072 605 L 1081 573"/></g><g transform="translate(-86,-182) scale(1,1)"><path fill="none" stroke="#000000" d="M 1081 573 L 1125.68994140625 573 L 1116.68994140625 605 L 1072 605 L 1081 573 L 1081 573" stroke-miterlimit="10"/></g><g transform="translate(-86,-182) scale(1,1)"><g><path fill="none" stroke="none"/><text fill="#000000" stroke="none" font-family="Arial" font-size="13px" font-style="normal" font-weight="normal" text-decoration="none" x="1089.8154296875" y="595.5">PR</text></g></g><g transform="translate(-86,-182) scale(1,1)"><path fill="#dee7fe" stroke="none" d="M 1323 573 L 1381.578125 573 L 1370.578125 605 L 1312 605 L 1323 573"/></g><g transform="translate(-86,-182) scale(1,1)"><path fill="none" stroke="#000000" d="M 1323 573 L 1381.578125 573 L 1370.578125 605 L 1312 605 L 1323 573 L 1323 573" stroke-miterlimit="10"/></g><g transform="translate(-86,-182) scale(1,1)"><g><path fill="none" stroke="none"/><text fill="#000000" stroke="none" font-family="Arial" font-size="13px" font-style="normal" font-weight="normal" text-decoration="none" x="1321.5" y="595.5">abscisse</text></g></g><g transform="translate(-86,-182) scale(1,1)"><path fill="none" stroke="#000000" d="M 851 414 L 1040 414" stroke-miterlimit="10"/></g><g transform="translate(-86,-182) scale(1,1)"><path fill="#000000" stroke="none" d="M 1029.837325142376 418.209517756016 L 1040 414 L 1029.837325142376 409.790482243984"/></g><g transform="translate(-86,-182) scale(1,1)"><path fill="none" stroke="#000000" d="M 1029.837325142376 418.209517756016 L 1040 414 L 1029.837325142376 409.790482243984 L 1029.837325142376 418.209517756016" stroke-miterlimit="10"/></g><g transform="translate(-86,-182) scale(1,1)"><path fill="none" stroke="#000000" d="M 787 453 L 787 488" stroke-miterlimit="10"/></g><g transform="translate(-86,-182) scale(1,1)"><path fill="#000000" stroke="none" d="M 782.790482243984 477.83732514237585 L 787 488 L 791.209517756016 477.83732514237585"/></g><g transform="translate(-86,-182) scale(1,1)"><path fill="none" stroke="#000000" d="M 782.790482243984 477.83732514237585 L 787 488 L 791.209517756016 477.83732514237585 L 782.790482243984 477.83732514237585" stroke-miterlimit="10"/></g><g transform="translate(-86,-182) scale(1,1)"><g><path fill="none" stroke="none"/><text fill="#000000" stroke="none" font-family="Arial" font-size="13px" font-style="normal" font-weight="normal" text-decoration="none" x="792.5" y="475.5">oui</text></g></g><g transform="translate(-86,-182) scale(1,1)"><path fill="none" stroke="#000000" d="M 1098 453 L 1098 496" stroke-miterlimit="10"/></g><g transform="translate(-86,-182) scale(1,1)"><path fill="#000000" stroke="none" d="M 1093.7904822439841 485.83732514237585 L 1098 496 L 1102.2095177560159 485.83732514237585"/></g><g transform="translate(-86,-182) scale(1,1)"><path fill="none" stroke="#000000" d="M 1093.7904822439841 485.83732514237585 L 1098 496 L 1102.2095177560159 485.83732514237585 L 1093.7904822439841 485.83732514237585" stroke-miterlimit="10"/></g><g transform="translate(-86,-182) scale(1,1)"><g><path fill="none" stroke="none"/><text fill="#000000" stroke="none" font-family="Arial" font-size="13px" font-style="normal" font-weight="normal" text-decoration="none" x="1103.5" y="479.5">oui</text></g></g><g transform="translate(-86,-182) scale(1,1)"><path fill="none" stroke="#000000" d="M 1153 420 L 1272 420" stroke-miterlimit="10"/></g><g transform="translate(-86,-182) scale(1,1)"><path fill="#000000" stroke="none" d="M 1261.837325142376 424.209517756016 L 1272 420 L 1261.837325142376 415.790482243984"/></g><g transform="translate(-86,-182) scale(1,1)"><path fill="none" stroke="#000000" d="M 1261.837325142376 424.209517756016 L 1272 420 L 1261.837325142376 415.790482243984 L 1261.837325142376 424.209517756016" stroke-miterlimit="10"/></g><g transform="translate(-86,-182) scale(1,1)"><path fill="none" stroke="#000000" d="M 1332 461 L 1332 504" stroke-miterlimit="10"/></g><g transform="translate(-86,-182) scale(1,1)"><path fill="#000000" stroke="none" d="M 1327.7904822439841 493.83732514237585 L 1332 504 L 1336.2095177560159 493.83732514237585"/></g><g transform="translate(-86,-182) scale(1,1)"><path fill="none" stroke="#000000" d="M 1327.7904822439841 493.83732514237585 L 1332 504 L 1336.2095177560159 493.83732514237585 L 1327.7904822439841 493.83732514237585" stroke-miterlimit="10"/></g><g transform="translate(-86,-182) scale(1,1)"><g><path fill="none" stroke="none"/><text fill="#000000" stroke="none" font-family="Arial" font-size="13px" font-style="normal" font-weight="normal" text-decoration="none" x="1337.5" y="487.5">oui</text></g></g><g transform="translate(-86,-182) scale(1,1)"><path fill="#9acef6" stroke="none" d="M 748 272 L 803 272 Q 831 272 831 300 L 831 299 Q 831 327 803 327 L 748 327 Q 720 327 720 299 L 720 300 Q 720 272 748 272 Z"/></g><g transform="translate(-86,-182) scale(1,1)"><path fill="none" stroke="#000000" d="M 748 272 L 803 272 Q 831 272 831 300 L 831 299 Q 831 327 803 327 L 748 327 Q 720 327 720 299 L 720 300 Q 720 272 748 272 Z" stroke-miterlimit="10"/></g><g transform="translate(-86,-182) scale(1,1)"><g><path fill="none" stroke="none"/><text fill="#000000" stroke="none" font-family="Arial" font-size="13px" font-style="normal" font-weight="normal" text-decoration="none" x="738.280517578125" y="294.5">id_comptage</text><text fill="#000000" stroke="none" font-family="Arial" font-size="13px" font-style="normal" font-weight="normal" text-decoration="none" x="752.369140625" y="307.5">Inconnu</text></g></g><g transform="translate(-86,-182) scale(1,1)"><path fill="none" stroke="#000000" d="M 778 327 L 778 376" stroke-miterlimit="10"/></g><g transform="translate(-86,-182) scale(1,1)"><path fill="#000000" stroke="none" d="M 773.790482243984 365.83732514237585 L 778 376 L 782.209517756016 365.83732514237585"/></g><g transform="translate(-86,-182) scale(1,1)"><path fill="none" stroke="#000000" d="M 773.790482243984 365.83732514237585 L 778 376 L 782.209517756016 365.83732514237585 L 773.790482243984 365.83732514237585" stroke-miterlimit="10"/></g><g transform="translate(-86,-182) scale(1,1)"><rect fill="#fff07c" stroke="none" x="1136" y="288" width="127" height="84"/></g><g transform="translate(-86,-182) scale(1,1)"><path fill="none" stroke="#000000" d="M 1136 288 L 1263 288 L 1263 372 L 1136 372 L 1136 288 Z Z" stroke-miterlimit="10"/></g><g transform="translate(-86,-182) scale(1,1)"><g><path fill="none" stroke="none"/><text fill="#000000" stroke="none" font-family="Arial" font-size="13px" font-style="normal" font-weight="normal" text-decoration="none" x="1170.595947265625" y="310.5">recherche</text><text fill="#000000" stroke="none" font-family="Arial" font-size="13px" font-style="normal" font-weight="normal" text-decoration="none" x="1161.921875" y="323.5">manuelle par</text><text fill="#000000" stroke="none" font-family="Arial" font-size="13px" font-style="normal" font-weight="normal" text-decoration="none" x="1152.175048828125" y="336.5">croisement avec</text><text fill="#000000" stroke="none" font-family="Arial" font-size="13px" font-style="normal" font-weight="normal" text-decoration="none" x="1150.724609375" y="349.5">référentiel PR de</text><text fill="#000000" stroke="none" font-family="Arial" font-size="13px" font-style="normal" font-weight="normal" text-decoration="none" x="1185.259033203125" y="362.5">l'IGN</text></g></g><g transform="translate(-86,-182) scale(1,1)"><path fill="none" stroke="#000000" d="M 1088 376 L 1088 348 M 1088 348 A 8 8 0 0 1 1096 340 L 1136 340" stroke-miterlimit="10"/></g><g transform="translate(-86,-182) scale(1,1)"><path fill="#000000" stroke="none" d="M 1125.837325142376 344.209517756016 L 1136 340 L 1125.837325142376 335.790482243984"/></g><g transform="translate(-86,-182) scale(1,1)"><path fill="none" stroke="#000000" d="M 1125.837325142376 344.209517756016 L 1136 340 L 1125.837325142376 335.790482243984 L 1125.837325142376 344.209517756016" stroke-miterlimit="10"/></g><g transform="translate(-86,-182) scale(1,1)"><g><path fill="none" stroke="none"/><text fill="#000000" stroke="none" font-family="Arial" font-size="13px" font-style="normal" font-weight="normal" text-decoration="none" x="1077.5" y="331.5">non</text></g></g><g transform="translate(-86,-182) scale(1,1)"><path fill="none" stroke="#000000" d="M 1328 384 L 1328 344 M 1328 344 A 8 8 0 0 0 1320 336 L 1263 336" stroke-miterlimit="10"/></g><g transform="translate(-86,-182) scale(1,1)"><path fill="#000000" stroke="none" d="M 1273.162674857624 331.790482243984 L 1263 336 L 1273.162674857624 340.209517756016"/></g><g transform="translate(-86,-182) scale(1,1)"><path fill="none" stroke="#000000" d="M 1273.162674857624 331.790482243984 L 1263 336 L 1273.162674857624 340.209517756016 L 1273.162674857624 331.790482243984" stroke-miterlimit="10"/></g><g transform="translate(-86,-182) scale(1,1)"><g><path fill="none" stroke="none"/><text fill="#000000" stroke="none" font-family="Arial" font-size="13px" font-style="normal" font-weight="normal" text-decoration="none" x="1316.5" y="357.5">non</text></g></g><g transform="translate(-86,-182) scale(1,1)"><path fill="#cce18d" stroke="none" d="M 1136 230.5 L 1192.58447265625 192 L 1249.1689453125 230.5 L 1192.58447265625 269 L 1136 230.5"/></g><g transform="translate(-86,-182) scale(1,1)"><path fill="none" stroke="#000000" d="M 1136 230.5 L 1192.58447265625 192 L 1249.1689453125 230.5 L 1192.58447265625 269 L 1136 230.5 L 1136 230.5" stroke-miterlimit="10"/></g><g transform="translate(-86,-182) scale(1,1)"><g><path fill="none" stroke="none"/><text fill="#000000" stroke="none" font-family="Arial" font-size="13px" font-style="normal" font-weight="normal" text-decoration="none" x="1178.857666015625" y="224">Pr et</text><text fill="#000000" stroke="none" font-family="Arial" font-size="13px" font-style="normal" font-weight="normal" text-decoration="none" x="1167.29541015625" y="237">abscisse</text><text fill="#000000" stroke="none" font-family="Arial" font-size="13px" font-style="normal" font-weight="normal" text-decoration="none" x="1169.45361328125" y="250">obtenus</text></g></g><g transform="translate(-86,-182) scale(1,1)"><path fill="none" stroke="#000000" d="M 1136 232 L 839 232 M 839 232 A 8 8 0 0 0 831 240 L 831 272" stroke-miterlimit="10"/></g><g transform="translate(-86,-182) scale(1,1)"><path fill="#000000" stroke="none" d="M 826.790482243984 261.83732514237585 L 831 272 L 835.209517756016 261.83732514237585"/></g><g transform="translate(-86,-182) scale(1,1)"><path fill="none" stroke="#000000" d="M 826.790482243984 261.83732514237585 L 831 272 L 835.209517756016 261.83732514237585 L 826.790482243984 261.83732514237585" stroke-miterlimit="10"/></g><g transform="translate(-86,-182) scale(1,1)"><g><path fill="none" stroke="none"/><text fill="#000000" stroke="none" font-family="Arial" font-size="13px" font-style="normal" font-weight="normal" text-decoration="none" x="839.5" y="228.5">non</text></g></g><g transform="translate(-86,-182) scale(1,1)"><path fill="none" stroke="#000000" d="M 1249 232 L 1520 232 M 1520 232 A 8 8 0 0 1 1528 240 L 1528 552 M 1528 552 A 8 8 0 0 1 1520 560 L 1354 560 M 1354 560 A 8 8 0 0 0 1346 568 L 1346 573" stroke-miterlimit="10"/></g><g transform="translate(-86,-182) scale(1,1)"><path fill="#000000" stroke="none" d="M 1341.7904822439841 562.8373251423759 L 1346 573 L 1350.2095177560159 562.8373251423759"/></g><g transform="translate(-86,-182) scale(1,1)"><path fill="none" stroke="#000000" d="M 1341.7904822439841 562.8373251423759 L 1346 573 L 1350.2095177560159 562.8373251423759 L 1341.7904822439841 562.8373251423759" stroke-miterlimit="10"/></g><g transform="translate(-86,-182) scale(1,1)"><path fill="none" stroke="#000000" d="M 1249 232 L 1520 232 M 1520 232 A 8 8 0 0 1 1528 240 L 1528 552 M 1528 552 A 8 8 0 0 1 1520 560 L 1106 560 M 1106 560 A 8 8 0 0 0 1098 568 L 1098 573" stroke-miterlimit="10"/></g><g transform="translate(-86,-182) scale(1,1)"><path fill="#000000" stroke="none" d="M 1093.7904822439841 562.8373251423759 L 1098 573 L 1102.2095177560159 562.8373251423759"/></g><g transform="translate(-86,-182) scale(1,1)"><path fill="none" stroke="#000000" d="M 1093.7904822439841 562.8373251423759 L 1098 573 L 1102.2095177560159 562.8373251423759 L 1093.7904822439841 562.8373251423759" stroke-miterlimit="10"/></g><g transform="translate(-86,-182) scale(1,1)"><path fill="none" stroke="#000000" d="M 1099 541 L 1099 573" stroke-miterlimit="10"/></g><g transform="translate(-86,-182) scale(1,1)"><path fill="#000000" stroke="none" d="M 1094.7904822439841 562.8373251423759 L 1099 573 L 1103.2095177560159 562.8373251423759"/></g><g transform="translate(-86,-182) scale(1,1)"><path fill="none" stroke="#000000" d="M 1094.7904822439841 562.8373251423759 L 1099 573 L 1103.2095177560159 562.8373251423759 L 1094.7904822439841 562.8373251423759" stroke-miterlimit="10"/></g><g transform="translate(-86,-182) scale(1,1)"><path fill="none" stroke="#000000" d="M 1344 549 L 1344 573" stroke-miterlimit="10"/></g><g transform="translate(-86,-182) scale(1,1)"><path fill="#000000" stroke="none" d="M 1339.7904822439841 562.8373251423759 L 1344 573 L 1348.2095177560159 562.8373251423759"/></g><g transform="translate(-86,-182) scale(1,1)"><path fill="none" stroke="#000000" d="M 1339.7904822439841 562.8373251423759 L 1344 573 L 1348.2095177560159 562.8373251423759 L 1339.7904822439841 562.8373251423759" stroke-miterlimit="10"/></g><g transform="translate(-86,-182) scale(1,1)"><path fill="none" stroke="#000000" d="M 784 533 L 784 573" stroke-miterlimit="10"/></g><g transform="translate(-86,-182) scale(1,1)"><path fill="#000000" stroke="none" d="M 779.790482243984 562.8373251423759 L 784 573 L 788.209517756016 562.8373251423759"/></g><g transform="translate(-86,-182) scale(1,1)"><path fill="none" stroke="#000000" d="M 779.790482243984 562.8373251423759 L 784 573 L 788.209517756016 562.8373251423759 L 779.790482243984 562.8373251423759" stroke-miterlimit="10"/></g><g transform="translate(-86,-182) scale(1,1)"><path fill="#cce18d" stroke="none" d="M 560 414.5 L 632.49169921875 376 L 704.9833984375 414.5 L 632.49169921875 453 L 560 414.5"/></g><g transform="translate(-86,-182) scale(1,1)"><path fill="none" stroke="#000000" d="M 560 414.5 L 632.49169921875 376 L 704.9833984375 414.5 L 632.49169921875 453 L 560 414.5 L 560 414.5" stroke-miterlimit="10"/></g><g transform="translate(-86,-182) scale(1,1)"><g><path fill="none" stroke="none"/><text fill="#000000" stroke="none" font-family="Arial" font-size="13px" font-style="normal" font-weight="normal" text-decoration="none" x="609.732177734375" y="408">champs</text><text fill="#000000" stroke="none" font-family="Arial" font-size="13px" font-style="normal" font-weight="normal" text-decoration="none" x="595.995849609375" y="421">département</text><text fill="#000000" stroke="none" font-family="Arial" font-size="13px" font-style="normal" font-weight="normal" text-decoration="none" x="610.811279296875" y="434">présent</text></g></g><g transform="translate(-86,-182) scale(1,1)"><rect fill="#fff07c" stroke="none" x="592" y="272" width="91.99169921875" height="58"/></g><g transform="translate(-86,-182) scale(1,1)"><path fill="none" stroke="#000000" d="M 592 272 L 683.99169921875 272 L 683.99169921875 330 L 592 330 L 592 272 Z Z" stroke-miterlimit="10"/></g><g transform="translate(-86,-182) scale(1,1)"><g><path fill="none" stroke="none"/><text fill="#000000" stroke="none" font-family="Arial" font-size="13px" font-style="normal" font-weight="normal" text-decoration="none" x="614.871337890625" y="294.5">création</text><text fill="#000000" stroke="none" font-family="Arial" font-size="13px" font-style="normal" font-weight="normal" text-decoration="none" x="615.236328125" y="307.5">champs</text><text fill="#000000" stroke="none" font-family="Arial" font-size="13px" font-style="normal" font-weight="normal" text-decoration="none" x="601.5" y="320.5">département</text></g></g><g transform="translate(-86,-182) scale(1,1)"><path fill="none" stroke="#000000" d="M 636 376 L 636 330" stroke-miterlimit="10"/></g><g transform="translate(-86,-182) scale(1,1)"><path fill="#000000" stroke="none" d="M 640.209517756016 340.16267485762415 L 636 330 L 631.790482243984 340.16267485762415"/></g><g transform="translate(-86,-182) scale(1,1)"><path fill="none" stroke="#000000" d="M 640.209517756016 340.16267485762415 L 636 330 L 631.790482243984 340.16267485762415 L 640.209517756016 340.16267485762415" stroke-miterlimit="10"/></g><g transform="translate(-86,-182) scale(1,1)"><g><path fill="none" stroke="none"/><text fill="#000000" stroke="none" font-family="Arial" font-size="13px" font-style="normal" font-weight="normal" text-decoration="none" x="610.5" y="358.5">non</text></g></g><g transform="translate(-86,-182) scale(1,1)"><rect fill="#fff07c" stroke="none" x="584" y="472" width="91.99169921875" height="58"/></g><g transform="translate(-86,-182) scale(1,1)"><path fill="none" stroke="#000000" d="M 584 472 L 675.99169921875 472 L 675.99169921875 530 L 584 530 L 584 472 Z Z" stroke-miterlimit="10"/></g><g transform="translate(-86,-182) scale(1,1)"><g><path fill="none" stroke="none"/><text fill="#000000" stroke="none" font-family="Arial" font-size="13px" font-style="normal" font-weight="normal" text-decoration="none" x="605.79541015625" y="494.5">formater</text><text fill="#000000" stroke="none" font-family="Arial" font-size="13px" font-style="normal" font-weight="normal" text-decoration="none" x="607.236328125" y="507.5">champs</text><text fill="#000000" stroke="none" font-family="Arial" font-size="13px" font-style="normal" font-weight="normal" text-decoration="none" x="593.5" y="520.5">departement</text></g></g><g transform="translate(-86,-182) scale(1,1)"><path fill="#ffffff" stroke="none" d="M 472 464 L 560 464 L 570 474 L 570 513 L 472 513 L 472 464"/></g><g transform="translate(-86,-182) scale(1,1)"><path fill="none" stroke="#000000" d="M 472 464 L 560 464 L 570 474 L 570 513 L 472 513 L 472 464 L 472 464" stroke-miterlimit="10"/></g><g transform="translate(-86,-182) scale(1,1)"><path fill="none" stroke="#000000" d="M 560 464 L 560 474 L 570 474 L 560 464" stroke-miterlimit="10"/></g><g transform="translate(-86,-182) scale(1,1)"><g><path fill="none" stroke="none"/><text fill="#000000" stroke="none" font-family="Arial" font-size="13px" font-style="normal" font-weight="normal" text-decoration="none" x="477" y="482">chaine de</text><text fill="#000000" stroke="none" font-family="Arial" font-size="13px" font-style="normal" font-weight="normal" text-decoration="none" x="477" y="495">caractereres</text><text fill="#000000" stroke="none" font-family="Arial" font-size="13px" font-style="normal" font-weight="normal" text-decoration="none" x="477" y="508">de longueur 2</text></g></g><g transform="translate(-86,-182) scale(1,1)"><path fill="none" stroke="#000000" d="M 583 496 L 572 495" stroke-miterlimit="10" stroke-dasharray="3"/></g><g transform="translate(-86,-182) scale(1,1)"><path fill="#dee7fe" stroke="none" d="M 601 573 L 647 573 L 638 605 L 592 605 L 601 573"/></g><g transform="translate(-86,-182) scale(1,1)"><path fill="none" stroke="#000000" d="M 601 573 L 647 573 L 638 605 L 592 605 L 601 573 L 601 573" stroke-miterlimit="10"/></g><g transform="translate(-86,-182) scale(1,1)"><g><path fill="none" stroke="none"/><text fill="#000000" stroke="none" font-family="Arial" font-size="13px" font-style="normal" font-weight="normal" text-decoration="none" x="606.84912109375" y="595.5">dept</text></g></g><g transform="translate(-86,-182) scale(1,1)"><rect fill="#fff07c" stroke="none" x="808" y="632" width="111" height="79"/></g><g transform="translate(-86,-182) scale(1,1)"><path fill="none" stroke="#000000" d="M 808 632 L 919 632 L 919 711 L 808 711 L 808 632 Z Z" stroke-miterlimit="10"/></g><g transform="translate(-86,-182) scale(1,1)"><g><path fill="none" stroke="none"/><text fill="#000000" stroke="none" font-family="Arial" font-size="13px" font-style="normal" font-weight="normal" text-decoration="none" x="834.234130859375" y="654.5">formatage</text><text fill="#000000" stroke="none" font-family="Arial" font-size="13px" font-style="normal" font-weight="normal" text-decoration="none" x="826.280517578125" y="667.5">id_comptage</text><text fill="#000000" stroke="none" font-family="Arial" font-size="13px" font-style="normal" font-weight="normal" text-decoration="none" x="830.62548828125" y="680.5">réseau RN,</text><text fill="#000000" stroke="none" font-family="Arial" font-size="13px" font-style="normal" font-weight="normal" text-decoration="none" x="846.16455078125" y="693.5">RD, A</text></g></g><g transform="translate(-86,-182) scale(1,1)"><path fill="#ffffff" stroke="none" d="M 968 648 L 1187.40234375 648 L 1197.40234375 658 L 1197.40234375 696 L 968 696 L 968 648"/></g><g transform="translate(-86,-182) scale(1,1)"><path fill="none" stroke="#000000" d="M 968 648 L 1187.40234375 648 L 1197.40234375 658 L 1197.40234375 696 L 968 696 L 968 648 L 968 648" stroke-miterlimit="10"/></g><g transform="translate(-86,-182) scale(1,1)"><path fill="none" stroke="#000000" d="M 1187.40234375 648 L 1187.40234375 658 L 1197.40234375 658 L 1187.40234375 648" stroke-miterlimit="10"/></g><g transform="translate(-86,-182) scale(1,1)"><g><path fill="none" stroke="none"/><text fill="#000000" stroke="none" font-family="Arial" font-size="13px" font-style="normal" font-weight="normal" text-decoration="none" x="973" y="666">{dept}-{nomRoute}-{PR}+{abscissse}</text></g></g><g transform="translate(-86,-182) scale(1,1)"><path fill="none" stroke="#000000" d="M 920 671 L 967 671" stroke-miterlimit="10" stroke-dasharray="3"/></g><g transform="translate(-86,-182) scale(1,1)"><path fill="none" stroke="#000000" d="M 631 453 L 631 472" stroke-miterlimit="10"/></g><g transform="translate(-86,-182) scale(1,1)"><path fill="#000000" stroke="none" d="M 626.790482243984 461.83732514237585 L 631 472 L 635.209517756016 461.83732514237585"/></g><g transform="translate(-86,-182) scale(1,1)"><path fill="none" stroke="#000000" d="M 626.790482243984 461.83732514237585 L 631 472 L 635.209517756016 461.83732514237585 L 626.790482243984 461.83732514237585" stroke-miterlimit="10"/></g><g transform="translate(-86,-182) scale(1,1)"><g><path fill="none" stroke="none"/><text fill="#000000" stroke="none" font-family="Arial" font-size="13px" font-style="normal" font-weight="normal" text-decoration="none" x="636.5" y="467.5">oui</text></g></g><g transform="translate(-86,-182) scale(1,1)"><path fill="none" stroke="#000000" d="M 626 530 L 626 573" stroke-miterlimit="10"/></g><g transform="translate(-86,-182) scale(1,1)"><path fill="#000000" stroke="none" d="M 621.790482243984 562.8373251423759 L 626 573 L 630.209517756016 562.8373251423759"/></g><g transform="translate(-86,-182) scale(1,1)"><path fill="none" stroke="#000000" d="M 621.790482243984 562.8373251423759 L 626 573 L 630.209517756016 562.8373251423759 L 621.790482243984 562.8373251423759" stroke-miterlimit="10"/></g><g transform="translate(-86,-182) scale(1,1)"><path fill="none" stroke="#000000" d="M 616 605 L 616 608 M 616 608 A 8 8 0 0 0 624 616 L 800 616 M 800 616 A 8 8 0 0 1 808 624 L 808 632" stroke-miterlimit="10"/></g><g transform="translate(-86,-182) scale(1,1)"><path fill="#000000" stroke="none" d="M 803.790482243984 621.8373251423759 L 808 632 L 812.209517756016 621.8373251423759"/></g><g transform="translate(-86,-182) scale(1,1)"><path fill="none" stroke="#000000" d="M 803.790482243984 621.8373251423759 L 808 632 L 812.209517756016 621.8373251423759 L 803.790482243984 621.8373251423759" stroke-miterlimit="10"/></g><g transform="translate(-86,-182) scale(1,1)"><path fill="none" stroke="#000000" d="M 798 605 L 798 600 M 798 600 A 8 8 0 0 0 806 608 L 832 608 M 832 608 A 8 8 0 0 1 840 616 L 840 632" stroke-miterlimit="10"/></g><g transform="translate(-86,-182) scale(1,1)"><path fill="#000000" stroke="none" d="M 835.790482243984 621.8373251423759 L 840 632 L 844.209517756016 621.8373251423759"/></g><g transform="translate(-86,-182) scale(1,1)"><path fill="none" stroke="#000000" d="M 835.790482243984 621.8373251423759 L 840 632 L 844.209517756016 621.8373251423759 L 835.790482243984 621.8373251423759" stroke-miterlimit="10"/></g><g transform="translate(-86,-182) scale(1,1)"><path fill="none" stroke="#000000" d="M 1072 592 L 912 592 M 912 592 A 8 8 0 0 0 904 600 L 904 632" stroke-miterlimit="10"/></g><g transform="translate(-86,-182) scale(1,1)"><path fill="#000000" stroke="none" d="M 899.790482243984 621.8373251423759 L 904 632 L 908.209517756016 621.8373251423759"/></g><g transform="translate(-86,-182) scale(1,1)"><path fill="none" stroke="#000000" d="M 899.790482243984 621.8373251423759 L 904 632 L 908.209517756016 621.8373251423759 L 899.790482243984 621.8373251423759" stroke-miterlimit="10"/></g><g transform="translate(-86,-182) scale(1,1)"><path fill="none" stroke="#000000" d="M 1328 605 L 1328 608 M 1328 608 A 8 8 0 0 1 1320 616 L 927 616 M 927 616 A 8 8 0 0 0 919 624 L 919 632" stroke-miterlimit="10"/></g><g transform="translate(-86,-182) scale(1,1)"><path fill="#000000" stroke="none" d="M 914.790482243984 621.8373251423759 L 919 632 L 923.209517756016 621.8373251423759"/></g><g transform="translate(-86,-182) scale(1,1)"><path fill="none" stroke="#000000" d="M 914.790482243984 621.8373251423759 L 919 632 L 923.209517756016 621.8373251423759 L 914.790482243984 621.8373251423759" stroke-miterlimit="10"/></g><g transform="translate(-86,-182) scale(1,1)"><path fill="#cce18d" stroke="none" d="M 336 974.5 L 392.58447265625 936 L 449.1689453125 974.5 L 392.58447265625 1013 L 336 974.5"/></g><g transform="translate(-86,-182) scale(1,1)"><path fill="none" stroke="#000000" d="M 336 974.5 L 392.58447265625 936 L 449.1689453125 974.5 L 392.58447265625 1013 L 336 974.5 L 336 974.5" stroke-miterlimit="10"/></g><g transform="translate(-86,-182) scale(1,1)"><g><path fill="none" stroke="none"/><text fill="#000000" stroke="none" font-family="Arial" font-size="13px" font-style="normal" font-weight="normal" text-decoration="none" x="370.904052734375" y="968">nom de</text><text fill="#000000" stroke="none" font-family="Arial" font-size="13px" font-style="normal" font-weight="normal" text-decoration="none" x="383.18994140625" y="981">rue</text><text fill="#000000" stroke="none" font-family="Arial" font-size="13px" font-style="normal" font-weight="normal" text-decoration="none" x="370.904052734375" y="994">présent</text></g></g><g transform="translate(-86,-182) scale(1,1)"><path fill="#cce18d" stroke="none" d="M 344 827.5 L 400.58447265625 776 L 457.1689453125 827.5 L 400.58447265625 879 L 344 827.5"/></g><g transform="translate(-86,-182) scale(1,1)"><path fill="none" stroke="#000000" d="M 344 827.5 L 400.58447265625 776 L 457.1689453125 827.5 L 400.58447265625 879 L 344 827.5 L 344 827.5" stroke-miterlimit="10"/></g><g transform="translate(-86,-182) scale(1,1)"><g><path fill="none" stroke="none"/><text fill="#000000" stroke="none" font-family="Arial" font-size="13px" font-style="normal" font-weight="normal" text-decoration="none" x="372.759521484375" y="814.5">identifiant</text><text fill="#000000" stroke="none" font-family="Arial" font-size="13px" font-style="normal" font-weight="normal" text-decoration="none" x="372.04541015625" y="827.5">commune</text><text fill="#000000" stroke="none" font-family="Arial" font-size="13px" font-style="normal" font-weight="normal" text-decoration="none" x="376.377685546875" y="840.5">ou EPCI</text><text fill="#000000" stroke="none" font-family="Arial" font-size="13px" font-style="normal" font-weight="normal" text-decoration="none" x="378.904052734375" y="853.5">présent</text></g></g><g transform="translate(-86,-182) scale(1,1)"><path fill="#cce18d" stroke="none" d="M 280 1110.5 L 405.9453125 1072 L 531.890625 1110.5 L 405.9453125 1149 L 280 1110.5"/></g><g transform="translate(-86,-182) scale(1,1)"><path fill="none" stroke="#000000" d="M 280 1110.5 L 405.9453125 1072 L 531.890625 1110.5 L 405.9453125 1149 L 280 1110.5 L 280 1110.5" stroke-miterlimit="10"/></g><g transform="translate(-86,-182) scale(1,1)"><g><path fill="none" stroke="none"/><text fill="#000000" stroke="none" font-family="Arial" font-size="13px" font-style="normal" font-weight="normal" text-decoration="none" x="368.36083984375" y="1104">coordonnées</text><text fill="#000000" stroke="none" font-family="Arial" font-size="13px" font-style="normal" font-weight="normal" text-decoration="none" x="342.72265625" y="1117">WGS84(EPSG43626)</text><text fill="#000000" stroke="none" font-family="Arial" font-size="13px" font-style="normal" font-weight="normal" text-decoration="none" x="377.39990234375" y="1130">présentes</text></g></g><g transform="translate(-86,-182) scale(1,1)"><path fill="#9acef6" stroke="none" d="M 188 632 L 207.97900390625 632 Q 243.97900390625 632 243.97900390625 668 L 243.97900390625 667 Q 243.97900390625 703 207.97900390625 703 L 188 703 Q 152 703 152 667 L 152 668 Q 152 632 188 632 Z"/></g><g transform="translate(-86,-182) scale(1,1)"><path fill="none" stroke="#000000" d="M 188 632 L 207.97900390625 632 Q 243.97900390625 632 243.97900390625 668 L 243.97900390625 667 Q 243.97900390625 703 207.97900390625 703 L 188 703 Q 152 703 152 667 L 152 668 Q 152 632 188 632 Z" stroke-miterlimit="10"/></g><g transform="translate(-86,-182) scale(1,1)"><g><path fill="none" stroke="none"/><text fill="#000000" stroke="none" font-family="Arial" font-size="13px" font-style="normal" font-weight="normal" text-decoration="none" x="178.4736328125" y="654.5">pas de</text><text fill="#000000" stroke="none" font-family="Arial" font-size="13px" font-style="normal" font-weight="normal" text-decoration="none" x="161.5" y="667.5">processusus</text><text fill="#000000" stroke="none" font-family="Arial" font-size="13px" font-style="normal" font-weight="normal" text-decoration="none" x="182.450439453125" y="680.5">défini</text></g></g><g transform="translate(-86,-182) scale(1,1)"><path fill="none" stroke="#000000" d="M 705 414 L 728 414" stroke-miterlimit="10"/></g><g transform="translate(-86,-182) scale(1,1)"><path fill="#000000" stroke="none" d="M 717.8373251423759 418.209517756016 L 728 414 L 717.8373251423758 409.790482243984"/></g><g transform="translate(-86,-182) scale(1,1)"><path fill="none" stroke="#000000" d="M 717.8373251423759 418.209517756016 L 728 414 L 717.8373251423758 409.790482243984 L 717.8373251423759 418.209517756016" stroke-miterlimit="10"/></g><g transform="translate(-86,-182) scale(1,1)"><path fill="none" stroke="#000000" d="M 402 729 L 402 776" stroke-miterlimit="10"/></g><g transform="translate(-86,-182) scale(1,1)"><path fill="#000000" stroke="none" d="M 397.790482243984 765.8373251423759 L 402 776 L 406.209517756016 765.8373251423759"/></g><g transform="translate(-86,-182) scale(1,1)"><path fill="none" stroke="#000000" d="M 397.790482243984 765.8373251423759 L 402 776 L 406.209517756016 765.8373251423759 L 397.790482243984 765.8373251423759" stroke-miterlimit="10"/></g><g transform="translate(-86,-182) scale(1,1)"><g><path fill="none" stroke="none"/><text fill="#000000" stroke="none" font-family="Arial" font-size="13px" font-style="normal" font-weight="normal" text-decoration="none" x="407.5" y="757.5">oui</text></g></g><g transform="translate(-86,-182) scale(1,1)"><path fill="none" stroke="#000000" d="M 397 879 L 397 936" stroke-miterlimit="10"/></g><g transform="translate(-86,-182) scale(1,1)"><path fill="#000000" stroke="none" d="M 392.790482243984 925.8373251423759 L 397 936 L 401.209517756016 925.8373251423759"/></g><g transform="translate(-86,-182) scale(1,1)"><path fill="none" stroke="#000000" d="M 392.790482243984 925.8373251423759 L 397 936 L 401.209517756016 925.8373251423759 L 392.790482243984 925.8373251423759" stroke-miterlimit="10"/></g><g transform="translate(-86,-182) scale(1,1)"><path fill="none" stroke="#000000" d="M 396 1013 L 396 1072" stroke-miterlimit="10"/></g><g transform="translate(-86,-182) scale(1,1)"><path fill="#000000" stroke="none" d="M 391.790482243984 1061.837325142376 L 396 1072 L 400.209517756016 1061.837325142376"/></g><g transform="translate(-86,-182) scale(1,1)"><path fill="none" stroke="#000000" d="M 391.790482243984 1061.837325142376 L 396 1072 L 400.209517756016 1061.837325142376 L 391.790482243984 1061.837325142376" stroke-miterlimit="10"/></g><g transform="translate(-86,-182) scale(1,1)"><rect fill="#fff07c" stroke="none" x="544" y="784" width="119" height="71"/></g><g transform="translate(-86,-182) scale(1,1)"><path fill="none" stroke="#000000" d="M 544 784 L 663 784 L 663 855 L 544 855 L 544 784 Z Z" stroke-miterlimit="10"/></g><g transform="translate(-86,-182) scale(1,1)"><g><path fill="none" stroke="none"/><text fill="#000000" stroke="none" font-family="Arial" font-size="13px" font-style="normal" font-weight="normal" text-decoration="none" x="579.299560546875" y="806.5">formater</text><text fill="#000000" stroke="none" font-family="Arial" font-size="13px" font-style="normal" font-weight="normal" text-decoration="none" x="575.675048828125" y="819.5">identifiant</text><text fill="#000000" stroke="none" font-family="Arial" font-size="13px" font-style="normal" font-weight="normal" text-decoration="none" x="565.925048828125" y="832.5">commune ou</text><text fill="#000000" stroke="none" font-family="Arial" font-size="13px" font-style="normal" font-weight="normal" text-decoration="none" x="588.3291015625" y="845.5">EPCI</text></g></g><g transform="translate(-86,-182) scale(1,1)"><path fill="#ff2b2b" stroke="none" d="M 504 608 L 597.591796875 608 L 607.591796875 618 L 607.591796875 761 L 504 761 L 504 608"/></g><g transform="translate(-86,-182) scale(1,1)"><path fill="none" stroke="#000000" d="M 504 608 L 597.591796875 608 L 607.591796875 618 L 607.591796875 761 L 504 761 L 504 608 L 504 608" stroke-miterlimit="10"/></g><g transform="translate(-86,-182) scale(1,1)"><path fill="none" stroke="#000000" d="M 597.591796875 608 L 597.591796875 618 L 607.591796875 618 L 597.591796875 608" stroke-miterlimit="10"/></g><g transform="translate(-86,-182) scale(1,1)"><g><path fill="none" stroke="none"/><text fill="#000000" stroke="none" font-family="Arial" font-size="13px" font-style="normal" font-weight="normal" text-decoration="none" x="509" y="626">Ici il manque</text><text fill="#000000" stroke="none" font-family="Arial" font-size="13px" font-style="normal" font-weight="normal" text-decoration="none" x="509" y="639">une contrainte</text><text fill="#000000" stroke="none" font-family="Arial" font-size="13px" font-style="normal" font-weight="normal" text-decoration="none" x="509" y="652">sur les valeurs</text><text fill="#000000" stroke="none" font-family="Arial" font-size="13px" font-style="normal" font-weight="normal" text-decoration="none" x="509" y="665">possibles,</text><text fill="#000000" stroke="none" font-family="Arial" font-size="13px" font-style="normal" font-weight="normal" text-decoration="none" x="509" y="678">référencée dans</text><text fill="#000000" stroke="none" font-family="Arial" font-size="13px" font-style="normal" font-weight="normal" text-decoration="none" x="509" y="691">une table</text><text fill="#000000" stroke="none" font-family="Arial" font-size="13px" font-style="normal" font-weight="normal" text-decoration="none" x="509" y="704">d'énumération,</text><text fill="#000000" stroke="none" font-family="Arial" font-size="13px" font-style="normal" font-weight="normal" text-decoration="none" x="509" y="717">voire une</text><text fill="#000000" stroke="none" font-family="Arial" font-size="13px" font-style="normal" font-weight="normal" text-decoration="none" x="509" y="730">contrainte avec</text><text fill="#000000" stroke="none" font-family="Arial" font-size="13px" font-style="normal" font-weight="normal" text-decoration="none" x="509" y="743">le gestionnaire</text></g></g><g transform="translate(-86,-182) scale(1,1)"><path fill="none" stroke="#000000" d="M 590 783 L 583 763" stroke-miterlimit="10" stroke-dasharray="3"/></g><g transform="translate(-86,-182) scale(1,1)"><path fill="none" stroke="#000000" d="M 312 666 L 244 666" stroke-miterlimit="10"/></g><g transform="translate(-86,-182) scale(1,1)"><path fill="#000000" stroke="none" d="M 254.16267485762415 661.790482243984 L 244 666 L 254.16267485762415 670.209517756016"/></g><g transform="translate(-86,-182) scale(1,1)"><path fill="none" stroke="#000000" d="M 254.16267485762415 661.790482243984 L 244 666 L 254.16267485762415 670.209517756016 L 254.16267485762415 661.790482243984" stroke-miterlimit="10"/></g><g transform="translate(-86,-182) scale(1,1)"><g><path fill="none" stroke="none"/><text fill="#000000" stroke="none" font-family="Arial" font-size="13px" font-style="normal" font-weight="normal" text-decoration="none" x="266.5" y="687.5">non</text></g></g><g transform="translate(-86,-182) scale(1,1)"><path fill="none" stroke="#000000" d="M 526 515 L 542 607" stroke-miterlimit="10" stroke-dasharray="3"/></g><g transform="translate(-86,-182) scale(1,1)"><path fill="none" stroke="#000000" d="M 457 827 L 544 827" stroke-miterlimit="10"/></g><g transform="translate(-86,-182) scale(1,1)"><path fill="#000000" stroke="none" d="M 533.8373251423759 831.209517756016 L 544 827 L 533.8373251423758 822.790482243984"/></g><g transform="translate(-86,-182) scale(1,1)"><path fill="none" stroke="#000000" d="M 533.8373251423759 831.209517756016 L 544 827 L 533.8373251423758 822.790482243984 L 533.8373251423759 831.209517756016" stroke-miterlimit="10"/></g><g transform="translate(-86,-182) scale(1,1)"><g><path fill="none" stroke="none"/><text fill="#000000" stroke="none" font-family="Arial" font-size="13px" font-style="normal" font-weight="normal" text-decoration="none" x="491.5" y="818.5">oui</text></g></g><g transform="translate(-86,-182) scale(1,1)"><rect fill="#fff07c" stroke="none" x="184" y="792" width="95" height="71"/></g><g transform="translate(-86,-182) scale(1,1)"><path fill="none" stroke="#000000" d="M 184 792 L 279 792 L 279 863 L 184 863 L 184 792 Z Z" stroke-miterlimit="10"/></g><g transform="translate(-86,-182) scale(1,1)"><g><path fill="none" stroke="none"/><text fill="#000000" stroke="none" font-family="Arial" font-size="13px" font-style="normal" font-weight="normal" text-decoration="none" x="216.69091796875" y="814.5">créer</text><text fill="#000000" stroke="none" font-family="Arial" font-size="13px" font-style="normal" font-weight="normal" text-decoration="none" x="203.675048828125" y="827.5">identifiant</text><text fill="#000000" stroke="none" font-family="Arial" font-size="13px" font-style="normal" font-weight="normal" text-decoration="none" x="202.9609375" y="840.5">commune</text><text fill="#000000" stroke="none" font-family="Arial" font-size="13px" font-style="normal" font-weight="normal" text-decoration="none" x="207.293212890625" y="853.5">ou EPCI</text></g></g><g transform="translate(-86,-182) scale(1,1)"><path fill="none" stroke="#000000" d="M 344 827 L 279 827" stroke-miterlimit="10"/></g><g transform="translate(-86,-182) scale(1,1)"><path fill="#000000" stroke="none" d="M 289.16267485762415 822.790482243984 L 279 827 L 289.16267485762415 831.209517756016"/></g><g transform="translate(-86,-182) scale(1,1)"><path fill="none" stroke="#000000" d="M 289.16267485762415 822.790482243984 L 279 827 L 289.16267485762415 831.209517756016 L 289.16267485762415 822.790482243984" stroke-miterlimit="10"/></g><g transform="translate(-86,-182) scale(1,1)"><g><path fill="none" stroke="none"/><text fill="#000000" stroke="none" font-family="Arial" font-size="13px" font-style="normal" font-weight="normal" text-decoration="none" x="299.5" y="848.5">non</text></g></g><g transform="translate(-86,-182) scale(1,1)"><rect fill="#fff07c" stroke="none" x="560" y="944" width="73.18994140625" height="58"/></g><g transform="translate(-86,-182) scale(1,1)"><path fill="none" stroke="#000000" d="M 560 944 L 633.18994140625 944 L 633.18994140625 1002 L 560 1002 L 560 944 Z Z" stroke-miterlimit="10"/></g><g transform="translate(-86,-182) scale(1,1)"><g><path fill="none" stroke="none"/><text fill="#000000" stroke="none" font-family="Arial" font-size="13px" font-style="normal" font-weight="normal" text-decoration="none" x="572.39453125" y="966.5">formater</text><text fill="#000000" stroke="none" font-family="Arial" font-size="13px" font-style="normal" font-weight="normal" text-decoration="none" x="574.91455078125" y="979.5">nom de</text><text fill="#000000" stroke="none" font-family="Arial" font-size="13px" font-style="normal" font-weight="normal" text-decoration="none" x="587.200439453125" y="992.5">rue</text></g></g><g transform="translate(-86,-182) scale(1,1)"><path fill="#ff0000" stroke="none" d="M 664 896 L 797.81005859375 896 L 807.81005859375 906 L 807.81005859375 984 L 664 984 L 664 896"/></g><g transform="translate(-86,-182) scale(1,1)"><path fill="none" stroke="#000000" d="M 664 896 L 797.81005859375 896 L 807.81005859375 906 L 807.81005859375 984 L 664 984 L 664 896 L 664 896" stroke-miterlimit="10"/></g><g transform="translate(-86,-182) scale(1,1)"><path fill="none" stroke="#000000" d="M 797.81005859375 896 L 797.81005859375 906 L 807.81005859375 906 L 797.81005859375 896" stroke-miterlimit="10"/></g><g transform="translate(-86,-182) scale(1,1)"><g><path fill="none" stroke="none"/><text fill="#000000" stroke="none" font-family="Arial" font-size="13px" font-style="normal" font-weight="normal" text-decoration="none" x="669" y="914">il faut redéfinir des</text><text fill="#000000" stroke="none" font-family="Arial" font-size="13px" font-style="normal" font-weight="normal" text-decoration="none" x="669" y="927">regles de gestion : pas</text><text fill="#000000" stroke="none" font-family="Arial" font-size="13px" font-style="normal" font-weight="normal" text-decoration="none" x="669" y="940">les caractères ' ', ''', '°',</text><text fill="#000000" stroke="none" font-family="Arial" font-size="13px" font-style="normal" font-weight="normal" text-decoration="none" x="669" y="953">'-',  pas d'accent, pas</text><text fill="#000000" stroke="none" font-family="Arial" font-size="13px" font-style="normal" font-weight="normal" text-decoration="none" x="669" y="966">de caractère</text><text fill="#000000" stroke="none" font-family="Arial" font-size="13px" font-style="normal" font-weight="normal" text-decoration="none" x="669" y="979">spéciaux...</text></g></g><g transform="translate(-86,-182) scale(1,1)"><path fill="none" stroke="#000000" d="M 634 964 L 663 957" stroke-miterlimit="10" stroke-dasharray="3"/></g><g transform="translate(-86,-182) scale(1,1)"><path fill="none" stroke="#000000" d="M 449 974 L 560 974" stroke-miterlimit="10"/></g><g transform="translate(-86,-182) scale(1,1)"><path fill="#000000" stroke="none" d="M 549.8373251423759 978.209517756016 L 560 974 L 549.8373251423758 969.790482243984"/></g><g transform="translate(-86,-182) scale(1,1)"><path fill="none" stroke="#000000" d="M 549.8373251423759 978.209517756016 L 560 974 L 549.8373251423758 969.790482243984 L 549.8373251423759 978.209517756016" stroke-miterlimit="10"/></g><g transform="translate(-86,-182) scale(1,1)"><g><path fill="none" stroke="none"/><text fill="#000000" stroke="none" font-family="Arial" font-size="13px" font-style="normal" font-weight="normal" text-decoration="none" x="495.5" y="965.5">oui</text></g></g><g transform="translate(-86,-182) scale(1,1)"><rect fill="#fff07c" stroke="none" x="144" y="928" width="95" height="58"/></g><g transform="translate(-86,-182) scale(1,1)"><path fill="none" stroke="#000000" d="M 144 928 L 239 928 L 239 986 L 144 986 L 144 928 Z Z" stroke-miterlimit="10"/></g><g transform="translate(-86,-182) scale(1,1)"><g><path fill="none" stroke="none"/><text fill="#000000" stroke="none" font-family="Arial" font-size="13px" font-style="normal" font-weight="normal" text-decoration="none" x="160.4345703125" y="950.5">formater le</text><text fill="#000000" stroke="none" font-family="Arial" font-size="13px" font-style="normal" font-weight="normal" text-decoration="none" x="167.655029296875" y="963.5">nom rue</text><text fill="#000000" stroke="none" font-family="Arial" font-size="13px" font-style="normal" font-weight="normal" text-decoration="none" x="165.115966796875" y="976.5">inconnue</text></g></g><g transform="translate(-86,-182) scale(1,1)"><path fill="#ff0000" stroke="none" d="M 112 1016 L 200 1016 L 210 1026 L 210 1078 L 112 1078 L 112 1016"/></g><g transform="translate(-86,-182) scale(1,1)"><path fill="none" stroke="#000000" d="M 112 1016 L 200 1016 L 210 1026 L 210 1078 L 112 1078 L 112 1016 L 112 1016" stroke-miterlimit="10"/></g><g transform="translate(-86,-182) scale(1,1)"><path fill="none" stroke="#000000" d="M 200 1016 L 200 1026 L 210 1026 L 200 1016" stroke-miterlimit="10"/></g><g transform="translate(-86,-182) scale(1,1)"><g><path fill="none" stroke="none"/><text fill="#000000" stroke="none" font-family="Arial" font-size="13px" font-style="normal" font-weight="normal" text-decoration="none" x="117" y="1034">regles de</text><text fill="#000000" stroke="none" font-family="Arial" font-size="13px" font-style="normal" font-weight="normal" text-decoration="none" x="117" y="1047">gestion à</text><text fill="#000000" stroke="none" font-family="Arial" font-size="13px" font-style="normal" font-weight="normal" text-decoration="none" x="117" y="1060">définir et</text><text fill="#000000" stroke="none" font-family="Arial" font-size="13px" font-style="normal" font-weight="normal" text-decoration="none" x="117" y="1073">valuider</text></g></g><g transform="translate(-86,-182) scale(1,1)"><path fill="none" stroke="#000000" d="M 181 987 L 172 1015" stroke-miterlimit="10" stroke-dasharray="3"/></g><g transform="translate(-86,-182) scale(1,1)"><path fill="none" stroke="#000000" d="M 336 976 L 312 976 M 312 976 A 8 8 0 0 1 304 968 L 304 965 M 304 965 A 8 8 0 0 0 296 957 L 239 957" stroke-miterlimit="10"/></g><g transform="translate(-86,-182) scale(1,1)"><path fill="#000000" stroke="none" d="M 249.16267485762415 952.790482243984 L 239 957 L 249.16267485762415 961.209517756016"/></g><g transform="translate(-86,-182) scale(1,1)"><path fill="none" stroke="#000000" d="M 249.16267485762415 952.790482243984 L 239 957 L 249.16267485762415 961.209517756016 L 249.16267485762415 952.790482243984" stroke-miterlimit="10"/></g><g transform="translate(-86,-182) scale(1,1)"><g><path fill="none" stroke="none"/><text fill="#000000" stroke="none" font-family="Arial" font-size="13px" font-style="normal" font-weight="normal" text-decoration="none" x="278.5" y="971.5">non</text></g></g><g transform="translate(-86,-182) scale(1,1)"><rect fill="#fff07c" stroke="none" x="576" y="1088" width="94.1689453125" height="58"/></g><g transform="translate(-86,-182) scale(1,1)"><path fill="none" stroke="#000000" d="M 576 1088 L 670.1689453125 1088 L 670.1689453125 1146 L 576 1146 L 576 1088 Z Z" stroke-miterlimit="10"/></g><g transform="translate(-86,-182) scale(1,1)"><g><path fill="none" stroke="none"/><text fill="#000000" stroke="none" font-family="Arial" font-size="13px" font-style="normal" font-weight="normal" text-decoration="none" x="588.76904296875" y="1110.5">formater les</text><text fill="#000000" stroke="none" font-family="Arial" font-size="13px" font-style="normal" font-weight="normal" text-decoration="none" x="585.5" y="1123.5">coordonnées</text></g></g><g transform="translate(-86,-182) scale(1,1)"><path fill="none" stroke="#000000" d="M 532 1115 L 576 1115" stroke-miterlimit="10"/></g><g transform="translate(-86,-182) scale(1,1)"><path fill="#000000" stroke="none" d="M 565.8373251423759 1119.2095177560159 L 576 1115 L 565.8373251423758 1110.7904822439841"/></g><g transform="translate(-86,-182) scale(1,1)"><path fill="none" stroke="#000000" d="M 565.8373251423759 1119.2095177560159 L 576 1115 L 565.8373251423758 1110.7904822439841 L 565.8373251423759 1119.2095177560159" stroke-miterlimit="10"/></g><g transform="translate(-86,-182) scale(1,1)"><g><path fill="none" stroke="none"/><text fill="#000000" stroke="none" font-family="Arial" font-size="13px" font-style="normal" font-weight="normal" text-decoration="none" x="545.5" y="1106.5">oui</text></g></g><g transform="translate(-86,-182) scale(1,1)"><rect fill="#fff07c" stroke="none" x="168" y="1200" width="94.1689453125" height="47"/></g><g transform="translate(-86,-182) scale(1,1)"><path fill="none" stroke="#000000" d="M 168 1200 L 262.1689453125 1200 L 262.1689453125 1247 L 168 1247 L 168 1200 Z Z" stroke-miterlimit="10"/></g><g transform="translate(-86,-182) scale(1,1)"><g><path fill="none" stroke="none"/><text fill="#000000" stroke="none" font-family="Arial" font-size="13px" font-style="normal" font-weight="normal" text-decoration="none" x="182.57177734375" y="1222.5">calculer les</text><text fill="#000000" stroke="none" font-family="Arial" font-size="13px" font-style="normal" font-weight="normal" text-decoration="none" x="177.5" y="1235.5">coordonnées</text></g></g><g transform="translate(-86,-182) scale(1,1)"><path fill="#cce18d" stroke="none" d="M 344 1215.5 L 400.58447265625 1176 L 457.1689453125 1215.5 L 400.58447265625 1255 L 344 1215.5"/></g><g transform="translate(-86,-182) scale(1,1)"><path fill="none" stroke="#000000" d="M 344 1215.5 L 400.58447265625 1176 L 457.1689453125 1215.5 L 400.58447265625 1255 L 344 1215.5 L 344 1215.5" stroke-miterlimit="10"/></g><g transform="translate(-86,-182) scale(1,1)"><g><path fill="none" stroke="none"/><text fill="#000000" stroke="none" font-family="Arial" font-size="13px" font-style="normal" font-weight="normal" text-decoration="none" x="384.324951171875" y="1215.5">geom</text><text fill="#000000" stroke="none" font-family="Arial" font-size="13px" font-style="normal" font-weight="normal" text-decoration="none" x="375.2890625" y="1228.5">présente</text></g></g><g transform="translate(-86,-182) scale(1,1)"><path fill="none" stroke="#000000" d="M 403 1149 L 403 1176" stroke-miterlimit="10"/></g><g transform="translate(-86,-182) scale(1,1)"><path fill="#000000" stroke="none" d="M 398.790482243984 1165.837325142376 L 403 1176 L 407.209517756016 1165.837325142376"/></g><g transform="translate(-86,-182) scale(1,1)"><path fill="none" stroke="#000000" d="M 398.790482243984 1165.837325142376 L 403 1176 L 407.209517756016 1165.837325142376 L 398.790482243984 1165.837325142376" stroke-miterlimit="10"/></g><g transform="translate(-86,-182) scale(1,1)"><g><path fill="none" stroke="none"/><text fill="#000000" stroke="none" font-family="Arial" font-size="13px" font-style="normal" font-weight="normal" text-decoration="none" x="406.5" y="1167.5">non</text></g></g><g transform="translate(-86,-182) scale(1,1)"><path fill="none" stroke="#000000" d="M 344 1209 L 262 1209" stroke-miterlimit="10"/></g><g transform="translate(-86,-182) scale(1,1)"><path fill="#000000" stroke="none" d="M 272.16267485762415 1204.7904822439841 L 262 1209 L 272.16267485762415 1213.2095177560159"/></g><g transform="translate(-86,-182) scale(1,1)"><path fill="none" stroke="#000000" d="M 272.16267485762415 1204.7904822439841 L 262 1209 L 272.16267485762415 1213.2095177560159 L 272.16267485762415 1204.7904822439841" stroke-miterlimit="10"/></g><g transform="translate(-86,-182) scale(1,1)"><g><path fill="none" stroke="none"/><text fill="#000000" stroke="none" font-family="Arial" font-size="13px" font-style="normal" font-weight="normal" text-decoration="none" x="293.5" y="1230.5">oui</text></g></g><g transform="translate(-86,-182) scale(1,1)"><path fill="#cce18d" stroke="none" d="M 344 1313.5 L 400.58447265625 1288 L 457.1689453125 1313.5 L 400.58447265625 1339 L 344 1313.5"/></g><g transform="translate(-86,-182) scale(1,1)"><path fill="none" stroke="#000000" d="M 344 1313.5 L 400.58447265625 1288 L 457.1689453125 1313.5 L 400.58447265625 1339 L 344 1313.5 L 344 1313.5" stroke-miterlimit="10"/></g><g transform="translate(-86,-182) scale(1,1)"><g><path fill="none" stroke="none"/><text fill="#000000" stroke="none" font-family="Arial" font-size="13px" font-style="normal" font-weight="normal" text-decoration="none" x="377.4599609375" y="1313.5">adresse</text><text fill="#000000" stroke="none" font-family="Arial" font-size="13px" font-style="normal" font-weight="normal" text-decoration="none" x="375.2890625" y="1326.5">présente</text></g></g><g transform="translate(-86,-182) scale(1,1)"><rect fill="#fff07c" stroke="none" x="160" y="1296" width="111" height="58"/></g><g transform="translate(-86,-182) scale(1,1)"><path fill="none" stroke="#000000" d="M 160 1296 L 271 1296 L 271 1354 L 160 1354 L 160 1296 Z Z" stroke-miterlimit="10"/></g><g transform="translate(-86,-182) scale(1,1)"><g><path fill="none" stroke="none"/><text fill="#000000" stroke="none" font-family="Arial" font-size="13px" font-style="normal" font-weight="normal" text-decoration="none" x="180.813232421875" y="1318.5">géolocaliser</text><text fill="#000000" stroke="none" font-family="Arial" font-size="13px" font-style="normal" font-weight="normal" text-decoration="none" x="181.175048828125" y="1331.5">par adresse</text><text fill="#000000" stroke="none" font-family="Arial" font-size="13px" font-style="normal" font-weight="normal" text-decoration="none" x="182.63818359375" y="1344.5">(BAN, IGN)</text></g></g><g transform="translate(-86,-182) scale(1,1)"><path fill="#9acef6" stroke="none" d="M 348 1416 L 446.97705078125 1416 Q 466.97705078125 1416 466.97705078125 1436 L 466.97705078125 1435 Q 466.97705078125 1455 446.97705078125 1455 L 348 1455 Q 328 1455 328 1435 L 328 1436 Q 328 1416 348 1416 Z"/></g><g transform="translate(-86,-182) scale(1,1)"><path fill="none" stroke="#000000" d="M 348 1416 L 446.97705078125 1416 Q 466.97705078125 1416 466.97705078125 1436 L 466.97705078125 1435 Q 466.97705078125 1455 446.97705078125 1455 L 348 1455 Q 328 1455 328 1435 L 328 1436 Q 328 1416 348 1416 Z" stroke-miterlimit="10"/></g><g transform="translate(-86,-182) scale(1,1)"><g><path fill="none" stroke="none"/><text fill="#000000" stroke="none" font-family="Arial" font-size="13px" font-style="normal" font-weight="normal" text-decoration="none" x="339.30908203125" y="1438.5">id_comptag inconnu</text></g></g><g transform="translate(-86,-182) scale(1,1)"><path fill="none" stroke="#000000" d="M 400 1255 L 400 1288" stroke-miterlimit="10"/></g><g transform="translate(-86,-182) scale(1,1)"><path fill="#000000" stroke="none" d="M 395.790482243984 1277.837325142376 L 400 1288 L 404.209517756016 1277.837325142376"/></g><g transform="translate(-86,-182) scale(1,1)"><path fill="none" stroke="#000000" d="M 395.790482243984 1277.837325142376 L 400 1288 L 404.209517756016 1277.837325142376 L 395.790482243984 1277.837325142376" stroke-miterlimit="10"/></g><g transform="translate(-86,-182) scale(1,1)"><g><path fill="none" stroke="none"/><text fill="#000000" stroke="none" font-family="Arial" font-size="13px" font-style="normal" font-weight="normal" text-decoration="none" x="403.5" y="1276.5">non</text></g></g><g transform="translate(-86,-182) scale(1,1)"><path fill="none" stroke="#000000" d="M 344 1321 L 271 1321" stroke-miterlimit="10"/></g><g transform="translate(-86,-182) scale(1,1)"><path fill="#000000" stroke="none" d="M 281.16267485762415 1316.7904822439841 L 271 1321 L 281.16267485762415 1325.2095177560159"/></g><g transform="translate(-86,-182) scale(1,1)"><path fill="none" stroke="#000000" d="M 281.16267485762415 1316.7904822439841 L 271 1321 L 281.16267485762415 1325.2095177560159 L 281.16267485762415 1316.7904822439841" stroke-miterlimit="10"/></g><g transform="translate(-86,-182) scale(1,1)"><g><path fill="none" stroke="none"/><text fill="#000000" stroke="none" font-family="Arial" font-size="13px" font-style="normal" font-weight="normal" text-decoration="none" x="297.5" y="1342.5">oui</text></g></g><g transform="translate(-86,-182) scale(1,1)"><path fill="none" stroke="#000000" d="M 240 1354 L 240 1368 M 240 1368 A 8 8 0 0 0 248 1376 L 520 1376 M 520 1376 A 8 8 0 0 0 528 1368 L 528 1224 M 528 1224 A 8 8 0 0 0 520 1216 L 457 1216" stroke-miterlimit="10"/></g><g transform="translate(-86,-182) scale(1,1)"><path fill="#000000" stroke="none" d="M 467.16267485762415 1211.7904822439841 L 457 1216 L 467.16267485762415 1220.2095177560159"/></g><g transform="translate(-86,-182) scale(1,1)"><path fill="none" stroke="#000000" d="M 467.16267485762415 1211.7904822439841 L 457 1216 L 467.16267485762415 1220.2095177560159 L 467.16267485762415 1211.7904822439841" stroke-miterlimit="10"/></g><g transform="translate(-86,-182) scale(1,1)"><path fill="none" stroke="#000000" d="M 399 1339 L 399 1416" stroke-miterlimit="10"/></g><g transform="translate(-86,-182) scale(1,1)"><path fill="#000000" stroke="none" d="M 394.790482243984 1405.837325142376 L 399 1416 L 403.209517756016 1405.837325142376"/></g><g transform="translate(-86,-182) scale(1,1)"><path fill="none" stroke="#000000" d="M 394.790482243984 1405.837325142376 L 399 1416 L 403.209517756016 1405.837325142376 L 394.790482243984 1405.837325142376" stroke-miterlimit="10"/></g><g transform="translate(-86,-182) scale(1,1)"><g><path fill="none" stroke="none"/><text fill="#000000" stroke="none" font-family="Arial" font-size="13px" font-style="normal" font-weight="normal" text-decoration="none" x="402.5" y="1356.5">non</text></g></g><g transform="translate(-86,-182) scale(1,1)"><path fill="#dee7fe" stroke="none" d="M 875 800 L 943.8798828125 800 L 930.8798828125 871 L 862 871 L 875 800"/></g><g transform="translate(-86,-182) scale(1,1)"><path fill="none" stroke="#000000" d="M 875 800 L 943.8798828125 800 L 930.8798828125 871 L 862 871 L 875 800 L 875 800" stroke-miterlimit="10"/></g><g transform="translate(-86,-182) scale(1,1)"><g><path fill="none" stroke="none"/><text fill="#000000" stroke="none" font-family="Arial" font-size="13px" font-style="normal" font-weight="normal" text-decoration="none" x="871.5" y="816">identifinant</text><text fill="#000000" stroke="none" font-family="Arial" font-size="13px" font-style="normal" font-weight="normal" text-decoration="none" x="874.40087890625" y="829">commune</text><text fill="#000000" stroke="none" font-family="Arial" font-size="13px" font-style="normal" font-weight="normal" text-decoration="none" x="895.7099609375" y="842">ou</text><text fill="#000000" stroke="none" font-family="Arial" font-size="13px" font-style="normal" font-weight="normal" text-decoration="none" x="887.76904296875" y="855">EPCI</text></g></g><g transform="translate(-86,-182) scale(1,1)"><path fill="#dee7fe" stroke="none" d="M 885 968 L 929.68994140625 968 L 920.68994140625 1026 L 876 1026 L 885 968"/></g><g transform="translate(-86,-182) scale(1,1)"><path fill="none" stroke="#000000" d="M 885 968 L 929.68994140625 968 L 920.68994140625 1026 L 876 1026 L 885 968 L 885 968" stroke-miterlimit="10"/></g><g transform="translate(-86,-182) scale(1,1)"><g><path fill="none" stroke="none"/><text fill="#000000" stroke="none" font-family="Arial" font-size="13px" font-style="normal" font-weight="normal" text-decoration="none" x="890.200439453125" y="990.5">nom</text><text fill="#000000" stroke="none" font-family="Arial" font-size="13px" font-style="normal" font-weight="normal" text-decoration="none" x="895.614990234375" y="1003.5">de</text><text fill="#000000" stroke="none" font-family="Arial" font-size="13px" font-style="normal" font-weight="normal" text-decoration="none" x="893.450439453125" y="1016.5">rue</text></g></g><g transform="translate(-86,-182) scale(1,1)"><path fill="#dee7fe" stroke="none" d="M 870 1096 L 949.1689453125 1096 L 934.1689453125 1128 L 855 1128 L 870 1096"/></g><g transform="translate(-86,-182) scale(1,1)"><path fill="none" stroke="#000000" d="M 870 1096 L 949.1689453125 1096 L 934.1689453125 1128 L 855 1128 L 870 1096 L 870 1096" stroke-miterlimit="10"/></g><g transform="translate(-86,-182) scale(1,1)"><g><path fill="none" stroke="none"/><text fill="#000000" stroke="none" font-family="Arial" font-size="13px" font-style="normal" font-weight="normal" text-decoration="none" x="864.5" y="1118.5">coordonnées</text></g></g><g transform="translate(-86,-182) scale(1,1)"><path fill="none" stroke="#000000" d="M 224 1200 L 224 1176 M 224 1176 A 8 8 0 0 1 232 1168 L 616 1168 M 616 1168 A 8 8 0 0 0 624 1160 L 624 1146" stroke-miterlimit="10"/></g><g transform="translate(-86,-182) scale(1,1)"><path fill="#000000" stroke="none" d="M 628.209517756016 1156.162674857624 L 624 1146 L 619.790482243984 1156.162674857624"/></g><g transform="translate(-86,-182) scale(1,1)"><path fill="none" stroke="#000000" d="M 628.209517756016 1156.162674857624 L 624 1146 L 619.790482243984 1156.162674857624 L 628.209517756016 1156.162674857624" stroke-miterlimit="10"/></g><g transform="translate(-86,-182) scale(1,1)"><path fill="none" stroke="#000000" d="M 663 833 L 862 833" stroke-miterlimit="10"/></g><g transform="translate(-86,-182) scale(1,1)"><path fill="#000000" stroke="none" d="M 851.8373251423759 837.209517756016 L 862 833 L 851.8373251423758 828.790482243984"/></g><g transform="translate(-86,-182) scale(1,1)"><path fill="none" stroke="#000000" d="M 851.8373251423759 837.209517756016 L 862 833 L 851.8373251423758 828.790482243984 L 851.8373251423759 837.209517756016" stroke-miterlimit="10"/></g><g transform="translate(-86,-182) scale(1,1)"><path fill="none" stroke="#000000" d="M 633 995 L 876 995" stroke-miterlimit="10"/></g><g transform="translate(-86,-182) scale(1,1)"><path fill="#000000" stroke="none" d="M 865.8373251423759 999.209517756016 L 876 995 L 865.8373251423758 990.790482243984"/></g><g transform="translate(-86,-182) scale(1,1)"><path fill="none" stroke="#000000" d="M 865.8373251423759 999.209517756016 L 876 995 L 865.8373251423758 990.790482243984 L 865.8373251423759 999.209517756016" stroke-miterlimit="10"/></g><g transform="translate(-86,-182) scale(1,1)"><path fill="none" stroke="#000000" d="M 670 1116 L 855 1116" stroke-miterlimit="10"/></g><g transform="translate(-86,-182) scale(1,1)"><path fill="#000000" stroke="none" d="M 844.8373251423759 1120.2095177560159 L 855 1116 L 844.8373251423758 1111.7904822439841"/></g><g transform="translate(-86,-182) scale(1,1)"><path fill="none" stroke="#000000" d="M 844.8373251423759 1120.2095177560159 L 855 1116 L 844.8373251423758 1111.7904822439841 L 844.8373251423759 1120.2095177560159" stroke-miterlimit="10"/></g><g transform="translate(-86,-182) scale(1,1)"><rect fill="#fff07c" stroke="none" x="1080" y="912" width="104.25537109375" height="84"/></g><g transform="translate(-86,-182) scale(1,1)"><path fill="none" stroke="#000000" d="M 1080 912 L 1184.25537109375 912 L 1184.25537109375 996 L 1080 996 L 1080 912 Z Z" stroke-miterlimit="10"/></g><g transform="translate(-86,-182) scale(1,1)"><g><path fill="none" stroke="none"/><text fill="#000000" stroke="none" font-family="Arial" font-size="13px" font-style="normal" font-weight="normal" text-decoration="none" x="1102.86181640625" y="934.5">formatage</text><text fill="#000000" stroke="none" font-family="Arial" font-size="13px" font-style="normal" font-weight="normal" text-decoration="none" x="1112.253173828125" y="947.5">réseau</text><text fill="#000000" stroke="none" font-family="Arial" font-size="13px" font-style="normal" font-weight="normal" text-decoration="none" x="1093.108642578125" y="960.5">communal ou</text><text fill="#000000" stroke="none" font-family="Arial" font-size="13px" font-style="normal" font-weight="normal" text-decoration="none" x="1089.5" y="973.5">intercommunal</text></g></g><g transform="translate(-86,-182) scale(1,1)"><path fill="#ffffff" stroke="none" d="M 1254.25537109375 896 L 1558.544921875 896 L 1568.544921875 906 L 1568.544921875 944 L 1254.25537109375 944 L 1254.25537109375 896"/></g><g transform="translate(-86,-182) scale(1,1)"><path fill="none" stroke="#000000" d="M 1254.25537109375 896 L 1558.544921875 896 L 1568.544921875 906 L 1568.544921875 944 L 1254.25537109375 944 L 1254.25537109375 896 L 1254.25537109375 896" stroke-miterlimit="10"/></g><g transform="translate(-86,-182) scale(1,1)"><path fill="none" stroke="#000000" d="M 1558.544921875 896 L 1558.544921875 906 L 1568.544921875 906 L 1558.544921875 896" stroke-miterlimit="10"/></g><g transform="translate(-86,-182) scale(1,1)"><g><path fill="none" stroke="none"/><text fill="#000000" stroke="none" font-family="Arial" font-size="13px" font-style="normal" font-weight="normal" text-decoration="none" x="1259.25537109375" y="914">{idCommuneOuEPCI}-{nomDeRue}-{Coordonnées}</text></g></g><g transform="translate(-86,-182) scale(1,1)"><path fill="none" stroke="#000000" d="M 1185 948 L 1253 939" stroke-miterlimit="10" stroke-dasharray="3"/></g><g transform="translate(-86,-182) scale(1,1)"><path fill="#ffffff" stroke="none" d="M 648 1176 L 775.21533203125 1176 L 785.21533203125 1186 L 785.21533203125 1264 L 648 1264 L 648 1176"/></g><g transform="translate(-86,-182) scale(1,1)"><path fill="none" stroke="#000000" d="M 648 1176 L 775.21533203125 1176 L 785.21533203125 1186 L 785.21533203125 1264 L 648 1264 L 648 1176 L 648 1176" stroke-miterlimit="10"/></g><g transform="translate(-86,-182) scale(1,1)"><path fill="none" stroke="#000000" d="M 775.21533203125 1176 L 775.21533203125 1186 L 785.21533203125 1186 L 775.21533203125 1176" stroke-miterlimit="10"/></g><g transform="translate(-86,-182) scale(1,1)"><g><path fill="none" stroke="none"/><text fill="#000000" stroke="none" font-family="Arial" font-size="13px" font-style="normal" font-weight="normal" text-decoration="none" x="653" y="1194">en</text><text fill="#000000" stroke="none" font-family="Arial" font-size="13px" font-style="normal" font-weight="normal" text-decoration="none" x="653" y="1207">WGS84(EPSG4326)</text><text fill="#000000" stroke="none" font-family="Arial" font-size="13px" font-style="normal" font-weight="normal" text-decoration="none" x="653" y="1220">au format</text><text fill="#000000" stroke="none" font-family="Arial" font-size="13px" font-style="normal" font-weight="normal" text-decoration="none" x="653" y="1233">{longitude;latitude}</text><text fill="#000000" stroke="none" font-family="Arial" font-size="13px" font-style="normal" font-weight="normal" text-decoration="none" x="653" y="1246">avec long et lat</text><text fill="#000000" stroke="none" font-family="Arial" font-size="13px" font-style="normal" font-weight="normal" text-decoration="none" x="653" y="1259">arrondi à 10^-4</text></g></g><g transform="translate(-86,-182) scale(1,1)"><path fill="none" stroke="#000000" d="M 650 1147 L 676 1175" stroke-miterlimit="10" stroke-dasharray="3"/></g><g transform="translate(-86,-182) scale(1,1)"><path fill="#9acef6" stroke="none" d="M 1120 760 L 1207 760 Q 1247 760 1247 800 L 1247 799 Q 1247 839 1207 839 L 1120 839 Q 1080 839 1080 799 L 1080 800 Q 1080 760 1120 760 Z"/></g><g transform="translate(-86,-182) scale(1,1)"><path fill="none" stroke="#000000" d="M 1120 760 L 1207 760 Q 1247 760 1247 800 L 1247 799 Q 1247 839 1207 839 L 1120 839 Q 1080 839 1080 799 L 1080 800 Q 1080 760 1120 760 Z" stroke-miterlimit="10"/></g><g transform="translate(-86,-182) scale(1,1)"><g><path fill="none" stroke="none"/><text fill="#000000" stroke="none" font-family="Arial" font-size="13px" font-style="normal" font-weight="normal" text-decoration="none" x="1106.0537109375" y="782.5">id_comptag formaté</text></g></g><g transform="translate(-86,-182) scale(1,1)"><path fill="none" stroke="#000000" d="M 902 871 L 902 919 M 902 919 A 8 8 0 0 0 910 927 L 1080 927" stroke-miterlimit="10"/></g><g transform="translate(-86,-182) scale(1,1)"><path fill="#000000" stroke="none" d="M 1069.837325142376 931.209517756016 L 1080 927 L 1069.837325142376 922.790482243984"/></g><g transform="translate(-86,-182) scale(1,1)"><path fill="none" stroke="#000000" d="M 1069.837325142376 931.209517756016 L 1080 927 L 1069.837325142376 922.790482243984 L 1069.837325142376 931.209517756016" stroke-miterlimit="10"/></g><g transform="translate(-86,-182) scale(1,1)"><path fill="none" stroke="#000000" d="M 930 976 L 1080 976" stroke-miterlimit="10"/></g><g transform="translate(-86,-182) scale(1,1)"><path fill="#000000" stroke="none" d="M 1069.837325142376 980.209517756016 L 1080 976 L 1069.837325142376 971.790482243984"/></g><g transform="translate(-86,-182) scale(1,1)"><path fill="none" stroke="#000000" d="M 1069.837325142376 980.209517756016 L 1080 976 L 1069.837325142376 971.790482243984 L 1069.837325142376 980.209517756016" stroke-miterlimit="10"/></g><g transform="translate(-86,-182) scale(1,1)"><path fill="none" stroke="#000000" d="M 949 1096 L 1128 1096 M 1128 1096 A 8 8 0 0 0 1136 1088 L 1136 996" stroke-miterlimit="10"/></g><g transform="translate(-86,-182) scale(1,1)"><path fill="#000000" stroke="none" d="M 1140.2095177560159 1006.1626748576241 L 1136 996 L 1131.7904822439841 1006.1626748576241"/></g><g transform="translate(-86,-182) scale(1,1)"><path fill="none" stroke="#000000" d="M 1140.2095177560159 1006.1626748576241 L 1136 996 L 1131.7904822439841 1006.1626748576241 L 1140.2095177560159 1006.1626748576241" stroke-miterlimit="10"/></g><g transform="translate(-86,-182) scale(1,1)"><path fill="none" stroke="#000000" d="M 919 711 L 919 728 M 919 728 A 8 8 0 0 0 927 736 L 1168 736 M 1168 736 A 8 8 0 0 1 1176 744 L 1176 760" stroke-miterlimit="10"/></g><g transform="translate(-86,-182) scale(1,1)"><path fill="#000000" stroke="none" d="M 1171.7904822439841 749.8373251423759 L 1176 760 L 1180.2095177560159 749.8373251423759"/></g><g transform="translate(-86,-182) scale(1,1)"><path fill="none" stroke="#000000" d="M 1171.7904822439841 749.8373251423759 L 1176 760 L 1180.2095177560159 749.8373251423759 L 1171.7904822439841 749.8373251423759" stroke-miterlimit="10"/></g><g transform="translate(-86,-182) scale(1,1)"><path fill="none" stroke="#000000" d="M 1155 912 L 1155 839" stroke-miterlimit="10"/></g><g transform="translate(-86,-182) scale(1,1)"><path fill="#000000" stroke="none" d="M 1159.2095177560159 849.1626748576241 L 1155 839 L 1150.7904822439841 849.1626748576241"/></g><g transform="translate(-86,-182) scale(1,1)"><path fill="none" stroke="#000000" d="M 1159.2095177560159 849.1626748576241 L 1155 839 L 1150.7904822439841 849.1626748576241 L 1159.2095177560159 849.1626748576241" stroke-miterlimit="10"/></g><g transform="translate(-86,-182) scale(1,1)"><path fill="none" stroke="#000000" d="M 216 986 L 216 1016 M 216 1016 A 8 8 0 0 0 224 1024 L 876 1024" stroke-miterlimit="10"/></g><g transform="translate(-86,-182) scale(1,1)"><path fill="#000000" stroke="none" d="M 865.8373251423759 1028.2095177560159 L 876 1024 L 865.8373251423758 1019.790482243984"/></g><g transform="translate(-86,-182) scale(1,1)"><path fill="none" stroke="#000000" d="M 865.8373251423759 1028.2095177560159 L 876 1024 L 865.8373251423758 1019.790482243984 L 865.8373251423759 1028.2095177560159" stroke-miterlimit="10"/></g><g transform="translate(-86,-182) scale(1,1)"><path fill="none" stroke="#000000" d="M 248 863 L 248 880 M 248 880 A 8 8 0 0 0 256 888 L 824 888 M 824 888 A 8 8 0 0 0 832 880 L 832 856 M 832 856 A 8 8 0 0 1 840 848 L 862 848" stroke-miterlimit="10"/></g><g transform="translate(-86,-182) scale(1,1)"><path fill="#000000" stroke="none" d="M 851.8373251423759 852.209517756016 L 862 848 L 851.8373251423758 843.790482243984"/></g><g transform="translate(-86,-182) scale(1,1)"><path fill="none" stroke="#000000" d="M 851.8373251423759 852.209517756016 L 862 848 L 851.8373251423758 843.790482243984 L 851.8373251423759 852.209517756016" stroke-miterlimit="10"/></g><g transform="translate(-86,-182) scale(1,1)"><path fill="none" stroke="#000000" d="M 260 406 L 320 406" stroke-miterlimit="10"/></g><g transform="translate(-86,-182) scale(1,1)"><path fill="#000000" stroke="none" d="M 309.83732514237585 410.209517756016 L 320 406 L 309.83732514237585 401.790482243984"/></g><g transform="translate(-86,-182) scale(1,1)"><path fill="none" stroke="#000000" d="M 309.83732514237585 410.209517756016 L 320 406 L 309.83732514237585 401.790482243984 L 309.83732514237585 410.209517756016" stroke-miterlimit="10"/></g></g></svg>