<svg version="1.1" xmlns="http://www.w3.org/2000/svg" xmlns:xlink="http://www.w3.org/1999/xlink" width="569.43896484375" height="478"><defs/><g><g transform="translate(-110,-118) scale(1,1)"><path fill="#dee7fe" stroke="none" d="M 321 128 L 407 128 L 390 173 L 304 173 L 321 128"/></g><g transform="translate(-110,-118) scale(1,1)"><path fill="none" stroke="#000000" d="M 321 128 L 407 128 L 390 173 L 304 173 L 321 128 L 321 128" stroke-miterlimit="10"/></g><g transform="translate(-110,-118) scale(1,1)"><g><path fill="none" stroke="none"/><text fill="#000000" stroke="none" font-family="Arial" font-size="13px" font-style="normal" font-weight="normal" text-decoration="none" x="330.56005859375" y="150.5">donnees</text><text fill="#000000" stroke="none" font-family="Arial" font-size="13px" font-style="normal" font-weight="normal" text-decoration="none" x="320.08642578125" y="163.5">gestionnaire</text></g></g><g transform="translate(-110,-118) scale(1,1)"><path fill="#dee7fe" stroke="none" d="M 149 528 L 253.43896484375 528 L 232.43896484375 586 L 128 586 L 149 528"/></g><g transform="translate(-110,-118) scale(1,1)"><path fill="none" stroke="#000000" d="M 149 528 L 253.43896484375 528 L 232.43896484375 586 L 128 586 L 149 528 L 149 528" stroke-miterlimit="10"/></g><g transform="translate(-110,-118) scale(1,1)"><g><path fill="none" stroke="none"/><text fill="#000000" stroke="none" font-family="Arial" font-size="13px" font-style="normal" font-weight="normal" text-decoration="none" x="163.62451171875" y="550.5">compteur</text><text fill="#000000" stroke="none" font-family="Arial" font-size="13px" font-style="normal" font-weight="normal" text-decoration="none" x="176.989501953125" y="563.5">avec</text><text fill="#000000" stroke="none" font-family="Arial" font-size="13px" font-style="normal" font-weight="normal" text-decoration="none" x="161.8154296875" y="576.5">geometrie</text></g></g><g transform="translate(-110,-118) scale(1,1)"><path fill="#dee7fe" stroke="none" d="M 578 512 L 669.43896484375 512 L 651.43896484375 570 L 560 570 L 578 512"/></g><g transform="translate(-110,-118) scale(1,1)"><path fill="none" stroke="#000000" d="M 578 512 L 669.43896484375 512 L 651.43896484375 570 L 560 570 L 578 512 L 578 512" stroke-miterlimit="10"/></g><g transform="translate(-110,-118) scale(1,1)"><g><path fill="none" stroke="none"/><text fill="#000000" stroke="none" font-family="Arial" font-size="13px" font-style="normal" font-weight="normal" text-decoration="none" x="587.62451171875" y="534.5">compteur</text><text fill="#000000" stroke="none" font-family="Arial" font-size="13px" font-style="normal" font-weight="normal" text-decoration="none" x="600.989501953125" y="547.5">sans</text><text fill="#000000" stroke="none" font-family="Arial" font-size="13px" font-style="normal" font-weight="normal" text-decoration="none" x="585.8154296875" y="560.5">geometrie</text></g></g><g transform="translate(-110,-118) scale(1,1)"><rect fill="#fff07c" stroke="none" x="120" y="272" width="118.75048828125" height="45"/></g><g transform="translate(-110,-118) scale(1,1)"><path fill="none" stroke="#000000" d="M 120 272 L 238.75048828125 272 L 238.75048828125 317 L 120 317 L 120 272 Z Z" stroke-miterlimit="10"/></g><g transform="translate(-110,-118) scale(1,1)"><g><path fill="none" stroke="none"/><text fill="#000000" stroke="none" font-family="Arial" font-size="13px" font-style="normal" font-weight="normal" text-decoration="none" x="135.408203125" y="294.5">affectation type</text><text fill="#000000" stroke="none" font-family="Arial" font-size="13px" font-style="normal" font-weight="normal" text-decoration="none" x="154.4384765625" y="307.5">de poste</text></g></g><g transform="translate(-110,-118) scale(1,1)"><rect fill="#ddc8c3" stroke="none" x="280" y="208" width="136.06982421875" height="39"/></g><g transform="translate(-110,-118) scale(1,1)"><path fill="none" stroke="#000000" d="M 280 208 L 416.06982421875 208 L 416.06982421875 247 L 280 247 L 280 208 Z Z" stroke-miterlimit="10"/></g><g transform="translate(-110,-118) scale(1,1)"><path fill="none" stroke="#000000" d="M 285 208 L 285 247" stroke-miterlimit="10"/></g><g transform="translate(-110,-118) scale(1,1)"><path fill="none" stroke="#000000" d="M 411.06982421875 208 L 411.06982421875 247" stroke-miterlimit="10"/></g><g transform="translate(-110,-118) scale(1,1)"><g><path fill="none" stroke="none"/><text fill="#000000" stroke="none" font-family="Arial" font-size="13px" font-style="normal" font-weight="normal" text-decoration="none" x="300.3154296875" y="230.5">creer id_comptag</text></g></g><g transform="translate(-110,-118) scale(1,1)"><path fill="none" stroke="#000000" d="M 353 173 L 353 208" stroke-miterlimit="10"/></g><g transform="translate(-110,-118) scale(1,1)"><path fill="#000000" stroke="none" d="M 348.790482243984 197.83732514237585 L 353 208 L 357.209517756016 197.83732514237585"/></g><g transform="translate(-110,-118) scale(1,1)"><path fill="none" stroke="#000000" d="M 348.790482243984 197.83732514237585 L 353 208 L 357.209517756016 197.83732514237585 L 348.790482243984 197.83732514237585" stroke-miterlimit="10"/></g><g transform="translate(-110,-118) scale(1,1)"><rect fill="#ddc8c3" stroke="none" x="352" y="480" width="136.06982421875" height="32"/></g><g transform="translate(-110,-118) scale(1,1)"><path fill="none" stroke="#000000" d="M 352 480 L 488.06982421875 480 L 488.06982421875 512 L 352 512 L 352 480 Z Z" stroke-miterlimit="10"/></g><g transform="translate(-110,-118) scale(1,1)"><path fill="none" stroke="#000000" d="M 357 480 L 357 512" stroke-miterlimit="10"/></g><g transform="translate(-110,-118) scale(1,1)"><path fill="none" stroke="#000000" d="M 483.06982421875 480 L 483.06982421875 512" stroke-miterlimit="10"/></g><g transform="translate(-110,-118) scale(1,1)"><g><path fill="none" stroke="none"/><text fill="#000000" stroke="none" font-family="Arial" font-size="13px" font-style="normal" font-weight="normal" text-decoration="none" x="377.015869140625" y="502.5">creer geometrie</text></g></g><g transform="translate(-110,-118) scale(1,1)"><rect fill="#fff07c" stroke="none" x="248" y="272" width="78.75048828125" height="45"/></g><g transform="translate(-110,-118) scale(1,1)"><path fill="none" stroke="#000000" d="M 248 272 L 326.75048828125 272 L 326.75048828125 317 L 248 317 L 248 272 Z Z" stroke-miterlimit="10"/></g><g transform="translate(-110,-118) scale(1,1)"><g><path fill="none" stroke="none"/><text fill="#000000" stroke="none" font-family="Arial" font-size="13px" font-style="normal" font-weight="normal" text-decoration="none" x="257.5" y="294.5">affectation</text><text fill="#000000" stroke="none" font-family="Arial" font-size="13px" font-style="normal" font-weight="normal" text-decoration="none" x="269.30029296875" y="307.5">annee</text></g></g><g transform="translate(-110,-118) scale(1,1)"><rect fill="#fff07c" stroke="none" x="344" y="272" width="91.99169921875" height="45"/></g><g transform="translate(-110,-118) scale(1,1)"><path fill="none" stroke="#000000" d="M 344 272 L 435.99169921875 272 L 435.99169921875 317 L 344 317 L 344 272 Z Z" stroke-miterlimit="10"/></g><g transform="translate(-110,-118) scale(1,1)"><g><path fill="none" stroke="none"/><text fill="#000000" stroke="none" font-family="Arial" font-size="13px" font-style="normal" font-weight="normal" text-decoration="none" x="360.12060546875" y="294.5">affectation</text><text fill="#000000" stroke="none" font-family="Arial" font-size="13px" font-style="normal" font-weight="normal" text-decoration="none" x="353.5" y="307.5">departement</text></g></g><g transform="translate(-110,-118) scale(1,1)"><rect fill="#fff07c" stroke="none" x="448" y="272" width="78.75048828125" height="45"/></g><g transform="translate(-110,-118) scale(1,1)"><path fill="none" stroke="#000000" d="M 448 272 L 526.75048828125 272 L 526.75048828125 317 L 448 317 L 448 272 Z Z" stroke-miterlimit="10"/></g><g transform="translate(-110,-118) scale(1,1)"><g><path fill="none" stroke="none"/><text fill="#000000" stroke="none" font-family="Arial" font-size="13px" font-style="normal" font-weight="normal" text-decoration="none" x="457.5" y="294.5">affectation</text><text fill="#000000" stroke="none" font-family="Arial" font-size="13px" font-style="normal" font-weight="normal" text-decoration="none" x="467.500732421875" y="307.5">reseau</text></g></g><g transform="translate(-110,-118) scale(1,1)"><rect fill="#fff07c" stroke="none" x="144" y="320" width="89.8271484375" height="45"/></g><g transform="translate(-110,-118) scale(1,1)"><path fill="none" stroke="#000000" d="M 144 320 L 233.8271484375 320 L 233.8271484375 365 L 144 365 L 144 320 Z Z" stroke-miterlimit="10"/></g><g transform="translate(-110,-118) scale(1,1)"><g><path fill="none" stroke="none"/><text fill="#000000" stroke="none" font-family="Arial" font-size="13px" font-style="normal" font-weight="normal" text-decoration="none" x="159.038330078125" y="342.5">affectation</text><text fill="#000000" stroke="none" font-family="Arial" font-size="13px" font-style="normal" font-weight="normal" text-decoration="none" x="153.5" y="355.5">gestionnaire</text></g></g><g transform="translate(-110,-118) scale(1,1)"><rect fill="#fff07c" stroke="none" x="336" y="320" width="84.0380859375" height="45"/></g><g transform="translate(-110,-118) scale(1,1)"><path fill="none" stroke="#000000" d="M 336 320 L 420.0380859375 320 L 420.0380859375 365 L 336 365 L 336 320 Z Z" stroke-miterlimit="10"/></g><g transform="translate(-110,-118) scale(1,1)"><g><path fill="none" stroke="none"/><text fill="#000000" stroke="none" font-family="Arial" font-size="13px" font-style="normal" font-weight="normal" text-decoration="none" x="348.143798828125" y="342.5">affectation</text><text fill="#000000" stroke="none" font-family="Arial" font-size="13px" font-style="normal" font-weight="normal" text-decoration="none" x="345.5" y="355.5">concession</text></g></g><g transform="translate(-110,-118) scale(1,1)"><rect fill="#fff07c" stroke="none" x="432" y="320" width="78.75048828125" height="45"/></g><g transform="translate(-110,-118) scale(1,1)"><path fill="none" stroke="#000000" d="M 432 320 L 510.75048828125 320 L 510.75048828125 365 L 432 365 L 432 320 Z Z" stroke-miterlimit="10"/></g><g transform="translate(-110,-118) scale(1,1)"><g><path fill="none" stroke="none"/><text fill="#000000" stroke="none" font-family="Arial" font-size="13px" font-style="normal" font-weight="normal" text-decoration="none" x="441.5" y="342.5">affectation</text><text fill="#000000" stroke="none" font-family="Arial" font-size="13px" font-style="normal" font-weight="normal" text-decoration="none" x="450.4248046875" y="355.5">src_cpt</text></g></g><g transform="translate(-110,-118) scale(1,1)"><rect fill="#fff07c" stroke="none" x="528" y="320" width="81.8798828125" height="45"/></g><g transform="translate(-110,-118) scale(1,1)"><path fill="none" stroke="#000000" d="M 528 320 L 609.8798828125 320 L 609.8798828125 365 L 528 365 L 528 320 Z Z" stroke-miterlimit="10"/></g><g transform="translate(-110,-118) scale(1,1)"><g><path fill="none" stroke="none"/><text fill="#000000" stroke="none" font-family="Arial" font-size="13px" font-style="normal" font-weight="normal" text-decoration="none" x="539.064697265625" y="342.5">affectation</text><text fill="#000000" stroke="none" font-family="Arial" font-size="13px" font-style="normal" font-weight="normal" text-decoration="none" x="537.5" y="355.5">convention</text></g></g><g transform="translate(-110,-118) scale(1,1)"><rect fill="#fff07c" stroke="none" x="536" y="272" width="78.75048828125" height="45"/></g><g transform="translate(-110,-118) scale(1,1)"><path fill="none" stroke="#000000" d="M 536 272 L 614.75048828125 272 L 614.75048828125 317 L 536 317 L 536 272 Z Z" stroke-miterlimit="10"/></g><g transform="translate(-110,-118) scale(1,1)"><g><path fill="none" stroke="none"/><text fill="#000000" stroke="none" font-family="Arial" font-size="13px" font-style="normal" font-weight="normal" text-decoration="none" x="545.5" y="294.5">affectation</text><text fill="#000000" stroke="none" font-family="Arial" font-size="13px" font-style="normal" font-weight="normal" text-decoration="none" x="549.359375" y="307.5">sens_cpt</text></g></g><g transform="translate(-110,-118) scale(1,1)"><rect fill="#fff07c" stroke="none" x="248" y="320" width="78.75048828125" height="45"/></g><g transform="translate(-110,-118) scale(1,1)"><path fill="none" stroke="#000000" d="M 248 320 L 326.75048828125 320 L 326.75048828125 365 L 248 365 L 248 320 Z Z" stroke-miterlimit="10"/></g><g transform="translate(-110,-118) scale(1,1)"><g><path fill="none" stroke="none"/><text fill="#000000" stroke="none" font-family="Arial" font-size="13px" font-style="normal" font-weight="normal" text-decoration="none" x="257.5" y="342.5">affectation</text><text fill="#000000" stroke="none" font-family="Arial" font-size="13px" font-style="normal" font-weight="normal" text-decoration="none" x="275.8193359375" y="355.5">fictif</text></g></g><g transform="translate(-110,-118) scale(1,1)"><path fill="none" stroke="#000000" d="M 280 235 L 192 235 M 192 235 A 8 8 0 0 0 184 243 L 184 272" stroke-miterlimit="10"/></g><g transform="translate(-110,-118) scale(1,1)"><path fill="#000000" stroke="none" d="M 179.790482243984 261.83732514237585 L 184 272 L 188.209517756016 261.83732514237585"/></g><g transform="translate(-110,-118) scale(1,1)"><path fill="none" stroke="#000000" d="M 179.790482243984 261.83732514237585 L 184 272 L 188.209517756016 261.83732514237585 L 179.790482243984 261.83732514237585" stroke-miterlimit="10"/></g><g transform="translate(-110,-118) scale(1,1)"><path fill="none" stroke="#000000" d="M 239 294 L 248 294" stroke-miterlimit="10"/></g><g transform="translate(-110,-118) scale(1,1)"><path fill="#000000" stroke="none" d="M 237.83732514237585 298.209517756016 L 248 294 L 237.83732514237585 289.790482243984"/></g><g transform="translate(-110,-118) scale(1,1)"><path fill="none" stroke="#000000" d="M 237.83732514237585 298.209517756016 L 248 294 L 237.83732514237585 289.790482243984 L 237.83732514237585 298.209517756016" stroke-miterlimit="10"/></g><g transform="translate(-110,-118) scale(1,1)"><path fill="none" stroke="#000000" d="M 327 294 L 344 294" stroke-miterlimit="10"/></g><g transform="translate(-110,-118) scale(1,1)"><path fill="#000000" stroke="none" d="M 333.83732514237585 298.209517756016 L 344 294 L 333.83732514237585 289.790482243984"/></g><g transform="translate(-110,-118) scale(1,1)"><path fill="none" stroke="#000000" d="M 333.83732514237585 298.209517756016 L 344 294 L 333.83732514237585 289.790482243984 L 333.83732514237585 298.209517756016" stroke-miterlimit="10"/></g><g transform="translate(-110,-118) scale(1,1)"><path fill="none" stroke="#000000" d="M 436 294 L 448 294" stroke-miterlimit="10"/></g><g transform="translate(-110,-118) scale(1,1)"><path fill="#000000" stroke="none" d="M 437.83732514237585 298.209517756016 L 448 294 L 437.83732514237585 289.790482243984"/></g><g transform="translate(-110,-118) scale(1,1)"><path fill="none" stroke="#000000" d="M 437.83732514237585 298.209517756016 L 448 294 L 437.83732514237585 289.790482243984 L 437.83732514237585 298.209517756016" stroke-miterlimit="10"/></g><g transform="translate(-110,-118) scale(1,1)"><path fill="none" stroke="#000000" d="M 527 294 L 536 294" stroke-miterlimit="10"/></g><g transform="translate(-110,-118) scale(1,1)"><path fill="#000000" stroke="none" d="M 525.8373251423759 298.209517756016 L 536 294 L 525.8373251423758 289.790482243984"/></g><g transform="translate(-110,-118) scale(1,1)"><path fill="none" stroke="#000000" d="M 525.8373251423759 298.209517756016 L 536 294 L 525.8373251423758 289.790482243984 L 525.8373251423759 298.209517756016" stroke-miterlimit="10"/></g><g transform="translate(-110,-118) scale(1,1)"><path fill="none" stroke="#000000" d="M 615 278 L 624 278 M 624 278 A 8 8 0 0 1 632 286 L 632 328 M 632 328 A 8 8 0 0 1 624 336 L 610 336" stroke-miterlimit="10"/></g><g transform="translate(-110,-118) scale(1,1)"><path fill="#000000" stroke="none" d="M 620.1626748576241 331.790482243984 L 610 336 L 620.1626748576241 340.209517756016"/></g><g transform="translate(-110,-118) scale(1,1)"><path fill="none" stroke="#000000" d="M 620.1626748576241 331.790482243984 L 610 336 L 620.1626748576241 340.209517756016 L 620.1626748576241 331.790482243984" stroke-miterlimit="10"/></g><g transform="translate(-110,-118) scale(1,1)"><path fill="none" stroke="#000000" d="M 528 342 L 511 342" stroke-miterlimit="10"/></g><g transform="translate(-110,-118) scale(1,1)"><path fill="#000000" stroke="none" d="M 521.1626748576241 337.790482243984 L 511 342 L 521.1626748576241 346.209517756016"/></g><g transform="translate(-110,-118) scale(1,1)"><path fill="none" stroke="#000000" d="M 521.1626748576241 337.790482243984 L 511 342 L 521.1626748576241 346.209517756016 L 521.1626748576241 337.790482243984" stroke-miterlimit="10"/></g><g transform="translate(-110,-118) scale(1,1)"><path fill="none" stroke="#000000" d="M 432 342 L 420 342" stroke-miterlimit="10"/></g><g transform="translate(-110,-118) scale(1,1)"><path fill="#000000" stroke="none" d="M 430.16267485762415 337.790482243984 L 420 342 L 430.16267485762415 346.209517756016"/></g><g transform="translate(-110,-118) scale(1,1)"><path fill="none" stroke="#000000" d="M 430.16267485762415 337.790482243984 L 420 342 L 430.16267485762415 346.209517756016 L 430.16267485762415 337.790482243984" stroke-miterlimit="10"/></g><g transform="translate(-110,-118) scale(1,1)"><path fill="none" stroke="#000000" d="M 336 342 L 327 342" stroke-miterlimit="10"/></g><g transform="translate(-110,-118) scale(1,1)"><path fill="#000000" stroke="none" d="M 337.16267485762415 337.790482243984 L 327 342 L 337.16267485762415 346.209517756016"/></g><g transform="translate(-110,-118) scale(1,1)"><path fill="none" stroke="#000000" d="M 337.16267485762415 337.790482243984 L 327 342 L 337.16267485762415 346.209517756016 L 337.16267485762415 337.790482243984" stroke-miterlimit="10"/></g><g transform="translate(-110,-118) scale(1,1)"><path fill="none" stroke="#000000" d="M 248 342 L 234 342" stroke-miterlimit="10"/></g><g transform="translate(-110,-118) scale(1,1)"><path fill="#000000" stroke="none" d="M 244.16267485762415 337.790482243984 L 234 342 L 244.16267485762415 346.209517756016"/></g><g transform="translate(-110,-118) scale(1,1)"><path fill="none" stroke="#000000" d="M 244.16267485762415 337.790482243984 L 234 342 L 244.16267485762415 346.209517756016 L 244.16267485762415 337.790482243984" stroke-miterlimit="10"/></g><g transform="translate(-110,-118) scale(1,1)"><path fill="none" stroke="#000000" d="M 144 344 L 136 344 M 136 344 A 8 8 0 0 0 128 352 L 128 384 M 128 384 A 8 8 0 0 0 136 392 L 136 392" stroke-miterlimit="10"/></g><g transform="translate(-110,-118) scale(1,1)"><path fill="#000000" stroke="none" d="M 125.83732514237585 396.209517756016 L 136 392 L 125.83732514237585 387.790482243984"/></g><g transform="translate(-110,-118) scale(1,1)"><path fill="none" stroke="#000000" d="M 125.83732514237585 396.209517756016 L 136 392 L 125.83732514237585 387.790482243984 L 125.83732514237585 396.209517756016" stroke-miterlimit="10"/></g><g transform="translate(-110,-118) scale(1,1)"><path fill="none" stroke="#000000" d="M 370 512 L 370 544 M 370 544 A 8 8 0 0 1 362 552 L 253 552" stroke-miterlimit="10"/></g><g transform="translate(-110,-118) scale(1,1)"><path fill="#000000" stroke="none" d="M 263.16267485762415 547.790482243984 L 253 552 L 263.16267485762415 556.209517756016"/></g><g transform="translate(-110,-118) scale(1,1)"><path fill="none" stroke="#000000" d="M 263.16267485762415 547.790482243984 L 253 552 L 263.16267485762415 556.209517756016 L 263.16267485762415 547.790482243984" stroke-miterlimit="10"/></g><g transform="translate(-110,-118) scale(1,1)"><path fill="none" stroke="#000000" d="M 459 512 L 459 544 M 459 544 A 8 8 0 0 0 467 552 L 560 552" stroke-miterlimit="10"/></g><g transform="translate(-110,-118) scale(1,1)"><path fill="#000000" stroke="none" d="M 549.8373251423759 556.209517756016 L 560 552 L 549.8373251423758 547.790482243984"/></g><g transform="translate(-110,-118) scale(1,1)"><path fill="none" stroke="#000000" d="M 549.8373251423759 556.209517756016 L 560 552 L 549.8373251423758 547.790482243984 L 549.8373251423759 556.209517756016" stroke-miterlimit="10"/></g><g transform="translate(-110,-118) scale(1,1)"><rect fill="#fff07c" stroke="none" x="136" y="368" width="78.75048828125" height="45"/></g><g transform="translate(-110,-118) scale(1,1)"><path fill="none" stroke="#000000" d="M 136 368 L 214.75048828125 368 L 214.75048828125 413 L 136 413 L 136 368 Z Z" stroke-miterlimit="10"/></g><g transform="translate(-110,-118) scale(1,1)"><g><path fill="none" stroke="none"/><text fill="#000000" stroke="none" font-family="Arial" font-size="13px" font-style="normal" font-weight="normal" text-decoration="none" x="145.5" y="390.5">affectation</text><text fill="#000000" stroke="none" font-family="Arial" font-size="13px" font-style="normal" font-weight="normal" text-decoration="none" x="153.691650390625" y="403.5">periode</text></g></g><g transform="translate(-110,-118) scale(1,1)"><path fill="none" stroke="#000000" d="M 216 390 L 231 390" stroke-miterlimit="10"/></g><g transform="translate(-110,-118) scale(1,1)"><path fill="#000000" stroke="none" d="M 220.83732514237585 394.209517756016 L 231 390 L 220.83732514237585 385.790482243984"/></g><g transform="translate(-110,-118) scale(1,1)"><path fill="none" stroke="#000000" d="M 220.83732514237585 394.209517756016 L 231 390 L 220.83732514237585 385.790482243984 L 220.83732514237585 394.209517756016" stroke-miterlimit="10"/></g><g transform="translate(-110,-118) scale(1,1)"><rect fill="#fff07c" stroke="none" x="232" y="368" width="78.75048828125" height="45"/></g><g transform="translate(-110,-118) scale(1,1)"><path fill="none" stroke="#000000" d="M 232 368 L 310.75048828125 368 L 310.75048828125 413 L 232 413 L 232 368 Z Z" stroke-miterlimit="10"/></g><g transform="translate(-110,-118) scale(1,1)"><g><path fill="none" stroke="none"/><text fill="#000000" stroke="none" font-family="Arial" font-size="13px" font-style="normal" font-weight="normal" text-decoration="none" x="241.5" y="390.5">affectation</text><text fill="#000000" stroke="none" font-family="Arial" font-size="13px" font-style="normal" font-weight="normal" text-decoration="none" x="256.559814453125" y="403.5">route</text></g></g><g transform="translate(-110,-118) scale(1,1)"><rect fill="#fff07c" stroke="none" x="320" y="368" width="104" height="45"/></g><g transform="translate(-110,-118) scale(1,1)"><path fill="none" stroke="#000000" d="M 320 368 L 424 368 L 424 413 L 320 413 L 320 368 Z Z" stroke-miterlimit="10"/></g><g transform="translate(-110,-118) scale(1,1)"><g><path fill="none" stroke="none"/><text fill="#000000" stroke="none" font-family="Arial" font-size="13px" font-style="normal" font-weight="normal" text-decoration="none" x="331.289306640625" y="390.5">affectation PR</text><text fill="#000000" stroke="none" font-family="Arial" font-size="13px" font-style="normal" font-weight="normal" text-decoration="none" x="339.484130859375" y="403.5">et abscisse</text></g></g><g transform="translate(-110,-118) scale(1,1)"><rect fill="#fff07c" stroke="none" x="440" y="368" width="136" height="45"/></g><g transform="translate(-110,-118) scale(1,1)"><path fill="none" stroke="#000000" d="M 440 368 L 576 368 L 576 413 L 440 413 L 440 368 Z Z" stroke-miterlimit="10"/></g><g transform="translate(-110,-118) scale(1,1)"><g><path fill="none" stroke="none"/><text fill="#000000" stroke="none" font-family="Arial" font-size="13px" font-style="normal" font-weight="normal" text-decoration="none" x="456.809326171875" y="390.5">affectation source</text><text fill="#000000" stroke="none" font-family="Arial" font-size="13px" font-style="normal" font-weight="normal" text-decoration="none" x="464.991455078125" y="403.5">geo et obs geo</text></g></g><g transform="translate(-110,-118) scale(1,1)"><path fill="none" stroke="#000000" d="M 311 390 L 320 390" stroke-miterlimit="10"/></g><g transform="translate(-110,-118) scale(1,1)"><path fill="#000000" stroke="none" d="M 309.83732514237585 394.209517756016 L 320 390 L 309.83732514237585 385.790482243984"/></g><g transform="translate(-110,-118) scale(1,1)"><path fill="none" stroke="#000000" d="M 309.83732514237585 394.209517756016 L 320 390 L 309.83732514237585 385.790482243984 L 309.83732514237585 394.209517756016" stroke-miterlimit="10"/></g><g transform="translate(-110,-118) scale(1,1)"><path fill="none" stroke="#000000" d="M 424 390 L 440 390" stroke-miterlimit="10"/></g><g transform="translate(-110,-118) scale(1,1)"><path fill="#000000" stroke="none" d="M 429.83732514237585 394.209517756016 L 440 390 L 429.83732514237585 385.790482243984"/></g><g transform="translate(-110,-118) scale(1,1)"><path fill="none" stroke="#000000" d="M 429.83732514237585 394.209517756016 L 440 390 L 429.83732514237585 385.790482243984 L 429.83732514237585 394.209517756016" stroke-miterlimit="10"/></g><g transform="translate(-110,-118) scale(1,1)"><rect fill="#fff07c" stroke="none" x="584" y="368" width="78.75048828125" height="45"/></g><g transform="translate(-110,-118) scale(1,1)"><path fill="none" stroke="#000000" d="M 584 368 L 662.75048828125 368 L 662.75048828125 413 L 584 413 L 584 368 Z Z" stroke-miterlimit="10"/></g><g transform="translate(-110,-118) scale(1,1)"><g><path fill="none" stroke="none"/><text fill="#000000" stroke="none" font-family="Arial" font-size="13px" font-style="normal" font-weight="normal" text-decoration="none" x="593.5" y="390.5">affectation</text><text fill="#000000" stroke="none" font-family="Arial" font-size="13px" font-style="normal" font-weight="normal" text-decoration="none" x="603.859375" y="403.5">techno</text></g></g><g transform="translate(-110,-118) scale(1,1)"><rect fill="#fff07c" stroke="none" x="280" y="416" width="79" height="45"/></g><g transform="translate(-110,-118) scale(1,1)"><path fill="none" stroke="#000000" d="M 280 416 L 359 416 L 359 461 L 280 461 L 280 416 Z Z" stroke-miterlimit="10"/></g><g transform="translate(-110,-118) scale(1,1)"><g><path fill="none" stroke="none"/><text fill="#000000" stroke="none" font-family="Arial" font-size="13px" font-style="normal" font-weight="normal" text-decoration="none" x="289.624755859375" y="438.5">affectation</text><text fill="#000000" stroke="none" font-family="Arial" font-size="13px" font-style="normal" font-weight="normal" text-decoration="none" x="302.155029296875" y="451.5">id_cpt</text></g></g><g transform="translate(-110,-118) scale(1,1)"><rect fill="#fff07c" stroke="none" x="368" y="416" width="87" height="45"/></g><g transform="translate(-110,-118) scale(1,1)"><path fill="none" stroke="#000000" d="M 368 416 L 455 416 L 455 461 L 368 461 L 368 416 Z Z" stroke-miterlimit="10"/></g><g transform="translate(-110,-118) scale(1,1)"><g><path fill="none" stroke="none"/><text fill="#000000" stroke="none" font-family="Arial" font-size="13px" font-style="normal" font-weight="normal" text-decoration="none" x="381.624755859375" y="438.5">affectation</text><text fill="#000000" stroke="none" font-family="Arial" font-size="13px" font-style="normal" font-weight="normal" text-decoration="none" x="390.905029296875" y="451.5">id_sect</text></g></g><g transform="translate(-110,-118) scale(1,1)"><rect fill="#fff07c" stroke="none" x="464" y="416" width="99.2216796875" height="47"/></g><g transform="translate(-110,-118) scale(1,1)"><path fill="none" stroke="#000000" d="M 464 416 L 563.2216796875 416 L 563.2216796875 463 L 464 463 L 464 416 Z Z" stroke-miterlimit="10"/></g><g transform="translate(-110,-118) scale(1,1)"><g><path fill="none" stroke="none"/><text fill="#000000" stroke="none" font-family="Arial" font-size="13px" font-style="normal" font-weight="normal" text-decoration="none" x="483.735595703125" y="438.5">affectation</text><text fill="#000000" stroke="none" font-family="Arial" font-size="13px" font-style="normal" font-weight="normal" text-decoration="none" x="473.5" y="451.5">last_ann_sect</text></g></g><g transform="translate(-110,-118) scale(1,1)"><path fill="none" stroke="#000000" d="M 576 390 L 584 390" stroke-miterlimit="10"/></g><g transform="translate(-110,-118) scale(1,1)"><path fill="#000000" stroke="none" d="M 573.8373251423759 394.209517756016 L 584 390 L 573.8373251423758 385.790482243984"/></g><g transform="translate(-110,-118) scale(1,1)"><path fill="none" stroke="#000000" d="M 573.8373251423759 394.209517756016 L 584 390 L 573.8373251423758 385.790482243984 L 573.8373251423759 394.209517756016" stroke-miterlimit="10"/></g><g transform="translate(-110,-118) scale(1,1)"><path fill="none" stroke="#000000" d="M 584 413 L 584 421 M 584 421 A 8 8 0 0 1 576 429 L 563 429" stroke-miterlimit="10"/></g><g transform="translate(-110,-118) scale(1,1)"><path fill="#000000" stroke="none" d="M 573.1626748576241 424.790482243984 L 563 429 L 573.1626748576241 433.209517756016"/></g><g transform="translate(-110,-118) scale(1,1)"><path fill="none" stroke="#000000" d="M 573.1626748576241 424.790482243984 L 563 429 L 573.1626748576241 433.209517756016 L 573.1626748576241 424.790482243984" stroke-miterlimit="10"/></g><g transform="translate(-110,-118) scale(1,1)"><path fill="none" stroke="#000000" d="M 464 439 L 455 439" stroke-miterlimit="10"/></g><g transform="translate(-110,-118) scale(1,1)"><path fill="#000000" stroke="none" d="M 465.16267485762415 434.790482243984 L 455 439 L 465.16267485762415 443.209517756016"/></g><g transform="translate(-110,-118) scale(1,1)"><path fill="none" stroke="#000000" d="M 465.16267485762415 434.790482243984 L 455 439 L 465.16267485762415 443.209517756016 L 465.16267485762415 434.790482243984" stroke-miterlimit="10"/></g><g transform="translate(-110,-118) scale(1,1)"><path fill="none" stroke="#000000" d="M 368 438 L 359 438" stroke-miterlimit="10"/></g><g transform="translate(-110,-118) scale(1,1)"><path fill="#000000" stroke="none" d="M 369.16267485762415 433.790482243984 L 359 438 L 369.16267485762415 442.209517756016"/></g><g transform="translate(-110,-118) scale(1,1)"><path fill="none" stroke="#000000" d="M 369.16267485762415 433.790482243984 L 359 438 L 369.16267485762415 442.209517756016 L 369.16267485762415 433.790482243984" stroke-miterlimit="10"/></g><g transform="translate(-110,-118) scale(1,1)"><path fill="none" stroke="#000000" d="M 319 461 L 319 472 M 319 472 A 8 8 0 0 0 327 480 L 352 480" stroke-miterlimit="10"/></g><g transform="translate(-110,-118) scale(1,1)"><path fill="#000000" stroke="none" d="M 341.83732514237585 484.209517756016 L 352 480 L 341.83732514237585 475.790482243984"/></g><g transform="translate(-110,-118) scale(1,1)"><path fill="none" stroke="#000000" d="M 341.83732514237585 484.209517756016 L 352 480 L 341.83732514237585 475.790482243984 L 341.83732514237585 484.209517756016" stroke-miterlimit="10"/></g></g></svg>