<svg version="1.1" xmlns="http://www.w3.org/2000/svg" xmlns:xlink="http://www.w3.org/1999/xlink" width="561.43896484375" height="422"><defs/><g><g transform="translate(-678,-222) scale(1,1)"><path fill="#dee7fe" stroke="none" d="M 913 232 L 999 232 L 982 277 L 896 277 L 913 232"/></g><g transform="translate(-678,-222) scale(1,1)"><path fill="none" stroke="#000000" d="M 913 232 L 999 232 L 982 277 L 896 277 L 913 232 L 913 232" stroke-miterlimit="10"/></g><g transform="translate(-678,-222) scale(1,1)"><g><path fill="none" stroke="none"/><text fill="#000000" stroke="none" font-family="Arial" font-size="13px" font-style="normal" font-weight="normal" text-decoration="none" x="922.56005859375" y="254.5">donnees</text><text fill="#000000" stroke="none" font-family="Arial" font-size="13px" font-style="normal" font-weight="normal" text-decoration="none" x="912.08642578125" y="267.5">gestionnaire</text></g></g><g transform="translate(-678,-222) scale(1,1)"><path fill="#dee7fe" stroke="none" d="M 709 576 L 813.43896484375 576 L 792.43896484375 634 L 688 634 L 709 576"/></g><g transform="translate(-678,-222) scale(1,1)"><path fill="none" stroke="#000000" d="M 709 576 L 813.43896484375 576 L 792.43896484375 634 L 688 634 L 709 576 L 709 576" stroke-miterlimit="10"/></g><g transform="translate(-678,-222) scale(1,1)"><g><path fill="none" stroke="none"/><text fill="#000000" stroke="none" font-family="Arial" font-size="13px" font-style="normal" font-weight="normal" text-decoration="none" x="723.62451171875" y="598.5">compteur</text><text fill="#000000" stroke="none" font-family="Arial" font-size="13px" font-style="normal" font-weight="normal" text-decoration="none" x="736.989501953125" y="611.5">avec</text><text fill="#000000" stroke="none" font-family="Arial" font-size="13px" font-style="normal" font-weight="normal" text-decoration="none" x="721.8154296875" y="624.5">geometrie</text></g></g><g transform="translate(-678,-222) scale(1,1)"><path fill="#dee7fe" stroke="none" d="M 1138 560 L 1229.43896484375 560 L 1211.43896484375 618 L 1120 618 L 1138 560"/></g><g transform="translate(-678,-222) scale(1,1)"><path fill="none" stroke="#000000" d="M 1138 560 L 1229.43896484375 560 L 1211.43896484375 618 L 1120 618 L 1138 560 L 1138 560" stroke-miterlimit="10"/></g><g transform="translate(-678,-222) scale(1,1)"><g><path fill="none" stroke="none"/><text fill="#000000" stroke="none" font-family="Arial" font-size="13px" font-style="normal" font-weight="normal" text-decoration="none" x="1147.62451171875" y="582.5">compteur</text><text fill="#000000" stroke="none" font-family="Arial" font-size="13px" font-style="normal" font-weight="normal" text-decoration="none" x="1160.989501953125" y="595.5">sans</text><text fill="#000000" stroke="none" font-family="Arial" font-size="13px" font-style="normal" font-weight="normal" text-decoration="none" x="1145.8154296875" y="608.5">geometrie</text></g></g><g transform="translate(-678,-222) scale(1,1)"><rect fill="#fff07c" stroke="none" x="744" y="369" width="78.75048828125" height="58"/></g><g transform="translate(-678,-222) scale(1,1)"><path fill="none" stroke="#000000" d="M 744 369 L 822.75048828125 369 L 822.75048828125 427 L 744 427 L 744 369 Z Z" stroke-miterlimit="10"/></g><g transform="translate(-678,-222) scale(1,1)"><g><path fill="none" stroke="none"/><text fill="#000000" stroke="none" font-family="Arial" font-size="13px" font-style="normal" font-weight="normal" text-decoration="none" x="753.5" y="391.5">affectation</text><text fill="#000000" stroke="none" font-family="Arial" font-size="13px" font-style="normal" font-weight="normal" text-decoration="none" x="762.053466796875" y="404.5">type de</text><text fill="#000000" stroke="none" font-family="Arial" font-size="13px" font-style="normal" font-weight="normal" text-decoration="none" x="767.474365234375" y="417.5">poste</text></g></g><g transform="translate(-678,-222) scale(1,1)"><rect fill="#ddc8c3" stroke="none" x="872" y="312" width="136.06982421875" height="39"/></g><g transform="translate(-678,-222) scale(1,1)"><path fill="none" stroke="#000000" d="M 872 312 L 1008.06982421875 312 L 1008.06982421875 351 L 872 351 L 872 312 Z Z" stroke-miterlimit="10"/></g><g transform="translate(-678,-222) scale(1,1)"><path fill="none" stroke="#000000" d="M 877 312 L 877 351" stroke-miterlimit="10"/></g><g transform="translate(-678,-222) scale(1,1)"><path fill="none" stroke="#000000" d="M 1003.06982421875 312 L 1003.06982421875 351" stroke-miterlimit="10"/></g><g transform="translate(-678,-222) scale(1,1)"><g><path fill="none" stroke="none"/><text fill="#000000" stroke="none" font-family="Arial" font-size="13px" font-style="normal" font-weight="normal" text-decoration="none" x="892.3154296875" y="334.5">creer id_comptag</text></g></g><g transform="translate(-678,-222) scale(1,1)"><path fill="none" stroke="#000000" d="M 945 277 L 945 312" stroke-miterlimit="10"/></g><g transform="translate(-678,-222) scale(1,1)"><path fill="#000000" stroke="none" d="M 940.790482243984 301.83732514237585 L 945 312 L 949.209517756016 301.83732514237585"/></g><g transform="translate(-678,-222) scale(1,1)"><path fill="none" stroke="#000000" d="M 940.790482243984 301.83732514237585 L 945 312 L 949.209517756016 301.83732514237585 L 940.790482243984 301.83732514237585" stroke-miterlimit="10"/></g><g transform="translate(-678,-222) scale(1,1)"><rect fill="#ddc8c3" stroke="none" x="904" y="504" width="136.06982421875" height="32"/></g><g transform="translate(-678,-222) scale(1,1)"><path fill="none" stroke="#000000" d="M 904 504 L 1040.06982421875 504 L 1040.06982421875 536 L 904 536 L 904 504 Z Z" stroke-miterlimit="10"/></g><g transform="translate(-678,-222) scale(1,1)"><path fill="none" stroke="#000000" d="M 909 504 L 909 536" stroke-miterlimit="10"/></g><g transform="translate(-678,-222) scale(1,1)"><path fill="none" stroke="#000000" d="M 1035.06982421875 504 L 1035.06982421875 536" stroke-miterlimit="10"/></g><g transform="translate(-678,-222) scale(1,1)"><g><path fill="none" stroke="none"/><text fill="#000000" stroke="none" font-family="Arial" font-size="13px" font-style="normal" font-weight="normal" text-decoration="none" x="929.015869140625" y="526.5">creer geometrie</text></g></g><g transform="translate(-678,-222) scale(1,1)"><rect fill="#fff07c" stroke="none" x="840" y="376" width="78.75048828125" height="45"/></g><g transform="translate(-678,-222) scale(1,1)"><path fill="none" stroke="#000000" d="M 840 376 L 918.75048828125 376 L 918.75048828125 421 L 840 421 L 840 376 Z Z" stroke-miterlimit="10"/></g><g transform="translate(-678,-222) scale(1,1)"><g><path fill="none" stroke="none"/><text fill="#000000" stroke="none" font-family="Arial" font-size="13px" font-style="normal" font-weight="normal" text-decoration="none" x="849.5" y="398.5">affectation</text><text fill="#000000" stroke="none" font-family="Arial" font-size="13px" font-style="normal" font-weight="normal" text-decoration="none" x="861.30029296875" y="411.5">annee</text></g></g><g transform="translate(-678,-222) scale(1,1)"><rect fill="#fff07c" stroke="none" x="936" y="376" width="91.99169921875" height="45"/></g><g transform="translate(-678,-222) scale(1,1)"><path fill="none" stroke="#000000" d="M 936 376 L 1027.99169921875 376 L 1027.99169921875 421 L 936 421 L 936 376 Z Z" stroke-miterlimit="10"/></g><g transform="translate(-678,-222) scale(1,1)"><g><path fill="none" stroke="none"/><text fill="#000000" stroke="none" font-family="Arial" font-size="13px" font-style="normal" font-weight="normal" text-decoration="none" x="952.12060546875" y="398.5">affectation</text><text fill="#000000" stroke="none" font-family="Arial" font-size="13px" font-style="normal" font-weight="normal" text-decoration="none" x="945.5" y="411.5">departement</text></g></g><g transform="translate(-678,-222) scale(1,1)"><rect fill="#fff07c" stroke="none" x="1040" y="376" width="78.75048828125" height="45"/></g><g transform="translate(-678,-222) scale(1,1)"><path fill="none" stroke="#000000" d="M 1040 376 L 1118.75048828125 376 L 1118.75048828125 421 L 1040 421 L 1040 376 Z Z" stroke-miterlimit="10"/></g><g transform="translate(-678,-222) scale(1,1)"><g><path fill="none" stroke="none"/><text fill="#000000" stroke="none" font-family="Arial" font-size="13px" font-style="normal" font-weight="normal" text-decoration="none" x="1049.5" y="398.5">affectation</text><text fill="#000000" stroke="none" font-family="Arial" font-size="13px" font-style="normal" font-weight="normal" text-decoration="none" x="1059.500732421875" y="411.5">reseau</text></g></g><g transform="translate(-678,-222) scale(1,1)"><rect fill="#fff07c" stroke="none" x="736" y="424" width="89.8271484375" height="45"/></g><g transform="translate(-678,-222) scale(1,1)"><path fill="none" stroke="#000000" d="M 736 424 L 825.8271484375 424 L 825.8271484375 469 L 736 469 L 736 424 Z Z" stroke-miterlimit="10"/></g><g transform="translate(-678,-222) scale(1,1)"><g><path fill="none" stroke="none"/><text fill="#000000" stroke="none" font-family="Arial" font-size="13px" font-style="normal" font-weight="normal" text-decoration="none" x="751.038330078125" y="446.5">affectation</text><text fill="#000000" stroke="none" font-family="Arial" font-size="13px" font-style="normal" font-weight="normal" text-decoration="none" x="745.5" y="459.5">gestionnaire</text></g></g><g transform="translate(-678,-222) scale(1,1)"><rect fill="#fff07c" stroke="none" x="928" y="424" width="84.0380859375" height="45"/></g><g transform="translate(-678,-222) scale(1,1)"><path fill="none" stroke="#000000" d="M 928 424 L 1012.0380859375 424 L 1012.0380859375 469 L 928 469 L 928 424 Z Z" stroke-miterlimit="10"/></g><g transform="translate(-678,-222) scale(1,1)"><g><path fill="none" stroke="none"/><text fill="#000000" stroke="none" font-family="Arial" font-size="13px" font-style="normal" font-weight="normal" text-decoration="none" x="940.143798828125" y="446.5">affectation</text><text fill="#000000" stroke="none" font-family="Arial" font-size="13px" font-style="normal" font-weight="normal" text-decoration="none" x="937.5" y="459.5">concession</text></g></g><g transform="translate(-678,-222) scale(1,1)"><rect fill="#fff07c" stroke="none" x="1024" y="424" width="78.75048828125" height="45"/></g><g transform="translate(-678,-222) scale(1,1)"><path fill="none" stroke="#000000" d="M 1024 424 L 1102.75048828125 424 L 1102.75048828125 469 L 1024 469 L 1024 424 Z Z" stroke-miterlimit="10"/></g><g transform="translate(-678,-222) scale(1,1)"><g><path fill="none" stroke="none"/><text fill="#000000" stroke="none" font-family="Arial" font-size="13px" font-style="normal" font-weight="normal" text-decoration="none" x="1033.5" y="446.5">affectation</text><text fill="#000000" stroke="none" font-family="Arial" font-size="13px" font-style="normal" font-weight="normal" text-decoration="none" x="1042.4248046875" y="459.5">src_cpt</text></g></g><g transform="translate(-678,-222) scale(1,1)"><rect fill="#fff07c" stroke="none" x="1120" y="424" width="81.8798828125" height="45"/></g><g transform="translate(-678,-222) scale(1,1)"><path fill="none" stroke="#000000" d="M 1120 424 L 1201.8798828125 424 L 1201.8798828125 469 L 1120 469 L 1120 424 Z Z" stroke-miterlimit="10"/></g><g transform="translate(-678,-222) scale(1,1)"><g><path fill="none" stroke="none"/><text fill="#000000" stroke="none" font-family="Arial" font-size="13px" font-style="normal" font-weight="normal" text-decoration="none" x="1131.064697265625" y="446.5">affectation</text><text fill="#000000" stroke="none" font-family="Arial" font-size="13px" font-style="normal" font-weight="normal" text-decoration="none" x="1129.5" y="459.5">convention</text></g></g><g transform="translate(-678,-222) scale(1,1)"><rect fill="#fff07c" stroke="none" x="1128" y="376" width="78.75048828125" height="45"/></g><g transform="translate(-678,-222) scale(1,1)"><path fill="none" stroke="#000000" d="M 1128 376 L 1206.75048828125 376 L 1206.75048828125 421 L 1128 421 L 1128 376 Z Z" stroke-miterlimit="10"/></g><g transform="translate(-678,-222) scale(1,1)"><g><path fill="none" stroke="none"/><text fill="#000000" stroke="none" font-family="Arial" font-size="13px" font-style="normal" font-weight="normal" text-decoration="none" x="1137.5" y="398.5">affectation</text><text fill="#000000" stroke="none" font-family="Arial" font-size="13px" font-style="normal" font-weight="normal" text-decoration="none" x="1141.359375" y="411.5">sens_cpt</text></g></g><g transform="translate(-678,-222) scale(1,1)"><rect fill="#fff07c" stroke="none" x="840" y="424" width="78.75048828125" height="45"/></g><g transform="translate(-678,-222) scale(1,1)"><path fill="none" stroke="#000000" d="M 840 424 L 918.75048828125 424 L 918.75048828125 469 L 840 469 L 840 424 Z Z" stroke-miterlimit="10"/></g><g transform="translate(-678,-222) scale(1,1)"><g><path fill="none" stroke="none"/><text fill="#000000" stroke="none" font-family="Arial" font-size="13px" font-style="normal" font-weight="normal" text-decoration="none" x="849.5" y="446.5">affectation</text><text fill="#000000" stroke="none" font-family="Arial" font-size="13px" font-style="normal" font-weight="normal" text-decoration="none" x="867.8193359375" y="459.5">fictif</text></g></g><g transform="translate(-678,-222) scale(1,1)"><path fill="none" stroke="#000000" d="M 872 339 L 784 339 M 784 339 A 8 8 0 0 0 776 347 L 776 369" stroke-miterlimit="10"/></g><g transform="translate(-678,-222) scale(1,1)"><path fill="#000000" stroke="none" d="M 771.790482243984 358.83732514237585 L 776 369 L 780.209517756016 358.83732514237585"/></g><g transform="translate(-678,-222) scale(1,1)"><path fill="none" stroke="#000000" d="M 771.790482243984 358.83732514237585 L 776 369 L 780.209517756016 358.83732514237585 L 771.790482243984 358.83732514237585" stroke-miterlimit="10"/></g><g transform="translate(-678,-222) scale(1,1)"><path fill="none" stroke="#000000" d="M 823 398 L 840 398" stroke-miterlimit="10"/></g><g transform="translate(-678,-222) scale(1,1)"><path fill="#000000" stroke="none" d="M 829.8373251423759 402.209517756016 L 840 398 L 829.8373251423758 393.790482243984"/></g><g transform="translate(-678,-222) scale(1,1)"><path fill="none" stroke="#000000" d="M 829.8373251423759 402.209517756016 L 840 398 L 829.8373251423758 393.790482243984 L 829.8373251423759 402.209517756016" stroke-miterlimit="10"/></g><g transform="translate(-678,-222) scale(1,1)"><path fill="none" stroke="#000000" d="M 919 398 L 936 398" stroke-miterlimit="10"/></g><g transform="translate(-678,-222) scale(1,1)"><path fill="#000000" stroke="none" d="M 925.8373251423759 402.209517756016 L 936 398 L 925.8373251423758 393.790482243984"/></g><g transform="translate(-678,-222) scale(1,1)"><path fill="none" stroke="#000000" d="M 925.8373251423759 402.209517756016 L 936 398 L 925.8373251423758 393.790482243984 L 925.8373251423759 402.209517756016" stroke-miterlimit="10"/></g><g transform="translate(-678,-222) scale(1,1)"><path fill="none" stroke="#000000" d="M 1028 398 L 1040 398" stroke-miterlimit="10"/></g><g transform="translate(-678,-222) scale(1,1)"><path fill="#000000" stroke="none" d="M 1029.837325142376 402.209517756016 L 1040 398 L 1029.837325142376 393.790482243984"/></g><g transform="translate(-678,-222) scale(1,1)"><path fill="none" stroke="#000000" d="M 1029.837325142376 402.209517756016 L 1040 398 L 1029.837325142376 393.790482243984 L 1029.837325142376 402.209517756016" stroke-miterlimit="10"/></g><g transform="translate(-678,-222) scale(1,1)"><path fill="none" stroke="#000000" d="M 1119 398 L 1128 398" stroke-miterlimit="10"/></g><g transform="translate(-678,-222) scale(1,1)"><path fill="#000000" stroke="none" d="M 1117.837325142376 402.209517756016 L 1128 398 L 1117.837325142376 393.790482243984"/></g><g transform="translate(-678,-222) scale(1,1)"><path fill="none" stroke="#000000" d="M 1117.837325142376 402.209517756016 L 1128 398 L 1117.837325142376 393.790482243984 L 1117.837325142376 402.209517756016" stroke-miterlimit="10"/></g><g transform="translate(-678,-222) scale(1,1)"><path fill="none" stroke="#000000" d="M 1207 382 L 1216 382 M 1216 382 A 8 8 0 0 1 1224 390 L 1224 432 M 1224 432 A 8 8 0 0 1 1216 440 L 1202 440" stroke-miterlimit="10"/></g><g transform="translate(-678,-222) scale(1,1)"><path fill="#000000" stroke="none" d="M 1212.162674857624 435.790482243984 L 1202 440 L 1212.162674857624 444.209517756016"/></g><g transform="translate(-678,-222) scale(1,1)"><path fill="none" stroke="#000000" d="M 1212.162674857624 435.790482243984 L 1202 440 L 1212.162674857624 444.209517756016 L 1212.162674857624 435.790482243984" stroke-miterlimit="10"/></g><g transform="translate(-678,-222) scale(1,1)"><path fill="none" stroke="#000000" d="M 1120 446 L 1103 446" stroke-miterlimit="10"/></g><g transform="translate(-678,-222) scale(1,1)"><path fill="#000000" stroke="none" d="M 1113.162674857624 441.790482243984 L 1103 446 L 1113.162674857624 450.209517756016"/></g><g transform="translate(-678,-222) scale(1,1)"><path fill="none" stroke="#000000" d="M 1113.162674857624 441.790482243984 L 1103 446 L 1113.162674857624 450.209517756016 L 1113.162674857624 441.790482243984" stroke-miterlimit="10"/></g><g transform="translate(-678,-222) scale(1,1)"><path fill="none" stroke="#000000" d="M 1024 446 L 1012 446" stroke-miterlimit="10"/></g><g transform="translate(-678,-222) scale(1,1)"><path fill="#000000" stroke="none" d="M 1022.1626748576241 441.790482243984 L 1012 446 L 1022.1626748576241 450.209517756016"/></g><g transform="translate(-678,-222) scale(1,1)"><path fill="none" stroke="#000000" d="M 1022.1626748576241 441.790482243984 L 1012 446 L 1022.1626748576241 450.209517756016 L 1022.1626748576241 441.790482243984" stroke-miterlimit="10"/></g><g transform="translate(-678,-222) scale(1,1)"><path fill="none" stroke="#000000" d="M 928 446 L 919 446" stroke-miterlimit="10"/></g><g transform="translate(-678,-222) scale(1,1)"><path fill="#000000" stroke="none" d="M 929.1626748576241 441.790482243984 L 919 446 L 929.1626748576241 450.209517756016"/></g><g transform="translate(-678,-222) scale(1,1)"><path fill="none" stroke="#000000" d="M 929.1626748576241 441.790482243984 L 919 446 L 929.1626748576241 450.209517756016 L 929.1626748576241 441.790482243984" stroke-miterlimit="10"/></g><g transform="translate(-678,-222) scale(1,1)"><path fill="none" stroke="#000000" d="M 840 446 L 826 446" stroke-miterlimit="10"/></g><g transform="translate(-678,-222) scale(1,1)"><path fill="#000000" stroke="none" d="M 836.1626748576241 441.790482243984 L 826 446 L 836.1626748576241 450.209517756016"/></g><g transform="translate(-678,-222) scale(1,1)"><path fill="none" stroke="#000000" d="M 836.1626748576241 441.790482243984 L 826 446 L 836.1626748576241 450.209517756016 L 836.1626748576241 441.790482243984" stroke-miterlimit="10"/></g><g transform="translate(-678,-222) scale(1,1)"><path fill="none" stroke="#000000" d="M 818 469 L 818 480 M 818 480 A 8 8 0 0 0 826 488 L 904 488 M 904 488 A 8 8 0 0 1 912 496 L 912 504" stroke-miterlimit="10"/></g><g transform="translate(-678,-222) scale(1,1)"><path fill="#000000" stroke="none" d="M 907.790482243984 493.83732514237585 L 912 504 L 916.209517756016 493.83732514237585"/></g><g transform="translate(-678,-222) scale(1,1)"><path fill="none" stroke="#000000" d="M 907.790482243984 493.83732514237585 L 912 504 L 916.209517756016 493.83732514237585 L 907.790482243984 493.83732514237585" stroke-miterlimit="10"/></g><g transform="translate(-678,-222) scale(1,1)"><path fill="none" stroke="#000000" d="M 930 536 L 930 592 M 930 592 A 8 8 0 0 1 922 600 L 813 600" stroke-miterlimit="10"/></g><g transform="translate(-678,-222) scale(1,1)"><path fill="#000000" stroke="none" d="M 823.1626748576241 595.790482243984 L 813 600 L 823.1626748576241 604.209517756016"/></g><g transform="translate(-678,-222) scale(1,1)"><path fill="none" stroke="#000000" d="M 823.1626748576241 595.790482243984 L 813 600 L 823.1626748576241 604.209517756016 L 823.1626748576241 595.790482243984" stroke-miterlimit="10"/></g><g transform="translate(-678,-222) scale(1,1)"><path fill="none" stroke="#000000" d="M 1019 536 L 1019 592 M 1019 592 A 8 8 0 0 0 1027 600 L 1120 600" stroke-miterlimit="10"/></g><g transform="translate(-678,-222) scale(1,1)"><path fill="#000000" stroke="none" d="M 1109.837325142376 604.209517756016 L 1120 600 L 1109.837325142376 595.790482243984"/></g><g transform="translate(-678,-222) scale(1,1)"><path fill="none" stroke="#000000" d="M 1109.837325142376 604.209517756016 L 1120 600 L 1109.837325142376 595.790482243984 L 1109.837325142376 604.209517756016" stroke-miterlimit="10"/></g></g></svg>