<svg version="1.1" xmlns="http://www.w3.org/2000/svg" xmlns:xlink="http://www.w3.org/1999/xlink" width="829" height="561"><defs/><g><g transform="translate(-494,-294) scale(1,1)"><path fill="#dee7fe" stroke="none" d="M 609 304 L 695 304 L 678 349 L 592 349 L 609 304"/></g><g transform="translate(-494,-294) scale(1,1)"><path fill="none" stroke="#000000" d="M 609 304 L 695 304 L 678 349 L 592 349 L 609 304 L 609 304" stroke-miterlimit="10"/></g><g transform="translate(-494,-294) scale(1,1)"><g><path fill="none" stroke="none"/><text fill="#000000" stroke="none" font-family="Arial" font-size="13px" font-style="normal" font-weight="normal" text-decoration="none" x="618.56005859375" y="326.5">donnees</text><text fill="#000000" stroke="none" font-family="Arial" font-size="13px" font-style="normal" font-weight="normal" text-decoration="none" x="608.08642578125" y="339.5">gestionnaire</text></g></g><g transform="translate(-494,-294) scale(1,1)"><path fill="#cce18d" stroke="none" d="M 576 433.5 L 650.6689453125 408 L 725.337890625 433.5 L 650.6689453125 459 L 576 433.5"/></g><g transform="translate(-494,-294) scale(1,1)"><path fill="none" stroke="#000000" d="M 576 433.5 L 650.6689453125 408 L 725.337890625 433.5 L 650.6689453125 459 L 576 433.5 L 576 433.5" stroke-miterlimit="10"/></g><g transform="translate(-494,-294) scale(1,1)"><g><path fill="none" stroke="none"/><text fill="#000000" stroke="none" font-family="Arial" font-size="13px" font-style="normal" font-weight="normal" text-decoration="none" x="613.08447265625" y="433.5">coordonnées</text><text fill="#000000" stroke="none" font-family="Arial" font-size="13px" font-style="normal" font-weight="normal" text-decoration="none" x="631.514892578125" y="446.5">géoloc</text></g></g><g transform="translate(-494,-294) scale(1,1)"><rect fill="#fff07c" stroke="none" x="504" y="504" width="94.1689453125" height="58"/></g><g transform="translate(-494,-294) scale(1,1)"><path fill="none" stroke="#000000" d="M 504 504 L 598.1689453125 504 L 598.1689453125 562 L 504 562 L 504 504 Z Z" stroke-miterlimit="10"/></g><g transform="translate(-494,-294) scale(1,1)"><g><path fill="none" stroke="none"/><text fill="#000000" stroke="none" font-family="Arial" font-size="13px" font-style="normal" font-weight="normal" text-decoration="none" x="518.2099609375" y="526.5">creer geom</text><text fill="#000000" stroke="none" font-family="Arial" font-size="13px" font-style="normal" font-weight="normal" text-decoration="none" x="531.930419921875" y="539.5">depuis</text><text fill="#000000" stroke="none" font-family="Arial" font-size="13px" font-style="normal" font-weight="normal" text-decoration="none" x="513.5" y="552.5">coordonnees</text></g></g><g transform="translate(-494,-294) scale(1,1)"><path fill="none" stroke="#000000" d="M 576 432 L 550 432 M 550 432 A 8 8 0 0 0 542 440 L 542 504" stroke-miterlimit="10"/></g><g transform="translate(-494,-294) scale(1,1)"><path fill="#000000" stroke="none" d="M 537.790482243984 493.83732514237585 L 542 504 L 546.209517756016 493.83732514237585"/></g><g transform="translate(-494,-294) scale(1,1)"><path fill="none" stroke="#000000" d="M 537.790482243984 493.83732514237585 L 542 504 L 546.209517756016 493.83732514237585 L 537.790482243984 493.83732514237585" stroke-miterlimit="10"/></g><g transform="translate(-494,-294) scale(1,1)"><g><path fill="none" stroke="none"/><text fill="#000000" stroke="none" font-family="Arial" font-size="13px" font-style="normal" font-weight="normal" text-decoration="none" x="534.5" y="428.5">Oui</text></g></g><g transform="translate(-494,-294) scale(1,1)"><path fill="#cce18d" stroke="none" d="M 992 433.5 L 1048.58447265625 408 L 1105.1689453125 433.5 L 1048.58447265625 459 L 992 433.5"/></g><g transform="translate(-494,-294) scale(1,1)"><path fill="none" stroke="#000000" d="M 992 433.5 L 1048.58447265625 408 L 1105.1689453125 433.5 L 1048.58447265625 459 L 992 433.5 L 992 433.5" stroke-miterlimit="10"/></g><g transform="translate(-494,-294) scale(1,1)"><g><path fill="none" stroke="none"/><text fill="#000000" stroke="none" font-family="Arial" font-size="13px" font-style="normal" font-weight="normal" text-decoration="none" x="1026.904052734375" y="433.5">PR non</text><text fill="#000000" stroke="none" font-family="Arial" font-size="13px" font-style="normal" font-weight="normal" text-decoration="none" x="1038.46630859375" y="446.5">null</text></g></g><g transform="translate(-494,-294) scale(1,1)"><path fill="#cce18d" stroke="none" d="M 992 529.5 L 1048.58447265625 504 L 1105.1689453125 529.5 L 1048.58447265625 555 L 992 529.5"/></g><g transform="translate(-494,-294) scale(1,1)"><path fill="none" stroke="#000000" d="M 992 529.5 L 1048.58447265625 504 L 1105.1689453125 529.5 L 1048.58447265625 555 L 992 529.5 L 992 529.5" stroke-miterlimit="10"/></g><g transform="translate(-494,-294) scale(1,1)"><g><path fill="none" stroke="none"/><text fill="#000000" stroke="none" font-family="Arial" font-size="13px" font-style="normal" font-weight="normal" text-decoration="none" x="1023.29541015625" y="529.5">abscisse</text><text fill="#000000" stroke="none" font-family="Arial" font-size="13px" font-style="normal" font-weight="normal" text-decoration="none" x="1025.8154296875" y="542.5">non null</text></g></g><g transform="translate(-494,-294) scale(1,1)"><path fill="#ffd6ad" stroke="#000000" d="M 1299.99169921875 600 C 1293.91656641875 600 1288.99169921875 610.073592 1288.99169921875 622.5 C 1288.99169921875 634.926408 1293.91656641875 645 1299.99169921875 645 L 1219 645 C 1212.9248672 645 1208 634.926408 1208 622.5 C 1208 610.073592 1212.9248672 600 1219 600 L 1299.99169921875 600 Z" stroke-miterlimit="10"/></g><g transform="translate(-494,-294) scale(1,1)"><g><path fill="none" stroke="none"/><text fill="#000000" stroke="none" font-family="Arial" font-size="13px" font-style="normal" font-weight="normal" text-decoration="none" x="1225.091796875" y="622.5">référentiel</text><text fill="#000000" stroke="none" font-family="Arial" font-size="13px" font-style="normal" font-weight="normal" text-decoration="none" x="1231.6044921875" y="635.5">PR IGN</text></g></g><g transform="translate(-494,-294) scale(1,1)"><rect fill="#fff07c" stroke="none" x="984" y="608" width="104" height="58"/></g><g transform="translate(-494,-294) scale(1,1)"><path fill="none" stroke="#000000" d="M 984 608 L 1088 608 L 1088 666 L 984 666 L 984 608 Z Z" stroke-miterlimit="10"/></g><g transform="translate(-494,-294) scale(1,1)"><g><path fill="none" stroke="none"/><text fill="#000000" stroke="none" font-family="Arial" font-size="13px" font-style="normal" font-weight="normal" text-decoration="none" x="1001.681396484375" y="630.5">Creer geom</text><text fill="#000000" stroke="none" font-family="Arial" font-size="13px" font-style="normal" font-weight="normal" text-decoration="none" x="1016.845947265625" y="643.5">depuis</text><text fill="#000000" stroke="none" font-family="Arial" font-size="13px" font-style="normal" font-weight="normal" text-decoration="none" x="1008.72412109375" y="656.5">PR+Absc</text></g></g><g transform="translate(-494,-294) scale(1,1)"><path fill="none" stroke="#000000" d="M 725 433 L 784 433" stroke-miterlimit="10"/></g><g transform="translate(-494,-294) scale(1,1)"><path fill="#000000" stroke="none" d="M 773.8373251423759 437.209517756016 L 784 433 L 773.8373251423758 428.790482243984"/></g><g transform="translate(-494,-294) scale(1,1)"><path fill="none" stroke="#000000" d="M 773.8373251423759 437.209517756016 L 784 433 L 773.8373251423758 428.790482243984 L 773.8373251423759 437.209517756016" stroke-miterlimit="10"/></g><g transform="translate(-494,-294) scale(1,1)"><g><path fill="none" stroke="none"/><text fill="#000000" stroke="none" font-family="Arial" font-size="13px" font-style="normal" font-weight="normal" text-decoration="none" x="739.5" y="452.5">Non</text></g></g><g transform="translate(-494,-294) scale(1,1)"><path fill="none" stroke="#000000" d="M 1048 459 L 1048 504" stroke-miterlimit="10"/></g><g transform="translate(-494,-294) scale(1,1)"><path fill="#000000" stroke="none" d="M 1043.7904822439841 493.83732514237585 L 1048 504 L 1052.2095177560159 493.83732514237585"/></g><g transform="translate(-494,-294) scale(1,1)"><path fill="none" stroke="#000000" d="M 1043.7904822439841 493.83732514237585 L 1048 504 L 1052.2095177560159 493.83732514237585 L 1043.7904822439841 493.83732514237585" stroke-miterlimit="10"/></g><g transform="translate(-494,-294) scale(1,1)"><g><path fill="none" stroke="none"/><text fill="#000000" stroke="none" font-family="Arial" font-size="13px" font-style="normal" font-weight="normal" text-decoration="none" x="1051.5" y="486.5">Oui</text></g></g><g transform="translate(-494,-294) scale(1,1)"><path fill="none" stroke="#000000" d="M 1048 555 L 1048 608" stroke-miterlimit="10"/></g><g transform="translate(-494,-294) scale(1,1)"><path fill="#000000" stroke="none" d="M 1043.7904822439841 597.8373251423759 L 1048 608 L 1052.2095177560159 597.8373251423759"/></g><g transform="translate(-494,-294) scale(1,1)"><path fill="none" stroke="#000000" d="M 1043.7904822439841 597.8373251423759 L 1048 608 L 1052.2095177560159 597.8373251423759 L 1043.7904822439841 597.8373251423759" stroke-miterlimit="10"/></g><g transform="translate(-494,-294) scale(1,1)"><g><path fill="none" stroke="none"/><text fill="#000000" stroke="none" font-family="Arial" font-size="13px" font-style="normal" font-weight="normal" text-decoration="none" x="1014.5" y="601.5">Oui</text></g></g><g transform="translate(-494,-294) scale(1,1)"><path fill="none" stroke="#000000" d="M 1136 622 L 1088 622" stroke-miterlimit="10"/></g><g transform="translate(-494,-294) scale(1,1)"><path fill="#000000" stroke="none" d="M 1098.162674857624 617.790482243984 L 1088 622 L 1098.162674857624 626.209517756016"/></g><g transform="translate(-494,-294) scale(1,1)"><path fill="none" stroke="#000000" d="M 1098.162674857624 617.790482243984 L 1088 622 L 1098.162674857624 626.209517756016 L 1098.162674857624 617.790482243984" stroke-miterlimit="10"/></g><g transform="translate(-494,-294) scale(1,1)"><path fill="#dee7fe" stroke="none" d="M 637 712 L 741.43896484375 712 L 720.43896484375 796 L 616 796 L 637 712"/></g><g transform="translate(-494,-294) scale(1,1)"><path fill="none" stroke="#000000" d="M 637 712 L 741.43896484375 712 L 720.43896484375 796 L 616 796 L 637 712 L 637 712" stroke-miterlimit="10"/></g><g transform="translate(-494,-294) scale(1,1)"><g><path fill="none" stroke="none"/><text fill="#000000" stroke="none" font-family="Arial" font-size="13px" font-style="normal" font-weight="normal" text-decoration="none" x="651.62451171875" y="734.5">compteur</text><text fill="#000000" stroke="none" font-family="Arial" font-size="13px" font-style="normal" font-weight="normal" text-decoration="none" x="664.989501953125" y="747.5">avec</text><text fill="#000000" stroke="none" font-family="Arial" font-size="13px" font-style="normal" font-weight="normal" text-decoration="none" x="649.8154296875" y="760.5">geometrie</text></g></g><g transform="translate(-494,-294) scale(1,1)"><path fill="#9acef6" stroke="none" d="M 1184.5 712 L 1239.13720703125 712 Q 1255.63720703125 712 1255.63720703125 728.5 L 1255.63720703125 727.5 Q 1255.63720703125 744 1239.13720703125 744 L 1184.5 744 Q 1168 744 1168 727.5 L 1168 728.5 Q 1168 712 1184.5 712 Z"/></g><g transform="translate(-494,-294) scale(1,1)"><path fill="none" stroke="#000000" d="M 1184.5 712 L 1239.13720703125 712 Q 1255.63720703125 712 1255.63720703125 728.5 L 1255.63720703125 727.5 Q 1255.63720703125 744 1239.13720703125 744 L 1184.5 744 Q 1168 744 1168 727.5 L 1168 728.5 Q 1168 712 1184.5 712 Z" stroke-miterlimit="10"/></g><g transform="translate(-494,-294) scale(1,1)"><g><path fill="none" stroke="none"/><text fill="#000000" stroke="none" font-family="Arial" font-size="13px" font-style="normal" font-weight="normal" text-decoration="none" x="1194.47998046875" y="734.5">erreur</text></g></g><g transform="translate(-494,-294) scale(1,1)"><path fill="none" stroke="#000000" d="M 1008 666 L 1008 672 M 1008 672 A 8 8 0 0 1 1000 680 L 686 680 M 686 680 A 8 8 0 0 0 678 688 L 678 712" stroke-miterlimit="10"/></g><g transform="translate(-494,-294) scale(1,1)"><path fill="#000000" stroke="none" d="M 673.790482243984 701.8373251423759 L 678 712 L 682.209517756016 701.8373251423759"/></g><g transform="translate(-494,-294) scale(1,1)"><path fill="none" stroke="#000000" d="M 673.790482243984 701.8373251423759 L 678 712 L 682.209517756016 701.8373251423759 L 673.790482243984 701.8373251423759" stroke-miterlimit="10"/></g><g transform="translate(-494,-294) scale(1,1)"><path fill="none" stroke="#000000" d="M 1036 666 L 1036 672 M 1036 672 A 8 8 0 0 0 1044 680 L 1192 680 M 1192 680 A 8 8 0 0 1 1200 688 L 1200 712" stroke-miterlimit="10"/></g><g transform="translate(-494,-294) scale(1,1)"><path fill="#000000" stroke="none" d="M 1195.7904822439841 701.8373251423759 L 1200 712 L 1204.2095177560159 701.8373251423759"/></g><g transform="translate(-494,-294) scale(1,1)"><path fill="none" stroke="#000000" d="M 1195.7904822439841 701.8373251423759 L 1200 712 L 1204.2095177560159 701.8373251423759 L 1195.7904822439841 701.8373251423759" stroke-miterlimit="10"/></g><g transform="translate(-494,-294) scale(1,1)"><path fill="none" stroke="#000000" d="M 598 533 L 670 533 M 670 533 A 8 8 0 0 1 678 541 L 678 712" stroke-miterlimit="10"/></g><g transform="translate(-494,-294) scale(1,1)"><path fill="#000000" stroke="none" d="M 673.790482243984 701.8373251423759 L 678 712 L 682.209517756016 701.8373251423759"/></g><g transform="translate(-494,-294) scale(1,1)"><path fill="none" stroke="#000000" d="M 673.790482243984 701.8373251423759 L 678 712 L 682.209517756016 701.8373251423759 L 673.790482243984 701.8373251423759" stroke-miterlimit="10"/></g><g transform="translate(-494,-294) scale(1,1)"><path fill="none" stroke="#000000" d="M 1105 432 L 1304 432 M 1304 432 A 8 8 0 0 1 1312 440 L 1312 680 M 1312 680 A 8 8 0 0 1 1304 688 L 1219 688 M 1219 688 A 8 8 0 0 0 1211 696 L 1211 712" stroke-miterlimit="10"/></g><g transform="translate(-494,-294) scale(1,1)"><path fill="#000000" stroke="none" d="M 1206.7904822439841 701.8373251423759 L 1211 712 L 1215.2095177560159 701.8373251423759"/></g><g transform="translate(-494,-294) scale(1,1)"><path fill="none" stroke="#000000" d="M 1206.7904822439841 701.8373251423759 L 1211 712 L 1215.2095177560159 701.8373251423759 L 1206.7904822439841 701.8373251423759" stroke-miterlimit="10"/></g><g transform="translate(-494,-294) scale(1,1)"><g><path fill="none" stroke="none"/><text fill="#000000" stroke="none" font-family="Arial" font-size="13px" font-style="normal" font-weight="normal" text-decoration="none" x="1191.5" y="427.5">Non</text></g></g><g transform="translate(-494,-294) scale(1,1)"><path fill="none" stroke="#000000" d="M 1105 528 L 1304 528 M 1304 528 A 8 8 0 0 1 1312 536 L 1312 680 M 1312 680 A 8 8 0 0 1 1304 688 L 1219 688 M 1219 688 A 8 8 0 0 0 1211 696 L 1211 712" stroke-miterlimit="10"/></g><g transform="translate(-494,-294) scale(1,1)"><path fill="#000000" stroke="none" d="M 1206.7904822439841 701.8373251423759 L 1211 712 L 1215.2095177560159 701.8373251423759"/></g><g transform="translate(-494,-294) scale(1,1)"><path fill="none" stroke="#000000" d="M 1206.7904822439841 701.8373251423759 L 1211 712 L 1215.2095177560159 701.8373251423759 L 1206.7904822439841 701.8373251423759" stroke-miterlimit="10"/></g><g transform="translate(-494,-294) scale(1,1)"><g><path fill="none" stroke="none"/><text fill="#000000" stroke="none" font-family="Arial" font-size="13px" font-style="normal" font-weight="normal" text-decoration="none" x="1183.5" y="523.5">Non</text></g></g><g transform="translate(-494,-294) scale(1,1)"><path fill="#cce18d" stroke="none" d="M 784 430.5 L 857.1962890625 392 L 930.392578125 430.5 L 857.1962890625 469 L 784 430.5"/></g><g transform="translate(-494,-294) scale(1,1)"><path fill="none" stroke="#000000" d="M 784 430.5 L 857.1962890625 392 L 930.392578125 430.5 L 857.1962890625 469 L 784 430.5 L 784 430.5" stroke-miterlimit="10"/></g><g transform="translate(-494,-294) scale(1,1)"><g><path fill="none" stroke="none"/><text fill="#000000" stroke="none" font-family="Arial" font-size="13px" font-style="normal" font-weight="normal" text-decoration="none" x="844.54541015625" y="424">Voie</text><text fill="#000000" stroke="none" font-family="Arial" font-size="13px" font-style="normal" font-weight="normal" text-decoration="none" x="820.34814453125" y="437">communales</text><text fill="#000000" stroke="none" font-family="Arial" font-size="13px" font-style="normal" font-weight="normal" text-decoration="none" x="838.41357421875" y="450">/ EPCI</text></g></g><g transform="translate(-494,-294) scale(1,1)"><path fill="#cce18d" stroke="none" d="M 792 537.5 L 848.58447265625 512 L 905.1689453125 537.5 L 848.58447265625 563 L 792 537.5"/></g><g transform="translate(-494,-294) scale(1,1)"><path fill="none" stroke="#000000" d="M 792 537.5 L 848.58447265625 512 L 905.1689453125 537.5 L 848.58447265625 563 L 792 537.5 L 792 537.5" stroke-miterlimit="10"/></g><g transform="translate(-494,-294) scale(1,1)"><g><path fill="none" stroke="none"/><text fill="#000000" stroke="none" font-family="Arial" font-size="13px" font-style="normal" font-weight="normal" text-decoration="none" x="825.4599609375" y="537.5">adresse</text><text fill="#000000" stroke="none" font-family="Arial" font-size="13px" font-style="normal" font-weight="normal" text-decoration="none" x="825.8154296875" y="550.5">non null</text></g></g><g transform="translate(-494,-294) scale(1,1)"><rect fill="#fff07c" stroke="none" x="720" y="576" width="73.18994140625" height="71"/></g><g transform="translate(-494,-294) scale(1,1)"><path fill="none" stroke="#000000" d="M 720 576 L 793.18994140625 576 L 793.18994140625 647 L 720 647 L 720 576 Z Z" stroke-miterlimit="10"/></g><g transform="translate(-494,-294) scale(1,1)"><g><path fill="none" stroke="none"/><text fill="#000000" stroke="none" font-family="Arial" font-size="13px" font-style="normal" font-weight="normal" text-decoration="none" x="741.785888671875" y="598.5">creer</text><text fill="#000000" stroke="none" font-family="Arial" font-size="13px" font-style="normal" font-weight="normal" text-decoration="none" x="740.33544921875" y="611.5">geom</text><text fill="#000000" stroke="none" font-family="Arial" font-size="13px" font-style="normal" font-weight="normal" text-decoration="none" x="737.44091796875" y="624.5">depuis</text><text fill="#000000" stroke="none" font-family="Arial" font-size="13px" font-style="normal" font-weight="normal" text-decoration="none" x="733.470458984375" y="637.5">adresse</text></g></g><g transform="translate(-494,-294) scale(1,1)"><path fill="none" stroke="#000000" d="M 848 469 L 848 512" stroke-miterlimit="10"/></g><g transform="translate(-494,-294) scale(1,1)"><path fill="#000000" stroke="none" d="M 843.790482243984 501.83732514237585 L 848 512 L 852.209517756016 501.83732514237585"/></g><g transform="translate(-494,-294) scale(1,1)"><path fill="none" stroke="#000000" d="M 843.790482243984 501.83732514237585 L 848 512 L 852.209517756016 501.83732514237585 L 843.790482243984 501.83732514237585" stroke-miterlimit="10"/></g><g transform="translate(-494,-294) scale(1,1)"><g><path fill="none" stroke="none"/><text fill="#000000" stroke="none" font-family="Arial" font-size="13px" font-style="normal" font-weight="normal" text-decoration="none" x="853.5" y="495.5">oui</text></g></g><g transform="translate(-494,-294) scale(1,1)"><path fill="none" stroke="#000000" d="M 930 432 L 992 432" stroke-miterlimit="10"/></g><g transform="translate(-494,-294) scale(1,1)"><path fill="#000000" stroke="none" d="M 981.8373251423759 436.209517756016 L 992 432 L 981.8373251423758 427.790482243984"/></g><g transform="translate(-494,-294) scale(1,1)"><path fill="none" stroke="#000000" d="M 981.8373251423759 436.209517756016 L 992 432 L 981.8373251423758 427.790482243984 L 981.8373251423759 436.209517756016" stroke-miterlimit="10"/></g><g transform="translate(-494,-294) scale(1,1)"><g><path fill="none" stroke="none"/><text fill="#000000" stroke="none" font-family="Arial" font-size="13px" font-style="normal" font-weight="normal" text-decoration="none" x="949.5" y="423.5">Non</text></g></g><g transform="translate(-494,-294) scale(1,1)"><path fill="none" stroke="#000000" d="M 848 563 L 848 592 M 848 592 A 8 8 0 0 1 840 600 L 793 600" stroke-miterlimit="10"/></g><g transform="translate(-494,-294) scale(1,1)"><path fill="#000000" stroke="none" d="M 803.1626748576241 595.790482243984 L 793 600 L 803.1626748576241 604.209517756016"/></g><g transform="translate(-494,-294) scale(1,1)"><path fill="none" stroke="#000000" d="M 803.1626748576241 595.790482243984 L 793 600 L 803.1626748576241 604.209517756016 L 803.1626748576241 595.790482243984" stroke-miterlimit="10"/></g><g transform="translate(-494,-294) scale(1,1)"><g><path fill="none" stroke="none"/><text fill="#000000" stroke="none" font-family="Arial" font-size="13px" font-style="normal" font-weight="normal" text-decoration="none" x="806.5" y="621.5">Oui</text></g></g><g transform="translate(-494,-294) scale(1,1)"><path fill="none" stroke="#000000" d="M 720 608 L 686 608 M 686 608 A 8 8 0 0 0 678 616 L 678 712" stroke-miterlimit="10"/></g><g transform="translate(-494,-294) scale(1,1)"><path fill="#000000" stroke="none" d="M 673.790482243984 701.8373251423759 L 678 712 L 682.209517756016 701.8373251423759"/></g><g transform="translate(-494,-294) scale(1,1)"><path fill="none" stroke="#000000" d="M 673.790482243984 701.8373251423759 L 678 712 L 682.209517756016 701.8373251423759 L 673.790482243984 701.8373251423759" stroke-miterlimit="10"/></g><g transform="translate(-494,-294) scale(1,1)"><path fill="none" stroke="#000000" d="M 905 536 L 944 536 M 944 536 A 8 8 0 0 0 952 528 L 952 440 M 952 440 A 8 8 0 0 1 960 432 L 992 432" stroke-miterlimit="10"/></g><g transform="translate(-494,-294) scale(1,1)"><path fill="#000000" stroke="none" d="M 981.8373251423759 436.209517756016 L 992 432 L 981.8373251423758 427.790482243984"/></g><g transform="translate(-494,-294) scale(1,1)"><path fill="none" stroke="#000000" d="M 981.8373251423759 436.209517756016 L 992 432 L 981.8373251423758 427.790482243984 L 981.8373251423759 436.209517756016" stroke-miterlimit="10"/></g><g transform="translate(-494,-294) scale(1,1)"><g><path fill="none" stroke="none"/><text fill="#000000" stroke="none" font-family="Arial" font-size="13px" font-style="normal" font-weight="normal" text-decoration="none" x="925.5" y="489.5">Non</text></g></g><g transform="translate(-494,-294) scale(1,1)"><path fill="#ffd6ad" stroke="#000000" d="M 1216 600 C 1210.477152 600 1206 610.073592 1206 622.5 C 1206 634.926408 1210.477152 645 1216 645 L 1146 645 C 1140.477152 645 1136 634.926408 1136 622.5 C 1136 610.073592 1140.477152 600 1146 600 L 1216 600 Z" stroke-miterlimit="10"/></g><g transform="translate(-494,-294) scale(1,1)"><g><path fill="none" stroke="none"/><text fill="#000000" stroke="none" font-family="Arial" font-size="13px" font-style="normal" font-weight="normal" text-decoration="none" x="1153.95458984375" y="622.5">BdTopo</text><text fill="#000000" stroke="none" font-family="Arial" font-size="13px" font-style="normal" font-weight="normal" text-decoration="none" x="1159.37548828125" y="635.5">epure</text></g></g><g transform="translate(-494,-294) scale(1,1)"><path fill="none" stroke="#000000" d="M 645 349 L 645 408" stroke-miterlimit="10"/></g><g transform="translate(-494,-294) scale(1,1)"><path fill="#000000" stroke="none" d="M 640.790482243984 397.83732514237585 L 645 408 L 649.209517756016 397.83732514237585"/></g><g transform="translate(-494,-294) scale(1,1)"><path fill="none" stroke="#000000" d="M 640.790482243984 397.83732514237585 L 645 408 L 649.209517756016 397.83732514237585 L 640.790482243984 397.83732514237585" stroke-miterlimit="10"/></g><g transform="translate(-494,-294) scale(1,1)"><rect fill="#fff07c" stroke="none" x="896" y="728" width="135" height="47"/></g><g transform="translate(-494,-294) scale(1,1)"><path fill="none" stroke="#000000" d="M 896 728 L 1031 728 L 1031 775 L 896 775 L 896 728 Z Z" stroke-miterlimit="10"/></g><g transform="translate(-494,-294) scale(1,1)"><g><path fill="none" stroke="none"/><text fill="#000000" stroke="none" font-family="Arial" font-size="13px" font-style="normal" font-weight="normal" text-decoration="none" x="919.056884765625" y="750.5">Geolocalisation</text><text fill="#000000" stroke="none" font-family="Arial" font-size="13px" font-style="normal" font-weight="normal" text-decoration="none" x="937.122314453125" y="763.5">manuelle</text></g></g><g transform="translate(-494,-294) scale(1,1)"><path fill="none" stroke="#000000" d="M 1168 744 L 1168 737 M 1168 737 A 8 8 0 0 1 1160 745 L 1031 745" stroke-miterlimit="10"/></g><g transform="translate(-494,-294) scale(1,1)"><path fill="#000000" stroke="none" d="M 1041.162674857624 740.790482243984 L 1031 745 L 1041.162674857624 749.209517756016"/></g><g transform="translate(-494,-294) scale(1,1)"><path fill="none" stroke="#000000" d="M 1041.162674857624 740.790482243984 L 1031 745 L 1041.162674857624 749.209517756016 L 1041.162674857624 740.790482243984" stroke-miterlimit="10"/></g><g transform="translate(-494,-294) scale(1,1)"><path fill="none" stroke="#000000" d="M 896 753 L 741 753" stroke-miterlimit="10"/></g><g transform="translate(-494,-294) scale(1,1)"><path fill="#000000" stroke="none" d="M 751.1626748576241 748.790482243984 L 741 753 L 751.1626748576241 757.209517756016"/></g><g transform="translate(-494,-294) scale(1,1)"><path fill="none" stroke="#000000" d="M 751.1626748576241 748.790482243984 L 741 753 L 751.1626748576241 757.209517756016 L 751.1626748576241 748.790482243984" stroke-miterlimit="10"/></g><g transform="translate(-494,-294) scale(1,1)"><g><path fill="none" stroke="none"/><text fill="#000000" stroke="none" font-family="Arial" font-size="13px" font-style="normal" font-weight="normal" text-decoration="none" x="793.5" y="774.5">possible</text></g></g><g transform="translate(-494,-294) scale(1,1)"><path fill="#9acef6" stroke="none" d="M 943 800 L 992 800 Q 1015 800 1015 823 L 1015 822 Q 1015 845 992 845 L 943 845 Q 920 845 920 822 L 920 823 Q 920 800 943 800 Z"/></g><g transform="translate(-494,-294) scale(1,1)"><path fill="none" stroke="#000000" d="M 943 800 L 992 800 Q 1015 800 1015 823 L 1015 822 Q 1015 845 992 845 L 943 845 Q 920 845 920 822 L 920 823 Q 920 800 943 800 Z" stroke-miterlimit="10"/></g><g transform="translate(-494,-294) scale(1,1)"><g><path fill="none" stroke="none"/><text fill="#000000" stroke="none" font-family="Arial" font-size="13px" font-style="normal" font-weight="normal" text-decoration="none" x="947.984130859375" y="822.5">pas de</text><text fill="#000000" stroke="none" font-family="Arial" font-size="13px" font-style="normal" font-weight="normal" text-decoration="none" x="938.595947265625" y="835.5">géométrie</text></g></g><g transform="translate(-494,-294) scale(1,1)"><path fill="none" stroke="#000000" d="M 964 775 L 964 800" stroke-miterlimit="10"/></g><g transform="translate(-494,-294) scale(1,1)"><path fill="#000000" stroke="none" d="M 959.790482243984 789.8373251423759 L 964 800 L 968.209517756016 789.8373251423759"/></g><g transform="translate(-494,-294) scale(1,1)"><path fill="none" stroke="#000000" d="M 959.790482243984 789.8373251423759 L 964 800 L 968.209517756016 789.8373251423759 L 959.790482243984 789.8373251423759" stroke-miterlimit="10"/></g><g transform="translate(-494,-294) scale(1,1)"><g><path fill="none" stroke="none"/><text fill="#000000" stroke="none" font-family="Arial" font-size="13px" font-style="normal" font-weight="normal" text-decoration="none" x="974.5" y="796.5">impossible</text></g></g></g></svg>