<svg version="1.1" xmlns="http://www.w3.org/2000/svg" xmlns:xlink="http://www.w3.org/1999/xlink" width="1083" height="912"><defs/><g><g transform="translate(-54,-142) scale(1,1)"><path fill="#dee7fe" stroke="none" d="M 169 160 L 255 160 L 238 205 L 152 205 L 169 160"/></g><g transform="translate(-54,-142) scale(1,1)"><path fill="none" stroke="#000000" d="M 169 160 L 255 160 L 238 205 L 152 205 L 169 160 L 169 160" stroke-miterlimit="10"/></g><g transform="translate(-54,-142) scale(1,1)"><g><path fill="none" stroke="none"/><text fill="#000000" stroke="none" font-family="Arial" font-size="13px" font-style="normal" font-weight="normal" text-decoration="none" x="178.56005859375" y="182.5">donnees</text><text fill="#000000" stroke="none" font-family="Arial" font-size="13px" font-style="normal" font-weight="normal" text-decoration="none" x="168.08642578125" y="195.5">gestionnaire</text></g></g><g transform="translate(-54,-142) scale(1,1)"><path fill="#9acef6" stroke="none" d="M 141.5 448 L 226.5 448 Q 256 448 256 477.5 L 256 476.5 Q 256 506 226.5 506 L 141.5 506 Q 112 506 112 476.5 L 112 477.5 Q 112 448 141.5 448 Z"/></g><g transform="translate(-54,-142) scale(1,1)"><path fill="none" stroke="#000000" d="M 141.5 448 L 226.5 448 Q 256 448 256 477.5 L 256 476.5 Q 256 506 226.5 506 L 141.5 506 Q 112 506 112 476.5 L 112 477.5 Q 112 448 141.5 448 Z" stroke-miterlimit="10"/></g><g transform="translate(-54,-142) scale(1,1)"><g><path fill="none" stroke="none"/><text fill="#000000" stroke="none" font-family="Arial" font-size="13px" font-style="normal" font-weight="normal" text-decoration="none" x="146.983642578125" y="470.5">creation d'un</text><text fill="#000000" stroke="none" font-family="Arial" font-size="13px" font-style="normal" font-weight="normal" text-decoration="none" x="124.557373046875" y="483.5">nouveau compteur +</text><text fill="#000000" stroke="none" font-family="Arial" font-size="13px" font-style="normal" font-weight="normal" text-decoration="none" x="131.06689453125" y="496.5">comptage + Indics</text></g></g><g transform="translate(-54,-142) scale(1,1)"><path fill="#9acef6" stroke="none" d="M 132 336 L 147.63720703125 336 Q 183.63720703125 336 183.63720703125 372 L 183.63720703125 371 Q 183.63720703125 407 147.63720703125 407 L 132 407 Q 96 407 96 371 L 96 372 Q 96 336 132 336 Z"/></g><g transform="translate(-54,-142) scale(1,1)"><path fill="none" stroke="#000000" d="M 132 336 L 147.63720703125 336 Q 183.63720703125 336 183.63720703125 372 L 183.63720703125 371 Q 183.63720703125 407 147.63720703125 407 L 132 407 Q 96 407 96 371 L 96 372 Q 96 336 132 336 Z" stroke-miterlimit="10"/></g><g transform="translate(-54,-142) scale(1,1)"><g><path fill="none" stroke="none"/><text fill="#000000" stroke="none" font-family="Arial" font-size="13px" font-style="normal" font-weight="normal" text-decoration="none" x="107.658203125" y="358.5">creation de</text><text fill="#000000" stroke="none" font-family="Arial" font-size="13px" font-style="normal" font-weight="normal" text-decoration="none" x="108.023193359375" y="371.5">comptages</text><text fill="#000000" stroke="none" font-family="Arial" font-size="13px" font-style="normal" font-weight="normal" text-decoration="none" x="134.397705078125" y="384.5">et</text><text fill="#000000" stroke="none" font-family="Arial" font-size="13px" font-style="normal" font-weight="normal" text-decoration="none" x="108.385009765625" y="397.5">indicateurs</text></g></g><g transform="translate(-54,-142) scale(1,1)"><rect fill="#ddc8c3" stroke="none" x="560" y="448" width="136.06982421875" height="58"/></g><g transform="translate(-54,-142) scale(1,1)"><path fill="none" stroke="#000000" d="M 560 448 L 696.06982421875 448 L 696.06982421875 506 L 560 506 L 560 448 Z Z" stroke-miterlimit="10"/></g><g transform="translate(-54,-142) scale(1,1)"><path fill="none" stroke="#000000" d="M 565 448 L 565 506" stroke-miterlimit="10"/></g><g transform="translate(-54,-142) scale(1,1)"><path fill="none" stroke="#000000" d="M 691.06982421875 448 L 691.06982421875 506" stroke-miterlimit="10"/></g><g transform="translate(-54,-142) scale(1,1)"><g><path fill="none" stroke="none"/><text fill="#000000" stroke="none" font-family="Arial" font-size="13px" font-style="normal" font-weight="normal" text-decoration="none" x="600.5390625" y="470.5">Ventilation</text><text fill="#000000" stroke="none" font-family="Arial" font-size="13px" font-style="normal" font-weight="normal" text-decoration="none" x="601.265869140625" y="483.5">Nouveaux</text><text fill="#000000" stroke="none" font-family="Arial" font-size="13px" font-style="normal" font-weight="normal" text-decoration="none" x="597.29541015625" y="496.5">Comptages</text></g></g><g transform="translate(-54,-142) scale(1,1)"><path fill="#dee7fe" stroke="none" d="M 744 544 L 867.1162109375 544 L 843.1162109375 602 L 720 602 L 744 544"/></g><g transform="translate(-54,-142) scale(1,1)"><path fill="none" stroke="#000000" d="M 744 544 L 867.1162109375 544 L 843.1162109375 602 L 720 602 L 744 544 L 744 544" stroke-miterlimit="10"/></g><g transform="translate(-54,-142) scale(1,1)"><g><path fill="none" stroke="none"/><text fill="#000000" stroke="none" font-family="Arial" font-size="13px" font-style="normal" font-weight="normal" text-decoration="none" x="745.5" y="560">Correspondance</text><text fill="#000000" stroke="none" font-family="Arial" font-size="13px" font-style="normal" font-weight="normal" text-decoration="none" x="760.877197265625" y="573">d'identifiant</text><text fill="#000000" stroke="none" font-family="Arial" font-size="13px" font-style="normal" font-weight="normal" text-decoration="none" x="786.328125" y="586">de</text><text fill="#000000" stroke="none" font-family="Arial" font-size="13px" font-style="normal" font-weight="normal" text-decoration="none" x="761.7626953125" y="599">comptages</text></g></g><g transform="translate(-54,-142) scale(1,1)"><path fill="#dee7fe" stroke="none" d="M 752 464 L 912 464 L 880 522 L 720 522 L 752 464"/></g><g transform="translate(-54,-142) scale(1,1)"><path fill="none" stroke="#000000" d="M 752 464 L 912 464 L 880 522 L 720 522 L 752 464 L 752 464" stroke-miterlimit="10"/></g><g transform="translate(-54,-142) scale(1,1)"><g><path fill="none" stroke="none"/><text fill="#000000" stroke="none" font-family="Arial" font-size="13px" font-style="normal" font-weight="normal" text-decoration="none" x="789.98095703125" y="486.5">Nouveau</text><text fill="#000000" stroke="none" font-family="Arial" font-size="13px" font-style="normal" font-weight="normal" text-decoration="none" x="764.688720703125" y="499.5">comptage devient</text><text fill="#000000" stroke="none" font-family="Arial" font-size="13px" font-style="normal" font-weight="normal" text-decoration="none" x="793.9609375" y="512.5">associé</text></g></g><g transform="translate(-54,-142) scale(1,1)"><path fill="#dee7fe" stroke="none" d="M 773 280 L 1040 280 L 987 338 L 720 338 L 773 280"/></g><g transform="translate(-54,-142) scale(1,1)"><path fill="none" stroke="#000000" d="M 773 280 L 1040 280 L 987 338 L 720 338 L 773 280 L 773 280" stroke-miterlimit="10"/></g><g transform="translate(-54,-142) scale(1,1)"><g><path fill="none" stroke="none"/><text fill="#000000" stroke="none" font-family="Arial" font-size="13px" font-style="normal" font-weight="normal" text-decoration="none" x="800.86376953125" y="302.5">Nouveau comptage devient</text><text fill="#000000" stroke="none" font-family="Arial" font-size="13px" font-style="normal" font-weight="normal" text-decoration="none" x="790.767822265625" y="315.5">référence (création compteur) ;</text><text fill="#000000" stroke="none" font-family="Arial" font-size="13px" font-style="normal" font-weight="normal" text-decoration="none" x="810.98828125" y="328.5">existant devient associé</text></g></g><g transform="translate(-54,-142) scale(1,1)"><path fill="#dee7fe" stroke="none" d="M 754 384 L 928 384 L 894 442 L 720 442 L 754 384"/></g><g transform="translate(-54,-142) scale(1,1)"><path fill="none" stroke="#000000" d="M 754 384 L 928 384 L 894 442 L 720 442 L 754 384 L 754 384" stroke-miterlimit="10"/></g><g transform="translate(-54,-142) scale(1,1)"><g><path fill="none" stroke="none"/><text fill="#000000" stroke="none" font-family="Arial" font-size="13px" font-style="normal" font-weight="normal" text-decoration="none" x="767.629638671875" y="406.5">Nouveau comptage</text><text fill="#000000" stroke="none" font-family="Arial" font-size="13px" font-style="normal" font-weight="normal" text-decoration="none" x="776.294189453125" y="419.5">devient nouveau</text><text fill="#000000" stroke="none" font-family="Arial" font-size="13px" font-style="normal" font-weight="normal" text-decoration="none" x="796.905029296875" y="432.5">compteur</text></g></g><g transform="translate(-54,-142) scale(1,1)"><rect fill="#ddc8c3" stroke="none" x="376" y="232" width="136.06982421875" height="45"/></g><g transform="translate(-54,-142) scale(1,1)"><path fill="none" stroke="#000000" d="M 376 232 L 512.06982421875 232 L 512.06982421875 277 L 376 277 L 376 232 Z Z" stroke-miterlimit="10"/></g><g transform="translate(-54,-142) scale(1,1)"><path fill="none" stroke="#000000" d="M 381 232 L 381 277" stroke-miterlimit="10"/></g><g transform="translate(-54,-142) scale(1,1)"><path fill="none" stroke="#000000" d="M 507.06982421875 232 L 507.06982421875 277" stroke-miterlimit="10"/></g><g transform="translate(-54,-142) scale(1,1)"><g><path fill="none" stroke="none"/><text fill="#000000" stroke="none" font-family="Arial" font-size="13px" font-style="normal" font-weight="normal" text-decoration="none" x="404.253173828125" y="254.5">Ventilation des</text><text fill="#000000" stroke="none" font-family="Arial" font-size="13px" font-style="normal" font-weight="normal" text-decoration="none" x="393.424072265625" y="267.5">compteurs connus</text></g></g><g transform="translate(-54,-142) scale(1,1)"><path fill="none" stroke="#000000" d="M 696 464 L 696 464 M 696 464 A 8 8 0 0 0 704 456 L 704 317 M 704 317 A 8 8 0 0 1 712 309 L 720 309" stroke-miterlimit="10"/></g><g transform="translate(-54,-142) scale(1,1)"><path fill="#000000" stroke="none" d="M 709.8373251423759 313.209517756016 L 720 309 L 709.8373251423758 304.790482243984"/></g><g transform="translate(-54,-142) scale(1,1)"><path fill="none" stroke="#000000" d="M 709.8373251423759 313.209517756016 L 720 309 L 709.8373251423758 304.790482243984 L 709.8373251423759 313.209517756016" stroke-miterlimit="10"/></g><g transform="translate(-54,-142) scale(1,1)"><path fill="none" stroke="#000000" d="M 696 464 L 696 464 M 696 464 A 8 8 0 0 0 704 456 L 704 421 M 704 421 A 8 8 0 0 1 712 413 L 720 413" stroke-miterlimit="10"/></g><g transform="translate(-54,-142) scale(1,1)"><path fill="#000000" stroke="none" d="M 709.8373251423759 417.209517756016 L 720 413 L 709.8373251423758 408.790482243984"/></g><g transform="translate(-54,-142) scale(1,1)"><path fill="none" stroke="#000000" d="M 709.8373251423759 417.209517756016 L 720 413 L 709.8373251423758 408.790482243984 L 709.8373251423759 417.209517756016" stroke-miterlimit="10"/></g><g transform="translate(-54,-142) scale(1,1)"><path fill="none" stroke="#000000" d="M 696 464 L 720 464" stroke-miterlimit="10"/></g><g transform="translate(-54,-142) scale(1,1)"><path fill="#000000" stroke="none" d="M 709.8373251423759 468.209517756016 L 720 464 L 709.8373251423758 459.790482243984"/></g><g transform="translate(-54,-142) scale(1,1)"><path fill="none" stroke="#000000" d="M 709.8373251423759 468.209517756016 L 720 464 L 709.8373251423758 459.790482243984 L 709.8373251423759 468.209517756016" stroke-miterlimit="10"/></g><g transform="translate(-54,-142) scale(1,1)"><path fill="none" stroke="#000000" d="M 696 464 L 696 464 M 696 464 A 8 8 0 0 1 704 472 L 704 568 M 704 568 A 8 8 0 0 0 712 576 L 720 576" stroke-miterlimit="10"/></g><g transform="translate(-54,-142) scale(1,1)"><path fill="#000000" stroke="none" d="M 709.8373251423759 580.209517756016 L 720 576 L 709.8373251423758 571.790482243984"/></g><g transform="translate(-54,-142) scale(1,1)"><path fill="none" stroke="#000000" d="M 709.8373251423759 580.209517756016 L 720 576 L 709.8373251423758 571.790482243984 L 709.8373251423759 580.209517756016" stroke-miterlimit="10"/></g><g transform="translate(-54,-142) scale(1,1)"><rect fill="#fff07c" stroke="none" x="944" y="560" width="183" height="32"/></g><g transform="translate(-54,-142) scale(1,1)"><path fill="none" stroke="#000000" d="M 944 560 L 1127 560 L 1127 592 L 944 592 L 944 560 Z Z" stroke-miterlimit="10"/></g><g transform="translate(-54,-142) scale(1,1)"><g><path fill="none" stroke="none"/><text fill="#000000" stroke="none" font-family="Arial" font-size="13px" font-style="normal" font-weight="normal" text-decoration="none" x="976.247802734375" y="582.5">vérification manuelle</text></g></g><g transform="translate(-54,-142) scale(1,1)"><path fill="#dee7fe" stroke="none" d="M 613 656 L 880 656 L 827 714 L 560 714 L 613 656"/></g><g transform="translate(-54,-142) scale(1,1)"><path fill="none" stroke="#000000" d="M 613 656 L 880 656 L 827 714 L 560 714 L 613 656 L 613 656" stroke-miterlimit="10"/></g><g transform="translate(-54,-142) scale(1,1)"><g><path fill="none" stroke="none"/><text fill="#000000" stroke="none" font-family="Arial" font-size="13px" font-style="normal" font-weight="normal" text-decoration="none" x="640.86376953125" y="678.5">Nouveau comptage devient</text><text fill="#000000" stroke="none" font-family="Arial" font-size="13px" font-style="normal" font-weight="normal" text-decoration="none" x="630.767822265625" y="691.5">référence (création compteur) ;</text><text fill="#000000" stroke="none" font-family="Arial" font-size="13px" font-style="normal" font-weight="normal" text-decoration="none" x="650.98828125" y="704.5">existant devient associé</text></g></g><g transform="translate(-54,-142) scale(1,1)"><path fill="#dee7fe" stroke="none" d="M 713 744 L 880 744 L 847 802 L 680 802 L 713 744"/></g><g transform="translate(-54,-142) scale(1,1)"><path fill="none" stroke="#000000" d="M 713 744 L 880 744 L 847 802 L 680 802 L 713 744 L 713 744" stroke-miterlimit="10"/></g><g transform="translate(-54,-142) scale(1,1)"><g><path fill="none" stroke="none"/><text fill="#000000" stroke="none" font-family="Arial" font-size="13px" font-style="normal" font-weight="normal" text-decoration="none" x="723.629638671875" y="766.5">Nouveau comptage</text><text fill="#000000" stroke="none" font-family="Arial" font-size="13px" font-style="normal" font-weight="normal" text-decoration="none" x="732.294189453125" y="779.5">devient nouveau</text><text fill="#000000" stroke="none" font-family="Arial" font-size="13px" font-style="normal" font-weight="normal" text-decoration="none" x="752.905029296875" y="792.5">compteur</text></g></g><g transform="translate(-54,-142) scale(1,1)"><path fill="#dee7fe" stroke="none" d="M 733 824 L 880 824 L 851 882 L 704 882 L 733 824"/></g><g transform="translate(-54,-142) scale(1,1)"><path fill="none" stroke="#000000" d="M 733 824 L 880 824 L 851 882 L 704 882 L 733 824 L 733 824" stroke-miterlimit="10"/></g><g transform="translate(-54,-142) scale(1,1)"><g><path fill="none" stroke="none"/><text fill="#000000" stroke="none" font-family="Arial" font-size="13px" font-style="normal" font-weight="normal" text-decoration="none" x="765.98095703125" y="846.5">Nouveau</text><text fill="#000000" stroke="none" font-family="Arial" font-size="13px" font-style="normal" font-weight="normal" text-decoration="none" x="763.45458984375" y="859.5">comptage</text><text fill="#000000" stroke="none" font-family="Arial" font-size="13px" font-style="normal" font-weight="normal" text-decoration="none" x="747.195068359375" y="872.5">devient associé</text></g></g><g transform="translate(-54,-142) scale(1,1)"><path fill="#dee7fe" stroke="none" d="M 733 896 L 880 896 L 851 954 L 704 954 L 733 896"/></g><g transform="translate(-54,-142) scale(1,1)"><path fill="none" stroke="#000000" d="M 733 896 L 880 896 L 851 954 L 704 954 L 733 896 L 733 896" stroke-miterlimit="10"/></g><g transform="translate(-54,-142) scale(1,1)"><g><path fill="none" stroke="none"/><text fill="#000000" stroke="none" font-family="Arial" font-size="13px" font-style="normal" font-weight="normal" text-decoration="none" x="743.94189453125" y="918.5">Correspondance</text><text fill="#000000" stroke="none" font-family="Arial" font-size="13px" font-style="normal" font-weight="normal" text-decoration="none" x="750.283203125" y="931.5">d'identifiant de</text><text fill="#000000" stroke="none" font-family="Arial" font-size="13px" font-style="normal" font-weight="normal" text-decoration="none" x="760.20458984375" y="944.5">comptages</text></g></g><g transform="translate(-54,-142) scale(1,1)"><path fill="none" stroke="#000000" d="M 1024 338 L 1024 560" stroke-miterlimit="10"/></g><g transform="translate(-54,-142) scale(1,1)"><path fill="#000000" stroke="none" d="M 1019.790482243984 549.8373251423759 L 1024 560 L 1028.2095177560159 549.8373251423759"/></g><g transform="translate(-54,-142) scale(1,1)"><path fill="none" stroke="#000000" d="M 1019.790482243984 549.8373251423759 L 1024 560 L 1028.2095177560159 549.8373251423759 L 1019.790482243984 549.8373251423759" stroke-miterlimit="10"/></g><g transform="translate(-54,-142) scale(1,1)"><path fill="none" stroke="#000000" d="M 928 408 L 1024 408 M 1024 408 A 8 8 0 0 1 1032 416 L 1032 560" stroke-miterlimit="10"/></g><g transform="translate(-54,-142) scale(1,1)"><path fill="#000000" stroke="none" d="M 1027.7904822439841 549.8373251423759 L 1032 560 L 1036.2095177560159 549.8373251423759"/></g><g transform="translate(-54,-142) scale(1,1)"><path fill="none" stroke="#000000" d="M 1027.7904822439841 549.8373251423759 L 1032 560 L 1036.2095177560159 549.8373251423759 L 1027.7904822439841 549.8373251423759" stroke-miterlimit="10"/></g><g transform="translate(-54,-142) scale(1,1)"><path fill="none" stroke="#000000" d="M 912 488 L 1016 488 M 1016 488 A 8 8 0 0 1 1024 496 L 1024 560" stroke-miterlimit="10"/></g><g transform="translate(-54,-142) scale(1,1)"><path fill="#000000" stroke="none" d="M 1019.790482243984 549.8373251423759 L 1024 560 L 1028.2095177560159 549.8373251423759"/></g><g transform="translate(-54,-142) scale(1,1)"><path fill="none" stroke="#000000" d="M 1019.790482243984 549.8373251423759 L 1024 560 L 1028.2095177560159 549.8373251423759 L 1019.790482243984 549.8373251423759" stroke-miterlimit="10"/></g><g transform="translate(-54,-142) scale(1,1)"><path fill="none" stroke="#000000" d="M 867 576 L 944 576" stroke-miterlimit="10"/></g><g transform="translate(-54,-142) scale(1,1)"><path fill="#000000" stroke="none" d="M 933.8373251423759 580.209517756016 L 944 576 L 933.8373251423758 571.790482243984"/></g><g transform="translate(-54,-142) scale(1,1)"><path fill="none" stroke="#000000" d="M 933.8373251423759 580.209517756016 L 944 576 L 933.8373251423758 571.790482243984 L 933.8373251423759 580.209517756016" stroke-miterlimit="10"/></g><g transform="translate(-54,-142) scale(1,1)"><path fill="none" stroke="#000000" d="M 1035 592 L 1035 680 M 1035 680 A 8 8 0 0 1 1027 688 L 880 688" stroke-miterlimit="10"/></g><g transform="translate(-54,-142) scale(1,1)"><path fill="#000000" stroke="none" d="M 890.1626748576241 683.790482243984 L 880 688 L 890.1626748576241 692.209517756016"/></g><g transform="translate(-54,-142) scale(1,1)"><path fill="none" stroke="#000000" d="M 890.1626748576241 683.790482243984 L 880 688 L 890.1626748576241 692.209517756016 L 890.1626748576241 683.790482243984" stroke-miterlimit="10"/></g><g transform="translate(-54,-142) scale(1,1)"><path fill="none" stroke="#000000" d="M 1032 592 L 1032 760 M 1032 760 A 8 8 0 0 1 1024 768 L 880 768" stroke-miterlimit="10"/></g><g transform="translate(-54,-142) scale(1,1)"><path fill="#000000" stroke="none" d="M 890.1626748576241 763.790482243984 L 880 768 L 890.1626748576241 772.209517756016"/></g><g transform="translate(-54,-142) scale(1,1)"><path fill="none" stroke="#000000" d="M 890.1626748576241 763.790482243984 L 880 768 L 890.1626748576241 772.209517756016 L 890.1626748576241 763.790482243984" stroke-miterlimit="10"/></g><g transform="translate(-54,-142) scale(1,1)"><path fill="none" stroke="#000000" d="M 1035 592 L 1035 816 M 1035 816 A 8 8 0 0 1 1027 824 L 880 824" stroke-miterlimit="10"/></g><g transform="translate(-54,-142) scale(1,1)"><path fill="#000000" stroke="none" d="M 890.1626748576241 819.790482243984 L 880 824 L 890.1626748576241 828.209517756016"/></g><g transform="translate(-54,-142) scale(1,1)"><path fill="none" stroke="#000000" d="M 890.1626748576241 819.790482243984 L 880 824 L 890.1626748576241 828.209517756016 L 890.1626748576241 819.790482243984" stroke-miterlimit="10"/></g><g transform="translate(-54,-142) scale(1,1)"><path fill="none" stroke="#000000" d="M 1032 592 L 1032 904 M 1032 904 A 8 8 0 0 1 1024 912 L 880 912" stroke-miterlimit="10"/></g><g transform="translate(-54,-142) scale(1,1)"><path fill="#000000" stroke="none" d="M 890.1626748576241 907.790482243984 L 880 912 L 890.1626748576241 916.209517756016"/></g><g transform="translate(-54,-142) scale(1,1)"><path fill="none" stroke="#000000" d="M 890.1626748576241 907.790482243984 L 880 912 L 890.1626748576241 916.209517756016 L 890.1626748576241 907.790482243984" stroke-miterlimit="10"/></g><g transform="translate(-54,-142) scale(1,1)"><path fill="#9acef6" stroke="none" d="M 436 552 L 467 552 Q 503 552 503 588 L 503 587 Q 503 623 467 623 L 436 623 Q 400 623 400 587 L 400 588 Q 400 552 436 552 Z"/></g><g transform="translate(-54,-142) scale(1,1)"><path fill="none" stroke="#000000" d="M 436 552 L 467 552 Q 503 552 503 588 L 503 587 Q 503 623 467 623 L 436 623 Q 400 623 400 587 L 400 588 Q 400 552 436 552 Z" stroke-miterlimit="10"/></g><g transform="translate(-54,-142) scale(1,1)"><g><path fill="none" stroke="none"/><text fill="#000000" stroke="none" font-family="Arial" font-size="13px" font-style="normal" font-weight="normal" text-decoration="none" x="414.28369140625" y="574.5">Insertion des</text><text fill="#000000" stroke="none" font-family="Arial" font-size="13px" font-style="normal" font-weight="normal" text-decoration="none" x="419.70458984375" y="587.5">comptages</text><text fill="#000000" stroke="none" font-family="Arial" font-size="13px" font-style="normal" font-weight="normal" text-decoration="none" x="417.175048828125" y="600.5">associés en</text><text fill="#000000" stroke="none" font-family="Arial" font-size="13px" font-style="normal" font-weight="normal" text-decoration="none" x="439.9345703125" y="613.5">Bdd</text></g></g><g transform="translate(-54,-142) scale(1,1)"><path fill="none" stroke="#38bcff" d="M 560 688 L 503 688" stroke-miterlimit="10"/></g><g transform="translate(-54,-142) scale(1,1)"><path fill="#38bcff" stroke="none" d="M 513.1626748576241 683.790482243984 L 503 688 L 513.1626748576241 692.209517756016"/></g><g transform="translate(-54,-142) scale(1,1)"><path fill="none" stroke="#38bcff" d="M 513.1626748576241 683.790482243984 L 503 688 L 513.1626748576241 692.209517756016 L 513.1626748576241 683.790482243984" stroke-miterlimit="10"/></g><g transform="translate(-54,-142) scale(1,1)"><path fill="none" stroke="#00d600" d="M 608 714 L 608 880 M 608 880 A 8 8 0 0 1 600 888 L 432 888 M 432 888 A 8 8 0 0 0 424 896 L 424 984" stroke-miterlimit="10"/></g><g transform="translate(-54,-142) scale(1,1)"><path fill="#00d600" stroke="none" d="M 419.790482243984 973.8373251423759 L 424 984 L 428.209517756016 973.8373251423759"/></g><g transform="translate(-54,-142) scale(1,1)"><path fill="none" stroke="#00d600" d="M 419.790482243984 973.8373251423759 L 424 984 L 428.209517756016 973.8373251423759 L 419.790482243984 973.8373251423759" stroke-miterlimit="10"/></g><g transform="translate(-54,-142) scale(1,1)"><path fill="none" stroke="#00d600" d="M 680 784 L 616 784 M 616 784 A 8 8 0 0 0 608 792 L 608 880 M 608 880 A 8 8 0 0 1 600 888 L 432 888 M 432 888 A 8 8 0 0 0 424 896 L 424 984" stroke-miterlimit="10"/></g><g transform="translate(-54,-142) scale(1,1)"><path fill="#00d600" stroke="none" d="M 419.790482243984 973.8373251423759 L 424 984 L 428.209517756016 973.8373251423759"/></g><g transform="translate(-54,-142) scale(1,1)"><path fill="none" stroke="#00d600" d="M 419.790482243984 973.8373251423759 L 424 984 L 428.209517756016 973.8373251423759 L 419.790482243984 973.8373251423759" stroke-miterlimit="10"/></g><g transform="translate(-54,-142) scale(1,1)"><path fill="none" stroke="#38bcff" d="M 704 856 L 536 856 M 536 856 A 8 8 0 0 1 528 848 L 528 696 M 528 696 A 8 8 0 0 0 520 688 L 503 688" stroke-miterlimit="10"/></g><g transform="translate(-54,-142) scale(1,1)"><path fill="#38bcff" stroke="none" d="M 513.1626748576241 683.790482243984 L 503 688 L 513.1626748576241 692.209517756016"/></g><g transform="translate(-54,-142) scale(1,1)"><path fill="none" stroke="#38bcff" d="M 513.1626748576241 683.790482243984 L 503 688 L 513.1626748576241 692.209517756016 L 513.1626748576241 683.790482243984" stroke-miterlimit="10"/></g><g transform="translate(-54,-142) scale(1,1)"><path fill="none" stroke="#000000" d="M 704 944 L 612 944 M 612 944 A 8 8 0 0 0 604 952 L 604 984" stroke-miterlimit="10"/></g><g transform="translate(-54,-142) scale(1,1)"><path fill="#000000" stroke="none" d="M 599.790482243984 973.8373251423759 L 604 984 L 608.209517756016 973.8373251423759"/></g><g transform="translate(-54,-142) scale(1,1)"><path fill="none" stroke="#000000" d="M 599.790482243984 973.8373251423759 L 604 984 L 608.209517756016 973.8373251423759 L 599.790482243984 973.8373251423759" stroke-miterlimit="10"/></g><g transform="translate(-54,-142) scale(1,1)"><path fill="#cce18d" stroke="none" d="M 192 919.5 L 296 864 L 400 919.5 L 296 975 L 192 919.5"/></g><g transform="translate(-54,-142) scale(1,1)"><path fill="none" stroke="#000000" d="M 192 919.5 L 296 864 L 400 919.5 L 296 975 L 192 919.5 L 192 919.5" stroke-miterlimit="10"/></g><g transform="translate(-54,-142) scale(1,1)"><g><path fill="none" stroke="none"/><text fill="#000000" stroke="none" font-family="Arial" font-size="9px" font-style="normal" font-weight="normal" text-decoration="none" x="245.97265625" y="901.5">le compteur de référence</text><text fill="#000000" stroke="none" font-family="Arial" font-size="9px" font-style="normal" font-weight="normal" text-decoration="none" x="257.46875" y="910.5">interne au données</text><text fill="#000000" stroke="none" font-family="Arial" font-size="9px" font-style="normal" font-weight="normal" text-decoration="none" x="257.97412109375" y="919.5">gestionnaire est un</text><text fill="#000000" stroke="none" font-family="Arial" font-size="9px" font-style="normal" font-weight="normal" text-decoration="none" x="252.469970703125" y="928.5">nouveau compteur ou</text><text fill="#000000" stroke="none" font-family="Arial" font-size="9px" font-style="normal" font-weight="normal" text-decoration="none" x="248.9697265625" y="937.5">devient un compteur de</text><text fill="#000000" stroke="none" font-family="Arial" font-size="9px" font-style="normal" font-weight="normal" text-decoration="none" x="276.9892578125" y="946.5">référence</text></g></g><g transform="translate(-54,-142) scale(1,1)"><path fill="none" stroke="#000000" d="M 360 1016 L 304 1016 M 304 1016 A 8 8 0 0 1 296 1008 L 296 975" stroke-miterlimit="10"/></g><g transform="translate(-54,-142) scale(1,1)"><path fill="#000000" stroke="none" d="M 300.209517756016 985.1626748576241 L 296 975 L 291.790482243984 985.1626748576241"/></g><g transform="translate(-54,-142) scale(1,1)"><path fill="none" stroke="#000000" d="M 300.209517756016 985.1626748576241 L 296 975 L 291.790482243984 985.1626748576241 L 300.209517756016 985.1626748576241" stroke-miterlimit="10"/></g><g transform="translate(-54,-142) scale(1,1)"><rect fill="#fff07c" stroke="none" x="112" y="728" width="112" height="123"/></g><g transform="translate(-54,-142) scale(1,1)"><path fill="none" stroke="#000000" d="M 112 728 L 224 728 L 224 851 L 112 851 L 112 728 Z Z" stroke-miterlimit="10"/></g><g transform="translate(-54,-142) scale(1,1)"><g><path fill="none" stroke="none"/><text fill="#000000" stroke="none" font-family="Arial" font-size="13px" font-style="normal" font-weight="normal" text-decoration="none" x="126.089599609375" y="750.5">référencement</text><text fill="#000000" stroke="none" font-family="Arial" font-size="13px" font-style="normal" font-weight="normal" text-decoration="none" x="123.918701171875" y="763.5">des comptages</text><text fill="#000000" stroke="none" font-family="Arial" font-size="13px" font-style="normal" font-weight="normal" text-decoration="none" x="133.675048828125" y="776.5">associés au</text><text fill="#000000" stroke="none" font-family="Arial" font-size="13px" font-style="normal" font-weight="normal" text-decoration="none" x="130.418701171875" y="789.5">comptage de</text><text fill="#000000" stroke="none" font-family="Arial" font-size="13px" font-style="normal" font-weight="normal" text-decoration="none" x="140.5400390625" y="802.5">référence</text><text fill="#000000" stroke="none" font-family="Arial" font-size="13px" font-style="normal" font-weight="normal" text-decoration="none" x="135.839599609375" y="815.5">interne des</text><text fill="#000000" stroke="none" font-family="Arial" font-size="13px" font-style="normal" font-weight="normal" text-decoration="none" x="140.536865234375" y="828.5">nouvelles</text><text fill="#000000" stroke="none" font-family="Arial" font-size="13px" font-style="normal" font-weight="normal" text-decoration="none" x="143.06005859375" y="841.5">données</text></g></g><g transform="translate(-54,-142) scale(1,1)"><rect fill="#fff07c" stroke="none" x="256" y="736" width="208" height="97"/></g><g transform="translate(-54,-142) scale(1,1)"><path fill="none" stroke="#000000" d="M 256 736 L 464 736 L 464 833 L 256 833 L 256 736 Z Z" stroke-miterlimit="10"/></g><g transform="translate(-54,-142) scale(1,1)"><g><path fill="none" stroke="none"/><text fill="#000000" stroke="none" font-family="Arial" font-size="13px" font-style="normal" font-weight="normal" text-decoration="none" x="272.202392578125" y="758.5">référencement des comptages</text><text fill="#000000" stroke="none" font-family="Arial" font-size="13px" font-style="normal" font-weight="normal" text-decoration="none" x="286.287841796875" y="771.5">associés au comptage de</text><text fill="#000000" stroke="none" font-family="Arial" font-size="13px" font-style="normal" font-weight="normal" text-decoration="none" x="271.110595703125" y="784.5">référence existant dans la bdd,</text><text fill="#000000" stroke="none" font-family="Arial" font-size="13px" font-style="normal" font-weight="normal" text-decoration="none" x="295.682373046875" y="797.5">qui est la référence du</text><text fill="#000000" stroke="none" font-family="Arial" font-size="13px" font-style="normal" font-weight="normal" text-decoration="none" x="280.866943359375" y="810.5">comptage de référence des</text><text fill="#000000" stroke="none" font-family="Arial" font-size="13px" font-style="normal" font-weight="normal" text-decoration="none" x="297.840576171875" y="823.5">données gestionnaire</text></g></g><g transform="translate(-54,-142) scale(1,1)"><path fill="none" stroke="#000000" d="M 192 951 L 176 951 M 176 951 A 8 8 0 0 1 168 943 L 168 851" stroke-miterlimit="10"/></g><g transform="translate(-54,-142) scale(1,1)"><path fill="#000000" stroke="none" d="M 172.209517756016 861.1626748576241 L 168 851 L 163.790482243984 861.1626748576241"/></g><g transform="translate(-54,-142) scale(1,1)"><path fill="none" stroke="#000000" d="M 172.209517756016 861.1626748576241 L 168 851 L 163.790482243984 861.1626748576241 L 172.209517756016 861.1626748576241" stroke-miterlimit="10"/></g><g transform="translate(-54,-142) scale(1,1)"><g><path fill="none" stroke="none"/><text fill="#000000" stroke="none" font-family="Arial" font-size="13px" font-style="normal" font-weight="normal" text-decoration="none" x="126.5" y="958.5">Oui</text></g></g><g transform="translate(-54,-142) scale(1,1)"><path fill="none" stroke="#38bcff" d="M 208 728 L 208 702 M 208 702 A 8 8 0 0 1 216 694 L 376 694" stroke-miterlimit="10"/></g><g transform="translate(-54,-142) scale(1,1)"><path fill="#38bcff" stroke="none" d="M 365.83732514237585 698.209517756016 L 376 694 L 365.83732514237585 689.790482243984"/></g><g transform="translate(-54,-142) scale(1,1)"><path fill="none" stroke="#38bcff" d="M 365.83732514237585 698.209517756016 L 376 694 L 365.83732514237585 689.790482243984 L 365.83732514237585 698.209517756016" stroke-miterlimit="10"/></g><g transform="translate(-54,-142) scale(1,1)"><g><path fill="none" stroke="none"/><text fill="#38bcff" stroke="none" font-family="Arial" font-size="13px" font-style="normal" font-weight="normal" text-decoration="none" x="147.5" y="685.5">Comptages associés</text></g></g><g transform="translate(-54,-142) scale(1,1)"><path fill="none" stroke="#38bcff" d="M 408 736 L 408 717" stroke-miterlimit="10"/></g><g transform="translate(-54,-142) scale(1,1)"><path fill="#38bcff" stroke="none" d="M 412.209517756016 727.1626748576241 L 408 717 L 403.790482243984 727.1626748576241"/></g><g transform="translate(-54,-142) scale(1,1)"><path fill="none" stroke="#38bcff" d="M 412.209517756016 727.1626748576241 L 408 717 L 403.790482243984 727.1626748576241 L 412.209517756016 727.1626748576241" stroke-miterlimit="10"/></g><g transform="translate(-54,-142) scale(1,1)"><rect fill="#ddc8c3" stroke="none" x="536" y="984" width="136.06982421875" height="45"/></g><g transform="translate(-54,-142) scale(1,1)"><path fill="none" stroke="#000000" d="M 536 984 L 672.06982421875 984 L 672.06982421875 1029 L 536 1029 L 536 984 Z Z" stroke-miterlimit="10"/></g><g transform="translate(-54,-142) scale(1,1)"><path fill="none" stroke="#000000" d="M 541 984 L 541 1029" stroke-miterlimit="10"/></g><g transform="translate(-54,-142) scale(1,1)"><path fill="none" stroke="#000000" d="M 667.06982421875 984 L 667.06982421875 1029" stroke-miterlimit="10"/></g><g transform="translate(-54,-142) scale(1,1)"><g><path fill="none" stroke="none"/><text fill="#000000" stroke="none" font-family="Arial" font-size="13px" font-style="normal" font-weight="normal" text-decoration="none" x="564.253173828125" y="1006.5">Ventilation des</text><text fill="#000000" stroke="none" font-family="Arial" font-size="13px" font-style="normal" font-weight="normal" text-decoration="none" x="553.424072265625" y="1019.5">compteurs connus</text></g></g><g transform="translate(-54,-142) scale(1,1)"><path fill="none" stroke="#00d600" d="M 536 1016 L 487 1016" stroke-miterlimit="10"/></g><g transform="translate(-54,-142) scale(1,1)"><path fill="#00d600" stroke="none" d="M 497.16267485762415 1011.790482243984 L 487 1016 L 497.16267485762415 1020.209517756016"/></g><g transform="translate(-54,-142) scale(1,1)"><path fill="none" stroke="#00d600" d="M 497.16267485762415 1011.790482243984 L 487 1016 L 497.16267485762415 1020.209517756016 L 497.16267485762415 1011.790482243984" stroke-miterlimit="10"/></g><g transform="translate(-54,-142) scale(1,1)"><path fill="#ffffff" stroke="none" d="M 712 968 L 909 968 L 919 978 L 919 1043 L 712 1043 L 712 968"/></g><g transform="translate(-54,-142) scale(1,1)"><path fill="none" stroke="#000000" d="M 712 968 L 909 968 L 919 978 L 919 1043 L 712 1043 L 712 968 L 712 968" stroke-miterlimit="10"/></g><g transform="translate(-54,-142) scale(1,1)"><path fill="none" stroke="#000000" d="M 909 968 L 909 978 L 919 978 L 909 968" stroke-miterlimit="10"/></g><g transform="translate(-54,-142) scale(1,1)"><g><path fill="none" stroke="none"/><text fill="#000000" stroke="none" font-family="Arial" font-size="13px" font-style="normal" font-weight="normal" text-decoration="none" x="717" y="986">car le prise en compte de</text><text fill="#000000" stroke="none" font-family="Arial" font-size="13px" font-style="normal" font-weight="normal" text-decoration="none" x="717" y="999">correspondance peut créer des</text><text fill="#000000" stroke="none" font-family="Arial" font-size="13px" font-style="normal" font-weight="normal" text-decoration="none" x="717" y="1012">doublons sur les identifiants de</text><text fill="#000000" stroke="none" font-family="Arial" font-size="13px" font-style="normal" font-weight="normal" text-decoration="none" x="717" y="1025">comptages issus des</text><text fill="#000000" stroke="none" font-family="Arial" font-size="13px" font-style="normal" font-weight="normal" text-decoration="none" x="717" y="1038">correspondances</text></g></g><g transform="translate(-54,-142) scale(1,1)"><path fill="none" stroke="#000000" d="M 673 1006 L 711 1006" stroke-miterlimit="10" stroke-dasharray="3"/></g><g transform="translate(-54,-142) scale(1,1)"><path fill="none" stroke="#38bcff" d="M 536 1008 L 536 1008 M 536 1008 A 8 8 0 0 1 528 1000 L 528 696 M 528 696 A 8 8 0 0 0 520 688 L 503 688" stroke-miterlimit="10"/></g><g transform="translate(-54,-142) scale(1,1)"><path fill="#38bcff" stroke="none" d="M 513.1626748576241 683.790482243984 L 503 688 L 513.1626748576241 692.209517756016"/></g><g transform="translate(-54,-142) scale(1,1)"><path fill="none" stroke="#38bcff" d="M 513.1626748576241 683.790482243984 L 503 688 L 513.1626748576241 692.209517756016 L 513.1626748576241 683.790482243984" stroke-miterlimit="10"/></g><g transform="translate(-54,-142) scale(1,1)"><rect fill="#ddc8c3" stroke="none" x="376" y="152" width="136.06982421875" height="58"/></g><g transform="translate(-54,-142) scale(1,1)"><path fill="none" stroke="#000000" d="M 376 152 L 512.06982421875 152 L 512.06982421875 210 L 376 210 L 376 152 Z Z" stroke-miterlimit="10"/></g><g transform="translate(-54,-142) scale(1,1)"><path fill="none" stroke="#000000" d="M 381 152 L 381 210" stroke-miterlimit="10"/></g><g transform="translate(-54,-142) scale(1,1)"><path fill="none" stroke="#000000" d="M 507.06982421875 152 L 507.06982421875 210" stroke-miterlimit="10"/></g><g transform="translate(-54,-142) scale(1,1)"><g><path fill="none" stroke="none"/><text fill="#000000" stroke="none" font-family="Arial" font-size="13px" font-style="normal" font-weight="normal" text-decoration="none" x="404.983154296875" y="174.5">formatage des</text><text fill="#000000" stroke="none" font-family="Arial" font-size="13px" font-style="normal" font-weight="normal" text-decoration="none" x="421.594970703125" y="187.5">donnees</text><text fill="#000000" stroke="none" font-family="Arial" font-size="13px" font-style="normal" font-weight="normal" text-decoration="none" x="407.871337890625" y="200.5">gestionnaires</text></g></g><g transform="translate(-54,-142) scale(1,1)"><path fill="#dee7fe" stroke="none" d="M 536 336 L 616.3271484375 336 L 600.3271484375 420 L 520 420 L 536 336"/></g><g transform="translate(-54,-142) scale(1,1)"><path fill="none" stroke="#000000" d="M 536 336 L 616.3271484375 336 L 600.3271484375 420 L 520 420 L 536 336 L 536 336" stroke-miterlimit="10"/></g><g transform="translate(-54,-142) scale(1,1)"><g><path fill="none" stroke="none"/><text fill="#000000" stroke="none" font-family="Arial" font-size="13px" font-style="normal" font-weight="normal" text-decoration="none" x="536.3681640625" y="352">comptages</text><text fill="#000000" stroke="none" font-family="Arial" font-size="13px" font-style="normal" font-weight="normal" text-decoration="none" x="542.87451171875" y="365">associés</text><text fill="#000000" stroke="none" font-family="Arial" font-size="13px" font-style="normal" font-weight="normal" text-decoration="none" x="557.68359375" y="378">aux</text><text fill="#000000" stroke="none" font-family="Arial" font-size="13px" font-style="normal" font-weight="normal" text-decoration="none" x="537.818603515625" y="391">compteurs</text><text fill="#000000" stroke="none" font-family="Arial" font-size="13px" font-style="normal" font-weight="normal" text-decoration="none" x="529.5" y="404">gestionnaires</text></g></g><g transform="translate(-54,-142) scale(1,1)"><path fill="#dee7fe" stroke="none" d="M 405 336 L 471.68994140625 336 L 458.68994140625 407 L 392 407 L 405 336"/></g><g transform="translate(-54,-142) scale(1,1)"><path fill="none" stroke="#000000" d="M 405 336 L 471.68994140625 336 L 458.68994140625 407 L 392 407 L 405 336 L 405 336" stroke-miterlimit="10"/></g><g transform="translate(-54,-142) scale(1,1)"><g><path fill="none" stroke="none"/><text fill="#000000" stroke="none" font-family="Arial" font-size="13px" font-style="normal" font-weight="normal" text-decoration="none" x="401.5" y="352">compteurs</text><text fill="#000000" stroke="none" font-family="Arial" font-size="13px" font-style="normal" font-weight="normal" text-decoration="none" x="405.825927734375" y="365">inconnus</text><text fill="#000000" stroke="none" font-family="Arial" font-size="13px" font-style="normal" font-weight="normal" text-decoration="none" x="417.75" y="378">de la</text><text fill="#000000" stroke="none" font-family="Arial" font-size="13px" font-style="normal" font-weight="normal" text-decoration="none" x="420.279541015625" y="391">Bdd</text></g></g><g transform="translate(-54,-142) scale(1,1)"><path fill="#dee7fe" stroke="none" d="M 269 336 L 338.578125 336 L 325.578125 407 L 256 407 L 269 336"/></g><g transform="translate(-54,-142) scale(1,1)"><path fill="none" stroke="#000000" d="M 269 336 L 338.578125 336 L 325.578125 407 L 256 407 L 269 336 L 269 336" stroke-miterlimit="10"/></g><g transform="translate(-54,-142) scale(1,1)"><g><path fill="none" stroke="none"/><text fill="#000000" stroke="none" font-family="Arial" font-size="13px" font-style="normal" font-weight="normal" text-decoration="none" x="265.5" y="352">Compteurs</text><text fill="#000000" stroke="none" font-family="Arial" font-size="13px" font-style="normal" font-weight="normal" text-decoration="none" x="276.3291015625" y="365">connus</text><text fill="#000000" stroke="none" font-family="Arial" font-size="13px" font-style="normal" font-weight="normal" text-decoration="none" x="283.194091796875" y="378">de la</text><text fill="#000000" stroke="none" font-family="Arial" font-size="13px" font-style="normal" font-weight="normal" text-decoration="none" x="285.7236328125" y="391">Bdd</text></g></g><g transform="translate(-54,-142) scale(1,1)"><path fill="none" stroke="#000000" d="M 255 182 L 376 182" stroke-miterlimit="10"/></g><g transform="translate(-54,-142) scale(1,1)"><path fill="#000000" stroke="none" d="M 365.83732514237585 186.209517756016 L 376 182 L 365.83732514237585 177.790482243984"/></g><g transform="translate(-54,-142) scale(1,1)"><path fill="none" stroke="#000000" d="M 365.83732514237585 186.209517756016 L 376 182 L 365.83732514237585 177.790482243984 L 365.83732514237585 186.209517756016" stroke-miterlimit="10"/></g><g transform="translate(-54,-142) scale(1,1)"><path fill="none" stroke="#000000" d="M 444 210 L 444 232" stroke-miterlimit="10"/></g><g transform="translate(-54,-142) scale(1,1)"><path fill="#000000" stroke="none" d="M 439.790482243984 221.83732514237585 L 444 232 L 448.209517756016 221.83732514237585"/></g><g transform="translate(-54,-142) scale(1,1)"><path fill="none" stroke="#000000" d="M 439.790482243984 221.83732514237585 L 444 232 L 448.209517756016 221.83732514237585 L 439.790482243984 221.83732514237585" stroke-miterlimit="10"/></g><g transform="translate(-54,-142) scale(1,1)"><path fill="none" stroke="#000000" d="M 414 278 L 340 337" stroke-miterlimit="10"/></g><g transform="translate(-54,-142) scale(1,1)"><path fill="#000000" stroke="none" d="M 345.321944094879 327.3731151948835 L 340 337 L 350.57041828598426 333.955947231185"/></g><g transform="translate(-54,-142) scale(1,1)"><path fill="none" stroke="#000000" d="M 345.321944094879 327.3731151948835 L 340 337 L 350.57041828598426 333.955947231185 L 345.321944094879 327.3731151948835" stroke-miterlimit="10"/></g><g transform="translate(-54,-142) scale(1,1)"><path fill="none" stroke="#000000" d="M 441 278 L 435 335" stroke-miterlimit="10"/></g><g transform="translate(-54,-142) scale(1,1)"><path fill="#000000" stroke="none" d="M 431.87748906506994 324.4524919786121 L 435 335 L 440.2502657901247 325.3338368970389"/></g><g transform="translate(-54,-142) scale(1,1)"><path fill="none" stroke="#000000" d="M 431.87748906506994 324.4524919786121 L 435 335 L 440.2502657901247 325.3338368970389 L 431.87748906506994 324.4524919786121" stroke-miterlimit="10"/></g><g transform="translate(-54,-142) scale(1,1)"><path fill="none" stroke="#000000" d="M 468 278 L 525 335" stroke-miterlimit="10"/></g><g transform="translate(-54,-142) scale(1,1)"><path fill="#000000" stroke="none" d="M 514.8373251423758 330.790482243984 L 525 335 L 520.790482243984 324.83732514237585"/></g><g transform="translate(-54,-142) scale(1,1)"><path fill="none" stroke="#000000" d="M 514.8373251423758 330.790482243984 L 525 335 L 520.790482243984 324.83732514237585 L 514.8373251423758 330.790482243984" stroke-miterlimit="10"/></g><g transform="translate(-54,-142) scale(1,1)"><path fill="none" stroke="#000000" d="M 256 371 L 184 371" stroke-miterlimit="10"/></g><g transform="translate(-54,-142) scale(1,1)"><path fill="#000000" stroke="none" d="M 194.16267485762415 366.790482243984 L 184 371 L 194.16267485762415 375.209517756016"/></g><g transform="translate(-54,-142) scale(1,1)"><path fill="none" stroke="#000000" d="M 194.16267485762415 366.790482243984 L 184 371 L 194.16267485762415 375.209517756016 L 194.16267485762415 366.790482243984" stroke-miterlimit="10"/></g><g transform="translate(-54,-142) scale(1,1)"><rect fill="#ddc8c3" stroke="none" x="360" y="448" width="136.06982421875" height="63"/></g><g transform="translate(-54,-142) scale(1,1)"><path fill="none" stroke="#000000" d="M 360 448 L 496.06982421875 448 L 496.06982421875 511 L 360 511 L 360 448 Z Z" stroke-miterlimit="10"/></g><g transform="translate(-54,-142) scale(1,1)"><path fill="none" stroke="#000000" d="M 365 448 L 365 511" stroke-miterlimit="10"/></g><g transform="translate(-54,-142) scale(1,1)"><path fill="none" stroke="#000000" d="M 491.06982421875 448 L 491.06982421875 511" stroke-miterlimit="10"/></g><g transform="translate(-54,-142) scale(1,1)"><g><path fill="none" stroke="none"/><text fill="#000000" stroke="none" font-family="Arial" font-size="13px" font-style="normal" font-weight="normal" text-decoration="none" x="396.93359375" y="470.5">Ventiler Par</text><text fill="#000000" stroke="none" font-family="Arial" font-size="13px" font-style="normal" font-weight="normal" text-decoration="none" x="375.25" y="483.5">Section Homogène</text></g></g><g transform="translate(-54,-142) scale(1,1)"><path fill="none" stroke="#000000" d="M 360 864 L 360 833" stroke-miterlimit="10"/></g><g transform="translate(-54,-142) scale(1,1)"><path fill="#000000" stroke="none" d="M 364.209517756016 843.1626748576241 L 360 833 L 355.790482243984 843.1626748576241"/></g><g transform="translate(-54,-142) scale(1,1)"><path fill="none" stroke="#000000" d="M 364.209517756016 843.1626748576241 L 360 833 L 355.790482243984 843.1626748576241 L 364.209517756016 843.1626748576241" stroke-miterlimit="10"/></g><g transform="translate(-54,-142) scale(1,1)"><g><path fill="none" stroke="none"/><text fill="#000000" stroke="none" font-family="Arial" font-size="13px" font-style="normal" font-weight="normal" text-decoration="none" x="333.5" y="853.5">Non</text></g></g><g transform="translate(-54,-142) scale(1,1)"><path fill="none" stroke="#000000" d="M 430 407 L 430 448" stroke-miterlimit="10"/></g><g transform="translate(-54,-142) scale(1,1)"><path fill="#000000" stroke="none" d="M 425.790482243984 437.83732514237585 L 430 448 L 434.209517756016 437.83732514237585"/></g><g transform="translate(-54,-142) scale(1,1)"><path fill="none" stroke="#000000" d="M 425.790482243984 437.83732514237585 L 430 448 L 434.209517756016 437.83732514237585 L 425.790482243984 437.83732514237585" stroke-miterlimit="10"/></g><g transform="translate(-54,-142) scale(1,1)"><path fill="none" stroke="#000000" d="M 496 478 L 560 478" stroke-miterlimit="10"/></g><g transform="translate(-54,-142) scale(1,1)"><path fill="#000000" stroke="none" d="M 549.8373251423759 482.209517756016 L 560 478 L 549.8373251423758 473.790482243984"/></g><g transform="translate(-54,-142) scale(1,1)"><path fill="none" stroke="#000000" d="M 549.8373251423759 482.209517756016 L 560 478 L 549.8373251423758 473.790482243984 L 549.8373251423759 482.209517756016" stroke-miterlimit="10"/></g><g transform="translate(-54,-142) scale(1,1)"><path fill="none" stroke="#000000" d="M 360 478 L 256 478" stroke-miterlimit="10"/></g><g transform="translate(-54,-142) scale(1,1)"><path fill="#000000" stroke="none" d="M 266.16267485762415 473.790482243984 L 256 478 L 266.16267485762415 482.209517756016"/></g><g transform="translate(-54,-142) scale(1,1)"><path fill="none" stroke="#000000" d="M 266.16267485762415 473.790482243984 L 256 478 L 266.16267485762415 482.209517756016 L 266.16267485762415 473.790482243984" stroke-miterlimit="10"/></g><g transform="translate(-54,-142) scale(1,1)"><path fill="none" stroke="#000000" d="M 120 728 L 120 506" stroke-miterlimit="10"/></g><g transform="translate(-54,-142) scale(1,1)"><path fill="#000000" stroke="none" d="M 124.20951775601598 516.1626748576241 L 120 506 L 115.79048224398402 516.1626748576241"/></g><g transform="translate(-54,-142) scale(1,1)"><path fill="none" stroke="#000000" d="M 124.20951775601598 516.1626748576241 L 120 506 L 115.79048224398402 516.1626748576241 L 124.20951775601598 516.1626748576241" stroke-miterlimit="10"/></g><g transform="translate(-54,-142) scale(1,1)"><g><path fill="none" stroke="none"/><text fill="#000000" stroke="none" font-family="Arial" font-size="13px" font-style="normal" font-weight="normal" text-decoration="none" x="119.5" y="603.5">Comptages de référence</text></g></g><g transform="translate(-54,-142) scale(1,1)"><path fill="#dee7fe" stroke="none" d="M 381 984 L 487 984 L 466 1042 L 360 1042 L 381 984"/></g><g transform="translate(-54,-142) scale(1,1)"><path fill="none" stroke="#000000" d="M 381 984 L 487 984 L 466 1042 L 360 1042 L 381 984 L 381 984" stroke-miterlimit="10"/></g><g transform="translate(-54,-142) scale(1,1)"><g><path fill="none" stroke="none"/><text fill="#000000" stroke="none" font-family="Arial" font-size="13px" font-style="normal" font-weight="normal" text-decoration="none" x="390.260498046875" y="1006.5">Comptages</text><text fill="#000000" stroke="none" font-family="Arial" font-size="13px" font-style="normal" font-weight="normal" text-decoration="none" x="416.27001953125" y="1019.5">de</text><text fill="#000000" stroke="none" font-family="Arial" font-size="13px" font-style="normal" font-weight="normal" text-decoration="none" x="396.0400390625" y="1032.5">référence</text></g></g><g transform="translate(-54,-142) scale(1,1)"><path fill="#dee7fe" stroke="none" d="M 397 672 L 503 672 L 482 717 L 376 717 L 397 672"/></g><g transform="translate(-54,-142) scale(1,1)"><path fill="none" stroke="#000000" d="M 397 672 L 503 672 L 482 717 L 376 717 L 397 672 L 397 672" stroke-miterlimit="10"/></g><g transform="translate(-54,-142) scale(1,1)"><g><path fill="none" stroke="none"/><text fill="#000000" stroke="none" font-family="Arial" font-size="13px" font-style="normal" font-weight="normal" text-decoration="none" x="407.70458984375" y="694.5">comptages</text><text fill="#000000" stroke="none" font-family="Arial" font-size="13px" font-style="normal" font-weight="normal" text-decoration="none" x="414.2109375" y="707.5">associés</text></g></g><g transform="translate(-54,-142) scale(1,1)"><path fill="none" stroke="#000000" d="M 447 672 L 447 623" stroke-miterlimit="10"/></g><g transform="translate(-54,-142) scale(1,1)"><path fill="#000000" stroke="none" d="M 451.209517756016 633.1626748576241 L 447 623 L 442.790482243984 633.1626748576241"/></g><g transform="translate(-54,-142) scale(1,1)"><path fill="none" stroke="#000000" d="M 451.209517756016 633.1626748576241 L 447 623 L 442.790482243984 633.1626748576241 L 451.209517756016 633.1626748576241" stroke-miterlimit="10"/></g><g transform="translate(-54,-142) scale(1,1)"><path fill="none" stroke="#000000" d="M 120 728 L 120 600 M 120 600 A 8 8 0 0 0 112 592 L 72 592 M 72 592 A 8 8 0 0 1 64 584 L 64 376 M 64 376 A 8 8 0 0 1 72 368 L 96 368" stroke-miterlimit="10"/></g><g transform="translate(-54,-142) scale(1,1)"><path fill="#000000" stroke="none" d="M 85.83732514237585 372.209517756016 L 96 368 L 85.83732514237585 363.790482243984"/></g><g transform="translate(-54,-142) scale(1,1)"><path fill="none" stroke="#000000" d="M 85.83732514237585 372.209517756016 L 96 368 L 85.83732514237585 363.790482243984 L 85.83732514237585 372.209517756016" stroke-miterlimit="10"/></g></g></svg>