<svg version="1.1" xmlns="http://www.w3.org/2000/svg" xmlns:xlink="http://www.w3.org/1999/xlink" width="1135.1162109375" height="1165"><defs/><g><g transform="translate(-126,-102) scale(1,1)"><path fill="#dee7fe" stroke="none" d="M 697 112 L 783 112 L 766 157 L 680 157 L 697 112"/></g><g transform="translate(-126,-102) scale(1,1)"><path fill="none" stroke="#000000" d="M 697 112 L 783 112 L 766 157 L 680 157 L 697 112 L 697 112" stroke-miterlimit="10"/></g><g transform="translate(-126,-102) scale(1,1)"><g><path fill="none" stroke="none"/><text fill="#000000" stroke="none" font-family="Arial" font-size="13px" font-style="normal" font-weight="normal" text-decoration="none" x="706.56005859375" y="134.5">donnees</text><text fill="#000000" stroke="none" font-family="Arial" font-size="13px" font-style="normal" font-weight="normal" text-decoration="none" x="696.08642578125" y="147.5">gestionnaire</text></g></g><g transform="translate(-126,-102) scale(1,1)"><path fill="#9acef6" stroke="none" d="M 421.5 464 L 506.5 464 Q 536 464 536 493.5 L 536 492.5 Q 536 522 506.5 522 L 421.5 522 Q 392 522 392 492.5 L 392 493.5 Q 392 464 421.5 464 Z"/></g><g transform="translate(-126,-102) scale(1,1)"><path fill="none" stroke="#000000" d="M 421.5 464 L 506.5 464 Q 536 464 536 493.5 L 536 492.5 Q 536 522 506.5 522 L 421.5 522 Q 392 522 392 492.5 L 392 493.5 Q 392 464 421.5 464 Z" stroke-miterlimit="10"/></g><g transform="translate(-126,-102) scale(1,1)"><g><path fill="none" stroke="none"/><text fill="#000000" stroke="none" font-family="Arial" font-size="13px" font-style="normal" font-weight="normal" text-decoration="none" x="426.983642578125" y="486.5">creation d'un</text><text fill="#000000" stroke="none" font-family="Arial" font-size="13px" font-style="normal" font-weight="normal" text-decoration="none" x="404.557373046875" y="499.5">nouveau compteur +</text><text fill="#000000" stroke="none" font-family="Arial" font-size="13px" font-style="normal" font-weight="normal" text-decoration="none" x="411.06689453125" y="512.5">comptage + Indics</text></g></g><g transform="translate(-126,-102) scale(1,1)"><path fill="#9acef6" stroke="none" d="M 412 352 L 427.63720703125 352 Q 463.63720703125 352 463.63720703125 388 L 463.63720703125 387 Q 463.63720703125 423 427.63720703125 423 L 412 423 Q 376 423 376 387 L 376 388 Q 376 352 412 352 Z"/></g><g transform="translate(-126,-102) scale(1,1)"><path fill="none" stroke="#000000" d="M 412 352 L 427.63720703125 352 Q 463.63720703125 352 463.63720703125 388 L 463.63720703125 387 Q 463.63720703125 423 427.63720703125 423 L 412 423 Q 376 423 376 387 L 376 388 Q 376 352 412 352 Z" stroke-miterlimit="10"/></g><g transform="translate(-126,-102) scale(1,1)"><g><path fill="none" stroke="none"/><text fill="#000000" stroke="none" font-family="Arial" font-size="13px" font-style="normal" font-weight="normal" text-decoration="none" x="387.658203125" y="374.5">creation de</text><text fill="#000000" stroke="none" font-family="Arial" font-size="13px" font-style="normal" font-weight="normal" text-decoration="none" x="388.023193359375" y="387.5">comptages</text><text fill="#000000" stroke="none" font-family="Arial" font-size="13px" font-style="normal" font-weight="normal" text-decoration="none" x="414.397705078125" y="400.5">et</text><text fill="#000000" stroke="none" font-family="Arial" font-size="13px" font-style="normal" font-weight="normal" text-decoration="none" x="388.385009765625" y="413.5">indicateurs</text></g></g><g transform="translate(-126,-102) scale(1,1)"><rect fill="#ddc8c3" stroke="none" x="840" y="464" width="136.06982421875" height="58"/></g><g transform="translate(-126,-102) scale(1,1)"><path fill="none" stroke="#000000" d="M 840 464 L 976.06982421875 464 L 976.06982421875 522 L 840 522 L 840 464 Z Z" stroke-miterlimit="10"/></g><g transform="translate(-126,-102) scale(1,1)"><path fill="none" stroke="#000000" d="M 845 464 L 845 522" stroke-miterlimit="10"/></g><g transform="translate(-126,-102) scale(1,1)"><path fill="none" stroke="#000000" d="M 971.06982421875 464 L 971.06982421875 522" stroke-miterlimit="10"/></g><g transform="translate(-126,-102) scale(1,1)"><g><path fill="none" stroke="none"/><text fill="#000000" stroke="none" font-family="Arial" font-size="13px" font-style="normal" font-weight="normal" text-decoration="none" x="880.5390625" y="486.5">Ventilation</text><text fill="#000000" stroke="none" font-family="Arial" font-size="13px" font-style="normal" font-weight="normal" text-decoration="none" x="881.265869140625" y="499.5">Nouveaux</text><text fill="#000000" stroke="none" font-family="Arial" font-size="13px" font-style="normal" font-weight="normal" text-decoration="none" x="877.29541015625" y="512.5">Comptages</text></g></g><g transform="translate(-126,-102) scale(1,1)"><path fill="#dee7fe" stroke="none" d="M 1128 664 L 1251.1162109375 664 L 1227.1162109375 722 L 1104 722 L 1128 664"/></g><g transform="translate(-126,-102) scale(1,1)"><path fill="none" stroke="#000000" d="M 1128 664 L 1251.1162109375 664 L 1227.1162109375 722 L 1104 722 L 1128 664 L 1128 664" stroke-miterlimit="10"/></g><g transform="translate(-126,-102) scale(1,1)"><g><path fill="none" stroke="none"/><text fill="#000000" stroke="none" font-family="Arial" font-size="13px" font-style="normal" font-weight="normal" text-decoration="none" x="1129.5" y="680">Correspondance</text><text fill="#000000" stroke="none" font-family="Arial" font-size="13px" font-style="normal" font-weight="normal" text-decoration="none" x="1144.877197265625" y="693">d'identifiant</text><text fill="#000000" stroke="none" font-family="Arial" font-size="13px" font-style="normal" font-weight="normal" text-decoration="none" x="1170.328125" y="706">de</text><text fill="#000000" stroke="none" font-family="Arial" font-size="13px" font-style="normal" font-weight="normal" text-decoration="none" x="1145.7626953125" y="719">comptages</text></g></g><g transform="translate(-126,-102) scale(1,1)"><path fill="#dee7fe" stroke="none" d="M 944 664 L 1104 664 L 1072 722 L 912 722 L 944 664"/></g><g transform="translate(-126,-102) scale(1,1)"><path fill="none" stroke="#000000" d="M 944 664 L 1104 664 L 1072 722 L 912 722 L 944 664 L 944 664" stroke-miterlimit="10"/></g><g transform="translate(-126,-102) scale(1,1)"><g><path fill="none" stroke="none"/><text fill="#000000" stroke="none" font-family="Arial" font-size="13px" font-style="normal" font-weight="normal" text-decoration="none" x="981.98095703125" y="686.5">Nouveau</text><text fill="#000000" stroke="none" font-family="Arial" font-size="13px" font-style="normal" font-weight="normal" text-decoration="none" x="956.688720703125" y="699.5">comptage devient</text><text fill="#000000" stroke="none" font-family="Arial" font-size="13px" font-style="normal" font-weight="normal" text-decoration="none" x="985.9609375" y="712.5">associé</text></g></g><g transform="translate(-126,-102) scale(1,1)"><path fill="#dee7fe" stroke="none" d="M 469 656 L 736 656 L 683 714 L 416 714 L 469 656"/></g><g transform="translate(-126,-102) scale(1,1)"><path fill="none" stroke="#000000" d="M 469 656 L 736 656 L 683 714 L 416 714 L 469 656 L 469 656" stroke-miterlimit="10"/></g><g transform="translate(-126,-102) scale(1,1)"><g><path fill="none" stroke="none"/><text fill="#000000" stroke="none" font-family="Arial" font-size="13px" font-style="normal" font-weight="normal" text-decoration="none" x="496.86376953125" y="678.5">Nouveau comptage devient</text><text fill="#000000" stroke="none" font-family="Arial" font-size="13px" font-style="normal" font-weight="normal" text-decoration="none" x="486.767822265625" y="691.5">référence (création compteur) ;</text><text fill="#000000" stroke="none" font-family="Arial" font-size="13px" font-style="normal" font-weight="normal" text-decoration="none" x="506.98828125" y="704.5">existant devient associé</text></g></g><g transform="translate(-126,-102) scale(1,1)"><path fill="#dee7fe" stroke="none" d="M 746 664 L 920 664 L 886 722 L 712 722 L 746 664"/></g><g transform="translate(-126,-102) scale(1,1)"><path fill="none" stroke="#000000" d="M 746 664 L 920 664 L 886 722 L 712 722 L 746 664 L 746 664" stroke-miterlimit="10"/></g><g transform="translate(-126,-102) scale(1,1)"><g><path fill="none" stroke="none"/><text fill="#000000" stroke="none" font-family="Arial" font-size="13px" font-style="normal" font-weight="normal" text-decoration="none" x="759.629638671875" y="686.5">Nouveau comptage</text><text fill="#000000" stroke="none" font-family="Arial" font-size="13px" font-style="normal" font-weight="normal" text-decoration="none" x="768.294189453125" y="699.5">devient nouveau</text><text fill="#000000" stroke="none" font-family="Arial" font-size="13px" font-style="normal" font-weight="normal" text-decoration="none" x="788.905029296875" y="712.5">compteur</text></g></g><g transform="translate(-126,-102) scale(1,1)"><rect fill="#ddc8c3" stroke="none" x="656" y="248" width="136.06982421875" height="45"/></g><g transform="translate(-126,-102) scale(1,1)"><path fill="none" stroke="#000000" d="M 656 248 L 792.06982421875 248 L 792.06982421875 293 L 656 293 L 656 248 Z Z" stroke-miterlimit="10"/></g><g transform="translate(-126,-102) scale(1,1)"><path fill="none" stroke="#000000" d="M 661 248 L 661 293" stroke-miterlimit="10"/></g><g transform="translate(-126,-102) scale(1,1)"><path fill="none" stroke="#000000" d="M 787.06982421875 248 L 787.06982421875 293" stroke-miterlimit="10"/></g><g transform="translate(-126,-102) scale(1,1)"><g><path fill="none" stroke="none"/><text fill="#000000" stroke="none" font-family="Arial" font-size="13px" font-style="normal" font-weight="normal" text-decoration="none" x="684.253173828125" y="270.5">Ventilation des</text><text fill="#000000" stroke="none" font-family="Arial" font-size="13px" font-style="normal" font-weight="normal" text-decoration="none" x="673.424072265625" y="283.5">compteurs connus</text></g></g><g transform="translate(-126,-102) scale(1,1)"><path fill="none" stroke="#000000" d="M 872 522 L 872 568 M 872 568 A 8 8 0 0 1 864 576 L 664 576 M 664 576 A 8 8 0 0 0 656 584 L 656 656" stroke-miterlimit="10"/></g><g transform="translate(-126,-102) scale(1,1)"><path fill="#000000" stroke="none" d="M 651.790482243984 645.8373251423759 L 656 656 L 660.209517756016 645.8373251423759"/></g><g transform="translate(-126,-102) scale(1,1)"><path fill="none" stroke="#000000" d="M 651.790482243984 645.8373251423759 L 656 656 L 660.209517756016 645.8373251423759 L 651.790482243984 645.8373251423759" stroke-miterlimit="10"/></g><g transform="translate(-126,-102) scale(1,1)"><path fill="none" stroke="#000000" d="M 872 522 L 872 664" stroke-miterlimit="10"/></g><g transform="translate(-126,-102) scale(1,1)"><path fill="#000000" stroke="none" d="M 867.790482243984 653.8373251423759 L 872 664 L 876.209517756016 653.8373251423759"/></g><g transform="translate(-126,-102) scale(1,1)"><path fill="none" stroke="#000000" d="M 867.790482243984 653.8373251423759 L 872 664 L 876.209517756016 653.8373251423759 L 867.790482243984 653.8373251423759" stroke-miterlimit="10"/></g><g transform="translate(-126,-102) scale(1,1)"><path fill="none" stroke="#000000" d="M 872 522 L 872 568 M 872 568 A 8 8 0 0 0 880 576 L 992 576 M 992 576 A 8 8 0 0 1 1000 584 L 1000 664" stroke-miterlimit="10"/></g><g transform="translate(-126,-102) scale(1,1)"><path fill="#000000" stroke="none" d="M 995.790482243984 653.8373251423759 L 1000 664 L 1004.209517756016 653.8373251423759"/></g><g transform="translate(-126,-102) scale(1,1)"><path fill="none" stroke="#000000" d="M 995.790482243984 653.8373251423759 L 1000 664 L 1004.209517756016 653.8373251423759 L 995.790482243984 653.8373251423759" stroke-miterlimit="10"/></g><g transform="translate(-126,-102) scale(1,1)"><path fill="none" stroke="#000000" d="M 872 522 L 872 568 M 872 568 A 8 8 0 0 0 880 576 L 1160 576 M 1160 576 A 8 8 0 0 1 1168 584 L 1168 664" stroke-miterlimit="10"/></g><g transform="translate(-126,-102) scale(1,1)"><path fill="#000000" stroke="none" d="M 1163.7904822439841 653.8373251423759 L 1168 664 L 1172.2095177560159 653.8373251423759"/></g><g transform="translate(-126,-102) scale(1,1)"><path fill="none" stroke="#000000" d="M 1163.7904822439841 653.8373251423759 L 1168 664 L 1172.2095177560159 653.8373251423759 L 1163.7904822439841 653.8373251423759" stroke-miterlimit="10"/></g><g transform="translate(-126,-102) scale(1,1)"><rect fill="#fff07c" stroke="none" x="704" y="776" width="183" height="32"/></g><g transform="translate(-126,-102) scale(1,1)"><path fill="none" stroke="#000000" d="M 704 776 L 887 776 L 887 808 L 704 808 L 704 776 Z Z" stroke-miterlimit="10"/></g><g transform="translate(-126,-102) scale(1,1)"><g><path fill="none" stroke="none"/><text fill="#000000" stroke="none" font-family="Arial" font-size="13px" font-style="normal" font-weight="normal" text-decoration="none" x="736.247802734375" y="798.5">vérification manuelle</text></g></g><g transform="translate(-126,-102) scale(1,1)"><path fill="#dee7fe" stroke="none" d="M 453 840 L 720 840 L 667 898 L 400 898 L 453 840"/></g><g transform="translate(-126,-102) scale(1,1)"><path fill="none" stroke="#000000" d="M 453 840 L 720 840 L 667 898 L 400 898 L 453 840 L 453 840" stroke-miterlimit="10"/></g><g transform="translate(-126,-102) scale(1,1)"><g><path fill="none" stroke="none"/><text fill="#000000" stroke="none" font-family="Arial" font-size="13px" font-style="normal" font-weight="normal" text-decoration="none" x="480.86376953125" y="862.5">Nouveau comptage devient</text><text fill="#000000" stroke="none" font-family="Arial" font-size="13px" font-style="normal" font-weight="normal" text-decoration="none" x="470.767822265625" y="875.5">référence (création compteur) ;</text><text fill="#000000" stroke="none" font-family="Arial" font-size="13px" font-style="normal" font-weight="normal" text-decoration="none" x="490.98828125" y="888.5">existant devient associé</text></g></g><g transform="translate(-126,-102) scale(1,1)"><path fill="#dee7fe" stroke="none" d="M 737 840 L 904 840 L 871 898 L 704 898 L 737 840"/></g><g transform="translate(-126,-102) scale(1,1)"><path fill="none" stroke="#000000" d="M 737 840 L 904 840 L 871 898 L 704 898 L 737 840 L 737 840" stroke-miterlimit="10"/></g><g transform="translate(-126,-102) scale(1,1)"><g><path fill="none" stroke="none"/><text fill="#000000" stroke="none" font-family="Arial" font-size="13px" font-style="normal" font-weight="normal" text-decoration="none" x="747.629638671875" y="862.5">Nouveau comptage</text><text fill="#000000" stroke="none" font-family="Arial" font-size="13px" font-style="normal" font-weight="normal" text-decoration="none" x="756.294189453125" y="875.5">devient nouveau</text><text fill="#000000" stroke="none" font-family="Arial" font-size="13px" font-style="normal" font-weight="normal" text-decoration="none" x="776.905029296875" y="888.5">compteur</text></g></g><g transform="translate(-126,-102) scale(1,1)"><path fill="#dee7fe" stroke="none" d="M 925 840 L 1072 840 L 1043 898 L 896 898 L 925 840"/></g><g transform="translate(-126,-102) scale(1,1)"><path fill="none" stroke="#000000" d="M 925 840 L 1072 840 L 1043 898 L 896 898 L 925 840 L 925 840" stroke-miterlimit="10"/></g><g transform="translate(-126,-102) scale(1,1)"><g><path fill="none" stroke="none"/><text fill="#000000" stroke="none" font-family="Arial" font-size="13px" font-style="normal" font-weight="normal" text-decoration="none" x="957.98095703125" y="862.5">Nouveau</text><text fill="#000000" stroke="none" font-family="Arial" font-size="13px" font-style="normal" font-weight="normal" text-decoration="none" x="955.45458984375" y="875.5">comptage</text><text fill="#000000" stroke="none" font-family="Arial" font-size="13px" font-style="normal" font-weight="normal" text-decoration="none" x="939.195068359375" y="888.5">devient associé</text></g></g><g transform="translate(-126,-102) scale(1,1)"><path fill="#dee7fe" stroke="none" d="M 1101 840 L 1248 840 L 1219 898 L 1072 898 L 1101 840"/></g><g transform="translate(-126,-102) scale(1,1)"><path fill="none" stroke="#000000" d="M 1101 840 L 1248 840 L 1219 898 L 1072 898 L 1101 840 L 1101 840" stroke-miterlimit="10"/></g><g transform="translate(-126,-102) scale(1,1)"><g><path fill="none" stroke="none"/><text fill="#000000" stroke="none" font-family="Arial" font-size="13px" font-style="normal" font-weight="normal" text-decoration="none" x="1111.94189453125" y="862.5">Correspondance</text><text fill="#000000" stroke="none" font-family="Arial" font-size="13px" font-style="normal" font-weight="normal" text-decoration="none" x="1118.283203125" y="875.5">d'identifiant de</text><text fill="#000000" stroke="none" font-family="Arial" font-size="13px" font-style="normal" font-weight="normal" text-decoration="none" x="1128.20458984375" y="888.5">comptages</text></g></g><g transform="translate(-126,-102) scale(1,1)"><path fill="none" stroke="#000000" d="M 660 714 L 660 736 M 660 736 A 8 8 0 0 0 668 744 L 768 744 M 768 744 A 8 8 0 0 1 776 752 L 776 776" stroke-miterlimit="10"/></g><g transform="translate(-126,-102) scale(1,1)"><path fill="#000000" stroke="none" d="M 771.790482243984 765.8373251423759 L 776 776 L 780.209517756016 765.8373251423759"/></g><g transform="translate(-126,-102) scale(1,1)"><path fill="none" stroke="#000000" d="M 771.790482243984 765.8373251423759 L 776 776 L 780.209517756016 765.8373251423759 L 771.790482243984 765.8373251423759" stroke-miterlimit="10"/></g><g transform="translate(-126,-102) scale(1,1)"><path fill="none" stroke="#000000" d="M 776 722 L 776 776" stroke-miterlimit="10"/></g><g transform="translate(-126,-102) scale(1,1)"><path fill="#000000" stroke="none" d="M 771.790482243984 765.8373251423759 L 776 776 L 780.209517756016 765.8373251423759"/></g><g transform="translate(-126,-102) scale(1,1)"><path fill="none" stroke="#000000" d="M 771.790482243984 765.8373251423759 L 776 776 L 780.209517756016 765.8373251423759 L 771.790482243984 765.8373251423759" stroke-miterlimit="10"/></g><g transform="translate(-126,-102) scale(1,1)"><path fill="none" stroke="#000000" d="M 946 722 L 946 736 M 946 736 A 8 8 0 0 1 938 744 L 784 744 M 784 744 A 8 8 0 0 0 776 752 L 776 776" stroke-miterlimit="10"/></g><g transform="translate(-126,-102) scale(1,1)"><path fill="#000000" stroke="none" d="M 771.790482243984 765.8373251423759 L 776 776 L 780.209517756016 765.8373251423759"/></g><g transform="translate(-126,-102) scale(1,1)"><path fill="none" stroke="#000000" d="M 771.790482243984 765.8373251423759 L 776 776 L 780.209517756016 765.8373251423759 L 771.790482243984 765.8373251423759" stroke-miterlimit="10"/></g><g transform="translate(-126,-102) scale(1,1)"><path fill="none" stroke="#000000" d="M 1104 722 L 1104 736 M 1104 736 A 8 8 0 0 1 1096 744 L 784 744 M 784 744 A 8 8 0 0 0 776 752 L 776 776" stroke-miterlimit="10"/></g><g transform="translate(-126,-102) scale(1,1)"><path fill="#000000" stroke="none" d="M 771.790482243984 765.8373251423759 L 776 776 L 780.209517756016 765.8373251423759"/></g><g transform="translate(-126,-102) scale(1,1)"><path fill="none" stroke="#000000" d="M 771.790482243984 765.8373251423759 L 776 776 L 780.209517756016 765.8373251423759 L 771.790482243984 765.8373251423759" stroke-miterlimit="10"/></g><g transform="translate(-126,-102) scale(1,1)"><path fill="none" stroke="#000000" d="M 776 808 L 776 816 M 776 816 A 8 8 0 0 1 768 824 L 640 824 M 640 824 A 8 8 0 0 0 632 832 L 632 840" stroke-miterlimit="10"/></g><g transform="translate(-126,-102) scale(1,1)"><path fill="#000000" stroke="none" d="M 627.790482243984 829.8373251423759 L 632 840 L 636.209517756016 829.8373251423759"/></g><g transform="translate(-126,-102) scale(1,1)"><path fill="none" stroke="#000000" d="M 627.790482243984 829.8373251423759 L 632 840 L 636.209517756016 829.8373251423759 L 627.790482243984 829.8373251423759" stroke-miterlimit="10"/></g><g transform="translate(-126,-102) scale(1,1)"><path fill="none" stroke="#000000" d="M 776 808 L 776 840" stroke-miterlimit="10"/></g><g transform="translate(-126,-102) scale(1,1)"><path fill="#000000" stroke="none" d="M 771.790482243984 829.8373251423759 L 776 840 L 780.209517756016 829.8373251423759"/></g><g transform="translate(-126,-102) scale(1,1)"><path fill="none" stroke="#000000" d="M 771.790482243984 829.8373251423759 L 776 840 L 780.209517756016 829.8373251423759 L 771.790482243984 829.8373251423759" stroke-miterlimit="10"/></g><g transform="translate(-126,-102) scale(1,1)"><path fill="none" stroke="#000000" d="M 776 808 L 776 816 M 776 816 A 8 8 0 0 0 784 824 L 944 824 M 944 824 A 8 8 0 0 1 952 832 L 952 840" stroke-miterlimit="10"/></g><g transform="translate(-126,-102) scale(1,1)"><path fill="#000000" stroke="none" d="M 947.790482243984 829.8373251423759 L 952 840 L 956.209517756016 829.8373251423759"/></g><g transform="translate(-126,-102) scale(1,1)"><path fill="none" stroke="#000000" d="M 947.790482243984 829.8373251423759 L 952 840 L 956.209517756016 829.8373251423759 L 947.790482243984 829.8373251423759" stroke-miterlimit="10"/></g><g transform="translate(-126,-102) scale(1,1)"><path fill="none" stroke="#000000" d="M 776 808 L 776 816 M 776 816 A 8 8 0 0 0 784 824 L 1120 824 M 1120 824 A 8 8 0 0 1 1128 832 L 1128 840" stroke-miterlimit="10"/></g><g transform="translate(-126,-102) scale(1,1)"><path fill="#000000" stroke="none" d="M 1123.7904822439841 829.8373251423759 L 1128 840 L 1132.2095177560159 829.8373251423759"/></g><g transform="translate(-126,-102) scale(1,1)"><path fill="none" stroke="#000000" d="M 1123.7904822439841 829.8373251423759 L 1128 840 L 1132.2095177560159 829.8373251423759 L 1123.7904822439841 829.8373251423759" stroke-miterlimit="10"/></g><g transform="translate(-126,-102) scale(1,1)"><path fill="#9acef6" stroke="none" d="M 615 944 L 672 944 Q 695 944 695 967 L 695 966 Q 695 989 672 989 L 615 989 Q 592 989 592 966 L 592 967 Q 592 944 615 944 Z"/></g><g transform="translate(-126,-102) scale(1,1)"><path fill="none" stroke="#000000" d="M 615 944 L 672 944 Q 695 944 695 967 L 695 966 Q 695 989 672 989 L 615 989 Q 592 989 592 966 L 592 967 Q 592 944 615 944 Z" stroke-miterlimit="10"/></g><g transform="translate(-126,-102) scale(1,1)"><g><path fill="none" stroke="none"/><text fill="#000000" stroke="none" font-family="Arial" font-size="13px" font-style="normal" font-weight="normal" text-decoration="none" x="611.70458984375" y="966.5">comptages</text><text fill="#000000" stroke="none" font-family="Arial" font-size="13px" font-style="normal" font-weight="normal" text-decoration="none" x="618.2109375" y="979.5">associés</text></g></g><g transform="translate(-126,-102) scale(1,1)"><path fill="#9acef6" stroke="none" d="M 911 944 L 976 944 Q 999 944 999 967 L 999 966 Q 999 989 976 989 L 911 989 Q 888 989 888 966 L 888 967 Q 888 944 911 944 Z"/></g><g transform="translate(-126,-102) scale(1,1)"><path fill="none" stroke="#000000" d="M 911 944 L 976 944 Q 999 944 999 967 L 999 966 Q 999 989 976 989 L 911 989 Q 888 989 888 966 L 888 967 Q 888 944 911 944 Z" stroke-miterlimit="10"/></g><g transform="translate(-126,-102) scale(1,1)"><g><path fill="none" stroke="none"/><text fill="#000000" stroke="none" font-family="Arial" font-size="13px" font-style="normal" font-weight="normal" text-decoration="none" x="902.668701171875" y="966.5">comptages de</text><text fill="#000000" stroke="none" font-family="Arial" font-size="13px" font-style="normal" font-weight="normal" text-decoration="none" x="916.0400390625" y="979.5">référence</text></g></g><g transform="translate(-126,-102) scale(1,1)"><path fill="none" stroke="#000000" d="M 604 898 L 604 944" stroke-miterlimit="10"/></g><g transform="translate(-126,-102) scale(1,1)"><path fill="#000000" stroke="none" d="M 599.790482243984 933.8373251423759 L 604 944 L 608.209517756016 933.8373251423759"/></g><g transform="translate(-126,-102) scale(1,1)"><path fill="none" stroke="#000000" d="M 599.790482243984 933.8373251423759 L 604 944 L 608.209517756016 933.8373251423759 L 599.790482243984 933.8373251423759" stroke-miterlimit="10"/></g><g transform="translate(-126,-102) scale(1,1)"><path fill="none" stroke="#000000" d="M 600 898 L 600 912 M 600 912 A 8 8 0 0 0 608 920 L 912 920 M 912 920 A 8 8 0 0 1 920 928 L 920 944" stroke-miterlimit="10"/></g><g transform="translate(-126,-102) scale(1,1)"><path fill="#000000" stroke="none" d="M 915.790482243984 933.8373251423759 L 920 944 L 924.209517756016 933.8373251423759"/></g><g transform="translate(-126,-102) scale(1,1)"><path fill="none" stroke="#000000" d="M 915.790482243984 933.8373251423759 L 920 944 L 924.209517756016 933.8373251423759 L 915.790482243984 933.8373251423759" stroke-miterlimit="10"/></g><g transform="translate(-126,-102) scale(1,1)"><path fill="none" stroke="#000000" d="M 816 898 L 816 952 M 816 952 A 8 8 0 0 0 824 960 L 888 960" stroke-miterlimit="10"/></g><g transform="translate(-126,-102) scale(1,1)"><path fill="#000000" stroke="none" d="M 877.8373251423759 964.209517756016 L 888 960 L 877.8373251423758 955.790482243984"/></g><g transform="translate(-126,-102) scale(1,1)"><path fill="none" stroke="#000000" d="M 877.8373251423759 964.209517756016 L 888 960 L 877.8373251423758 955.790482243984 L 877.8373251423759 964.209517756016" stroke-miterlimit="10"/></g><g transform="translate(-126,-102) scale(1,1)"><path fill="none" stroke="#000000" d="M 944 898 L 944 904 M 944 904 A 8 8 0 0 1 936 912 L 664 912 M 664 912 A 8 8 0 0 0 656 920 L 656 944" stroke-miterlimit="10"/></g><g transform="translate(-126,-102) scale(1,1)"><path fill="#000000" stroke="none" d="M 651.790482243984 933.8373251423759 L 656 944 L 660.209517756016 933.8373251423759"/></g><g transform="translate(-126,-102) scale(1,1)"><path fill="none" stroke="#000000" d="M 651.790482243984 933.8373251423759 L 656 944 L 660.209517756016 933.8373251423759 L 651.790482243984 933.8373251423759" stroke-miterlimit="10"/></g><g transform="translate(-126,-102) scale(1,1)"><path fill="none" stroke="#000000" d="M 1095 898 L 1095 944" stroke-miterlimit="10"/></g><g transform="translate(-126,-102) scale(1,1)"><path fill="#000000" stroke="none" d="M 1090.7904822439841 933.8373251423759 L 1095 944 L 1099.2095177560159 933.8373251423759"/></g><g transform="translate(-126,-102) scale(1,1)"><path fill="none" stroke="#000000" d="M 1090.7904822439841 933.8373251423759 L 1095 944 L 1099.2095177560159 933.8373251423759 L 1090.7904822439841 933.8373251423759" stroke-miterlimit="10"/></g><g transform="translate(-126,-102) scale(1,1)"><path fill="#cce18d" stroke="none" d="M 152 1023.5 L 256 936 L 360 1023.5 L 256 1111 L 152 1023.5"/></g><g transform="translate(-126,-102) scale(1,1)"><path fill="none" stroke="#000000" d="M 152 1023.5 L 256 936 L 360 1023.5 L 256 1111 L 152 1023.5 L 152 1023.5" stroke-miterlimit="10"/></g><g transform="translate(-126,-102) scale(1,1)"><g><path fill="none" stroke="none"/><text fill="#000000" stroke="none" font-family="Arial" font-size="11px" font-style="normal" font-weight="normal" text-decoration="none" x="219.618896484375" y="990.5">le compteur de</text><text fill="#000000" stroke="none" font-family="Arial" font-size="11px" font-style="normal" font-weight="normal" text-decoration="none" x="206.77392578125" y="1001.5">référence interne au</text><text fill="#000000" stroke="none" font-family="Arial" font-size="11px" font-style="normal" font-weight="normal" text-decoration="none" x="234.89697265625" y="1012.5">données</text><text fill="#000000" stroke="none" font-family="Arial" font-size="11px" font-style="normal" font-weight="normal" text-decoration="none" x="209.52392578125" y="1023.5">gestionnaire est un</text><text fill="#000000" stroke="none" font-family="Arial" font-size="11px" font-style="normal" font-weight="normal" text-decoration="none" x="210.4423828125" y="1034.5">nouveau compteur</text><text fill="#000000" stroke="none" font-family="Arial" font-size="11px" font-style="normal" font-weight="normal" text-decoration="none" x="222.97314453125" y="1045.5">ou devient un</text><text fill="#000000" stroke="none" font-family="Arial" font-size="11px" font-style="normal" font-weight="normal" text-decoration="none" x="225.427734375" y="1056.5">compteur de</text><text fill="#000000" stroke="none" font-family="Arial" font-size="11px" font-style="normal" font-weight="normal" text-decoration="none" x="232.7646484375" y="1067.5">référence</text></g></g><g transform="translate(-126,-102) scale(1,1)"><path fill="none" stroke="#000000" d="M 944 989 L 944 1025 M 944 1025 A 8 8 0 0 1 936 1033 L 360 1033" stroke-miterlimit="10"/></g><g transform="translate(-126,-102) scale(1,1)"><path fill="#000000" stroke="none" d="M 370.16267485762415 1028.7904822439841 L 360 1033 L 370.16267485762415 1037.2095177560159"/></g><g transform="translate(-126,-102) scale(1,1)"><path fill="none" stroke="#000000" d="M 370.16267485762415 1028.7904822439841 L 360 1033 L 370.16267485762415 1037.2095177560159 L 370.16267485762415 1028.7904822439841" stroke-miterlimit="10"/></g><g transform="translate(-126,-102) scale(1,1)"><rect fill="#fff07c" stroke="none" x="328" y="1064" width="208" height="84"/></g><g transform="translate(-126,-102) scale(1,1)"><path fill="none" stroke="#000000" d="M 328 1064 L 536 1064 L 536 1148 L 328 1148 L 328 1064 Z Z" stroke-miterlimit="10"/></g><g transform="translate(-126,-102) scale(1,1)"><g><path fill="none" stroke="none"/><text fill="#000000" stroke="none" font-family="Arial" font-size="13px" font-style="normal" font-weight="normal" text-decoration="none" x="344.202392578125" y="1086.5">référencement des comptages</text><text fill="#000000" stroke="none" font-family="Arial" font-size="13px" font-style="normal" font-weight="normal" text-decoration="none" x="358.287841796875" y="1099.5">associés au comptage de</text><text fill="#000000" stroke="none" font-family="Arial" font-size="13px" font-style="normal" font-weight="normal" text-decoration="none" x="341.3046875" y="1112.5">référence interne des nouvelles</text><text fill="#000000" stroke="none" font-family="Arial" font-size="13px" font-style="normal" font-weight="normal" text-decoration="none" x="407.06005859375" y="1125.5">données</text></g></g><g transform="translate(-126,-102) scale(1,1)"><rect fill="#fff07c" stroke="none" x="328" y="1160" width="208" height="97"/></g><g transform="translate(-126,-102) scale(1,1)"><path fill="none" stroke="#000000" d="M 328 1160 L 536 1160 L 536 1257 L 328 1257 L 328 1160 Z Z" stroke-miterlimit="10"/></g><g transform="translate(-126,-102) scale(1,1)"><g><path fill="none" stroke="none"/><text fill="#000000" stroke="none" font-family="Arial" font-size="13px" font-style="normal" font-weight="normal" text-decoration="none" x="344.202392578125" y="1182.5">référencement des comptages</text><text fill="#000000" stroke="none" font-family="Arial" font-size="13px" font-style="normal" font-weight="normal" text-decoration="none" x="358.287841796875" y="1195.5">associés au comptage de</text><text fill="#000000" stroke="none" font-family="Arial" font-size="13px" font-style="normal" font-weight="normal" text-decoration="none" x="343.110595703125" y="1208.5">référence existant dans la bdd,</text><text fill="#000000" stroke="none" font-family="Arial" font-size="13px" font-style="normal" font-weight="normal" text-decoration="none" x="367.682373046875" y="1221.5">qui est la référence du</text><text fill="#000000" stroke="none" font-family="Arial" font-size="13px" font-style="normal" font-weight="normal" text-decoration="none" x="352.866943359375" y="1234.5">comptage de référence des</text><text fill="#000000" stroke="none" font-family="Arial" font-size="13px" font-style="normal" font-weight="normal" text-decoration="none" x="369.840576171875" y="1247.5">données gestionnaire</text></g></g><g transform="translate(-126,-102) scale(1,1)"><path fill="none" stroke="#000000" d="M 256 1111 L 256 1128 M 256 1128 A 8 8 0 0 0 264 1136 L 328 1136" stroke-miterlimit="10"/></g><g transform="translate(-126,-102) scale(1,1)"><path fill="#000000" stroke="none" d="M 317.83732514237585 1140.2095177560159 L 328 1136 L 317.83732514237585 1131.7904822439841"/></g><g transform="translate(-126,-102) scale(1,1)"><path fill="none" stroke="#000000" d="M 317.83732514237585 1140.2095177560159 L 328 1136 L 317.83732514237585 1131.7904822439841 L 317.83732514237585 1140.2095177560159" stroke-miterlimit="10"/></g><g transform="translate(-126,-102) scale(1,1)"><g><path fill="none" stroke="none"/><text fill="#000000" stroke="none" font-family="Arial" font-size="13px" font-style="normal" font-weight="normal" text-decoration="none" x="262.5" y="1124.5">Oui</text></g></g><g transform="translate(-126,-102) scale(1,1)"><path fill="none" stroke="#000000" d="M 536 1088 L 616 1088 M 616 1088 A 8 8 0 0 0 624 1080 L 624 989" stroke-miterlimit="10"/></g><g transform="translate(-126,-102) scale(1,1)"><path fill="#000000" stroke="none" d="M 628.209517756016 999.1626748576241 L 624 989 L 619.790482243984 999.1626748576241"/></g><g transform="translate(-126,-102) scale(1,1)"><path fill="none" stroke="#000000" d="M 628.209517756016 999.1626748576241 L 624 989 L 619.790482243984 999.1626748576241 L 628.209517756016 999.1626748576241" stroke-miterlimit="10"/></g><g transform="translate(-126,-102) scale(1,1)"><path fill="none" stroke="#000000" d="M 536 1208 L 615 1208 M 615 1208 A 8 8 0 0 0 623 1200 L 623 989" stroke-miterlimit="10"/></g><g transform="translate(-126,-102) scale(1,1)"><path fill="#000000" stroke="none" d="M 627.209517756016 999.1626748576241 L 623 989 L 618.790482243984 999.1626748576241"/></g><g transform="translate(-126,-102) scale(1,1)"><path fill="none" stroke="#000000" d="M 627.209517756016 999.1626748576241 L 623 989 L 618.790482243984 999.1626748576241 L 627.209517756016 999.1626748576241" stroke-miterlimit="10"/></g><g transform="translate(-126,-102) scale(1,1)"><rect fill="#ddc8c3" stroke="none" x="1064" y="944" width="136.06982421875" height="45"/></g><g transform="translate(-126,-102) scale(1,1)"><path fill="none" stroke="#000000" d="M 1064 944 L 1200.06982421875 944 L 1200.06982421875 989 L 1064 989 L 1064 944 Z Z" stroke-miterlimit="10"/></g><g transform="translate(-126,-102) scale(1,1)"><path fill="none" stroke="#000000" d="M 1069 944 L 1069 989" stroke-miterlimit="10"/></g><g transform="translate(-126,-102) scale(1,1)"><path fill="none" stroke="#000000" d="M 1195.06982421875 944 L 1195.06982421875 989" stroke-miterlimit="10"/></g><g transform="translate(-126,-102) scale(1,1)"><g><path fill="none" stroke="none"/><text fill="#000000" stroke="none" font-family="Arial" font-size="13px" font-style="normal" font-weight="normal" text-decoration="none" x="1092.253173828125" y="966.5">Ventilation des</text><text fill="#000000" stroke="none" font-family="Arial" font-size="13px" font-style="normal" font-weight="normal" text-decoration="none" x="1079.9736328125" y="979.5">comptages connus</text></g></g><g transform="translate(-126,-102) scale(1,1)"><path fill="none" stroke="#000000" d="M 1064 966 L 999 966" stroke-miterlimit="10"/></g><g transform="translate(-126,-102) scale(1,1)"><path fill="#000000" stroke="none" d="M 1009.1626748576241 961.790482243984 L 999 966 L 1009.1626748576241 970.209517756016"/></g><g transform="translate(-126,-102) scale(1,1)"><path fill="none" stroke="#000000" d="M 1009.1626748576241 961.790482243984 L 999 966 L 1009.1626748576241 970.209517756016 L 1009.1626748576241 961.790482243984" stroke-miterlimit="10"/></g><g transform="translate(-126,-102) scale(1,1)"><path fill="#ffffff" stroke="none" d="M 1056 1024 L 1163.72802734375 1024 L 1173.72802734375 1034 L 1173.72802734375 1177 L 1056 1177 L 1056 1024"/></g><g transform="translate(-126,-102) scale(1,1)"><path fill="none" stroke="#000000" d="M 1056 1024 L 1163.72802734375 1024 L 1173.72802734375 1034 L 1173.72802734375 1177 L 1056 1177 L 1056 1024 L 1056 1024" stroke-miterlimit="10"/></g><g transform="translate(-126,-102) scale(1,1)"><path fill="none" stroke="#000000" d="M 1163.72802734375 1024 L 1163.72802734375 1034 L 1173.72802734375 1034 L 1163.72802734375 1024" stroke-miterlimit="10"/></g><g transform="translate(-126,-102) scale(1,1)"><g><path fill="none" stroke="none"/><text fill="#000000" stroke="none" font-family="Arial" font-size="13px" font-style="normal" font-weight="normal" text-decoration="none" x="1061" y="1042">car le prise en</text><text fill="#000000" stroke="none" font-family="Arial" font-size="13px" font-style="normal" font-weight="normal" text-decoration="none" x="1061" y="1055">compte de</text><text fill="#000000" stroke="none" font-family="Arial" font-size="13px" font-style="normal" font-weight="normal" text-decoration="none" x="1061" y="1068">correspondance</text><text fill="#000000" stroke="none" font-family="Arial" font-size="13px" font-style="normal" font-weight="normal" text-decoration="none" x="1061" y="1081">peut créer des</text><text fill="#000000" stroke="none" font-family="Arial" font-size="13px" font-style="normal" font-weight="normal" text-decoration="none" x="1061" y="1094">doublons sur les</text><text fill="#000000" stroke="none" font-family="Arial" font-size="13px" font-style="normal" font-weight="normal" text-decoration="none" x="1061" y="1107">identifiants de</text><text fill="#000000" stroke="none" font-family="Arial" font-size="13px" font-style="normal" font-weight="normal" text-decoration="none" x="1061" y="1120">comptages issus</text><text fill="#000000" stroke="none" font-family="Arial" font-size="13px" font-style="normal" font-weight="normal" text-decoration="none" x="1061" y="1133">des</text><text fill="#000000" stroke="none" font-family="Arial" font-size="13px" font-style="normal" font-weight="normal" text-decoration="none" x="1061" y="1146">correspondances</text></g></g><g transform="translate(-126,-102) scale(1,1)"><path fill="none" stroke="#000000" d="M 1129 990 L 1125 1023" stroke-miterlimit="10" stroke-dasharray="3"/></g><g transform="translate(-126,-102) scale(1,1)"><path fill="none" stroke="#000000" d="M 1064 976 L 1040 976 M 1040 976 A 8 8 0 0 0 1032 984 L 1032 1000 M 1032 1000 A 8 8 0 0 1 1024 1008 L 760 1008 M 760 1008 A 8 8 0 0 1 752 1000 L 752 976 M 752 976 A 8 8 0 0 0 744 968 L 695 968" stroke-miterlimit="10"/></g><g transform="translate(-126,-102) scale(1,1)"><path fill="#000000" stroke="none" d="M 705.1626748576241 963.790482243984 L 695 968 L 705.1626748576241 972.209517756016"/></g><g transform="translate(-126,-102) scale(1,1)"><path fill="none" stroke="#000000" d="M 705.1626748576241 963.790482243984 L 695 968 L 705.1626748576241 972.209517756016 L 705.1626748576241 963.790482243984" stroke-miterlimit="10"/></g><g transform="translate(-126,-102) scale(1,1)"><rect fill="#ddc8c3" stroke="none" x="656" y="168" width="136.06982421875" height="58"/></g><g transform="translate(-126,-102) scale(1,1)"><path fill="none" stroke="#000000" d="M 656 168 L 792.06982421875 168 L 792.06982421875 226 L 656 226 L 656 168 Z Z" stroke-miterlimit="10"/></g><g transform="translate(-126,-102) scale(1,1)"><path fill="none" stroke="#000000" d="M 661 168 L 661 226" stroke-miterlimit="10"/></g><g transform="translate(-126,-102) scale(1,1)"><path fill="none" stroke="#000000" d="M 787.06982421875 168 L 787.06982421875 226" stroke-miterlimit="10"/></g><g transform="translate(-126,-102) scale(1,1)"><g><path fill="none" stroke="none"/><text fill="#000000" stroke="none" font-family="Arial" font-size="13px" font-style="normal" font-weight="normal" text-decoration="none" x="684.983154296875" y="190.5">formatage des</text><text fill="#000000" stroke="none" font-family="Arial" font-size="13px" font-style="normal" font-weight="normal" text-decoration="none" x="701.594970703125" y="203.5">donnees</text><text fill="#000000" stroke="none" font-family="Arial" font-size="13px" font-style="normal" font-weight="normal" text-decoration="none" x="687.871337890625" y="216.5">gestionnaires</text></g></g><g transform="translate(-126,-102) scale(1,1)"><path fill="#dee7fe" stroke="none" d="M 816 352 L 896.3271484375 352 L 880.3271484375 423 L 800 423 L 816 352"/></g><g transform="translate(-126,-102) scale(1,1)"><path fill="none" stroke="#000000" d="M 816 352 L 896.3271484375 352 L 880.3271484375 423 L 800 423 L 816 352 L 816 352" stroke-miterlimit="10"/></g><g transform="translate(-126,-102) scale(1,1)"><g><path fill="none" stroke="none"/><text fill="#000000" stroke="none" font-family="Arial" font-size="13px" font-style="normal" font-weight="normal" text-decoration="none" x="816.3681640625" y="368">comptages</text><text fill="#000000" stroke="none" font-family="Arial" font-size="13px" font-style="normal" font-weight="normal" text-decoration="none" x="822.87451171875" y="381">associés</text><text fill="#000000" stroke="none" font-family="Arial" font-size="13px" font-style="normal" font-weight="normal" text-decoration="none" x="837.68359375" y="394">aux</text><text fill="#000000" stroke="none" font-family="Arial" font-size="13px" font-style="normal" font-weight="normal" text-decoration="none" x="817.818603515625" y="407">compteurs</text><text fill="#000000" stroke="none" font-family="Arial" font-size="13px" font-style="normal" font-weight="normal" text-decoration="none" x="809.5" y="420">gestionnaires</text></g></g><g transform="translate(-126,-102) scale(1,1)"><path fill="#dee7fe" stroke="none" d="M 685 352 L 751.68994140625 352 L 738.68994140625 423 L 672 423 L 685 352"/></g><g transform="translate(-126,-102) scale(1,1)"><path fill="none" stroke="#000000" d="M 685 352 L 751.68994140625 352 L 738.68994140625 423 L 672 423 L 685 352 L 685 352" stroke-miterlimit="10"/></g><g transform="translate(-126,-102) scale(1,1)"><g><path fill="none" stroke="none"/><text fill="#000000" stroke="none" font-family="Arial" font-size="13px" font-style="normal" font-weight="normal" text-decoration="none" x="681.5" y="368">compteurs</text><text fill="#000000" stroke="none" font-family="Arial" font-size="13px" font-style="normal" font-weight="normal" text-decoration="none" x="685.825927734375" y="381">inconnus</text><text fill="#000000" stroke="none" font-family="Arial" font-size="13px" font-style="normal" font-weight="normal" text-decoration="none" x="697.75" y="394">de la</text><text fill="#000000" stroke="none" font-family="Arial" font-size="13px" font-style="normal" font-weight="normal" text-decoration="none" x="700.279541015625" y="407">Bdd</text></g></g><g transform="translate(-126,-102) scale(1,1)"><path fill="#dee7fe" stroke="none" d="M 549 352 L 618.578125 352 L 605.578125 423 L 536 423 L 549 352"/></g><g transform="translate(-126,-102) scale(1,1)"><path fill="none" stroke="#000000" d="M 549 352 L 618.578125 352 L 605.578125 423 L 536 423 L 549 352 L 549 352" stroke-miterlimit="10"/></g><g transform="translate(-126,-102) scale(1,1)"><g><path fill="none" stroke="none"/><text fill="#000000" stroke="none" font-family="Arial" font-size="13px" font-style="normal" font-weight="normal" text-decoration="none" x="545.5" y="368">Compteurs</text><text fill="#000000" stroke="none" font-family="Arial" font-size="13px" font-style="normal" font-weight="normal" text-decoration="none" x="556.3291015625" y="381">connus</text><text fill="#000000" stroke="none" font-family="Arial" font-size="13px" font-style="normal" font-weight="normal" text-decoration="none" x="563.194091796875" y="394">de la</text><text fill="#000000" stroke="none" font-family="Arial" font-size="13px" font-style="normal" font-weight="normal" text-decoration="none" x="565.7236328125" y="407">Bdd</text></g></g><g transform="translate(-126,-102) scale(1,1)"><path fill="none" stroke="#000000" d="M 728 157 L 728 168" stroke-miterlimit="10"/></g><g transform="translate(-126,-102) scale(1,1)"><path fill="#000000" stroke="none" d="M 723.790482243984 157.83732514237585 L 728 168 L 732.209517756016 157.83732514237585"/></g><g transform="translate(-126,-102) scale(1,1)"><path fill="none" stroke="#000000" d="M 723.790482243984 157.83732514237585 L 728 168 L 732.209517756016 157.83732514237585 L 723.790482243984 157.83732514237585" stroke-miterlimit="10"/></g><g transform="translate(-126,-102) scale(1,1)"><path fill="none" stroke="#000000" d="M 724 226 L 724 248" stroke-miterlimit="10"/></g><g transform="translate(-126,-102) scale(1,1)"><path fill="#000000" stroke="none" d="M 719.790482243984 237.83732514237585 L 724 248 L 728.209517756016 237.83732514237585"/></g><g transform="translate(-126,-102) scale(1,1)"><path fill="none" stroke="#000000" d="M 719.790482243984 237.83732514237585 L 724 248 L 728.209517756016 237.83732514237585 L 719.790482243984 237.83732514237585" stroke-miterlimit="10"/></g><g transform="translate(-126,-102) scale(1,1)"><path fill="none" stroke="#000000" d="M 694 294 L 620 353" stroke-miterlimit="10"/></g><g transform="translate(-126,-102) scale(1,1)"><path fill="#000000" stroke="none" d="M 625.321944094879 343.3731151948835 L 620 353 L 630.5704182859843 349.955947231185"/></g><g transform="translate(-126,-102) scale(1,1)"><path fill="none" stroke="#000000" d="M 625.321944094879 343.3731151948835 L 620 353 L 630.5704182859843 349.955947231185 L 625.321944094879 343.3731151948835" stroke-miterlimit="10"/></g><g transform="translate(-126,-102) scale(1,1)"><path fill="none" stroke="#000000" d="M 721 294 L 715 351" stroke-miterlimit="10"/></g><g transform="translate(-126,-102) scale(1,1)"><path fill="#000000" stroke="none" d="M 711.8774890650699 340.4524919786121 L 715 351 L 720.2502657901247 341.3338368970389"/></g><g transform="translate(-126,-102) scale(1,1)"><path fill="none" stroke="#000000" d="M 711.8774890650699 340.4524919786121 L 715 351 L 720.2502657901247 341.3338368970389 L 711.8774890650699 340.4524919786121" stroke-miterlimit="10"/></g><g transform="translate(-126,-102) scale(1,1)"><path fill="none" stroke="#000000" d="M 749 294 L 810 351" stroke-miterlimit="10"/></g><g transform="translate(-126,-102) scale(1,1)"><path fill="#000000" stroke="none" d="M 799.7005454525614 347.13719842274446 L 810 351 L 805.448599036639 340.98577265732814"/></g><g transform="translate(-126,-102) scale(1,1)"><path fill="none" stroke="#000000" d="M 799.7005454525614 347.13719842274446 L 810 351 L 805.448599036639 340.98577265732814 L 799.7005454525614 347.13719842274446" stroke-miterlimit="10"/></g><g transform="translate(-126,-102) scale(1,1)"><path fill="none" stroke="#000000" d="M 536 387 L 464 387" stroke-miterlimit="10"/></g><g transform="translate(-126,-102) scale(1,1)"><path fill="#000000" stroke="none" d="M 474.16267485762415 382.790482243984 L 464 387 L 474.16267485762415 391.209517756016"/></g><g transform="translate(-126,-102) scale(1,1)"><path fill="none" stroke="#000000" d="M 474.16267485762415 382.790482243984 L 464 387 L 474.16267485762415 391.209517756016 L 474.16267485762415 382.790482243984" stroke-miterlimit="10"/></g><g transform="translate(-126,-102) scale(1,1)"><rect fill="#ddc8c3" stroke="none" x="640" y="464" width="136.06982421875" height="63"/></g><g transform="translate(-126,-102) scale(1,1)"><path fill="none" stroke="#000000" d="M 640 464 L 776.06982421875 464 L 776.06982421875 527 L 640 527 L 640 464 Z Z" stroke-miterlimit="10"/></g><g transform="translate(-126,-102) scale(1,1)"><path fill="none" stroke="#000000" d="M 645 464 L 645 527" stroke-miterlimit="10"/></g><g transform="translate(-126,-102) scale(1,1)"><path fill="none" stroke="#000000" d="M 771.06982421875 464 L 771.06982421875 527" stroke-miterlimit="10"/></g><g transform="translate(-126,-102) scale(1,1)"><g><path fill="none" stroke="none"/><text fill="#000000" stroke="none" font-family="Arial" font-size="13px" font-style="normal" font-weight="normal" text-decoration="none" x="676.93359375" y="486.5">Ventiler Par</text><text fill="#000000" stroke="none" font-family="Arial" font-size="13px" font-style="normal" font-weight="normal" text-decoration="none" x="655.25" y="499.5">Section Homogène</text></g></g><g transform="translate(-126,-102) scale(1,1)"><path fill="none" stroke="#000000" d="M 152 1024 L 144 1024 M 144 1024 A 8 8 0 0 0 136 1032 L 136 1184 M 136 1184 A 8 8 0 0 0 144 1192 L 328 1192" stroke-miterlimit="10"/></g><g transform="translate(-126,-102) scale(1,1)"><path fill="#000000" stroke="none" d="M 317.83732514237585 1196.2095177560159 L 328 1192 L 317.83732514237585 1187.7904822439841"/></g><g transform="translate(-126,-102) scale(1,1)"><path fill="none" stroke="#000000" d="M 317.83732514237585 1196.2095177560159 L 328 1192 L 317.83732514237585 1187.7904822439841 L 317.83732514237585 1196.2095177560159" stroke-miterlimit="10"/></g><g transform="translate(-126,-102) scale(1,1)"><g><path fill="none" stroke="none"/><text fill="#000000" stroke="none" font-family="Arial" font-size="13px" font-style="normal" font-weight="normal" text-decoration="none" x="138.5" y="1113.5">Non</text></g></g><g transform="translate(-126,-102) scale(1,1)"><path fill="none" stroke="#000000" d="M 710 423 L 710 464" stroke-miterlimit="10"/></g><g transform="translate(-126,-102) scale(1,1)"><path fill="#000000" stroke="none" d="M 705.790482243984 453.83732514237585 L 710 464 L 714.209517756016 453.83732514237585"/></g><g transform="translate(-126,-102) scale(1,1)"><path fill="none" stroke="#000000" d="M 705.790482243984 453.83732514237585 L 710 464 L 714.209517756016 453.83732514237585 L 705.790482243984 453.83732514237585" stroke-miterlimit="10"/></g><g transform="translate(-126,-102) scale(1,1)"><path fill="none" stroke="#000000" d="M 776 494 L 840 494" stroke-miterlimit="10"/></g><g transform="translate(-126,-102) scale(1,1)"><path fill="#000000" stroke="none" d="M 829.8373251423759 498.209517756016 L 840 494 L 829.8373251423758 489.790482243984"/></g><g transform="translate(-126,-102) scale(1,1)"><path fill="none" stroke="#000000" d="M 829.8373251423759 498.209517756016 L 840 494 L 829.8373251423758 489.790482243984 L 829.8373251423759 498.209517756016" stroke-miterlimit="10"/></g><g transform="translate(-126,-102) scale(1,1)"><path fill="none" stroke="#000000" d="M 640 494 L 536 494" stroke-miterlimit="10"/></g><g transform="translate(-126,-102) scale(1,1)"><path fill="#000000" stroke="none" d="M 546.1626748576241 489.790482243984 L 536 494 L 546.1626748576241 498.209517756016"/></g><g transform="translate(-126,-102) scale(1,1)"><path fill="none" stroke="#000000" d="M 546.1626748576241 489.790482243984 L 536 494 L 546.1626748576241 498.209517756016 L 546.1626748576241 489.790482243984" stroke-miterlimit="10"/></g></g></svg>