<svg version="1.1" xmlns="http://www.w3.org/2000/svg" xmlns:xlink="http://www.w3.org/1999/xlink" width="1108" height="499"><defs/><g><g transform="translate(-142,-262) scale(1,1)"><path fill="#ffd6ad" stroke="#000000" d="M 563.99169921875 520 C 557.91656641875 520 552.99169921875 530.7451648 552.99169921875 544 C 552.99169921875 557.2548352 557.91656641875 568 563.99169921875 568 L 483 568 C 476.9248672 568 472 557.2548352 472 544 C 472 530.7451648 476.9248672 520 483 520 L 563.99169921875 520 Z" stroke-miterlimit="10"/></g><g transform="translate(-142,-262) scale(1,1)"><g><path fill="none" stroke="none"/><text fill="#000000" stroke="none" font-family="Arial" font-size="13px" font-style="normal" font-weight="normal" text-decoration="none" x="494.15087890625" y="542.5">sections</text><text fill="#000000" stroke="none" font-family="Arial" font-size="13px" font-style="normal" font-weight="normal" text-decoration="none" x="484.0263671875" y="555.5">homogènes</text></g></g><g transform="translate(-142,-262) scale(1,1)"><rect fill="#fff07c" stroke="none" x="600" y="400" width="73.18994140625" height="58"/></g><g transform="translate(-142,-262) scale(1,1)"><path fill="none" stroke="#000000" d="M 600 400 L 673.18994140625 400 L 673.18994140625 458 L 600 458 L 600 400 Z Z" stroke-miterlimit="10"/></g><g transform="translate(-142,-262) scale(1,1)"><g><path fill="none" stroke="none"/><text fill="#000000" stroke="none" font-family="Arial" font-size="13px" font-style="normal" font-weight="normal" text-decoration="none" x="623.950439453125" y="422.5">Plus</text><text fill="#000000" stroke="none" font-family="Arial" font-size="13px" font-style="normal" font-weight="normal" text-decoration="none" x="616.720458984375" y="435.5">proche</text><text fill="#000000" stroke="none" font-family="Arial" font-size="13px" font-style="normal" font-weight="normal" text-decoration="none" x="619.976806640625" y="448.5">voisin</text></g></g><g transform="translate(-142,-262) scale(1,1)"><path fill="none" stroke="#000000" d="M 564 542 L 632 542 M 632 542 A 8 8 0 0 0 640 534 L 640 458" stroke-miterlimit="10"/></g><g transform="translate(-142,-262) scale(1,1)"><path fill="#000000" stroke="none" d="M 644.209517756016 468.16267485762415 L 640 458 L 635.790482243984 468.16267485762415"/></g><g transform="translate(-142,-262) scale(1,1)"><path fill="none" stroke="#000000" d="M 644.209517756016 468.16267485762415 L 640 458 L 635.790482243984 468.16267485762415 L 644.209517756016 468.16267485762415" stroke-miterlimit="10"/></g><g transform="translate(-142,-262) scale(1,1)"><path fill="#ffd6ad" stroke="#000000" d="M 479.68994140625 520 C 474.71937820625 520 470.68994140625 530.7451648 470.68994140625 544 C 470.68994140625 557.2548352 474.71937820625 568 479.68994140625 568 L 409 568 C 404.0294368 568 400 557.2548352 400 544 C 400 530.7451648 404.0294368 520 409 520 L 479.68994140625 520 Z" stroke-miterlimit="10"/></g><g transform="translate(-142,-262) scale(1,1)"><g><path fill="none" stroke="none"/><text fill="#000000" stroke="none" font-family="Arial" font-size="13px" font-style="normal" font-weight="normal" text-decoration="none" x="409.5" y="542.5">compteurs</text><text fill="#000000" stroke="none" font-family="Arial" font-size="13px" font-style="normal" font-weight="normal" text-decoration="none" x="414.194091796875" y="555.5">existants</text></g></g><g transform="translate(-142,-262) scale(1,1)"><path fill="#dee7fe" stroke="none" d="M 1040 288 L 1240 288 L 1200 359 L 1000 359 L 1040 288"/></g><g transform="translate(-142,-262) scale(1,1)"><path fill="none" stroke="#000000" d="M 1040 288 L 1240 288 L 1200 359 L 1000 359 L 1040 288 L 1040 288" stroke-miterlimit="10"/></g><g transform="translate(-142,-262) scale(1,1)"><g><path fill="none" stroke="none"/><text fill="#000000" stroke="none" font-family="Arial" font-size="13px" font-style="normal" font-weight="normal" text-decoration="none" x="1077.1787109375" y="310.5">id_comptage +</text><text fill="#000000" stroke="none" font-family="Arial" font-size="13px" font-style="normal" font-weight="normal" text-decoration="none" x="1051.886474609375" y="323.5">geometrie + type_poste</text><text fill="#000000" stroke="none" font-family="Arial" font-size="13px" font-style="normal" font-weight="normal" text-decoration="none" x="1054.77783203125" y="336.5">+ id_comptag_existant</text><text fill="#000000" stroke="none" font-family="Arial" font-size="13px" font-style="normal" font-weight="normal" text-decoration="none" x="1054.412841796875" y="349.5">+ id section homogene</text></g></g><g transform="translate(-142,-262) scale(1,1)"><path fill="#cce18d" stroke="none" d="M 920 617.5 L 1080 592 L 1240 617.5 L 1080 643 L 920 617.5"/></g><g transform="translate(-142,-262) scale(1,1)"><path fill="none" stroke="#000000" d="M 920 617.5 L 1080 592 L 1240 617.5 L 1080 643 L 920 617.5 L 920 617.5" stroke-miterlimit="10"/></g><g transform="translate(-142,-262) scale(1,1)"><g><path fill="none" stroke="none"/><text fill="#000000" stroke="none" font-family="Arial" font-size="13px" font-style="normal" font-weight="normal" text-decoration="none" x="1006.287841796875" y="617.5">id_comptage_existant est</text><text fill="#000000" stroke="none" font-family="Arial" font-size="13px" font-style="normal" font-weight="normal" text-decoration="none" x="1069.8818359375" y="630.5">null</text></g></g><g transform="translate(-142,-262) scale(1,1)"><path fill="#9acef6" stroke="none" d="M 557.5 656 L 642.5 656 Q 672 656 672 685.5 L 672 684.5 Q 672 714 642.5 714 L 557.5 714 Q 528 714 528 684.5 L 528 685.5 Q 528 656 557.5 656 Z"/></g><g transform="translate(-142,-262) scale(1,1)"><path fill="none" stroke="#000000" d="M 557.5 656 L 642.5 656 Q 672 656 672 685.5 L 672 684.5 Q 672 714 642.5 714 L 557.5 714 Q 528 714 528 684.5 L 528 685.5 Q 528 656 557.5 656 Z" stroke-miterlimit="10"/></g><g transform="translate(-142,-262) scale(1,1)"><g><path fill="none" stroke="none"/><text fill="#000000" stroke="none" font-family="Arial" font-size="13px" font-style="normal" font-weight="normal" text-decoration="none" x="562.983642578125" y="678.5">creation d'un</text><text fill="#000000" stroke="none" font-family="Arial" font-size="13px" font-style="normal" font-weight="normal" text-decoration="none" x="540.557373046875" y="691.5">nouveau compteur +</text><text fill="#000000" stroke="none" font-family="Arial" font-size="13px" font-style="normal" font-weight="normal" text-decoration="none" x="547.06689453125" y="704.5">comptage + Indics</text></g></g><g transform="translate(-142,-262) scale(1,1)"><path fill="#cce18d" stroke="none" d="M 1056 459.5 L 1140.93896484375 408 L 1225.8779296875 459.5 L 1140.93896484375 511 L 1056 459.5"/></g><g transform="translate(-142,-262) scale(1,1)"><path fill="none" stroke="#000000" d="M 1056 459.5 L 1140.93896484375 408 L 1225.8779296875 459.5 L 1140.93896484375 511 L 1056 459.5 L 1056 459.5" stroke-miterlimit="10"/></g><g transform="translate(-142,-262) scale(1,1)"><g><path fill="none" stroke="none"/><text fill="#000000" stroke="none" font-family="Arial" font-size="13px" font-style="normal" font-weight="normal" text-decoration="none" x="1108.784912109375" y="446.5">Nombre de</text><text fill="#000000" stroke="none" font-family="Arial" font-size="13px" font-style="normal" font-weight="normal" text-decoration="none" x="1101.193115234375" y="459.5">comptage par</text><text fill="#000000" stroke="none" font-family="Arial" font-size="13px" font-style="normal" font-weight="normal" text-decoration="none" x="1120.343994140625" y="472.5">section</text><text fill="#000000" stroke="none" font-family="Arial" font-size="13px" font-style="normal" font-weight="normal" text-decoration="none" x="1110.219482421875" y="485.5">homogène</text></g></g><g transform="translate(-142,-262) scale(1,1)"><path fill="none" stroke="#000000" d="M 673 408 L 720 408 M 720 408 A 8 8 0 0 0 728 400 L 728 328 M 728 328 A 8 8 0 0 1 736 320 L 784 320" stroke-miterlimit="10"/></g><g transform="translate(-142,-262) scale(1,1)"><path fill="#000000" stroke="none" d="M 773.8373251423759 324.209517756016 L 784 320 L 773.8373251423758 315.790482243984"/></g><g transform="translate(-142,-262) scale(1,1)"><path fill="none" stroke="#000000" d="M 773.8373251423759 324.209517756016 L 784 320 L 773.8373251423758 315.790482243984 L 773.8373251423759 324.209517756016" stroke-miterlimit="10"/></g><g transform="translate(-142,-262) scale(1,1)"><rect fill="#fff07c" stroke="none" x="920" y="376" width="87" height="123"/></g><g transform="translate(-142,-262) scale(1,1)"><path fill="none" stroke="#000000" d="M 920 376 L 1007 376 L 1007 499 L 920 499 L 920 376 Z Z" stroke-miterlimit="10"/></g><g transform="translate(-142,-262) scale(1,1)"><g><path fill="none" stroke="none"/><text fill="#000000" stroke="none" font-family="Arial" font-size="13px" font-style="normal" font-weight="normal" text-decoration="none" x="932.431396484375" y="398.5">déterminer</text><text fill="#000000" stroke="none" font-family="Arial" font-size="13px" font-style="normal" font-weight="normal" text-decoration="none" x="958.44091796875" y="411.5">le</text><text fill="#000000" stroke="none" font-family="Arial" font-size="13px" font-style="normal" font-weight="normal" text-decoration="none" x="934.95458984375" y="424.5">comptage</text><text fill="#000000" stroke="none" font-family="Arial" font-size="13px" font-style="normal" font-weight="normal" text-decoration="none" x="956.27001953125" y="437.5">de</text><text fill="#000000" stroke="none" font-family="Arial" font-size="13px" font-style="normal" font-weight="normal" text-decoration="none" x="936.0400390625" y="450.5">reference</text><text fill="#000000" stroke="none" font-family="Arial" font-size="13px" font-style="normal" font-weight="normal" text-decoration="none" x="943.635009765625" y="463.5">et le(s)</text><text fill="#000000" stroke="none" font-family="Arial" font-size="13px" font-style="normal" font-weight="normal" text-decoration="none" x="931.70458984375" y="476.5">comptages</text><text fill="#000000" stroke="none" font-family="Arial" font-size="13px" font-style="normal" font-weight="normal" text-decoration="none" x="938.2109375" y="489.5">associes</text></g></g><g transform="translate(-142,-262) scale(1,1)"><path fill="none" stroke="#000000" d="M 992 499 L 992 592" stroke-miterlimit="10"/></g><g transform="translate(-142,-262) scale(1,1)"><path fill="#000000" stroke="none" d="M 987.790482243984 581.8373251423759 L 992 592 L 996.209517756016 581.8373251423759"/></g><g transform="translate(-142,-262) scale(1,1)"><path fill="none" stroke="#000000" d="M 987.790482243984 581.8373251423759 L 992 592 L 996.209517756016 581.8373251423759 L 987.790482243984 581.8373251423759" stroke-miterlimit="10"/></g><g transform="translate(-142,-262) scale(1,1)"><g><path fill="none" stroke="none"/><text fill="#000000" stroke="none" font-family="Arial" font-size="13px" font-style="normal" font-weight="normal" text-decoration="none" x="999.5" y="543.5">comptage</text><text fill="#000000" stroke="none" font-family="Arial" font-size="13px" font-style="normal" font-weight="normal" text-decoration="none" x="1000.58544921875" y="556.5">référence</text></g></g><g transform="translate(-142,-262) scale(1,1)"><path fill="none" stroke="#000000" d="M 1144 511 L 1144 592" stroke-miterlimit="10"/></g><g transform="translate(-142,-262) scale(1,1)"><path fill="#000000" stroke="none" d="M 1139.7904822439841 581.8373251423759 L 1144 592 L 1148.2095177560159 581.8373251423759"/></g><g transform="translate(-142,-262) scale(1,1)"><path fill="none" stroke="#000000" d="M 1139.7904822439841 581.8373251423759 L 1144 592 L 1148.2095177560159 581.8373251423759 L 1139.7904822439841 581.8373251423759" stroke-miterlimit="10"/></g><g transform="translate(-142,-262) scale(1,1)"><g><path fill="none" stroke="none"/><text fill="#000000" stroke="none" font-family="Arial" font-size="13px" font-style="normal" font-weight="normal" text-decoration="none" x="1150.5" y="560.5">1</text></g></g><g transform="translate(-142,-262) scale(1,1)"><path fill="none" stroke="#000000" d="M 1056 456 L 1007 456" stroke-miterlimit="10"/></g><g transform="translate(-142,-262) scale(1,1)"><path fill="#000000" stroke="none" d="M 1017.1626748576241 451.790482243984 L 1007 456 L 1017.1626748576241 460.209517756016"/></g><g transform="translate(-142,-262) scale(1,1)"><path fill="none" stroke="#000000" d="M 1017.1626748576241 451.790482243984 L 1007 456 L 1017.1626748576241 460.209517756016 L 1017.1626748576241 451.790482243984" stroke-miterlimit="10"/></g><g transform="translate(-142,-262) scale(1,1)"><g><path fill="none" stroke="none"/><text fill="#000000" stroke="none" font-family="Arial" font-size="13px" font-style="normal" font-weight="normal" text-decoration="none" x="1038.5" y="452.5">&gt; 1</text></g></g><g transform="translate(-142,-262) scale(1,1)"><path fill="none" stroke="#000000" d="M 920 616 L 632 616 M 632 616 A 8 8 0 0 0 624 624 L 624 656" stroke-miterlimit="10"/></g><g transform="translate(-142,-262) scale(1,1)"><path fill="#000000" stroke="none" d="M 619.790482243984 645.8373251423759 L 624 656 L 628.209517756016 645.8373251423759"/></g><g transform="translate(-142,-262) scale(1,1)"><path fill="none" stroke="#000000" d="M 619.790482243984 645.8373251423759 L 624 656 L 628.209517756016 645.8373251423759 L 619.790482243984 645.8373251423759" stroke-miterlimit="10"/></g><g transform="translate(-142,-262) scale(1,1)"><g><path fill="none" stroke="none"/><text fill="#000000" stroke="none" font-family="Arial" font-size="13px" font-style="normal" font-weight="normal" text-decoration="none" x="625.5" y="616.5">Oui</text></g></g><g transform="translate(-142,-262) scale(1,1)"><path fill="none" stroke="#000000" d="M 1144 359 L 1144 408" stroke-miterlimit="10"/></g><g transform="translate(-142,-262) scale(1,1)"><path fill="#000000" stroke="none" d="M 1139.7904822439841 397.83732514237585 L 1144 408 L 1148.2095177560159 397.83732514237585"/></g><g transform="translate(-142,-262) scale(1,1)"><path fill="none" stroke="#000000" d="M 1139.7904822439841 397.83732514237585 L 1144 408 L 1148.2095177560159 397.83732514237585 L 1139.7904822439841 397.83732514237585" stroke-miterlimit="10"/></g><g transform="translate(-142,-262) scale(1,1)"><path fill="#cce18d" stroke="none" d="M 784 323.5 L 844.93896484375 272 L 905.8779296875 323.5 L 844.93896484375 375 L 784 323.5"/></g><g transform="translate(-142,-262) scale(1,1)"><path fill="none" stroke="#000000" d="M 784 323.5 L 844.93896484375 272 L 905.8779296875 323.5 L 844.93896484375 375 L 784 323.5 L 784 323.5" stroke-miterlimit="10"/></g><g transform="translate(-142,-262) scale(1,1)"><g><path fill="none" stroke="none"/><text fill="#000000" stroke="none" font-family="Arial" font-size="13px" font-style="normal" font-weight="normal" text-decoration="none" x="816.3935546875" y="310.5">comptage</text><text fill="#000000" stroke="none" font-family="Arial" font-size="13px" font-style="normal" font-weight="normal" text-decoration="none" x="825.064453125" y="323.5">proche</text><text fill="#000000" stroke="none" font-family="Arial" font-size="13px" font-style="normal" font-weight="normal" text-decoration="none" x="824.343994140625" y="336.5">section</text><text fill="#000000" stroke="none" font-family="Arial" font-size="13px" font-style="normal" font-weight="normal" text-decoration="none" x="814.219482421875" y="349.5">homogène</text></g></g><g transform="translate(-142,-262) scale(1,1)"><path fill="none" stroke="#000000" d="M 906 323 L 1000 323" stroke-miterlimit="10"/></g><g transform="translate(-142,-262) scale(1,1)"><path fill="#000000" stroke="none" d="M 989.8373251423759 327.209517756016 L 1000 323 L 989.8373251423758 318.790482243984"/></g><g transform="translate(-142,-262) scale(1,1)"><path fill="none" stroke="#000000" d="M 989.8373251423759 327.209517756016 L 1000 323 L 989.8373251423758 318.790482243984 L 989.8373251423759 327.209517756016" stroke-miterlimit="10"/></g><g transform="translate(-142,-262) scale(1,1)"><g><path fill="none" stroke="none"/><text fill="#000000" stroke="none" font-family="Arial" font-size="13px" font-style="normal" font-weight="normal" text-decoration="none" x="942.5" y="314.5">Oui</text></g></g><g transform="translate(-142,-262) scale(1,1)"><path fill="none" stroke="#000000" d="M 844 375 L 844 424 M 844 424 A 8 8 0 0 1 836 432 L 704 432 M 704 432 A 8 8 0 0 0 696 440 L 696 568 M 696 568 A 8 8 0 0 1 688 576 L 592 576 M 592 576 A 8 8 0 0 0 584 584 L 584 656" stroke-miterlimit="10"/></g><g transform="translate(-142,-262) scale(1,1)"><path fill="#000000" stroke="none" d="M 579.790482243984 645.8373251423759 L 584 656 L 588.209517756016 645.8373251423759"/></g><g transform="translate(-142,-262) scale(1,1)"><path fill="none" stroke="#000000" d="M 579.790482243984 645.8373251423759 L 584 656 L 588.209517756016 645.8373251423759 L 579.790482243984 645.8373251423759" stroke-miterlimit="10"/></g><g transform="translate(-142,-262) scale(1,1)"><g><path fill="none" stroke="none"/><text fill="#000000" stroke="none" font-family="Arial" font-size="13px" font-style="normal" font-weight="normal" text-decoration="none" x="618.5" y="478.5">Non</text></g></g><g transform="translate(-142,-262) scale(1,1)"><path fill="#ff0000" stroke="none" d="M 152 272 L 557 272 L 567 282 L 567 502 L 152 502 L 152 272"/></g><g transform="translate(-142,-262) scale(1,1)"><path fill="none" stroke="#000000" d="M 152 272 L 557 272 L 567 282 L 567 502 L 152 502 L 152 272 L 152 272" stroke-miterlimit="10"/></g><g transform="translate(-142,-262) scale(1,1)"><path fill="none" stroke="#000000" d="M 557 272 L 557 282 L 567 282 L 557 272" stroke-miterlimit="10"/></g><g transform="translate(-142,-262) scale(1,1)"><g><path fill="none" stroke="none"/><text fill="#000000" stroke="none" font-family="Arial" font-size="13px" font-style="normal" font-weight="normal" text-decoration="none" x="157" y="290">ICI IL Y A UNE POSSIBLITE DE REFLEXION SUPPLEMENTAIRE :</text><text fill="#000000" stroke="none" font-family="Arial" font-size="13px" font-style="normal" font-weight="normal" text-decoration="none" x="157" y="303">ON TRAVAILLE AVEC DES SECTIONS HOMOGENES QUI SE</text><text fill="#000000" stroke="none" font-family="Arial" font-size="13px" font-style="normal" font-weight="normal" text-decoration="none" x="157" y="316">PROPAGE SELON L'IMPORTANCE DES VOIES QUI CROISE.</text><text fill="#000000" stroke="none" font-family="Arial" font-size="13px" font-style="normal" font-weight="normal" text-decoration="none" x="157" y="329">TOUTEFOIS, SI ON TRAVAILLAIT UNIQUEMENT AVEC DES</text><text fill="#000000" stroke="none" font-family="Arial" font-size="13px" font-style="normal" font-weight="normal" text-decoration="none" x="157" y="342">TRONCON HOMOGENE, ON AURAIT PLUS DE DETAILS? MAIS UN</text><text fill="#000000" stroke="none" font-family="Arial" font-size="13px" font-style="normal" font-weight="normal" text-decoration="none" x="157" y="355">RISQUE DE PRENDRE DES DONNEES PONCTUELLES AU LIEU</text><text fill="#000000" stroke="none" font-family="Arial" font-size="13px" font-style="normal" font-weight="normal" text-decoration="none" x="157" y="368">DE FAVORISER PERMANENT ET TOURNANTS;</text></g></g><g transform="translate(-142,-262) scale(1,1)"><g><path fill="none" stroke="none"/><text fill="#000000" stroke="none" font-family="Arial" font-size="13px" font-style="normal" font-weight="normal" text-decoration="none" x="157" y="383">DEUX IDEES : </text></g></g><g transform="translate(-142,-262) scale(1,1)"><g><path fill="none" stroke="none"/><text fill="#000000" stroke="none" font-family="Arial" font-size="13px" font-style="normal" font-weight="normal" text-decoration="none" x="157" y="398">- POUR DETERMINER  LES CORRESP_ID_COMPTAG IL</text><text fill="#000000" stroke="none" font-family="Arial" font-size="13px" font-style="normal" font-weight="normal" text-decoration="none" x="157" y="411">FAUDRAIT FONCTIONNER AVEC LES TRONCON HOMOGENE</text><text fill="#000000" stroke="none" font-family="Arial" font-size="13px" font-style="normal" font-weight="normal" text-decoration="none" x="157" y="424">(count=2) PLUTOT QU'AVEC LES SECTIONS, QUI SONT PLUS</text><text fill="#000000" stroke="none" font-family="Arial" font-size="13px" font-style="normal" font-weight="normal" text-decoration="none" x="157" y="437">ELOIGNEES</text></g></g><g transform="translate(-142,-262) scale(1,1)"><g><path fill="none" stroke="none"/></g></g><g transform="translate(-142,-262) scale(1,1)"><g><path fill="none" stroke="none"/></g></g><g transform="translate(-142,-262) scale(1,1)"><g><path fill="none" stroke="none"/></g></g><g transform="translate(-142,-262) scale(1,1)"><g><path fill="none" stroke="none"/><text fill="#000000" stroke="none" font-family="Arial" font-size="13px" font-style="normal" font-weight="normal" text-decoration="none" x="157" y="445">- POUR LINEARISER IL FAUDRAIT D'ABORD LINEARISER</text><text fill="#000000" stroke="none" font-family="Arial" font-size="13px" font-style="normal" font-weight="normal" text-decoration="none" x="157" y="458">PERMANENT ET TOURNANT SUR LA BASE DE SECTIONS</text><text fill="#000000" stroke="none" font-family="Arial" font-size="13px" font-style="normal" font-weight="normal" text-decoration="none" x="157" y="471">HOMOGENES, PUIS AJOUTER LES PONCTUELS SUR LA BASE</text><text fill="#000000" stroke="none" font-family="Arial" font-size="13px" font-style="normal" font-weight="normal" text-decoration="none" x="157" y="484">DES SECTIONS HOMOGENES.</text></g></g><g transform="translate(-142,-262) scale(1,1)"><path fill="none" stroke="#ff0000" d="M 517 520 L 517 503" stroke-miterlimit="10" stroke-dasharray="3"/></g><g transform="translate(-142,-262) scale(1,1)"><path fill="#ffd6ad" stroke="#000000" d="M 406.93896484375 520 C 401.41611684375 520 396.93896484375 530.7451648 396.93896484375 544 C 396.93896484375 557.2548352 401.41611684375 568 406.93896484375 568 L 330 568 C 324.477152 568 320 557.2548352 320 544 C 320 530.7451648 324.477152 520 330 520 L 406.93896484375 520 Z" stroke-miterlimit="10"/></g><g transform="translate(-142,-262) scale(1,1)"><g><path fill="none" stroke="none"/><text fill="#000000" stroke="none" font-family="Arial" font-size="13px" font-style="normal" font-weight="normal" text-decoration="none" x="336.61572265625" y="542.5">Tronçons</text><text fill="#000000" stroke="none" font-family="Arial" font-size="13px" font-style="normal" font-weight="normal" text-decoration="none" x="329.5" y="555.5">homogènes</text></g></g><g transform="translate(-142,-262) scale(1,1)"><path fill="#9acef6" stroke="none" d="M 751 536 L 808 536 Q 831 536 831 559 L 831 558 Q 831 581 808 581 L 751 581 Q 728 581 728 558 L 728 559 Q 728 536 751 536 Z"/></g><g transform="translate(-142,-262) scale(1,1)"><path fill="none" stroke="#000000" d="M 751 536 L 808 536 Q 831 536 831 559 L 831 558 Q 831 581 808 581 L 751 581 Q 728 581 728 558 L 728 559 Q 728 536 751 536 Z" stroke-miterlimit="10"/></g><g transform="translate(-142,-262) scale(1,1)"><g><path fill="none" stroke="none"/><text fill="#000000" stroke="none" font-family="Arial" font-size="13px" font-style="normal" font-weight="normal" text-decoration="none" x="747.70458984375" y="558.5">comptages</text><text fill="#000000" stroke="none" font-family="Arial" font-size="13px" font-style="normal" font-weight="normal" text-decoration="none" x="754.2109375" y="571.5">associés</text></g></g><g transform="translate(-142,-262) scale(1,1)"><path fill="#dee7fe" stroke="none" d="M 610 280 L 703.68994140625 280 L 685.68994140625 344 L 592 344 L 610 280"/></g><g transform="translate(-142,-262) scale(1,1)"><path fill="none" stroke="#000000" d="M 610 280 L 703.68994140625 280 L 685.68994140625 344 L 592 344 L 610 280 L 610 280" stroke-miterlimit="10"/></g><g transform="translate(-142,-262) scale(1,1)"><g><path fill="none" stroke="none"/><text fill="#000000" stroke="none" font-family="Arial" font-size="13px" font-style="normal" font-weight="normal" text-decoration="none" x="617.5" y="302.5">compteurs</text><text fill="#000000" stroke="none" font-family="Arial" font-size="13px" font-style="normal" font-weight="normal" text-decoration="none" x="621.825927734375" y="315.5">inconnus</text><text fill="#000000" stroke="none" font-family="Arial" font-size="13px" font-style="normal" font-weight="normal" text-decoration="none" x="620.378662109375" y="328.5">de la Bdd</text></g></g><g transform="translate(-142,-262) scale(1,1)"><path fill="none" stroke="#000000" d="M 640 344 L 640 400" stroke-miterlimit="10"/></g><g transform="translate(-142,-262) scale(1,1)"><path fill="#000000" stroke="none" d="M 635.790482243984 389.83732514237585 L 640 400 L 644.209517756016 389.83732514237585"/></g><g transform="translate(-142,-262) scale(1,1)"><path fill="none" stroke="#000000" d="M 635.790482243984 389.83732514237585 L 640 400 L 644.209517756016 389.83732514237585 L 635.790482243984 389.83732514237585" stroke-miterlimit="10"/></g><g transform="translate(-142,-262) scale(1,1)"><path fill="none" stroke="#000000" d="M 920 456 L 872 456 M 872 456 A 8 8 0 0 0 864 464 L 864 544 M 864 544 A 8 8 0 0 1 856 552 L 831 552" stroke-miterlimit="10"/></g><g transform="translate(-142,-262) scale(1,1)"><path fill="#000000" stroke="none" d="M 841.1626748576241 547.790482243984 L 831 552 L 841.1626748576241 556.209517756016"/></g><g transform="translate(-142,-262) scale(1,1)"><path fill="none" stroke="#000000" d="M 841.1626748576241 547.790482243984 L 831 552 L 841.1626748576241 556.209517756016 L 841.1626748576241 547.790482243984" stroke-miterlimit="10"/></g><g transform="translate(-142,-262) scale(1,1)"><g><path fill="none" stroke="none"/><text fill="#000000" stroke="none" font-family="Arial" font-size="13px" font-style="normal" font-weight="normal" text-decoration="none" x="799.5" y="498.5">comptage</text><text fill="#000000" stroke="none" font-family="Arial" font-size="13px" font-style="normal" font-weight="normal" text-decoration="none" x="806.00634765625" y="511.5">associé</text></g></g><g transform="translate(-142,-262) scale(1,1)"><path fill="#dee7fe" stroke="none" d="M 792 680 L 991 680 L 951 751 L 752 751 L 792 680"/></g><g transform="translate(-142,-262) scale(1,1)"><path fill="none" stroke="#000000" d="M 792 680 L 991 680 L 951 751 L 752 751 L 792 680 L 792 680" stroke-miterlimit="10"/></g><g transform="translate(-142,-262) scale(1,1)"><g><path fill="none" stroke="none"/><text fill="#000000" stroke="none" font-family="Arial" font-size="13px" font-style="normal" font-weight="normal" text-decoration="none" x="810.080078125" y="702.5">Comptages à ventiler</text><text fill="#000000" stroke="none" font-family="Arial" font-size="13px" font-style="normal" font-weight="normal" text-decoration="none" x="824.898681640625" y="715.5">selon les cas (cf</text><text fill="#000000" stroke="none" font-family="Arial" font-size="13px" font-style="normal" font-weight="normal" text-decoration="none" x="810.42919921875" y="728.5">Ventilation Nouveaux</text><text fill="#000000" stroke="none" font-family="Arial" font-size="13px" font-style="normal" font-weight="normal" text-decoration="none" x="839.345947265625" y="741.5">Comptage)</text></g></g><g transform="translate(-142,-262) scale(1,1)"><path fill="none" stroke="#000000" d="M 1080 643 L 1080 712 M 1080 712 A 8 8 0 0 1 1072 720 L 991 720" stroke-miterlimit="10"/></g><g transform="translate(-142,-262) scale(1,1)"><path fill="#000000" stroke="none" d="M 1001.1626748576241 715.790482243984 L 991 720 L 1001.1626748576241 724.209517756016"/></g><g transform="translate(-142,-262) scale(1,1)"><path fill="none" stroke="#000000" d="M 1001.1626748576241 715.790482243984 L 991 720 L 1001.1626748576241 724.209517756016 L 1001.1626748576241 715.790482243984" stroke-miterlimit="10"/></g><g transform="translate(-142,-262) scale(1,1)"><g><path fill="none" stroke="none"/><text fill="#000000" stroke="none" font-family="Arial" font-size="13px" font-style="normal" font-weight="normal" text-decoration="none" x="1087.5" y="684.5">Non</text></g></g></g></svg>