<svg version="1.1" xmlns="http://www.w3.org/2000/svg" xmlns:xlink="http://www.w3.org/1999/xlink" width="715" height="750"><defs/><g><g transform="translate(-126,-158) scale(1,1)"><path fill="#dee7fe" stroke="none" d="M 422 168 L 502.3271484375 168 L 486.3271484375 213 L 406 213 L 422 168"/></g><g transform="translate(-126,-158) scale(1,1)"><path fill="none" stroke="#000000" d="M 422 168 L 502.3271484375 168 L 486.3271484375 213 L 406 213 L 422 168 L 422 168" stroke-miterlimit="10"/></g><g transform="translate(-126,-158) scale(1,1)"><g><path fill="none" stroke="none"/><text fill="#000000" stroke="none" font-family="Arial" font-size="13px" font-style="normal" font-weight="normal" text-decoration="none" x="428.14453125" y="190.5">Donnees</text><text fill="#000000" stroke="none" font-family="Arial" font-size="13px" font-style="normal" font-weight="normal" text-decoration="none" x="415.5" y="203.5">gestionnaires</text></g></g><g transform="translate(-126,-158) scale(1,1)"><path fill="#ffd8ff" stroke="#000000" d="M 683.1162109375 232 C 675.3842237375 232 669.1162109375 250.8040384 669.1162109375 274 C 669.1162109375 297.1959616 675.3842237375 316 683.1162109375 316 L 582 316 C 574.2680128 316 568 297.1959616 568 274 C 568 250.8040384 574.2680128 232 582 232 L 683.1162109375 232 Z" stroke-miterlimit="10"/></g><g transform="translate(-126,-158) scale(1,1)"><g><path fill="none" stroke="none"/><text fill="#000000" stroke="none" font-family="Arial" font-size="13px" font-style="normal" font-weight="normal" text-decoration="none" x="577.5" y="248">Correspondance</text><text fill="#000000" stroke="none" font-family="Arial" font-size="13px" font-style="normal" font-weight="normal" text-decoration="none" x="591.95361328125" y="261">id_comptag</text><text fill="#000000" stroke="none" font-family="Arial" font-size="13px" font-style="normal" font-weight="normal" text-decoration="none" x="590.14453125" y="274">gestionnaire</text><text fill="#000000" stroke="none" font-family="Arial" font-size="13px" font-style="normal" font-weight="normal" text-decoration="none" x="615.8017578125" y="287">&lt;-&gt;</text><text fill="#000000" stroke="none" font-family="Arial" font-size="13px" font-style="normal" font-weight="normal" text-decoration="none" x="581.4736328125" y="300">id_comptag_gti</text></g></g><g transform="translate(-126,-158) scale(1,1)"><path fill="#ffd8ff" stroke="#000000" d="M 671 373 C 664.3725824 373 659 383.073592 659 395.5 C 659 407.926408 664.3725824 418 671 418 L 580 418 C 573.3725824 418 568 407.926408 568 395.5 C 568 383.073592 573.3725824 373 580 373 L 671 373 Z" stroke-miterlimit="10"/></g><g transform="translate(-126,-158) scale(1,1)"><g><path fill="none" stroke="none"/><text fill="#000000" stroke="none" font-family="Arial" font-size="13px" font-style="normal" font-weight="normal" text-decoration="none" x="589.155029296875" y="395.5">compteurs</text><text fill="#000000" stroke="none" font-family="Arial" font-size="13px" font-style="normal" font-weight="normal" text-decoration="none" x="593.84912109375" y="408.5">existants</text></g></g><g transform="translate(-126,-158) scale(1,1)"><path fill="#ffc1ad" stroke="none" d="M 367 277.5 C 367 256.78932 406.04664607421876 240 454.213134765625 240 C 502.37962345703124 240 541.42626953125 256.78932 541.42626953125 277.5 C 541.42626953125 298.21068 502.37962345703124 315 454.213134765625 315 C 406.04664607421876 315 367 298.21068 367 277.5 Z"/></g><g transform="translate(-126,-158) scale(1,1)"><path fill="none" stroke="#000000" d="M 367 277.5 C 367 256.78932 406.04664607421876 240 454.213134765625 240 C 502.37962345703124 240 541.42626953125 256.78932 541.42626953125 277.5 C 541.42626953125 298.21068 502.37962345703124 315 454.213134765625 315 C 406.04664607421876 315 367 298.21068 367 277.5 Z" stroke-miterlimit="10"/></g><g transform="translate(-126,-158) scale(1,1)"><g><path fill="none" stroke="none"/><text fill="#000000" stroke="none" font-family="Arial" font-size="13px" font-style="normal" font-weight="normal" text-decoration="none" x="410.5" y="264.5">Remplacement</text><text fill="#000000" stroke="none" font-family="Arial" font-size="13px" font-style="normal" font-weight="normal" text-decoration="none" x="420.608642578125" y="277.5">id_comptag</text><text fill="#000000" stroke="none" font-family="Arial" font-size="13px" font-style="normal" font-weight="normal" text-decoration="none" x="413.372314453125" y="290.5">dans donnees</text><text fill="#000000" stroke="none" font-family="Arial" font-size="13px" font-style="normal" font-weight="normal" text-decoration="none" x="441.92724609375" y="303.5">gest</text></g></g><g transform="translate(-126,-158) scale(1,1)"><path fill="none" stroke="#000000" d="M 456 213 L 456 240" stroke-miterlimit="10"/></g><g transform="translate(-126,-158) scale(1,1)"><path fill="#000000" stroke="none" d="M 451.790482243984 229.83732514237585 L 456 240 L 460.209517756016 229.83732514237585"/></g><g transform="translate(-126,-158) scale(1,1)"><path fill="none" stroke="#000000" d="M 451.790482243984 229.83732514237585 L 456 240 L 460.209517756016 229.83732514237585 L 451.790482243984 229.83732514237585" stroke-miterlimit="10"/></g><g transform="translate(-126,-158) scale(1,1)"><path fill="none" stroke="#000000" d="M 568 277 L 541 277" stroke-miterlimit="10"/></g><g transform="translate(-126,-158) scale(1,1)"><path fill="#000000" stroke="none" d="M 551.1626748576241 272.790482243984 L 541 277 L 551.1626748576241 281.209517756016"/></g><g transform="translate(-126,-158) scale(1,1)"><path fill="none" stroke="#000000" d="M 551.1626748576241 272.790482243984 L 541 277 L 551.1626748576241 281.209517756016 L 551.1626748576241 272.790482243984" stroke-miterlimit="10"/></g><g transform="translate(-126,-158) scale(1,1)"><path fill="#ffc1ad" stroke="none" d="M 394 395.5 C 394 367.0573328 420.862912 344 454 344 C 487.137088 344 514 367.0573328 514 395.5 C 514 423.9426672 487.137088 447 454 447 C 420.862912 447 394 423.9426672 394 395.5 Z"/></g><g transform="translate(-126,-158) scale(1,1)"><path fill="none" stroke="#000000" d="M 394 395.5 C 394 367.0573328 420.862912 344 454 344 C 487.137088 344 514 367.0573328 514 395.5 C 514 423.9426672 487.137088 447 454 447 C 420.862912 447 394 423.9426672 394 395.5 Z" stroke-miterlimit="10"/></g><g transform="translate(-126,-158) scale(1,1)"><g><path fill="none" stroke="none"/><text fill="#000000" stroke="none" font-family="Arial" font-size="13px" font-style="normal" font-weight="normal" text-decoration="none" x="415.3427734375" y="369.5">Comparaison</text><text fill="#000000" stroke="none" font-family="Arial" font-size="13px" font-style="normal" font-weight="normal" text-decoration="none" x="432.675048828125" y="382.5">donnes</text><text fill="#000000" stroke="none" font-family="Arial" font-size="13px" font-style="normal" font-weight="normal" text-decoration="none" x="418.58642578125" y="395.5">gestionnaire</text><text fill="#000000" stroke="none" font-family="Arial" font-size="13px" font-style="normal" font-weight="normal" text-decoration="none" x="425.089599609375" y="408.5">- donnees</text><text fill="#000000" stroke="none" font-family="Arial" font-size="13px" font-style="normal" font-weight="normal" text-decoration="none" x="427.984130859375" y="421.5">existante</text><text fill="#000000" stroke="none" font-family="Arial" font-size="13px" font-style="normal" font-weight="normal" text-decoration="none" x="430.148681640625" y="434.5">en Base</text></g></g><g transform="translate(-126,-158) scale(1,1)"><path fill="none" stroke="#000000" d="M 456 315 L 456 344" stroke-miterlimit="10"/></g><g transform="translate(-126,-158) scale(1,1)"><path fill="#000000" stroke="none" d="M 451.790482243984 333.83732514237585 L 456 344 L 460.209517756016 333.83732514237585"/></g><g transform="translate(-126,-158) scale(1,1)"><path fill="none" stroke="#000000" d="M 451.790482243984 333.83732514237585 L 456 344 L 460.209517756016 333.83732514237585 L 451.790482243984 333.83732514237585" stroke-miterlimit="10"/></g><g transform="translate(-126,-158) scale(1,1)"><path fill="none" stroke="#000000" d="M 568 397 L 514 397" stroke-miterlimit="10"/></g><g transform="translate(-126,-158) scale(1,1)"><path fill="#000000" stroke="none" d="M 524.1626748576241 392.790482243984 L 514 397 L 524.1626748576241 401.209517756016"/></g><g transform="translate(-126,-158) scale(1,1)"><path fill="none" stroke="#000000" d="M 524.1626748576241 392.790482243984 L 514 397 L 524.1626748576241 401.209517756016 L 524.1626748576241 392.790482243984" stroke-miterlimit="10"/></g><g transform="translate(-126,-158) scale(1,1)"><path fill="none" stroke="#000000" d="M 448 447 L 448 464" stroke-miterlimit="10"/></g><g transform="translate(-126,-158) scale(1,1)"><path fill="#000000" stroke="none" d="M 443.790482243984 453.83732514237585 L 448 464 L 452.209517756016 453.83732514237585"/></g><g transform="translate(-126,-158) scale(1,1)"><path fill="none" stroke="#000000" d="M 443.790482243984 453.83732514237585 L 448 464 L 452.209517756016 453.83732514237585 L 443.790482243984 453.83732514237585" stroke-miterlimit="10"/></g><g transform="translate(-126,-158) scale(1,1)"><path fill="#cce18d" stroke="none" d="M 392 489.5 L 448.58447265625 464 L 505.1689453125 489.5 L 448.58447265625 515 L 392 489.5"/></g><g transform="translate(-126,-158) scale(1,1)"><path fill="none" stroke="#000000" d="M 392 489.5 L 448.58447265625 464 L 505.1689453125 489.5 L 448.58447265625 515 L 392 489.5 L 392 489.5" stroke-miterlimit="10"/></g><g transform="translate(-126,-158) scale(1,1)"><g><path fill="none" stroke="none"/><text fill="#000000" stroke="none" font-family="Arial" font-size="13px" font-style="normal" font-weight="normal" text-decoration="none" x="422.200439453125" y="489.5">doublons</text><text fill="#000000" stroke="none" font-family="Arial" font-size="13px" font-style="normal" font-weight="normal" text-decoration="none" x="444.969482421875" y="502.5">?</text></g></g><g transform="translate(-126,-158) scale(1,1)"><rect fill="#fff07c" stroke="none" x="600" y="440" width="91.26806640625" height="87"/></g><g transform="translate(-126,-158) scale(1,1)"><path fill="none" stroke="#000000" d="M 600 440 L 691.26806640625 440 L 691.26806640625 527 L 600 527 L 600 440 Z Z" stroke-miterlimit="10"/></g><g transform="translate(-126,-158) scale(1,1)"><g><path fill="none" stroke="none"/><text fill="#000000" stroke="none" font-family="Arial" font-size="13px" font-style="normal" font-weight="normal" text-decoration="none" x="609.5" y="462.5">identification</text><text fill="#000000" stroke="none" font-family="Arial" font-size="13px" font-style="normal" font-weight="normal" text-decoration="none" x="638.404052734375" y="475.5">du</text><text fill="#000000" stroke="none" font-family="Arial" font-size="13px" font-style="normal" font-weight="normal" text-decoration="none" x="617.088623046875" y="488.5">comptage</text><text fill="#000000" stroke="none" font-family="Arial" font-size="13px" font-style="normal" font-weight="normal" text-decoration="none" x="638.404052734375" y="501.5">de</text><text fill="#000000" stroke="none" font-family="Arial" font-size="13px" font-style="normal" font-weight="normal" text-decoration="none" x="618.174072265625" y="514.5">référence</text></g></g><g transform="translate(-126,-158) scale(1,1)"><path fill="none" stroke="#000000" d="M 505 488 L 600 488" stroke-miterlimit="10"/></g><g transform="translate(-126,-158) scale(1,1)"><path fill="#000000" stroke="none" d="M 589.8373251423759 492.209517756016 L 600 488 L 589.8373251423758 483.790482243984"/></g><g transform="translate(-126,-158) scale(1,1)"><path fill="none" stroke="#000000" d="M 589.8373251423759 492.209517756016 L 600 488 L 589.8373251423758 483.790482243984 L 589.8373251423759 492.209517756016" stroke-miterlimit="10"/></g><g transform="translate(-126,-158) scale(1,1)"><g><path fill="none" stroke="none"/><text fill="#000000" stroke="none" font-family="Arial" font-size="13px" font-style="normal" font-weight="normal" text-decoration="none" x="541.5" y="479.5">Oui</text></g></g><g transform="translate(-126,-158) scale(1,1)"><path fill="#ffffff" stroke="none" d="M 136 400 L 333.22802734375 400 L 343.22802734375 410 L 343.22802734375 475 L 136 475 L 136 400"/></g><g transform="translate(-126,-158) scale(1,1)"><path fill="none" stroke="#000000" d="M 136 400 L 333.22802734375 400 L 343.22802734375 410 L 343.22802734375 475 L 136 475 L 136 400 L 136 400" stroke-miterlimit="10"/></g><g transform="translate(-126,-158) scale(1,1)"><path fill="none" stroke="#000000" d="M 333.22802734375 400 L 333.22802734375 410 L 343.22802734375 410 L 333.22802734375 400" stroke-miterlimit="10"/></g><g transform="translate(-126,-158) scale(1,1)"><g><path fill="none" stroke="none"/><text fill="#000000" stroke="none" font-family="Arial" font-size="13px" font-style="normal" font-weight="normal" text-decoration="none" x="141" y="418">le doublons peut venir d'un</text><text fill="#000000" stroke="none" font-family="Arial" font-size="13px" font-style="normal" font-weight="normal" text-decoration="none" x="141" y="431">comptage de référence fourni</text><text fill="#000000" stroke="none" font-family="Arial" font-size="13px" font-style="normal" font-weight="normal" text-decoration="none" x="141" y="444">avec un autre comptage pour</text><text fill="#000000" stroke="none" font-family="Arial" font-size="13px" font-style="normal" font-weight="normal" text-decoration="none" x="141" y="457">lequel il y a une correspondance</text><text fill="#000000" stroke="none" font-family="Arial" font-size="13px" font-style="normal" font-weight="normal" text-decoration="none" x="141" y="470">d'id_comptag</text></g></g><g transform="translate(-126,-158) scale(1,1)"><path fill="none" stroke="#000000" d="M 345 464 L 391 475" stroke-miterlimit="10" stroke-dasharray="3"/></g><g transform="translate(-126,-158) scale(1,1)"><path fill="#ffffff" stroke="none" d="M 572.3271484375 168 L 660.3271484375 168 L 670.3271484375 178 L 670.3271484375 217 L 572.3271484375 217 L 572.3271484375 168"/></g><g transform="translate(-126,-158) scale(1,1)"><path fill="none" stroke="#000000" d="M 572.3271484375 168 L 660.3271484375 168 L 670.3271484375 178 L 670.3271484375 217 L 572.3271484375 217 L 572.3271484375 168 L 572.3271484375 168" stroke-miterlimit="10"/></g><g transform="translate(-126,-158) scale(1,1)"><path fill="none" stroke="#000000" d="M 660.3271484375 168 L 660.3271484375 178 L 670.3271484375 178 L 660.3271484375 168" stroke-miterlimit="10"/></g><g transform="translate(-126,-158) scale(1,1)"><g><path fill="none" stroke="none"/><text fill="#000000" stroke="none" font-family="Arial" font-size="13px" font-style="normal" font-weight="normal" text-decoration="none" x="577.3271484375" y="186">Issu du</text><text fill="#000000" stroke="none" font-family="Arial" font-size="13px" font-style="normal" font-weight="normal" text-decoration="none" x="577.3271484375" y="199">formatage des</text><text fill="#000000" stroke="none" font-family="Arial" font-size="13px" font-style="normal" font-weight="normal" text-decoration="none" x="577.3271484375" y="212">donnees</text></g></g><g transform="translate(-126,-158) scale(1,1)"><path fill="none" stroke="#000000" d="M 503 191 L 571 192" stroke-miterlimit="10" stroke-dasharray="3"/></g><g transform="translate(-126,-158) scale(1,1)"><path fill="#dee7fe" stroke="none" d="M 692 552 L 831 552 L 803 636 L 664 636 L 692 552"/></g><g transform="translate(-126,-158) scale(1,1)"><path fill="none" stroke="#000000" d="M 692 552 L 831 552 L 803 636 L 664 636 L 692 552 L 692 552" stroke-miterlimit="10"/></g><g transform="translate(-126,-158) scale(1,1)"><g><path fill="none" stroke="none"/><text fill="#000000" stroke="none" font-family="Arial" font-size="13px" font-style="normal" font-weight="normal" text-decoration="none" x="708.474609375" y="574.5">Comptage de</text><text fill="#000000" stroke="none" font-family="Arial" font-size="13px" font-style="normal" font-weight="normal" text-decoration="none" x="720.0400390625" y="587.5">référence</text><text fill="#000000" stroke="none" font-family="Arial" font-size="13px" font-style="normal" font-weight="normal" text-decoration="none" x="715.339599609375" y="600.5">interne aux</text><text fill="#000000" stroke="none" font-family="Arial" font-size="13px" font-style="normal" font-weight="normal" text-decoration="none" x="722.56005859375" y="613.5">données</text><text fill="#000000" stroke="none" font-family="Arial" font-size="13px" font-style="normal" font-weight="normal" text-decoration="none" x="712.08642578125" y="626.5">gestionnaire</text></g></g><g transform="translate(-126,-158) scale(1,1)"><path fill="#dee7fe" stroke="none" d="M 505 560 L 594.5908203125 560 L 577.5908203125 657 L 488 657 L 505 560"/></g><g transform="translate(-126,-158) scale(1,1)"><path fill="none" stroke="#000000" d="M 505 560 L 594.5908203125 560 L 577.5908203125 657 L 488 657 L 505 560 L 505 560" stroke-miterlimit="10"/></g><g transform="translate(-126,-158) scale(1,1)"><g><path fill="none" stroke="none"/><text fill="#000000" stroke="none" font-family="Arial" font-size="13px" font-style="normal" font-weight="normal" text-decoration="none" x="509.5" y="576">comptages</text><text fill="#000000" stroke="none" font-family="Arial" font-size="13px" font-style="normal" font-weight="normal" text-decoration="none" x="516.00634765625" y="589">associés</text><text fill="#000000" stroke="none" font-family="Arial" font-size="13px" font-style="normal" font-weight="normal" text-decoration="none" x="521.4208984375" y="602">interne</text><text fill="#000000" stroke="none" font-family="Arial" font-size="13px" font-style="normal" font-weight="normal" text-decoration="none" x="530.8154296875" y="615">aux</text><text fill="#000000" stroke="none" font-family="Arial" font-size="13px" font-style="normal" font-weight="normal" text-decoration="none" x="516.35546875" y="628">données</text><text fill="#000000" stroke="none" font-family="Arial" font-size="13px" font-style="normal" font-weight="normal" text-decoration="none" x="502.6318359375" y="641">gestionnaires</text></g></g><g transform="translate(-126,-158) scale(1,1)"><path fill="none" stroke="#000000" d="M 642 527 L 642 552 M 642 552 A 8 8 0 0 1 634 560 L 595 560" stroke-miterlimit="10"/></g><g transform="translate(-126,-158) scale(1,1)"><path fill="#000000" stroke="none" d="M 605.1626748576241 555.790482243984 L 595 560 L 605.1626748576241 564.209517756016"/></g><g transform="translate(-126,-158) scale(1,1)"><path fill="none" stroke="#000000" d="M 605.1626748576241 555.790482243984 L 595 560 L 605.1626748576241 564.209517756016 L 605.1626748576241 555.790482243984" stroke-miterlimit="10"/></g><g transform="translate(-126,-158) scale(1,1)"><path fill="none" stroke="#000000" d="M 640 527 L 640 560 M 640 560 A 8 8 0 0 0 648 568 L 664 568" stroke-miterlimit="10"/></g><g transform="translate(-126,-158) scale(1,1)"><path fill="#000000" stroke="none" d="M 653.8373251423759 572.209517756016 L 664 568 L 653.8373251423758 563.790482243984"/></g><g transform="translate(-126,-158) scale(1,1)"><path fill="none" stroke="#000000" d="M 653.8373251423759 572.209517756016 L 664 568 L 653.8373251423758 563.790482243984 L 653.8373251423759 572.209517756016" stroke-miterlimit="10"/></g><g transform="translate(-126,-158) scale(1,1)"><path fill="#cce18d" stroke="none" d="M 384 747.5 L 443.5 696 L 503 747.5 L 443.5 799 L 384 747.5"/></g><g transform="translate(-126,-158) scale(1,1)"><path fill="none" stroke="#000000" d="M 384 747.5 L 443.5 696 L 503 747.5 L 443.5 799 L 384 747.5 L 384 747.5" stroke-miterlimit="10"/></g><g transform="translate(-126,-158) scale(1,1)"><g><path fill="none" stroke="none"/><text fill="#000000" stroke="none" font-family="Arial" font-size="13px" font-style="normal" font-weight="normal" text-decoration="none" x="416.405029296875" y="734.5">compteur</text><text fill="#000000" stroke="none" font-family="Arial" font-size="13px" font-style="normal" font-weight="normal" text-decoration="none" x="425.7900390625" y="747.5">connu</text><text fill="#000000" stroke="none" font-family="Arial" font-size="13px" font-style="normal" font-weight="normal" text-decoration="none" x="422.5400390625" y="760.5">dans la</text><text fill="#000000" stroke="none" font-family="Arial" font-size="13px" font-style="normal" font-weight="normal" text-decoration="none" x="429.7763671875" y="773.5">BDD</text></g></g><g transform="translate(-126,-158) scale(1,1)"><path fill="#9acef6" stroke="none" d="M 236 720 L 259 720 Q 295 720 295 756 L 295 755 Q 295 791 259 791 L 236 791 Q 200 791 200 755 L 200 756 Q 200 720 236 720 Z"/></g><g transform="translate(-126,-158) scale(1,1)"><path fill="none" stroke="#000000" d="M 236 720 L 259 720 Q 295 720 295 756 L 295 755 Q 295 791 259 791 L 236 791 Q 200 791 200 755 L 200 756 Q 200 720 236 720 Z" stroke-miterlimit="10"/></g><g transform="translate(-126,-158) scale(1,1)"><g><path fill="none" stroke="none"/><text fill="#000000" stroke="none" font-family="Arial" font-size="13px" font-style="normal" font-weight="normal" text-decoration="none" x="215.339599609375" y="742.5">création de</text><text fill="#000000" stroke="none" font-family="Arial" font-size="13px" font-style="normal" font-weight="normal" text-decoration="none" x="215.70458984375" y="755.5">comptages</text><text fill="#000000" stroke="none" font-family="Arial" font-size="13px" font-style="normal" font-weight="normal" text-decoration="none" x="242.0791015625" y="768.5">et</text><text fill="#000000" stroke="none" font-family="Arial" font-size="13px" font-style="normal" font-weight="normal" text-decoration="none" x="216.06640625" y="781.5">indicateurs</text></g></g><g transform="translate(-126,-158) scale(1,1)"><path fill="none" stroke="#000000" d="M 447 515 L 447 696" stroke-miterlimit="10"/></g><g transform="translate(-126,-158) scale(1,1)"><path fill="#000000" stroke="none" d="M 442.790482243984 685.8373251423759 L 447 696 L 451.209517756016 685.8373251423759"/></g><g transform="translate(-126,-158) scale(1,1)"><path fill="none" stroke="#000000" d="M 442.790482243984 685.8373251423759 L 447 696 L 451.209517756016 685.8373251423759 L 442.790482243984 685.8373251423759" stroke-miterlimit="10"/></g><g transform="translate(-126,-158) scale(1,1)"><g><path fill="none" stroke="none"/><text fill="#000000" stroke="none" font-family="Arial" font-size="13px" font-style="normal" font-weight="normal" text-decoration="none" x="407.5" y="571.5">Non</text></g></g><g transform="translate(-126,-158) scale(1,1)"><path fill="none" stroke="#000000" d="M 664 636 L 664 736 M 664 736 A 8 8 0 0 1 656 744 L 503 744" stroke-miterlimit="10"/></g><g transform="translate(-126,-158) scale(1,1)"><path fill="#000000" stroke="none" d="M 513.1626748576241 739.790482243984 L 503 744 L 513.1626748576241 748.209517756016"/></g><g transform="translate(-126,-158) scale(1,1)"><path fill="none" stroke="#000000" d="M 513.1626748576241 739.790482243984 L 503 744 L 513.1626748576241 748.209517756016 L 513.1626748576241 739.790482243984" stroke-miterlimit="10"/></g><g transform="translate(-126,-158) scale(1,1)"><path fill="none" stroke="#000000" d="M 384 753 L 295 753" stroke-miterlimit="10"/></g><g transform="translate(-126,-158) scale(1,1)"><path fill="#000000" stroke="none" d="M 305.16267485762415 748.790482243984 L 295 753 L 305.16267485762415 757.209517756016"/></g><g transform="translate(-126,-158) scale(1,1)"><path fill="none" stroke="#000000" d="M 305.16267485762415 748.790482243984 L 295 753 L 305.16267485762415 757.209517756016 L 305.16267485762415 748.790482243984" stroke-miterlimit="10"/></g><g transform="translate(-126,-158) scale(1,1)"><g><path fill="none" stroke="none"/><text fill="#000000" stroke="none" font-family="Arial" font-size="13px" font-style="normal" font-weight="normal" text-decoration="none" x="327.5" y="774.5">Oui</text></g></g><g transform="translate(-126,-158) scale(1,1)"><path fill="#9acef6" stroke="none" d="M 234.5 568 L 237.13720703125 568 Q 279.63720703125 568 279.63720703125 610.5 L 279.63720703125 609.5 Q 279.63720703125 652 237.13720703125 652 L 234.5 652 Q 192 652 192 609.5 L 192 610.5 Q 192 568 234.5 568 Z"/></g><g transform="translate(-126,-158) scale(1,1)"><path fill="none" stroke="#000000" d="M 234.5 568 L 237.13720703125 568 Q 279.63720703125 568 279.63720703125 610.5 L 279.63720703125 609.5 Q 279.63720703125 652 237.13720703125 652 L 234.5 652 Q 192 652 192 609.5 L 192 610.5 Q 192 568 234.5 568 Z" stroke-miterlimit="10"/></g><g transform="translate(-126,-158) scale(1,1)"><g><path fill="none" stroke="none"/><text fill="#000000" stroke="none" font-family="Arial" font-size="13px" font-style="normal" font-weight="normal" text-decoration="none" x="202.5791015625" y="590.5">Comptages</text><text fill="#000000" stroke="none" font-family="Arial" font-size="13px" font-style="normal" font-weight="normal" text-decoration="none" x="210.529541015625" y="603.5">associés</text><text fill="#000000" stroke="none" font-family="Arial" font-size="13px" font-style="normal" font-weight="normal" text-decoration="none" x="210.523193359375" y="616.5">interne a</text><text fill="#000000" stroke="none" font-family="Arial" font-size="13px" font-style="normal" font-weight="normal" text-decoration="none" x="208.003173828125" y="629.5">traiter par</text><text fill="#000000" stroke="none" font-family="Arial" font-size="13px" font-style="normal" font-weight="normal" text-decoration="none" x="215.2236328125" y="642.5">la suite</text></g></g><g transform="translate(-126,-158) scale(1,1)"><path fill="none" stroke="#000000" d="M 488 610 L 280 610" stroke-miterlimit="10"/></g><g transform="translate(-126,-158) scale(1,1)"><path fill="#000000" stroke="none" d="M 290.16267485762415 605.790482243984 L 280 610 L 290.16267485762415 614.209517756016"/></g><g transform="translate(-126,-158) scale(1,1)"><path fill="none" stroke="#000000" d="M 290.16267485762415 605.790482243984 L 280 610 L 290.16267485762415 614.209517756016 L 290.16267485762415 605.790482243984" stroke-miterlimit="10"/></g><g transform="translate(-126,-158) scale(1,1)"><path fill="#9acef6" stroke="none" d="M 413.5 840 L 481.5 840 Q 511 840 511 869.5 L 511 868.5 Q 511 898 481.5 898 L 413.5 898 Q 384 898 384 868.5 L 384 869.5 Q 384 840 413.5 840 Z"/></g><g transform="translate(-126,-158) scale(1,1)"><path fill="none" stroke="#000000" d="M 413.5 840 L 481.5 840 Q 511 840 511 869.5 L 511 868.5 Q 511 898 481.5 898 L 413.5 898 Q 384 898 384 868.5 L 384 869.5 Q 384 840 413.5 840 Z" stroke-miterlimit="10"/></g><g transform="translate(-126,-158) scale(1,1)"><g><path fill="none" stroke="none"/><text fill="#000000" stroke="none" font-family="Arial" font-size="13px" font-style="normal" font-weight="normal" text-decoration="none" x="415.7109375" y="862.5">Compteurs</text><text fill="#000000" stroke="none" font-family="Arial" font-size="13px" font-style="normal" font-weight="normal" text-decoration="none" x="405.580078125" y="875.5">inconnus de la</text><text fill="#000000" stroke="none" font-family="Arial" font-size="13px" font-style="normal" font-weight="normal" text-decoration="none" x="405.595947265625" y="888.5">BDD à ventiler</text></g></g><g transform="translate(-126,-158) scale(1,1)"><path fill="none" stroke="#000000" d="M 440 799 L 440 840" stroke-miterlimit="10"/></g><g transform="translate(-126,-158) scale(1,1)"><path fill="#000000" stroke="none" d="M 435.790482243984 829.8373251423759 L 440 840 L 444.209517756016 829.8373251423759"/></g><g transform="translate(-126,-158) scale(1,1)"><path fill="none" stroke="#000000" d="M 435.790482243984 829.8373251423759 L 440 840 L 444.209517756016 829.8373251423759 L 435.790482243984 829.8373251423759" stroke-miterlimit="10"/></g><g transform="translate(-126,-158) scale(1,1)"><g><path fill="none" stroke="none"/><text fill="#000000" stroke="none" font-family="Arial" font-size="13px" font-style="normal" font-weight="normal" text-decoration="none" x="447.5" y="824.5">Non</text></g></g></g></svg>